<?xml version="1.0" standalone="no"?>
<!DOCTYPE svg PUBLIC "-//W3C//DTD SVG 1.1//EN" "http://www.w3.org/Graphics/SVG/1.1/DTD/svg11.dtd" >
<svg xmlns="http://www.w3.org/2000/svg">
<metadata>
This is a custom SVG webfont generated by Font Squirrel.
Copyright   : Copyright c Manfred Klein 032005
</metadata>
<defs>
<font id="webfontmLbOh7oJ" horiz-adv-x="1130" >
<font-face units-per-em="2048" ascent="1638" descent="-410" />
<missing-glyph horiz-adv-x="512" />
<glyph unicode="&#xd;" horiz-adv-x="512" d="M526 -33v158h-166v876h-342v-157h170v-719h-170v-158h508z" />
<glyph horiz-adv-x="681" d="M682 1403h-152q-23 -47 -43 -73.5t-43 -41.5q-47 -31 -102 -31q-57 0 -102 31q-23 16 -44.5 42t-43.5 73h-154q33 -92 66.5 -145.5t78.5 -88.5q88 -74 199 -73q106 0 197 73q45 35 78.5 88.5t64.5 145.5z" />
<glyph horiz-adv-x="681" d="M440 1155v197h-196v-197h196z" />
<glyph horiz-adv-x="681" d="M561 1253q0 90 -65.5 156t-155.5 66t-156 -66q-63 -63 -63 -156q0 -92 63 -155q66 -66 156 -66t155.5 65.5t65.5 155.5zM434 1253q0 -41 -26.5 -67.5t-67.5 -26.5q-39 0 -65.5 26.5t-26.5 67.5t26.5 68t65.5 27q41 0 67.5 -27t26.5 -68z" />
<glyph unicode="&#xa;" horiz-adv-x="681" d="M877 1448h-201l-246 -383h154zM641 1448h-199l-245 -383h153z" />
<glyph horiz-adv-x="681" d="M551 -338v152q-53 -20 -75.5 -26.5l-35.5 -10.5q-10 -2 -23.5 -3t-29.5 -1q-35 0 -68 22q-25 18 -24 60q0 33 18 63l12.5 17.5t18.5 21.5l32 31q19 18 50 45h-184q-25 -20 -42.5 -40t-33.5 -44q-35 -51 -35 -113q0 -104 80 -166q76 -59 178 -59q47 0 81 11t81 40z" />
<glyph horiz-adv-x="681" d="M713 1438h-154l-219 -201l-217 201h-154l295 -363h152z" />
<glyph horiz-adv-x="704" d="M944 1423h-151l-1029 -1456h152z" />
<glyph horiz-adv-x="1110" d="M1006 1331q0 49 -35 80q-31 35 -80 35t-80 -35q-35 -35 -35 -82q0 -49 35 -80q31 -35 80 -35t80 35q35 35 35 82zM1116 -33v158h-145v876h-490h-28h-111v162q0 53 19.5 89t78.5 36q39 0 64 -20q10 -10 21.5 -32t23.5 -69l156 25q-10 68 -31 109.5t-53 74.5 q-70 70 -179 70q-119 0 -196 -84q-76 -84 -76 -219v-142h-150v-157h150v-719h-156v-158h469v158h-141v719h111h28h318v-719h-152v-158h469z" />
<glyph horiz-adv-x="1110" d="M1116 -33v158h-147v1298h-414q-43 23 -111 23q-121 0 -198 -84q-76 -84 -76 -219v-142h-156v-157h156v-719h-156v-158h469v158h-141v719h158v157h-158v162q0 53 19.5 89t78.5 36q47 0 69.5 -30.5t39.5 -90.5l158 25q-4 25 -10 42l-9 32h109v-1141h-150v-158h469z" />
<glyph horiz-adv-x="1044" d="M1053 -33v619h-176v-461h-508v590l280 229v176l-280 -229v375h186v157h-553v-157h186v-523l-221 -180v-176l221 180v-442h-188v-158h1053z" />
<glyph horiz-adv-x="491" d="M557 872v166l-225 -184v569h-348v-157h176v-551l-223 -183v-165l223 182v-424h-174v-158h520v158h-174v563z" />
<glyph d="M938 1853h-154l-219 -200l-217 200h-153l294 -362h152zM1100 -33v424h-160v-266h-684l823 1165v133h-1011v-157h125h651l-821 -1164v-135h1077z" />
<glyph horiz-adv-x="980" d="M862 1438h-153l-220 -201l-217 201h-153l295 -363h151zM926 866v135h-817v-157h116h477l-643 -740v-137h865v420h-152v-262h-491z" />
<glyph unicode=" "  horiz-adv-x="512" />
<glyph unicode="&#x09;" horiz-adv-x="512" />
<glyph unicode="&#xa0;" horiz-adv-x="512" />
<glyph unicode="!" horiz-adv-x="512" d="M342 1423h-172v-469l27 -618h118l27 612v475zM346 -33v176h-180v-176h180z" />
<glyph unicode="&#x22;" horiz-adv-x="575" d="M539 1196v250h-181v-248l33 -289h115zM219 1196v250h-180v-248l33 -289h114z" />
<glyph unicode="#" horiz-adv-x="1368" d="M1235 397v158h-262l67 332h195v157h-160l86 418h-164l-86 -418h-317l86 418h-164l-86 -418h-295v-157h260l-67 -332h-193v-158h160l-86 -415h164l86 415h317l-86 -415h164l86 415h295zM877 887l-68 -332h-317l67 332h318z" />
<glyph unicode="$" horiz-adv-x="1044" d="M1020 346q0 170 -100 287q-84 92 -302 145v445q59 -18 101 -62q35 -37 55.5 -93t22.5 -150h166q-6 141 -41 230t-101 142q-96 74 -203 94v62h-159v-62q-135 -18 -236 -94q-133 -104 -133 -256q0 -162 98 -266q84 -86 271 -131v-526q-51 10 -92 28.5t-82 59.5l-119 -119 q66 -59 136.5 -89t156.5 -40v-158h159v160q154 18 261 106q141 113 141 287zM459 813q-84 27 -131 64q-63 53 -64 157q0 88 72 142q49 39 123 55v-418zM856 358q0 -111 -86 -184q-31 -27 -67.5 -44t-84.5 -24v498q123 -33 168 -78q70 -64 70 -168z" />
<glyph unicode="%" horiz-adv-x="1728" d="M1692 362q0 188 -74 295q-80 111 -236 111q-154 0 -233 -111q-76 -109 -76 -295q0 -92 17.5 -166.5t56.5 -127.5q41 -57 100.5 -84t134.5 -27q92 0 151.5 34t94.5 91t49.5 129.5t14.5 150.5zM1450 1423h-117h-16h-848q-57 23 -125 23q-156 0 -233 -111q-76 -106 -76 -293 q0 -92 17.5 -166.5t56.5 -127.5q41 -57 100 -84t137 -27q76 0 135.5 26.5t98.5 84.5q39 53 56 127.5t17 166.5q0 70 -14 149t-59 142h657l-963 -1366h150zM1544 362q0 -72 -11 -126t-32 -91q-37 -66 -117 -65q-78 0 -116 65q-20 35 -31.5 89.5t-11.5 125.5q0 72 11 125.5 t32 92.5q39 68 114 67q78 0 119 -67q20 -35 31.5 -89.5t11.5 -126.5zM506 1042q0 -72 -11.5 -126t-31.5 -91q-37 -66 -117 -65q-78 0 -117 67q-20 35 -31.5 88.5t-11.5 124.5q0 72 11.5 125.5t31.5 89.5q39 68 117 68t117 -68q20 -35 31.5 -88t11.5 -125z" />
<glyph unicode="&#x26;" horiz-adv-x="1429" d="M1380 573v158h-295q-16 -78 -32.5 -137t-38.5 -113q-25 -63 -51 -106l-295 405q117 47 202 113q127 98 127 242q0 135 -104 225q-104 86 -244 86q-143 0 -252 -90q-109 -92 -108 -232q0 -90 67 -188l32 -46l30 -42q-145 -59 -234 -150q-57 -57 -83.5 -129.5t-26.5 -158.5 q0 -176 129 -318q127 -145 358 -145q115 0 238 53q82 39 153 111l105 -144l186 6l-180 265q47 61 80 131q43 88 74 204h163zM838 1137q0 -78 -78 -136q-70 -51 -185 -90q-14 18 -29 41l-34 49q-29 45 -42 77t-13 55q0 74 55 114q57 43 133 43q82 0 139 -45q54 -40 54 -108z M856 244q-68 -66 -117 -92q-76 -39 -164 -39q-137 0 -229 92t-92 225q0 94 74 172q31 33 77 62.5t107 54.5z" />
<glyph unicode="'" horiz-adv-x="448" d="M315 1196v250h-180v-248l33 -289h115z" />
<glyph unicode="(" horiz-adv-x="724" d="M707 -463v158q-113 66 -184.5 143.5t-114.5 173.5q-86 190 -86 477t86 478q43 96 114.5 174t184.5 143v158q-166 -74 -269.5 -168t-167.5 -217q-123 -246 -123 -568t123 -567q63 -123 167 -217t270 -168z" />
<glyph unicode=")" horiz-adv-x="724" d="M578 489q0 322 -123 568q-63 123 -167 217t-270 168v-158q113 -66 184.5 -143.5t114.5 -173.5q86 -190 86 -478q0 -287 -86 -477q-43 -96 -114.5 -174t-184.5 -143v-158q166 74 269.5 168t167.5 217q123 245 123 567z" />
<glyph unicode="*" horiz-adv-x="1003" d="M965 1018l-58 178q-92 -29 -140 -47.5t-58 -28.5q2 0 -146 -69q10 82 15.5 118.5t5.5 38.5q8 16 10 67.5t2 147.5h-188q0 -96 2 -147t10 -68q0 -2 5 -38.5t15 -118.5q-147 70 -145 69q-10 10 -58.5 28.5t-140.5 47.5l-57 -178q86 -29 134 -42t69 -13q10 0 49 -6.5 t110 -22.5l-77 -86q-25 -27 -27 -29q-12 -4 -46 -43t-93 -121l149 -112q57 76 88 121t31 63q0 2 76 135q76 -133 76 -137q0 -16 30.5 -61.5t87.5 -120.5l150 112q-59 82 -93 121t-46 43q-2 2 -27 29l-78 86q72 16 113 22.5t53 6.5q16 0 63.5 13t133.5 42z" />
<glyph unicode="+" horiz-adv-x="1366" d="M1251 582v155h-491v490h-156v-490h-491v-155h491v-496h156v496h491z" />
<glyph unicode="," horiz-adv-x="512" d="M346 -37v199h-180v-195h49q-2 -47 -5 -73.5t-7 -34.5q-4 -6 -14.5 -8.5t-41.5 -2.5v-141q66 4 101 22.5t57.5 53.5t31.5 80t9 100z" />
<glyph unicode="-" horiz-adv-x="704" d="M664 481v158h-627v-158h627z" />
<glyph unicode="." horiz-adv-x="512" d="M356 -33v197h-180v-197h180z" />
<glyph unicode="/" horiz-adv-x="575" d="M618 1423h-163l-500 -1493h164z" />
<glyph unicode="0" horiz-adv-x="1087" d="M1024 696q0 348 -115 545q-117 205 -364 205q-248 0 -367 -205q-115 -197 -115 -545q0 -346 115 -542q117 -205 365 -205t366 205q115 196 115 542zM854 696q0 -281 -82 -444q-39 -78 -95 -115t-132 -37q-154 0 -230 152q-82 164 -82 444q0 145 20.5 256t61.5 191 q39 78 95.5 114.5t132.5 36.5q154 0 229 -151q41 -80 61.5 -191t20.5 -256z" />
<glyph unicode="1" horiz-adv-x="1087" d="M836 -33v158h-197v1302l-369 -49v-133h197v-1120h-197v-158h566z" />
<glyph unicode="2" horiz-adv-x="1087" d="M965 362h-156v-237h-553q25 119 104 233q94 129 314 265q150 90 217 190q66 96 65 240q0 174 -112 284q-111 109 -295 109q-100 0 -182 -35t-158 -119l110 -112q51 66 105.5 90t126.5 24q100 0 167.5 -67.5t67.5 -173.5q0 -111 -55 -179q-57 -70 -176 -141 q-268 -164 -373 -362q-51 -96 -79.5 -182.5t-24.5 -161.5l4 -60h879z" />
<glyph unicode="3" horiz-adv-x="1087" d="M1001 385q0 164 -92 262q-31 35 -69.5 59.5t-83.5 41.5q63 39 104 96q61 88 62 209q0 170 -113 280q-111 113 -283 113q-178 0 -284 -109q-55 -53 -84 -133t-33 -198h166q2 92 18.5 143t44.5 82q63 63 166 63q106 0 168 -65q63 -70 64 -172q0 -115 -76 -187 q-37 -35 -85 -48t-114 -21l-65 -8v-142l123 2q135 2 219 -71q80 -72 80 -195q0 -125 -84 -205q-82 -82 -218 -82q-68 0 -125 25t-116 84l-123 -105q86 -86 173 -120.5t187 -34.5q102 0 187.5 29.5t150.5 91.5q135 122 135 315z" />
<glyph unicode="4" horiz-adv-x="1087" d="M1028 375v147h-227v914h-142l-598 -928l-77 -129l157 -4h504v-283v-125h322v158h-166v250h227zM645 522h-401l401 637v-637z" />
<glyph unicode="5" horiz-adv-x="1087" d="M1016 451q0 203 -125 335q-127 135 -318 136q-74 0 -143.5 -24t-128.5 -67l41 424h465h127v168h-739l-68 -766q29 -10 41 -15t22 -11q8 -4 18.5 -13.5l39.5 -37.5q47 66 82 99.5t69 51.5q70 39 150 39q133 0 217 -88q82 -88 82 -233q0 -154 -88 -252q-86 -96 -225 -97 q-63 0 -135 28t-126 79l-90 -107q86 -84 169 -117.5t179 -33.5q211 0 351 139q133 140 133 363z" />
<glyph unicode="6" horiz-adv-x="1087" d="M1010 442q0 207 -115 340q-121 133 -303 133q-92 0 -173 -35.5t-149 -95.5q12 217 78 355q76 156 252 155q51 0 93 -20.5t89 -77.5l105 121q-72 70 -143.5 99.5t-153.5 29.5q-236 0 -367 -211q-63 -104 -93 -247.5t-30 -328.5q0 -182 29 -317t90 -221q125 -172 350 -172 q197 0 320 139q121 135 121 354zM842 434q0 -154 -76 -246q-37 -43 -85 -65.5t-114 -22.5q-127 0 -211 115q-88 117 -88 354v23q61 74 140 119q88 53 170 53q121 0 192 -86q72 -88 72 -244z" />
<glyph unicode="7" horiz-adv-x="1087" d="M975 1288v135h-877v-374h160v206h514q-164 -225 -252 -518q-25 -82 -43 -192.5t-30.5 -211t-18.5 -169.5l-6 -70v-127h336v158h-164q6 305 94 596q92 307 287 567z" />
<glyph unicode="8" horiz-adv-x="1087" d="M1032 383q0 135 -74 238q-55 76 -151 116q94 47 138 129t44 187q0 172 -129 282.5t-317 110.5q-195 0 -318 -109q-127 -115 -127 -286q0 -135 74 -228q41 -53 107 -86q-88 -41 -142 -108q-84 -102 -84 -244q0 -190 142 -315q143 -121 350 -121q211 0 348 119 q139 122 139 315zM825 1051q0 -117 -73 -179q-76 -66 -209 -65q-131 0 -207 65q-74 61 -74 175q0 111 78 178q82 70 211 69q119 0 199 -69q75 -68 75 -174zM864 389q0 -133 -88 -209q-86 -80 -233 -80t-234 80q-86 76 -86 211q0 123 84 195q86 74 238 73q143 0 233 -73 q86 -74 86 -197z" />
<glyph unicode="9" horiz-adv-x="1087" d="M985 735q0 182 -28.5 317.5t-90.5 221.5q-123 172 -346 172q-195 0 -321 -139q-123 -141 -123 -357q0 -203 114 -336q119 -135 304 -135q121 0 233 66q47 29 88 63q-8 -111 -26.5 -200t-51.5 -154q-76 -154 -239 -154q-55 0 -98.5 19.5t-90.5 70.5l-106 -114 q72 -70 145.5 -98.5t159.5 -28.5q233 0 358 217q119 211 119 569zM817 801q-68 -78 -141 -119q-88 -51 -166 -51q-121 0 -191 86q-74 86 -73 231q0 164 73 256q74 90 201 90q129 0 213 -110q41 -57 62.5 -145.5t21.5 -213.5v-24z" />
<glyph unicode=":" horiz-adv-x="512" d="M356 745v197h-180v-197h180zM356 -33v197h-180v-197h180z" />
<glyph unicode=";" horiz-adv-x="512" d="M356 745v197h-180v-197h180zM346 -37v199h-180v-195h49q-2 -47 -5 -73.5t-7 -34.5q-4 -6 -14.5 -8.5t-41.5 -2.5v-141q66 4 101 22.5t57.5 53.5t31.5 80t9 100z" />
<glyph unicode="&#x3c;" horiz-adv-x="1366" d="M1251 109v174l-895 372l895 373v174l-1138 -483v-127z" />
<glyph unicode="=" horiz-adv-x="1366" d="M1262 813v156h-1139v-156h1139zM1262 526v156h-1139v-156h1139z" />
<glyph unicode="&#x3e;" horiz-adv-x="1366" d="M1268 592v127l-1139 483v-174l893 -373l-893 -372v-174z" />
<glyph unicode="?" horiz-adv-x="917" d="M864 1036q0 154 -110 281q-115 129 -308 129q-201 0 -311 -123q-53 -61 -79.5 -137t-26.5 -185h161q0 86 17.5 135.5t52.5 84.5q68 68 178 67q115 0 187 -74q72 -76 71 -176q0 -139 -88 -192q-66 -43 -164 -43q-31 0 -82 6l-47 -16l41 -449h111l25 297q172 4 272 118.5 t100 276.5zM498 -33v197h-181v-197h181z" />
<glyph unicode="@" horiz-adv-x="1363" d="M1065 283l-53 94q-59 -31 -140 -49.5t-155 -18.5q-176 0 -328 140q-145 141 -145 356q0 209 141 354.5t334 145.5q178 0 299 -121t121 -277q0 -147 -84 -256q-43 -59 -80 -81.5t-66 -22.5l-2 2v4q0 8 2 14l123 578h-149l-11 -49q-10 12 -23 21t-28 18q-68 37 -127 36 q-174 0 -276 -145q-98 -141 -99 -303q0 -143 78 -223q82 -78 183 -78q86 0 155 47q16 10 29 21l24 22q6 -31 23 -53q10 -16 26.5 -28.5t39.5 -12.5q72 0 136 38t124 109q119 143 118 338q0 209 -153 363q-154 156 -387 155q-246 0 -420 -186q-170 -186 -170 -424 q0 -248 166 -432q168 -186 436 -186q182 0 338 90zM825 905q0 -115 -69 -239q-35 -61 -72 -88t-78 -27q-49 0 -94 39q-20 18 -31.5 48t-11.5 77q0 131 63 233q63 98 160 99q59 0 94 -41q39 -42 39 -101z" />
<glyph unicode="A" horiz-adv-x="1368" d="M1446 -33v158h-182l-400 1141h160v157h-451l-36 -114l-410 -1184h-186v-158h356v125l137 404h516l129 -371h-159v-158h526zM897 653h-408l205 594z" />
<glyph unicode="B" horiz-adv-x="1153" d="M1106 397q0 141 -82 238q-53 68 -143 106q55 35 92 84q63 82 63 209q0 188 -120.5 288.5t-329.5 100.5h-584v-157h178v-1174v-2v-125l406 2q240 0 379 109q141 112 141 321zM856 1038q0 -106 -78 -168q-82 -66 -217 -65h-201v461h220q127 0 204 -62q72 -62 72 -166z M926 389q0 -125 -88 -194q-92 -70 -263 -70h-215v522h220q90 0 153.5 -17.5t106.5 -47.5q86 -62 86 -193z" />
<glyph unicode="C" horiz-adv-x="1536" d="M1513 467l-151 90q-53 -141 -107.5 -223t-117.5 -127q-131 -94 -314 -94q-240 0 -393 163q-156 162 -156 420t152 422q152 162 389 162q168 0 309 -92q70 -45 112 -109.5t62 -165.5h156v387h-160v-49q-88 88 -192 133q-141 61 -283 62q-319 0 -524 -209 q-201 -213 -201 -541q0 -336 201 -542q203 -207 526 -207q227 0 406 116q90 59 159.5 156.5t126.5 247.5z" />
<glyph unicode="D" horiz-adv-x="1449" d="M1386 694q0 324 -190 527q-195 203 -584 202h-628v-157h192v-1174v-125h434q211 0 362.5 54.5t241.5 166.5q172 217 172 506zM1206 694q0 -145 -36.5 -249.5t-108.5 -176.5q-147 -143 -434 -143h-271v1141h267q281 0 432 -148t151 -424z" />
<glyph unicode="E" horiz-adv-x="1236" d="M1178 -33v158h-127h-695v508h578v158h-578v475h662v-246h158v403h-1178v-157h178v-1174v-125h1002z" />
<glyph unicode="F" horiz-adv-x="1087" d="M1122 1018v405h-1124v-157h180v-1141h-180v-158h360v125v545l512 -2v160h-512v471h607v-248h157z" />
<glyph unicode="G" horiz-adv-x="1622" d="M1544 659h-758v-157h568q-35 -176 -170 -277q-154 -113 -357 -112q-256 0 -415 163q-162 166 -162 420q0 260 155.5 422t395.5 162q166 0 311 -92q72 -47 121 -113.5t80 -171.5h149v418h-157v-80q-78 78 -185 131q-154 74 -321 74q-313 0 -520 -213q-209 -215 -209 -537 q0 -164 52 -299t161 -239q211 -211 542 -211q313 0 514 184q102 94 152.5 221t52.5 307z" />
<glyph unicode="H" horiz-adv-x="1409" d="M1399 1266v157h-529v-157h181v-461h-695v493v125h-350v-157h170v-1141h-168v-158h348v125v557h695v-524h-179v-158h359v125v1174h168z" />
<glyph unicode="I" horiz-adv-x="575" d="M389 1462v197h-180v-197h180zM567 -33v158h-176v1173v125h-180v-125v-1173h-174v-158h530z" />
<glyph unicode="J" horiz-adv-x="555" d="M571 1266v157h-587v-157h209v-1377q0 -59 -11.5 -95t-30 -54.5t-57.5 -29.5t-121 -11l-8 -164q117 0 191.5 21.5t122.5 68.5q49 47 71.5 117t22.5 160v1364h198z" />
<glyph unicode="K" horiz-adv-x="1193" d="M1262 -33v158h-168l-562 614l533 527h168v157h-238l-100 -102l-537 -526v471h191v157h-555v-157h184v-1174v-125h373v158h-193v537l535 -592l90 -103h279z" />
<glyph unicode="L" horiz-adv-x="1044" d="M1053 -33v516h-176v-358h-508v1141h2v157h-371v-157h188v-1141h-188v-158h1053z" />
<glyph unicode="M" horiz-adv-x="1748" d="M1745 -33v158h-174v1141h174v157h-414l-454 -1112l-459 1112h-412v-157h180v-1174v-125h328v158h-166v1042l486 -1200h67l490 1198v-1073v-125h354z" />
<glyph unicode="N" horiz-adv-x="1449" d="M1462 1266v157h-342v-125v-1034l-171 265l-171 259l-203 308l-208 327h-379v-157h186v-1174v-125h358v158h-196v1030l786 -1206h160v1317h180z" />
<glyph unicode="O" horiz-adv-x="1599" d="M1536 696q0 322 -209 537q-207 213 -524 213t-524 -213q-209 -215 -209 -537t209 -536q207 -213 524 -213t524 213q209 214 209 536zM1356 696q0 -252 -156 -420q-158 -164 -397 -163q-242 0 -395 166q-158 164 -158 417q0 254 158 418q154 166 395 166q240 0 397 -164 q156 -168 156 -420z" />
<glyph unicode="P" d="M1124 981q0 211 -133 326q-66 59 -157 87.5t-205 28.5h-629v-157h184v-1141h-184v-158h365v125v449h284q213 0 344 118q131 123 131 322zM944 969q0 -137 -82 -201q-43 -35 -105.5 -52.5t-148.5 -17.5h-243v568h243q182 0 258 -70q37 -33 57.5 -88t20.5 -139z" />
<glyph unicode="Q" horiz-adv-x="1599" d="M1536 696q0 322 -209 537q-207 213 -524 213t-524 -213q-209 -215 -209 -537t209 -536q100 -106 245 -162q-27 -10 -52.5 -25.5t-57.5 -42.5l80 -112q39 27 61.5 39t44.5 18q41 14 80 14q25 0 89.5 -23.5t141 -58t150.5 -72.5t115 -65l94 140q-20 12 -57 30l-77 40 q-42 22 -87 42l-84 39q213 43 362 199q209 214 209 536zM1356 696q0 -252 -156 -420q-158 -164 -397 -163q-242 0 -395 166q-158 164 -158 417q0 254 158 418q154 166 395 166q240 0 397 -164q156 -168 156 -420z" />
<glyph unicode="R" horiz-adv-x="1173" d="M1237 -33v158h-190l-252 557q145 39 221 125q84 98 84 250q0 160 -117 264q-115 102 -293 102h-717v-157h205v-1301h180v697h254l314 -695h311zM920 1047q0 -113 -72 -168q-76 -59 -219 -60h-271v447h308q121 0 186 -62q68 -55 68 -157z" />
<glyph unicode="S" horiz-adv-x="1110" d="M1053 365q0 180 -113 286q-55 51 -155.5 94t-241.5 78q-76 16 -134.5 40t-101.5 52q-76 53 -76 154q0 90 72 150q74 61 189 61q76 0 134 -10t105 -45q23 -18 38 -43t24.5 -51.5t13.5 -50t4 -38.5v-59h174l-1 25q-1 25 -5 58.5t-10 70.5t-19 61q-14 33 -29.5 53.5 t-37.5 46.5q-41 43 -80 65.5t-88 45.5q-53 23 -108.5 30t-108.5 7q-182 0 -310 -107q-129 -111 -129 -266q0 -174 111 -272q53 -49 137 -86t195 -66q111 -27 182.5 -55.5t112.5 -58.5q76 -55 75 -158q0 -117 -84 -189q-86 -76 -213 -75q-147 0 -256 96q-104 96 -104 219v82 h-160v-543h160v123q55 -55 123 -88q113 -55 235 -55q201 0 338 119q142 119 142 299z" />
<glyph unicode="T" horiz-adv-x="1173" d="M1188 1083v340h-1172v-503h160v346h336v-1141h-190v-158h370v1299h336v-183h160z" />
<glyph unicode="U" horiz-adv-x="1323" d="M1362 1266v157h-358v-125v-899q0 -145 -80 -215q-41 -35 -102.5 -53t-147.5 -18q-162 0 -244 75q-84 72 -84 215v863h176v157h-534v-157h178v-850q0 -227 135 -348q133 -121 375 -121t375 121q133 125 133 348v850h178z" />
<glyph unicode="V" horiz-adv-x="1343" d="M1423 1266v157h-514v-157h156l-375 -1020l-407 1065l-37 112h-324v-157h191l497 -1313h142l481 1313h190z" />
<glyph unicode="W" horiz-adv-x="1941" d="M2011 1266v157h-514v-157h168l-279 -1002l-284 1043l-33 116h-197l-26 -118l-266 -1039l-299 1041l-31 116h-324v-157h183l393 -1313h143l322 1249l344 -1249h139l379 1313h182z" />
<glyph unicode="X" horiz-adv-x="1343" d="M1362 -33v158h-209l-379 594l344 547h199v157h-533v-157h146l-254 -398l-283 449l-69 106h-314v-157h207l363 -566l-363 -575h-207v-158h555v158h-155l266 426l309 -492l57 -92h320z" />
<glyph unicode="Y" horiz-adv-x="1236" d="M1307 1266v157h-523v-157h154l-303 -478l-342 543h-2l-58 92h-305v-157h195l412 -650v-491h-193v-158h373v125v524l411 650h181z" />
<glyph unicode="Z" d="M1100 -33v424h-160v-266h-684l823 1165v133h-1011v-157h125h651l-821 -1164v-135h1077z" />
<glyph unicode="[" horiz-adv-x="704" d="M707 -444v157h-328v1553h328v157h-500v-1867h500z" />
<glyph unicode="\" horiz-adv-x="575" d="M621 -61l-502 1484h-164l502 -1484h164z" />
<glyph unicode="]" horiz-adv-x="704" d="M500 1423h-502v-157h328l2 -1553h-330v-157h500z" />
<glyph unicode="^" horiz-adv-x="1343" d="M1163 872l-491 592l-492 -592l111 -98l381 457l381 -457z" />
<glyph unicode="_" horiz-adv-x="1024" d="M1057 -483v168h-1090v-168h1090z" />
<glyph unicode="`" horiz-adv-x="681" d="M551 1065l-246 383h-201l293 -383h154z" />
<glyph unicode="a" horiz-adv-x="1044" d="M1057 -33v158h-162v596q0 154 -107 233q-51 39 -122.5 56.5t-163.5 17.5q-41 0 -91.5 -12t-94.5 -25.5t-73 -25.5l-30 -13l49 -123l40 14l61.5 19t69.5 17.5t65 7.5q106 0 170 -41q55 -35 55 -125v-176q-29 14 -56.5 23.5t-56.5 17.5q-80 18 -143 18q-174 0 -285 -92 q-111 -96 -110 -240q0 -127 94 -225q94 -94 240 -94q92 0 190 43q35 16 65.5 33.5t61.5 40.5v-103h334zM723 240q-53 -55 -133 -97q-86 -43 -160 -43q-86 0 -135 50q-49 51 -49 114q0 82 61 137q61 57 178 58q66 0 133 -23q55 -23 105 -49v-147z" />
<glyph unicode="b" horiz-adv-x="1259" d="M1206 502q0 231 -145 377q-147 150 -373 149q-111 0 -217 -55q-72 -35 -127 -103v553h-348v-157h176v-1174v-125h172v133q31 -33 62.5 -57.5t66.5 -40.5q98 -49 205 -49q236 0 383 153q145 152 145 396zM1032 498q0 -174 -96 -283q-98 -109 -250 -109q-145 0 -244 105 q-49 51 -74.5 120.5t-25.5 162.5q0 166 102 274q100 106 246 106q150 0 246 -104q96 -108 96 -272z" />
<glyph unicode="c" horiz-adv-x="1044" d="M1026 281l-147 61q-29 -72 -60 -114t-67 -70q-76 -57 -187 -58q-154 0 -246 105q-94 104 -94 278t92 279q88 104 234 104q102 0 190 -65q39 -31 61.5 -84t26.5 -150h152v373h-154v-12q-37 33 -79 55q-84 45 -197 45q-213 0 -358 -158q-141 -160 -142 -387 q0 -238 142 -391q143 -154 370 -153q154 0 273 81q59 41 105 102t85 159z" />
<glyph unicode="d" horiz-adv-x="1216" d="M1243 -33v158h-176v1298h-172v-125v-428q-59 68 -129 105q-111 53 -219 53q-219 0 -362.5 -155.5t-143.5 -389.5q0 -223 145 -379q147 -152 367 -151q117 0 217 51q68 33 125 94v-131h348zM897 489q0 -168 -96 -276q-98 -106 -248 -107q-145 0 -246 109 q-100 111 -100 268q0 166 98 281q100 111 244 110q143 0 246 -110q102 -113 102 -275z" />
<glyph unicode="e" d="M1096 428q-8 156 -45 263.5t-109 185.5q-141 152 -367 151q-229 0 -378 -154q-147 -158 -148 -391q0 -238 152 -389q150 -156 381 -155q41 0 96 13t106.5 28.5t85.5 28.5l35 14l-43 141q-14 -6 -47 -18.5t-71.5 -24.5t-78.5 -21.5t-67 -9.5q-164 0 -270 111 q-88 88 -107 227h875zM909 586h-680q25 106 88 176q98 111 250 110q143 0 236 -88q77 -79 106 -198z" />
<glyph unicode="f" horiz-adv-x="512" d="M698 1192q-10 68 -30.5 109.5t-53.5 74.5q-70 70 -178 70q-119 0 -196 -84q-76 -84 -76 -219v-142h-150v-157h150v-785h2v-92h360v158h-190v719h190v157h-190v162q0 53 19.5 89t78.5 36q39 0 64 -20q10 -10 21 -32t24 -69z" />
<glyph unicode="g" horiz-adv-x="1216" d="M1264 844v157h-351v-143q-70 82 -139 119q-100 51 -213 51q-215 0 -364.5 -161.5t-149.5 -391.5q0 -223 148 -373q143 -150 364 -149q119 0 229 55q70 37 125 98v-139q0 -143 -92 -219q-96 -78 -250 -78q-23 0 -56.5 5.5l-67 11.5t-61.5 12t-40 10l-39 -153l28 -8 q28 -7 67.5 -16t83.5 -16.5t75 -7.5q229 0 375 127q150 129 149 342v867h179zM913 483q0 -158 -100 -268q-100 -106 -248 -106q-154 0 -248 104q-96 106 -96 270t101 277q98 111 243 110q141 0 246 -112q102 -115 102 -275z" />
<glyph unicode="h" horiz-adv-x="1110" d="M1130 -33v158h-155v616q0 129 -80 209q-80 78 -213 78q-102 0 -211 -45q-35 -16 -66.5 -34.5t-62.5 -41.5v516h-348v-157h176v-1207h4v-92h328v158h-160v592q35 31 73 56.5t83 47.5q90 45 170 45q135 0 135 -137v-637v-125h327z" />
<glyph unicode="i" horiz-adv-x="512" d="M358 1331q0 49 -34 80q-31 35 -80 35t-80 -35q-35 -35 -35 -82q0 -49 35 -80q31 -35 80 -35t80 35q34 35 34 82zM524 -33v158h-166v876h-342v-157h170v-785h2v-92h336z" />
<glyph unicode="j" horiz-adv-x="491" d="M362 1331q0 49 -34 80q-31 35 -80 35t-80 -35q-35 -35 -35 -82q0 -49 35 -80q31 -35 80 -35t80 35q34 35 34 82zM362 -121v1122h-350v-157h178v-938q0 -106 -46 -157q-40 -43 -136 -43q-16 0 -33 1v-158q27 -2 51 -2q73 0 126 19q70 25 116 67q49 45 71.5 106.5 t22.5 139.5z" />
<glyph unicode="k" horiz-adv-x="1067" d="M1126 -33v158h-168l-462 387l487 332h127v157h-174l-60 -42l-151 -103l-193 -132l-188 -128v827h-350v-157h178v-1207h2v-92h348v158h-178v303l528 -461h254z" />
<glyph unicode="l" horiz-adv-x="491" d="M506 -33v158h-174v1298h-348v-157h176v-1174v-125h346z" />
<glyph unicode="m" horiz-adv-x="1728" d="M1733 -33v158h-152v616q0 129 -82 209q-80 78 -215 78q-100 0 -215 -59l-77 -44q-36 -22 -64 -46q-39 78 -107.5 113.5t-154.5 35.5q-100 0 -203 -45q-66 -31 -123 -74v92h-348v-157h176v-752v-125h332v158h-160v592q35 31 73 56.5t81 47.5q90 45 163 45q70 0 99 -32 q16 -16 24 -42t8 -63v-762h173v742q72 68 153 112q88 45 166 45q129 0 129 -137v-637v-125h324z" />
<glyph unicode="n" horiz-adv-x="1087" d="M1114 -33v158h-153v616q0 129 -80 209q-80 78 -211 78q-100 0 -209 -45q-35 -16 -67 -34.5t-62 -41.5v94h-348v-157h176v-752v-125h329v158h-157v592q35 31 72.5 56.5t80.5 47.5q92 45 170 45q133 0 133 -137v-637v-125h326z" />
<glyph unicode="o" d="M1083 483q0 229 -147.5 387t-368.5 158t-368.5 -157.5t-147.5 -387.5q0 -231 148 -387q147 -158 368 -157q221 0 369 157q147 156 147 387zM909 483q0 -168 -96 -276q-98 -106 -246 -107q-147 0 -245 107q-96 109 -97 276q0 168 97 277q98 106 245 106t246 -106 q96 -109 96 -277z" />
<glyph unicode="p" horiz-adv-x="1216" d="M1161 489q0 231 -143 383q-143 156 -361 156q-113 0 -215 -51q-70 -33 -131 -105v129h-336v-157h164v-1186v-125h348v158h-176v397q29 -33 58.5 -57.5t64.5 -40.5q100 -51 217 -51q225 0 369 155q141 155 141 395zM997 483q0 -170 -96 -276q-94 -106 -248 -107 q-147 0 -245 107q-100 106 -101 280q0 174 99 279q94 104 241 104q156 0 252 -106q98 -109 98 -281z" />
<glyph unicode="q" horiz-adv-x="1216" d="M1253 856v158h-352v-137q-55 63 -127 98q-111 53 -215 53q-217 0 -362 -158q-143 -156 -144 -383q0 -242 142 -395q143 -154 374 -153q111 0 217 53q63 31 115 94v-395h-172v-158h344v125v1198h180zM907 487q0 -90 -25.5 -159.5t-74.5 -122.5q-98 -104 -248 -105 q-152 0 -246 106.5t-94 278.5q0 170 98 279q98 106 252 106q145 0 242 -104q47 -53 71.5 -121t24.5 -158z" />
<glyph unicode="r" horiz-adv-x="811" d="M827 848v149l-69 2q-35 0 -75 -2t-80 -8t-77 -16t-67 -25q-23 -12 -43.5 -20t-36.5 -29v102h-356v-157h184v-752v-125h371v158h-199v401q0 92 23.5 143.5t66.5 90.5t113.5 63.5t173.5 24.5h71z" />
<glyph unicode="s" horiz-adv-x="917" d="M870 260q0 129 -75 205q-41 41 -117 67.5t-184 47.5q-150 27 -195 57q-18 14 -28.5 34.5t-10.5 55.5q0 59 45 102q49 45 133 45q100 0 166 -59q33 -29 49.5 -71t20.5 -113h153v342h-155v-27q-49 43 -108.5 62.5t-127.5 19.5q-141 0 -237 -82q-100 -82 -101 -223 q0 -143 92 -211q86 -63 267 -94q158 -27 209 -66q23 -16 34 -39.5t11 -62.5q0 -68 -64 -117q-72 -49 -166 -49q-127 0 -200 68q-35 33 -54.5 82t-21.5 135h-160v-402h160v64q37 -35 86 -58q82 -37 180 -36q180 0 287 86q112 87 112 237z" />
<glyph unicode="t" horiz-adv-x="532" d="M520 -29v160l-149 -25q-18 0 -27.5 4.5t-13.5 8.5q-4 6 -8.5 19.5t-4.5 41.5v664h203v157h-203v220l-172 -2v-218h-172v-157h172v-684q0 -100 52 -158q29 -31 68.5 -44t88.5 -13z" />
<glyph unicode="u" horiz-adv-x="1110" d="M1126 -33v158h-168v876h-172v-124v-607q-61 -61 -149 -108q-92 -47 -174 -47q-127 0 -127 131v755h-342v-157h170v-617q0 -125 76 -200q41 -39 92 -56.5t112 -17.5q113 0 220 47q72 33 122 70v-103h340z" />
<glyph unicode="v" horiz-adv-x="1067" d="M1106 844v157h-270l-43 -112l-248 -674l-234 629h119v157h-467v-157h170l342 -891h143l328 891h160z" />
<glyph unicode="w" horiz-adv-x="1536" d="M1567 844v157h-271l-32 -116l-207 -611l-178 570h96v157h-432v-157h100l-186 -586l-193 629l-33 114h-258v-157h136l276 -891h154l219 766l227 -766h148l288 891h146z" />
<glyph unicode="x" horiz-adv-x="1087" d="M1083 -33v158h-137l-305 375l270 344h148v157h-422v-157h70l-168 -215l-172 215h79v157h-426v-157h142l276 -344l-297 -387l-112 -146h479v158h-156l187 248l256 -314h4l69 -92h215z" />
<glyph unicode="y" horiz-adv-x="1087" d="M1118 844v157h-469v-157h139l-227 -598l-262 643l-43 112h-285v-157h170l336 -817l-176 -494h164l496 1311h157z" />
<glyph unicode="z" horiz-adv-x="980" d="M926 866v135h-817v-157h116h477l-643 -740v-137h865v420h-152v-262h-491z" />
<glyph unicode="{" horiz-adv-x="681" d="M616 -444v161q-72 0 -102.5 9.5t-46.5 25.5q-12 14 -22.5 54t-10.5 116v240q0 156 -59 241q-35 55 -86 86q51 31 86 86q59 86 59 242v240q0 76 10.5 115.5t22.5 54.5q16 16 47 25.5t102 9.5v161h-65q-78 0 -137.5 -22.5t-94.5 -71.5q-61 -90 -61 -213v-280 q0 -125 -41 -195q-18 -31 -51 -47t-100 -16v-177q68 0 100.5 -16t50.5 -47q41 -70 41 -195v-280q0 -125 61 -213q35 -49 94.5 -71.5t137.5 -22.5h65z" />
<glyph unicode="|" horiz-adv-x="1015" d="M594 -492v1915h-172v-1915h172z" />
<glyph unicode="}" horiz-adv-x="681" d="M616 401v177q-68 0 -100.5 16t-50.5 47q-41 70 -41 195v280q0 123 -62 213q-35 49 -94 71.5t-137 22.5h-65v-161q72 0 102.5 -9.5t46.5 -25.5q12 -14 22.5 -54t10.5 -116v-240q0 -156 59 -242q33 -55 86 -86q-53 -31 -86 -86q-59 -86 -59 -241v-240q0 -76 -10.5 -115.5 t-22.5 -54.5q-16 -16 -47 -25.5t-102 -9.5v-161h65q78 0 137.5 22.5t93.5 71.5q61 88 62 213v280q0 125 41 195q18 31 50.5 47t100.5 16z" />
<glyph unicode="~" horiz-adv-x="1343" d="M1241 680l-4 186l-121 -81l-74 -46q-53 -33 -124 -32q-35 0 -90.5 17t-133.5 56q-80 39 -148.5 59.5t-123.5 20.5q-113 0 -195 -51q-39 -23 -68.5 -44.5t-56.5 -43.5v-193q76 59 117 87t74 47q59 33 131 32q35 0 91 -17.5t134 -56t146.5 -59t126.5 -20.5q111 0 192 51 q76 45 127 88z" />
<glyph unicode="&#xa1;" horiz-adv-x="512" d="M346 743v258h-180v-258h180zM342 -455v469l-27 619h-118l-27 -613v-475h172z" />
<glyph unicode="&#xa2;" horiz-adv-x="1044" d="M1026 281l-147 61q-29 -72 -60 -114t-67 -70q-76 -57 -187 -58h-26q-12 0 -23 2l182 711q20 -12 41 -29q41 -29 63.5 -82t26.5 -149h152v434h-154v-74q-39 35 -86 60l111 430h-137l-103 -393q-14 2 -29.5 3t-31.5 1q-215 0 -358 -156q-141 -158 -142 -383 q0 -236 142 -385q61 -66 155 -108l-117 -449h138l106 412q37 -6 88 -6q154 0 273 81q59 41 105 102t85 159zM571 852l-180 -707q-23 12 -40 26.5t-32 31.5q-94 104 -94 272q0 170 92 275q90 102 234 102h20z" />
<glyph unicode="&#xa3;" horiz-adv-x="1067" d="M1063 289v51h-148q-2 -84 -10 -128t-24 -69q-27 -43 -88 -43q-53 0 -111 39q-61 43 -127 105q4 18 6 35l4 32q6 39 6 92q0 51 -8 103.5t-24 101.5h223v158h-279q-18 43 -33 87l-32 89q-31 94 -31 162q0 94 59 141q57 49 150 49q55 0 94 -15t64 -44q27 -31 40 -75t15 -116 h166q-2 109 -26.5 179.5t-76.5 122.5q-102 100 -278 100q-174 0 -277 -100q-100 -100 -100 -248q0 -84 29 -180q20 -63 59 -152h-227v-158h287q10 -25 18 -52.5t18 -55.5q20 -68 21 -135l-2 -23q-33 16 -63.5 25.5t-69.5 9.5q-102 0 -168 -64q-63 -63 -64 -149 q0 -92 61.5 -153.5t155.5 -61.5q70 0 136 43q51 37 92 104q72 -66 133 -100q82 -47 160 -47q123 0 196.5 98.5t73.5 241.5zM389 197q-23 -49 -49 -76q-33 -33 -70 -33q-33 0 -53 21q-20 18 -20 49q0 23 7 35t19 22q29 23 66 23q25 0 53 -13q22 -10 47 -28z" />
<glyph unicode="&#xa4;" horiz-adv-x="1536" d="M1554 467l-151 90q-41 -111 -91 -193.5t-114.5 -138t-146.5 -84t-187 -28.5q-98 0 -180 27.5t-148.5 76.5t-113.5 117.5t-74 150.5h791v156h-822q-2 14 -2 27v28q0 20 1 39t3 37h820v156h-785q55 158 183.5 255t318.5 97q82 0 161 -22.5t145.5 -68.5t112.5 -114.5 t64 -161.5h156v387h-160v-49q-94 94 -217 144.5t-258 50.5q-133 0 -246.5 -38t-202.5 -105.5t-152.5 -163t-94.5 -211.5h-164v-156h137q-2 -18 -2 -37v-39v-28q0 -12 2 -27h-137v-156h160q29 -121 90 -220t151.5 -169.5t206 -109.5t254.5 -39q260 0 427 133t265 387z" />
<glyph unicode="&#x20ac;" horiz-adv-x="1536" d="M1554 467l-151 90q-41 -111 -91 -193.5t-114.5 -138t-146.5 -84t-187 -28.5q-98 0 -180 27.5t-148.5 76.5t-113.5 117.5t-74 150.5h791v156h-822q-2 14 -2 27v28q0 20 1 39t3 37h820v156h-785q55 158 183.5 255t318.5 97q82 0 161 -22.5t145.5 -68.5t112.5 -114.5 t64 -161.5h156v387h-160v-49q-94 94 -217 144.5t-258 50.5q-133 0 -246.5 -38t-202.5 -105.5t-152.5 -163t-94.5 -211.5h-164v-156h137q-2 -18 -2 -37v-39v-28q0 -12 2 -27h-137v-156h160q29 -121 90 -220t151.5 -169.5t206 -109.5t254.5 -39q260 0 427 133t265 387z" />
<glyph unicode="&#xa5;" d="M1165 1266v157h-526v-157h162l-86 -176h-154h-117l-79 176h163v157h-561v-157h193l82 -176h-275v-158h348l84 -180h-432v-158h506l2 -6v-463h-192v-158h571v158h-199v469h504v158h-428l88 180h340v158h-262l86 176h182zM639 932l-64 -127l-57 127h43h78z" />
<glyph unicode="&#xa6;" horiz-adv-x="1015" d="M594 612v811h-172v-811h172zM594 -492v809h-172v-809h172z" />
<glyph unicode="&#xa7;" horiz-adv-x="897" d="M895 434q0 127 -76 215q-78 84 -231 152l-166 71q-117 51 -170 111q-47 53 -47 125q0 90 67 137q74 49 150 49q100 0 168 -55q33 -25 52.5 -70t25.5 -131h161q-8 121 -39.5 197t-95.5 123q-123 88 -262 88q-80 0 -149.5 -21.5t-126.5 -68.5q-115 -92 -115 -256 q0 -78 35 -152q29 -61 82 -108q-68 -53 -107 -121q-51 -90 -51 -174q0 -127 76 -215q78 -84 231 -152l166 -72q117 -51 170 -110q47 -53 47 -125q0 -92 -67 -137q-74 -49 -150 -49q-100 0 -168 55q-33 25 -52.5 70t-25.5 131h-159q6 -121 37.5 -197t95.5 -123 q123 -88 262 -88q80 0 149.5 21.5t126.5 68.5q115 92 115 256q0 78 -35 152q-29 61 -82 108q68 53 107 121q51 84 51 174zM731 422q0 -66 -37 -121q-35 -51 -82 -80l-276 125q-55 25 -89 49.5t-50 46.5q-33 45 -33 119q0 66 37 119q33 49 82 82l276 -127q55 -25 89 -48.5 t50 -45.5q33 -45 33 -119z" />
<glyph unicode="&#xa8;" horiz-adv-x="681" d="M616 1155v197h-196v-197h196zM262 1155v197h-196v-197h196z" />
<glyph unicode="&#xa9;" horiz-adv-x="1642" d="M1616 729q0 330 -234 561q-231 233 -563 234q-332 0 -561 -234q-233 -231 -233 -563t233 -561q229 -233 563 -234q330 0 561 234q234 229 234 563zM1454 727q0 -260 -186 -446q-184 -186 -449 -187q-260 0 -446 187q-186 184 -187 448q0 260 187 447q184 186 448 186 q260 0 447 -186q186 -185 186 -449zM1202 573l-151 56q-23 -70 -44.5 -107t-50.5 -61q-57 -47 -131 -47q-115 0 -176 90q-66 94 -65 235q0 123 67 209q63 80 185 80q72 0 118 -41q25 -23 44.5 -52.5t37.5 -80.5l164 49q-31 61 -63.5 110.5t-75.5 85.5t-97.5 55.5 t-125.5 19.5q-199 0 -314 -127q-113 -125 -112 -320q0 -207 118.5 -338t298.5 -131q127 0 226 74q49 39 84.5 95t62.5 146z" />
<glyph unicode="&#xaa;" horiz-adv-x="681" d="M709 782v121h-105v344q0 61 -24.5 100t-63.5 61t-87 30t-93 8q-53 0 -97 -9.5t-79 -32t-62.5 -54t-56.5 -93.5l119 -28q16 35 29.5 52t33.5 28q33 25 111 24q70 0 104 -22q31 -18 31 -64v-86q-31 12 -61 19q-27 4 -49.5 7t-45.5 3q-119 0 -190 -57q-78 -59 -78 -154 q0 -84 66 -145q66 -59 163 -60q49 0 100.5 17.5t94.5 42.5v-52h240zM469 967q-33 -33 -80 -54q-53 -25 -98 -24q-51 0 -82 26q-27 27 -27 58q0 45 35 74q37 31 109 30q41 0 84 -12q16 -6 30 -12l29 -13v-73z" />
<glyph unicode="&#xab;" horiz-adv-x="960" d="M983 -33l-332 522l332 523h-190l-334 -523l334 -522h190zM547 -33l-332 522l332 523h-191l-333 -523l333 -522h191z" />
<glyph unicode="&#xac;" horiz-adv-x="2070" d="M2081 -33v158h-168l-561 614l532 527h168v157h-237l-101 -102l-407 -399l-129 -109v156v297h190v157h-555v-157h184v-174l-129 129q-63 63 -143 61q-78 0 -145 -68q-47 -47 -76 -131q-8 -27 -13.5 -51t-9.5 -47q-53 16 -101 -1t-89 -58q-25 -25 -43.5 -54.5t-32.5 -64.5 q-12 -37 -18 -74l-37 37l-178 -178l90 -90l82 82l342 -342l65 -66l172 170l-90 90l-74 -76l-266 265l8 56q4 28 15 56q20 61 53 94q16 16 29.5 21.5t23.5 5.5q27 0 55 -29l365 -364l96 96l-350 350q0 63 18 117q18 59 54 94q29 29 54.5 27t53.5 -31l219 -219v-807v-125h373 v158h-192v537l534 -592l90 -103h279zM1303 -303q0 82 -57.5 139.5t-141.5 57.5q-82 0 -139.5 -57.5t-57.5 -139.5q0 -80 58 -141q61 -57 141 -58q78 0 139 58q58 61 58 141z" />
<glyph unicode="&#xad;" horiz-adv-x="704" d="M664 481v158h-627v-158h627z" />
<glyph unicode="&#xae;" horiz-adv-x="1642" d="M1616 729q0 330 -234 561q-231 233 -563 234q-332 0 -561 -234q-233 -231 -233 -563t233 -561q229 -233 563 -234q330 0 561 234q234 229 234 563zM1454 727q0 -260 -186 -446q-184 -186 -449 -187q-260 0 -446 187q-186 184 -187 448q0 260 187 447q184 186 448 186 q260 0 447 -186q186 -185 186 -449zM1206 285q-53 123 -88 191.5t-59 109.5q-31 47 -78 80q61 20 106 65q70 72 70 176q0 98 -74 172q-39 39 -97 56.5t-132 17.5h-375v-868h172v348h33q109 0 164 -49q29 -23 67.5 -93.5t94.5 -205.5h196zM977 903q0 -57 -35 -88 q-16 -14 -55 -23.5t-105 -9.5h-131v224h142q51 0 86.5 -7.5t58.5 -17.5q18 -10 28.5 -27.5t10.5 -50.5z" />
<glyph unicode="&#xaf;" horiz-adv-x="681" d="M702 1196v125h-722v-125h722z" />
<glyph unicode="&#xb0;" horiz-adv-x="811" d="M727 1124q0 129 -94 228q-98 94 -227 94t-228 -94q-94 -98 -94 -228q0 -129 94 -227q98 -94 228 -94q129 0 227 94q94 98 94 227zM580 1124q0 -74 -52 -123q-49 -51 -122 -51q-74 0 -123 51q-51 49 -52 123q0 74 52 123q49 51 123 51t122 -51q52 -49 52 -123z" />
<glyph unicode="&#xb1;" horiz-adv-x="1366" d="M1251 739v156h-491v494h-156v-494h-491v-156h491v-493h156v493h491zM1251 -33v156h-1138v-156h1138z" />
<glyph unicode="&#xb2;" horiz-adv-x="661" d="M600 938h-121l-6 -178h-315q14 45 55 96q51 61 190 133q94 45 140 101q45 57 45 137q0 100 -76 162q-72 59 -190 59q-127 0 -205 -72q-78 -70 -78 -188v-49h125v45q0 70 39 112q18 18 47 29.5t74 11.5q59 0 98 -32q35 -31 35 -78t-29 -80q-31 -31 -106 -72 q-84 -43 -143.5 -91t-94.5 -101q-33 -53 -50.5 -99.5t-17.5 -91.5l7 -45h565z" />
<glyph unicode="&#xb3;" horiz-adv-x="661" d="M637 881q0 92 -62 147q-31 27 -67 43q80 57 80 156q0 98 -76 159q-74 61 -182 62q-53 0 -100.5 -14.5t-82.5 -44.5q-37 -31 -56 -77t-23 -124h129q2 57 10 81.5t24 37.5q33 31 95 30q59 0 96 -30q35 -29 35 -78q0 -53 -41 -82q-45 -35 -111 -35l-57 6v-121l90 7 q41 4 71.5 -7.5t55.5 -27.5q43 -35 43 -88q0 -55 -47 -95q-49 -39 -127 -38q-80 0 -129 43q-25 23 -40 54.5t-24 90.5h-123q4 -86 29 -139.5t70 -87.5q45 -37 99 -54.5t116 -17.5q131 0 215 65q90 73 90 179z" />
<glyph unicode="&#xb4;" horiz-adv-x="681" d="M578 1448h-201l-246 -383h154z" />
<glyph unicode="&#xb5;" d="M1133 -33v158h-168v876h-340v-157h168v-574q-61 -61 -149.5 -108t-168.5 -47q-63 0 -92 32q-14 16 -22.5 40t-8.5 59v755h-342v-157h170v-1311h166v455q57 -35 129 -35q106 0 207 47q57 27 111 66v-99h340z" />
<glyph unicode="&#xb6;" horiz-adv-x="1323" d="M1298 1221v202h-727q-227 0 -366 -125q-141 -127 -142 -333q0 -190 132 -322q121 -121 317 -131v-979h197v1688h200v-1688h197v1688h192z" />
<glyph unicode="&#xb7;" horiz-adv-x="598" d="M356 555v197h-180v-197h180z" />
<glyph unicode="&#x2219;" horiz-adv-x="598" d="M356 555v197h-180v-197h180z" />
<glyph unicode="&#xb8;" horiz-adv-x="681" d="M522 -242q0 82 -51 133q-41 39 -92 50l14 77h-131l-41 -215q55 0 78 -5t35 -13q20 -14 20 -41q0 -37 -35 -57q-23 -12 -44 -17.5t-44 -7.5q-25 -2 -51 0t-65 4v-133h61q158 0 248 51q98 55 98 174z" />
<glyph unicode="&#xb9;" horiz-adv-x="661" d="M520 647v113h-121v676h-254v-113h121v-563h-123v-113h377z" />
<glyph unicode="&#xba;" horiz-adv-x="724" d="M711 1106q0 143 -98.5 241.5t-247.5 98.5q-150 0 -248.5 -98.5t-98.5 -241.5q0 -147 99 -242q98 -98 248 -98t247 98q99 95 99 242zM575 1106q0 -96 -59 -156q-59 -61 -151 -61q-94 0 -152 61q-59 59 -59 156q0 94 59 154q57 61 152 61q92 0 151 -61q59 -60 59 -154z" />
<glyph unicode="&#xbb;" horiz-adv-x="960" d="M940 489l-334 523h-190l332 -523l-332 -522h190zM504 489l-334 523h-190l331 -523l-331 -522h190z" />
<glyph unicode="&#xbc;" horiz-adv-x="1728" d="M1487 178v109h-139v475h-107l-395 -516q29 -18 34 -22.5t7 -6.5t4 -9t12 -30h322v-98h-97v-113h295v113h-75v98h139zM1372 1423h-151l-1028 -1456h151zM522 647v113h-121v676h-254v-113h121v-563h-123v-113h377zM1225 287h-207l207 276v-276z" />
<glyph unicode="&#xbd;" horiz-adv-x="1728" d="M1571 258h-121l-6 -178h-316q14 45 56 96q51 61 190 133q94 45 139 101q45 57 46 137q0 100 -76 162q-72 59 -191 59q-127 0 -205 -72q-78 -70 -77 -188v-49h125v45q0 70 39 112q18 18 46.5 29.5t73.5 11.5q59 0 99 -32q35 -31 34 -78q0 -47 -28 -80q-31 -31 -107 -72 q-84 -43 -143 -91t-94 -101q-33 -53 -50.5 -99.5t-17.5 -91.5l6 -45h566zM1370 1423h-151l-1029 -1456h152zM520 647v113h-121v676h-254v-113h121v-563h-123v-113h377z" />
<glyph unicode="&#xbe;" horiz-adv-x="1728" d="M1636 178v109h-139v475h-106l-396 -516q29 -18 34 -22.5t7 -6.5t4 -9t13 -30h321v-98h-96v-113h295v113h-76v98h139zM1524 1423h-152l-1028 -1456h152zM713 881q0 92 -62 147q-31 27 -67 43q80 57 80 156q0 98 -76 159q-74 61 -182 62q-53 0 -100.5 -14.5t-82.5 -44.5 q-37 -31 -56.5 -77t-23.5 -124h129q2 57 10.5 81.5t24.5 37.5q33 31 94 30q59 0 97 -30q35 -29 34 -78q0 -53 -40 -82q-45 -35 -111 -35l-57 6v-121l90 7q41 4 71.5 -7.5t55.5 -27.5q43 -35 43 -88q0 -55 -47 -95q-49 -39 -127 -38q-80 0 -129 43q-25 23 -40.5 54.5 t-23.5 90.5h-123q4 -86 28.5 -139.5t70.5 -87.5q45 -37 99 -54.5t116 -17.5q131 0 215 65q90 73 90 179zM1374 287h-207l207 276v-276z" />
<glyph unicode="&#xbf;" horiz-adv-x="917" d="M600 745v259h-180v-259h180zM889 -31h-162q0 -86 -17.5 -135t-52.5 -84q-68 -68 -178 -67q-117 0 -186 73q-72 76 -72 176q0 72 22.5 118t63.5 75q33 20 74 31.5t92 11.5q29 0 82 -6l47 16l-41 449h-110l-25 -297q-172 -4 -272.5 -119t-100.5 -277q0 -154 109 -280 q113 -129 307 -129q98 0 177 29.5t134 93.5q53 61 81 136.5t28 184.5z" />
<glyph unicode="&#xc0;" horiz-adv-x="1343" d="M883 1481l-246 383h-201l293 -383h154zM1425 -33v158h-182l-399 1141h160v157h-451l-37 -114l-410 -1184h-186v-158h356v125l138 404h516l129 -371h-160v-158h526zM877 653h-408l205 594z" />
<glyph unicode="&#xc1;" horiz-adv-x="1343" d="M909 1864h-200l-246 -383h153zM1425 -33v158h-182l-399 1141h160v157h-451l-37 -114l-410 -1184h-186v-158h356v125l138 404h516l129 -371h-160v-158h526zM877 653h-408l205 594z" />
<glyph unicode="&#xc2;" horiz-adv-x="1343" d="M1044 1489l-296 362h-152l-295 -362h154l217 201l219 -201h153zM1425 -33v158h-182l-399 1141h160v157h-451l-37 -114l-410 -1184h-186v-158h356v125l138 404h516l129 -371h-160v-158h526zM877 653h-408l205 594z" />
<glyph unicode="&#xc3;" horiz-adv-x="1343" d="M1051 1792h-125q-16 -43 -27.5 -60.5t-21.5 -23.5q-20 -14 -48 -14q-20 0 -52 10t-77 37q-100 53 -178 53q-68 0 -125 -51q-29 -25 -51 -69t-49 -126h123q16 43 28.5 60.5t22.5 23.5q20 14 47 15q18 0 50 -10.5t79 -37.5q96 -53 178 -53q68 0 125 51q29 25 51.5 69 t49.5 126zM1425 -33v158h-182l-399 1141h160v157h-451l-37 -114l-410 -1184h-186v-158h356v125l138 404h516l129 -371h-160v-158h526zM877 653h-408l205 594z" />
<glyph unicode="&#xc4;" horiz-adv-x="1343" d="M948 1571v196h-196v-196h196zM594 1571v196h-197v-196h197zM1425 -33v158h-182l-399 1141h160v157h-451l-37 -114l-410 -1184h-186v-158h356v125l138 404h516l129 -371h-160v-158h526zM877 653h-408l205 594z" />
<glyph unicode="&#xc5;" horiz-adv-x="1343" d="M893 1669q0 90 -65.5 155.5t-155.5 65.5t-156 -65q-63 -63 -63 -156q0 -92 63 -156q66 -66 156 -65q90 0 155.5 65.5t65.5 155.5zM1425 -33v158h-182l-399 1141h160v157h-451l-37 -114l-410 -1184h-186v-158h356v125l138 404h516l129 -371h-160v-158h526zM766 1669 q0 -41 -26.5 -67.5t-67.5 -26.5q-39 0 -65.5 26.5t-26.5 67.5t26.5 67.5t65.5 26.5q41 0 67.5 -26.5t26.5 -67.5zM877 653h-408l205 594z" />
<glyph unicode="&#xc6;" horiz-adv-x="1921" d="M1862 -33v408h-160v-250h-666v508h582v158h-582v475h699h125v157h-1436v-157h207l-138 -252l-155 -284l-154 -281l-133 -244l-93 -172l-36 -66h410v158h-139l282 510h381v-510h-231v-158h1237zM856 793h-297l260 473h37v-473z" />
<glyph unicode="&#xc7;" horiz-adv-x="1536" d="M1513 467l-151 90q-53 -141 -107.5 -223t-117.5 -127q-131 -94 -314 -94q-240 0 -393 163q-156 162 -156 420t152 422q152 162 389 162q168 0 309 -92q70 -45 112 -109.5t62 -165.5h156v387h-160v-49q-88 88 -192 133q-141 61 -283 62q-319 0 -524 -209 q-201 -213 -201 -541q0 -336 201 -542q160 -162 395 -199l-28 -152q55 0 77.5 -5t34.5 -13q20 -14 21 -41q0 -37 -35 -57q-23 -12 -44.5 -17.5t-43.5 -7.5q-25 -2 -51.5 0t-65.5 4v-133h61q158 0 248 51q98 55 99 174q0 82 -52 133q-41 39 -92 50l2 6q223 -2 406 116 q90 59 159.5 156.5t126.5 247.5z" />
<glyph unicode="&#xc8;" horiz-adv-x="1236" d="M829 1481l-245 383h-201l293 -383h153zM1178 -33v158h-127h-695v508h578v158h-578v475h662v-246h158v403h-1178v-157h178v-1174v-125h1002z" />
<glyph unicode="&#xc9;" horiz-adv-x="1236" d="M856 1864h-201l-245 -383h153zM1178 -33v158h-127h-695v508h578v158h-578v475h662v-246h158v403h-1178v-157h178v-1174v-125h1002z" />
<glyph unicode="&#xca;" horiz-adv-x="1236" d="M991 1489l-297 362h-151l-295 -362h153l217 201l220 -201h153zM1178 -33v158h-127h-695v508h578v158h-578v475h662v-246h158v403h-1178v-157h178v-1174v-125h1002z" />
<glyph unicode="&#xcb;" horiz-adv-x="1236" d="M895 1571v196h-197v-196h197zM541 1571v196h-197v-196h197zM1178 -33v158h-127h-695v508h578v158h-578v475h662v-246h158v403h-1178v-157h178v-1174v-125h1002z" />
<glyph unicode="&#xcc;" horiz-adv-x="575" d="M498 1481l-246 383h-201l156 -205l133 -178h35h123zM553 -33v158h-176v1173v125h-180v-125v-1173h-174v-158h530z" />
<glyph unicode="&#xcd;" horiz-adv-x="575" d="M524 1864h-200l-246 -383h164l72 97l67 92l68 93zM553 -33v158h-176v1173v125h-180v-125v-1173h-174v-158h530z" />
<glyph unicode="&#xce;" horiz-adv-x="575" d="M659 1489l-297 362h-151l-295 -362h154l125 115l92 86l22 -23l66 -57l131 -121h153zM553 -33v158h-176v1173v125h-180v-125v-1173h-174v-158h530z" />
<glyph unicode="&#xcf;" horiz-adv-x="575" d="M209 1571v196h-197v-196h183h14zM563 1571v196h-196v-196h8h188zM553 -33v158h-176v1173v125h-180v-125v-1173h-174v-158h530z" />
<glyph unicode="&#xd0;" horiz-adv-x="1449" d="M1386 694q0 324 -190 527q-195 203 -584 202h-628v-153l192 4v-498h-190v-158h190v-526v-125h434q211 0 362.5 54.5t241.5 166.5q172 217 172 506zM1206 694q0 -145 -36.5 -249.5t-108.5 -176.5q-147 -143 -434 -143h-271v493h428v158h-428v490h267q281 0 432 -148 t151 -424z" />
<glyph unicode="&#xd1;" horiz-adv-x="1449" d="M1104 1792h-125q-16 -43 -27.5 -60.5t-21.5 -23.5q-20 -14 -47 -14q-20 0 -52 10t-77 37q-100 53 -179 53q-68 0 -124 -51q-29 -25 -51.5 -69t-49.5 -126h123q16 43 28.5 60.5t22.5 23.5q20 14 47 15q18 0 50 -10.5t79 -37.5q96 -53 179 -53q68 0 125 51q29 25 51 69 t49 126zM1462 1266v157h-342v-125v-1034l-171 265l-171 259l-203 308l-208 327h-379v-157h186v-1174v-125h358v158h-196v1030l786 -1206h160v1317h180z" />
<glyph unicode="&#xd2;" horiz-adv-x="1599" d="M1010 1481l-246 383h-201l293 -383h154zM1536 696q0 322 -209 537q-207 213 -524 213t-524 -213q-209 -215 -209 -537t209 -536q207 -213 524 -213t524 213q209 214 209 536zM1356 696q0 -252 -156 -420q-158 -164 -397 -163q-242 0 -395 166q-158 164 -158 417 q0 254 158 418q154 166 395 166q240 0 397 -164q156 -168 156 -420z" />
<glyph unicode="&#xd3;" horiz-adv-x="1599" d="M1036 1864h-200l-246 -383h153zM1536 696q0 322 -209 537q-207 213 -524 213t-524 -213q-209 -215 -209 -537t209 -536q207 -213 524 -213t524 213q209 214 209 536zM1356 696q0 -252 -156 -420q-158 -164 -397 -163q-242 0 -395 166q-158 164 -158 417q0 254 158 418 q154 166 395 166q240 0 397 -164q156 -168 156 -420z" />
<glyph unicode="&#xd4;" horiz-adv-x="1599" d="M1171 1489l-297 362h-151l-295 -362h154l217 201l219 -201h153zM1536 696q0 322 -209 537q-207 213 -524 213t-524 -213q-209 -215 -209 -537t209 -536q207 -213 524 -213t524 213q209 214 209 536zM1356 696q0 -252 -156 -420q-158 -164 -397 -163q-242 0 -395 166 q-158 164 -158 417q0 254 158 418q154 166 395 166q240 0 397 -164q156 -168 156 -420z" />
<glyph unicode="&#xd5;" horiz-adv-x="1599" d="M1178 1792h-125q-16 -43 -27.5 -60.5t-21.5 -23.5q-20 -14 -48 -14q-20 0 -52 10t-77 37q-100 53 -178 53q-68 0 -125 -51q-29 -25 -51 -69t-49 -126h123q16 43 28.5 60.5t22.5 23.5q20 14 47 15q18 0 50 -10.5t79 -37.5q96 -53 178 -53q68 0 125 51q29 25 51.5 69 t49.5 126zM1536 696q0 322 -209 537q-207 213 -524 213t-524 -213q-209 -215 -209 -537t209 -536q207 -213 524 -213t524 213q209 214 209 536zM1356 696q0 -252 -156 -420q-158 -164 -397 -163q-242 0 -395 166q-158 164 -158 417q0 254 158 418q154 166 395 166 q240 0 397 -164q156 -168 156 -420z" />
<glyph unicode="&#xd6;" horiz-adv-x="1599" d="M1075 1571v196h-196v-196h196zM721 1571v196h-197v-196h197zM1536 696q0 322 -209 537q-207 213 -524 213t-524 -213q-209 -215 -209 -537t209 -536q207 -213 524 -213t524 213q209 214 209 536zM1356 696q0 -252 -156 -420q-158 -164 -397 -163q-242 0 -395 166 q-158 164 -158 417q0 254 158 418q154 166 395 166q240 0 397 -164q156 -168 156 -420z" />
<glyph unicode="&#xd7;" horiz-adv-x="1368" d="M1221 233l-422 422l422 422l-115 115l-422 -422l-422 422l-115 -115l422 -422l-422 -422l115 -114l422 422l422 -422z" />
<glyph unicode="&#xd8;" horiz-adv-x="1599" d="M1536 696q0 141 -43 266t-147 248l133 148l-103 92l-129 -147q-180 143 -444 143q-317 0 -524 -213q-209 -215 -209 -537q0 -154 46 -283.5t142 -234.5l-129 -145l102 -92l129 145q176 -139 443 -139q317 0 524 213q209 214 209 536zM1356 696q0 -252 -156 -420 q-158 -164 -397 -163q-199 0 -330 104l758 862q125 -160 125 -383zM1133 1174l-758 -863q-125 160 -125 385q0 254 158 418q154 166 395 166q203 0 330 -106z" />
<glyph unicode="&#xd9;" horiz-adv-x="1323" d="M872 1481l-245 383h-201l293 -383h153zM1348 1266v157h-359v-125v-899q0 -145 -80 -215q-41 -35 -102.5 -53t-147.5 -18q-162 0 -243 75q-84 72 -84 215v863h176v157h-535v-157h179v-850q0 -227 135 -348q133 -121 375 -121t374 121q133 125 133 348v850h179z" />
<glyph unicode="&#xda;" horiz-adv-x="1323" d="M899 1864h-201l-245 -383h153zM1348 1266v157h-359v-125v-899q0 -145 -80 -215q-41 -35 -102.5 -53t-147.5 -18q-162 0 -243 75q-84 72 -84 215v863h176v157h-535v-157h179v-850q0 -227 135 -348q133 -121 375 -121t374 121q133 125 133 348v850h179z" />
<glyph unicode="&#xdb;" horiz-adv-x="1323" d="M1034 1489l-297 362h-151l-295 -362h153l218 201l219 -201h153zM1348 1266v157h-359v-125v-899q0 -145 -80 -215q-41 -35 -102.5 -53t-147.5 -18q-162 0 -243 75q-84 72 -84 215v863h176v157h-535v-157h179v-850q0 -227 135 -348q133 -121 375 -121t374 121 q133 125 133 348v850h179z" />
<glyph unicode="&#xdc;" horiz-adv-x="1323" d="M938 1468v197h-197v-197h197zM584 1468v197h-197v-197h197zM1348 1266v157h-359v-125v-899q0 -145 -80 -215q-41 -35 -102.5 -53t-147.5 -18q-162 0 -243 75q-84 72 -84 215v863h176v157h-535v-157h179v-850q0 -227 135 -348q133 -121 375 -121t374 121q133 125 133 348 v850h179z" />
<glyph unicode="&#xdd;" horiz-adv-x="1236" d="M856 1864h-201l-245 -383h153zM1307 1266v157h-523v-157h154l-303 -478l-342 543h-2l-58 92h-305v-157h195l412 -650v-491h-193v-158h373v125v524l411 650h181z" />
<glyph unicode="&#xde;" d="M1124 694q0 209 -139 328q-135 115 -371 115h-249v129h186v157h-551v-157h184v-1141h-184v-158h365v125v162h284q213 0 344 119q131 122 131 321zM944 682q0 -137 -82 -201q-43 -35 -105.5 -52t-148.5 -17h-243v567h243q182 0 258 -70q37 -33 57.5 -88t20.5 -139z" />
<glyph unicode="&#xdf;" horiz-adv-x="1259" d="M1206 410q0 90 -23.5 163.5t-72.5 131.5q-66 74 -162 112q57 35 84 86q47 82 47 168q0 170 -125 275q-121 100 -323 100q-205 0 -328 -105q-66 -53 -97.5 -136t-31.5 -193v-887h-174v-158h346v125v944q0 72 19.5 119t54.5 76q39 31 90 47t119 16q115 0 200 -55 q80 -53 80 -160q0 -100 -59 -149q-59 -53 -162 -53h-53v-148q119 0 190.5 -21.5t118.5 -62.5q94 -78 94 -237q0 -127 -69 -215q-68 -88 -183 -89q-18 0 -34.5 1t-28.5 4l-29 9q-16 5 -59 21v-168l143 -18q203 0 318 135q110 136 110 322z" />
<glyph unicode="&#xe0;" horiz-adv-x="1044" d="M733 1065l-246 383h-200l293 -383h153zM1057 -33v158h-162v596q0 154 -107 233q-51 39 -122.5 56.5t-163.5 17.5q-41 0 -91.5 -12t-94.5 -25.5t-73 -25.5l-30 -13l49 -123l40 14l61.5 19t69.5 17.5t65 7.5q106 0 170 -41q55 -35 55 -125v-176q-29 14 -56.5 23.5 t-56.5 17.5q-80 18 -143 18q-174 0 -285 -92q-111 -96 -110 -240q0 -127 94 -225q94 -94 240 -94q92 0 190 43q35 16 65.5 33.5t61.5 40.5v-103h334zM723 240q-53 -55 -133 -97q-86 -43 -160 -43q-86 0 -135 50q-49 51 -49 114q0 82 61 137q61 57 178 58q66 0 133 -23 q55 -23 105 -49v-147z" />
<glyph unicode="&#xe1;" horiz-adv-x="1044" d="M760 1448h-201l-246 -383h154zM1057 -33v158h-162v596q0 154 -107 233q-51 39 -122.5 56.5t-163.5 17.5q-41 0 -91.5 -12t-94.5 -25.5t-73 -25.5l-30 -13l49 -123l40 14l61.5 19t69.5 17.5t65 7.5q106 0 170 -41q55 -35 55 -125v-176q-29 14 -56.5 23.5t-56.5 17.5 q-80 18 -143 18q-174 0 -285 -92q-111 -96 -110 -240q0 -127 94 -225q94 -94 240 -94q92 0 190 43q35 16 65.5 33.5t61.5 40.5v-103h334zM723 240q-53 -55 -133 -97q-86 -43 -160 -43q-86 0 -135 50q-49 51 -49 114q0 82 61 137q61 57 178 58q66 0 133 -23q55 -23 105 -49 v-147z" />
<glyph unicode="&#xe2;" horiz-adv-x="1044" d="M895 1073l-297 363h-152l-294 -363h153l217 201l219 -201h154zM1057 -33v158h-162v596q0 154 -107 233q-51 39 -122.5 56.5t-163.5 17.5q-41 0 -91.5 -12t-94.5 -25.5t-73 -25.5l-30 -13l49 -123l40 14l61.5 19t69.5 17.5t65 7.5q106 0 170 -41q55 -35 55 -125v-176 q-29 14 -56.5 23.5t-56.5 17.5q-80 18 -143 18q-174 0 -285 -92q-111 -96 -110 -240q0 -127 94 -225q94 -94 240 -94q92 0 190 43q35 16 65.5 33.5t61.5 40.5v-103h334zM723 240q-53 -55 -133 -97q-86 -43 -160 -43q-86 0 -135 50q-49 51 -49 114q0 82 61 137q61 57 178 58 q66 0 133 -23q55 -23 105 -49v-147z" />
<glyph unicode="&#xe3;" horiz-adv-x="1044" d="M901 1376h-125q-16 -43 -27.5 -60.5t-21.5 -23.5q-20 -14 -47 -14q-20 0 -52 10t-77 37q-100 53 -178 53q-68 0 -125 -51q-29 -25 -51.5 -69t-49.5 -125h123q16 43 28.5 60t23.5 24q20 14 47 14q18 0 50 -10.5t79 -36.5q96 -53 178 -54q68 0 125 52q29 25 51 68.5 t49 125.5zM1057 -33v158h-162v596q0 154 -107 233q-51 39 -122.5 56.5t-163.5 17.5q-41 0 -91.5 -12t-94.5 -25.5t-73 -25.5l-30 -13l49 -123l40 14l61.5 19t69.5 17.5t65 7.5q106 0 170 -41q55 -35 55 -125v-176q-29 14 -56.5 23.5t-56.5 17.5q-80 18 -143 18 q-174 0 -285 -92q-111 -96 -110 -240q0 -127 94 -225q94 -94 240 -94q92 0 190 43q35 16 65.5 33.5t61.5 40.5v-103h334zM723 240q-53 -55 -133 -97q-86 -43 -160 -43q-86 0 -135 50q-49 51 -49 114q0 82 61 137q61 57 178 58q66 0 133 -23q55 -23 105 -49v-147z" />
<glyph unicode="&#xe4;" horiz-adv-x="1044" d="M799 1155v197h-197v-197h197zM444 1155v197h-196v-197h196zM1057 -33v158h-162v596q0 154 -107 233q-51 39 -122.5 56.5t-163.5 17.5q-41 0 -91.5 -12t-94.5 -25.5t-73 -25.5l-30 -13l49 -123l40 14l61.5 19t69.5 17.5t65 7.5q106 0 170 -41q55 -35 55 -125v-176 q-29 14 -56.5 23.5t-56.5 17.5q-80 18 -143 18q-174 0 -285 -92q-111 -96 -110 -240q0 -127 94 -225q94 -94 240 -94q92 0 190 43q35 16 65.5 33.5t61.5 40.5v-103h334zM723 240q-53 -55 -133 -97q-86 -43 -160 -43q-86 0 -135 50q-49 51 -49 114q0 82 61 137q61 57 178 58 q66 0 133 -23q55 -23 105 -49v-147z" />
<glyph unicode="&#xe5;" horiz-adv-x="1044" d="M743 1253q0 90 -65.5 156t-155.5 66t-155 -66q-63 -63 -64 -156q0 -92 64 -155q66 -66 155 -66q90 0 155.5 65.5t65.5 155.5zM1057 -33v158h-162v596q0 154 -107 233q-51 39 -122.5 56.5t-163.5 17.5q-41 0 -91.5 -12t-94.5 -25.5t-73 -25.5l-30 -13l49 -123l40 14 l61.5 19t69.5 17.5t65 7.5q106 0 170 -41q55 -35 55 -125v-176q-29 14 -56.5 23.5t-56.5 17.5q-80 18 -143 18q-174 0 -285 -92q-111 -96 -110 -240q0 -127 94 -225q94 -94 240 -94q92 0 190 43q35 16 65.5 33.5t61.5 40.5v-103h334zM616 1253q0 -41 -26.5 -67.5 t-67.5 -26.5q-39 0 -65.5 26.5t-26.5 67.5t26.5 68t65.5 27q41 0 67.5 -27t26.5 -68zM723 240q-53 -55 -133 -97q-86 -43 -160 -43q-86 0 -135 50q-49 51 -49 114q0 82 61 137q61 57 178 58q66 0 133 -23q55 -23 105 -49v-147z" />
<glyph unicode="&#xe6;" horiz-adv-x="1771" d="M1735 428q-8 145 -44 249.5t-102 186.5q-135 164 -350 164q-131 0 -238 -57q-84 -47 -145 -125q-23 53 -60.5 89t-85.5 56.5t-101.5 28.5t-106.5 8q-80 0 -148.5 -18.5t-140.5 -67.5l86 -117q49 35 95 48.5t104 13.5q109 0 168 -41q25 -16 39 -47t14 -78v-176 q-29 14 -55.5 23.5t-55.5 17.5q-78 18 -141 18q-172 0 -279 -92q-111 -96 -110 -240q0 -133 98 -225q100 -94 252 -94t258 70q41 27 79 55t69 63q78 -102 174 -147q111 -55 237 -55q39 0 93.5 13t103.5 31l84 30l35 14l-88 135q-10 -4 -37 -16.5t-60 -24.5t-67.5 -21.5 t-61.5 -9.5q-162 0 -262 111q-88 94 -102 227h852zM1544 586h-653q25 111 84 178q96 109 242 108q141 0 229 -88q78 -83 98 -198zM719 240q-55 -57 -131 -97q-84 -43 -158 -43q-86 0 -131 50q-47 49 -47 114q0 82 59 137q31 29 74 43.5t102 14.5q61 0 129 -23 q29 -10 53.5 -22.5l49.5 -26.5v-147z" />
<glyph unicode="&#xe7;" horiz-adv-x="1044" d="M1026 281l-147 61q-29 -72 -60 -114t-67 -70q-76 -57 -187 -58q-154 0 -246 105q-94 104 -94 278t92 279q88 104 234 104q102 0 190 -65q39 -31 61.5 -84t26.5 -150h152v394h-154v-33q-37 33 -79 55q-84 45 -197 45q-213 0 -358 -158q-141 -160 -142 -387 q0 -238 142 -391q102 -109 243 -139l-28 -150q55 0 77.5 -5t34.5 -13q20 -14 21 -41q0 -37 -35 -57q-23 -12 -44.5 -17.5t-43.5 -7.5q-25 -2 -51.5 0t-65.5 4v-133h61q158 0 248 51q98 55 99 174q0 82 -52 133q-31 35 -79 48q145 4 258 81q59 41 105 102t85 159z" />
<glyph unicode="&#xe8;" d="M776 1065l-246 383h-200l293 -383h153zM1096 428q-8 156 -45 263.5t-109 185.5q-141 152 -367 151q-229 0 -378 -154q-147 -158 -148 -391q0 -238 152 -389q150 -156 381 -155q41 0 96 13t106.5 28.5t85.5 28.5l35 14l-43 141q-14 -6 -47 -18.5t-71.5 -24.5t-78.5 -21.5 t-67 -9.5q-164 0 -270 111q-88 88 -107 227h875zM909 586h-680q25 106 88 176q98 111 250 110q143 0 236 -88q77 -79 106 -198z" />
<glyph unicode="&#xe9;" d="M803 1448h-201l-246 -383h154zM1096 428q-8 156 -45 263.5t-109 185.5q-141 152 -367 151q-229 0 -378 -154q-147 -158 -148 -391q0 -238 152 -389q150 -156 381 -155q41 0 96 13t106.5 28.5t85.5 28.5l35 14l-43 141q-14 -6 -47 -18.5t-71.5 -24.5t-78.5 -21.5t-67 -9.5 q-164 0 -270 111q-88 88 -107 227h875zM909 586h-680q25 106 88 176q98 111 250 110q143 0 236 -88q77 -79 106 -198z" />
<glyph unicode="&#xea;" d="M938 1073l-297 363h-152l-294 -363h153l217 201l219 -201h154zM1096 428q-8 156 -45 263.5t-109 185.5q-141 152 -367 151q-229 0 -378 -154q-147 -158 -148 -391q0 -238 152 -389q150 -156 381 -155q41 0 96 13t106.5 28.5t85.5 28.5l35 14l-43 141q-14 -6 -47 -18.5 t-71.5 -24.5t-78.5 -21.5t-67 -9.5q-164 0 -270 111q-88 88 -107 227h875zM909 586h-680q25 106 88 176q98 111 250 110q143 0 236 -88q77 -79 106 -198z" />
<glyph unicode="&#xeb;" d="M842 1155v197h-197v-197h197zM487 1155v197h-196v-197h196zM1096 428q-8 156 -45 263.5t-109 185.5q-141 152 -367 151q-229 0 -378 -154q-147 -158 -148 -391q0 -238 152 -389q150 -156 381 -155q41 0 96 13t106.5 28.5t85.5 28.5l35 14l-43 141q-14 -6 -47 -18.5 t-71.5 -24.5t-78.5 -21.5t-67 -9.5q-164 0 -270 111q-88 88 -107 227h875zM909 586h-680q25 106 88 176q98 111 250 110q143 0 236 -88q77 -79 106 -198z" />
<glyph unicode="&#xec;" horiz-adv-x="512" d="M467 1065l-246 383h-201l293 -383h154zM526 -33v158h-166v876h-342v-157h170v-719h-170v-158h508z" />
<glyph unicode="&#xed;" horiz-adv-x="512" d="M494 1448h-201l-246 -383h154zM526 -33v158h-166v876h-342v-157h170v-719h-170v-158h508z" />
<glyph unicode="&#xee;" horiz-adv-x="512" d="M629 1073l-297 363h-152l-295 -363h154l217 201l219 -201h154zM526 -33v158h-166v876h-342v-157h170v-719h-170v-158h508z" />
<glyph unicode="&#xef;" horiz-adv-x="512" d="M532 1155v197h-196v-197h196zM178 1155v197h-196v-197h196zM526 -33v158h-166v876h-342v-157h170v-719h-170v-158h508z" />
<glyph unicode="&#xf0;" horiz-adv-x="1153" d="M1094 584q0 283 -164 514q-23 33 -52.5 66.5t-68.5 70.5l266 125l-137 96l-254 -119q-80 55 -229 119l-187 -94l144.5 -64.5t89.5 -46.5l-264 -125l137 -96l268 125q55 -47 82 -76q29 -31 52.5 -61.5t41.5 -59.5q-111 70 -241 70q-223 0 -371 -160q-145 -162 -146 -391 q0 -231 148 -385q150 -156 375 -155q236 0 374 182q136 180 136 465zM918 504q0 -176 -99 -293q-98 -113 -244 -113q-145 0 -241 109q-98 106 -98 270q0 168 96 281q92 109 246 108q147 0 243 -102q97 -106 97 -260z" />
<glyph unicode="&#xf1;" horiz-adv-x="1087" d="M922 1376h-125q-16 -43 -27.5 -60.5t-21.5 -23.5q-20 -14 -48 -14q-20 0 -52 10t-77 37q-100 53 -178 53q-68 0 -125 -51q-29 -25 -51 -69t-49 -125h123q16 43 28.5 60t22.5 24q20 14 47 14q18 0 50 -10.5t79 -36.5q96 -53 178 -54q68 0 125 52q29 25 51.5 68.5 t49.5 125.5zM1114 -33v158h-153v616q0 129 -80 209q-80 78 -211 78q-100 0 -209 -45q-35 -16 -67 -34.5t-62 -41.5v94h-348v-157h176v-752v-125h329v158h-157v592q35 31 72.5 56.5t80.5 47.5q92 45 170 45q133 0 133 -137v-637v-125h326z" />
<glyph unicode="&#xf2;" d="M776 1065l-246 383h-200l293 -383h153zM1083 483q0 229 -147.5 387t-368.5 158t-368.5 -157.5t-147.5 -387.5q0 -231 148 -387q147 -158 368 -157q221 0 369 157q147 156 147 387zM909 483q0 -168 -96 -276q-98 -106 -246 -107q-147 0 -245 107q-96 109 -97 276 q0 168 97 277q98 106 245 106t246 -106q96 -109 96 -277z" />
<glyph unicode="&#xf3;" d="M803 1448h-201l-246 -383h154zM1083 483q0 229 -147.5 387t-368.5 158t-368.5 -157.5t-147.5 -387.5q0 -231 148 -387q147 -158 368 -157q221 0 369 157q147 156 147 387zM909 483q0 -168 -96 -276q-98 -106 -246 -107q-147 0 -245 107q-96 109 -97 276q0 168 97 277 q98 106 245 106t246 -106q96 -109 96 -277z" />
<glyph unicode="&#xf4;" d="M938 1073l-297 363h-152l-294 -363h153l217 201l219 -201h154zM1083 483q0 229 -147.5 387t-368.5 158t-368.5 -157.5t-147.5 -387.5q0 -231 148 -387q147 -158 368 -157q221 0 369 157q147 156 147 387zM909 483q0 -168 -96 -276q-98 -106 -246 -107q-147 0 -245 107 q-96 109 -97 276q0 168 97 277q98 106 245 106t246 -106q96 -109 96 -277z" />
<glyph unicode="&#xf5;" d="M944 1376h-125q-16 -43 -27.5 -60.5t-21.5 -23.5q-20 -14 -47 -14q-20 0 -52 10t-77 37q-100 53 -178 53q-68 0 -125 -51q-29 -25 -51.5 -69t-49.5 -125h123q16 43 28.5 60t23.5 24q20 14 47 14q18 0 50 -10.5t79 -36.5q96 -53 178 -54q68 0 125 52q29 25 51 68.5 t49 125.5zM1083 483q0 229 -147.5 387t-368.5 158t-368.5 -157.5t-147.5 -387.5q0 -231 148 -387q147 -158 368 -157q221 0 369 157q147 156 147 387zM909 483q0 -168 -96 -276q-98 -106 -246 -107q-147 0 -245 107q-96 109 -97 276q0 168 97 277q98 106 245 106t246 -106 q96 -109 96 -277z" />
<glyph unicode="&#xf6;" d="M842 1155v197h-197v-197h197zM487 1155v197h-196v-197h196zM1083 483q0 229 -147.5 387t-368.5 158t-368.5 -157.5t-147.5 -387.5q0 -231 148 -387q147 -158 368 -157q221 0 369 157q147 156 147 387zM909 483q0 -168 -96 -276q-98 -106 -246 -107q-147 0 -245 107 q-96 109 -97 276q0 168 97 277q98 106 245 106t246 -106q96 -109 96 -277z" />
<glyph unicode="&#xf7;" horiz-adv-x="1368" d="M784 975v196h-180v-196h180zM1251 578v155h-1138v-155h1138zM784 84v197h-180v-197h180z" />
<glyph unicode="&#xf8;" d="M1108 1006l-102 90l-140 -164q-121 96 -299 96q-221 0 -368.5 -157.5t-147.5 -387.5q0 -209 119 -354l-143 -166l104 -86l135 158q123 -96 301 -96q221 0 369 157q147 156 147 387q0 209 -118 355zM758 807l-475 -549q-29 47 -43.5 102.5t-14.5 122.5q0 168 97 277 q98 106 245 106q115 0 191 -59zM909 483q0 -168 -96 -276q-98 -106 -246 -107q-113 0 -192 58l477 549q57 -93 57 -224z" />
<glyph unicode="&#xf9;" horiz-adv-x="1110" d="M766 1065l-246 383h-201l293 -383h154zM1126 -33v158h-168v876h-172v-124v-607q-61 -61 -149 -108q-92 -47 -174 -47q-127 0 -127 131v755h-342v-157h170v-617q0 -125 76 -200q41 -39 92 -56.5t112 -17.5q113 0 220 47q72 33 122 70v-103h340z" />
<glyph unicode="&#xfa;" horiz-adv-x="1110" d="M793 1448h-201l-246 -383h154zM1126 -33v158h-168v876h-172v-124v-607q-61 -61 -149 -108q-92 -47 -174 -47q-127 0 -127 131v755h-342v-157h170v-617q0 -125 76 -200q41 -39 92 -56.5t112 -17.5q113 0 220 47q72 33 122 70v-103h340z" />
<glyph unicode="&#xfb;" horiz-adv-x="1110" d="M928 1073l-297 363h-152l-295 -363h154l217 201l219 -201h154zM1126 -33v158h-168v876h-172v-124v-607q-61 -61 -149 -108q-92 -47 -174 -47q-127 0 -127 131v755h-342v-157h170v-617q0 -125 76 -200q41 -39 92 -56.5t112 -17.5q113 0 220 47q72 33 122 70v-103h340z" />
<glyph unicode="&#xfc;" horiz-adv-x="1110" d="M831 1155v197h-196v-197h196zM477 1155v197h-196v-197h196zM1126 -33v158h-168v876h-172v-124v-607q-61 -61 -149 -108q-92 -47 -174 -47q-127 0 -127 131v755h-342v-157h170v-617q0 -125 76 -200q41 -39 92 -56.5t112 -17.5q113 0 220 47q72 33 122 70v-103h340z" />
<glyph unicode="&#xfd;" horiz-adv-x="1087" d="M780 1448h-200l-246 -383h153zM1118 844v157h-469v-157h139l-227 -598l-262 643l-43 112h-285v-157h170l336 -817l-176 -494h164l496 1311h157z" />
<glyph unicode="&#xfe;" horiz-adv-x="1216" d="M1161 489q0 231 -143 383q-143 156 -361 156q-113 0 -215 -51q-70 -33 -131 -105v551h-348v-157h176v-1575h-176v-158h346v92h2v463q29 -33 58.5 -57.5t64.5 -40.5q100 -51 217 -51q225 0 369 155q141 155 141 395zM997 483q0 -170 -96 -276q-94 -106 -248 -107 q-147 0 -245 107q-100 106 -101 280q0 174 99 279q94 104 241 104q156 0 252 -106q98 -109 98 -281z" />
<glyph unicode="&#xff;" horiz-adv-x="1087" d="M819 1155v197h-196v-197h196zM465 1155v197h-197v-197h197zM1118 844v157h-469v-157h139l-227 -598l-262 643l-43 112h-285v-157h170l336 -817l-176 -494h164l496 1311h157z" />
<glyph unicode="&#x152;" horiz-adv-x="2154" d="M2066 -33v158h-127h-694v508h578v158h-578v475h662v-246h157v403h-1230q-346 0 -553 -194q-211 -197 -211 -522q0 -346 211 -545q104 -98 248.5 -146.5t326.5 -48.5h1210zM1065 125h-205q-147 0 -257.5 38t-190.5 109q-162 145 -162 412q0 287 158 432q160 150 458 150 h199v-1141z" />
<glyph unicode="&#x153;" horiz-adv-x="1898" d="M1864 428q-8 145 -44 249.5t-102 186.5q-133 164 -346 164q-147 0 -268 -76q-90 -57 -154 -155q-53 94 -143 151q-121 80 -272 80q-209 0 -348.5 -157.5t-139.5 -387.5q0 -229 139.5 -386.5t348.5 -157.5q152 0 268 71q90 53 147 150q72 -102 160 -154q117 -68 268 -67 q78 0 149.5 20.5t158.5 71.5l-80 137q-66 -45 -117 -61.5t-105 -16.5q-154 0 -251 111q-84 90 -101 227h832zM1677 586h-637q25 109 82 178q92 109 234 108q135 0 219 -88q73 -73 102 -198zM862 483q0 -170 -92 -276q-88 -106 -227 -107q-141 0 -230 107q-92 106 -92 276 q0 168 92 277q88 106 230 106q139 0 227 -106q92 -109 92 -277z" />
<glyph unicode="&#x160;" horiz-adv-x="1110" d="M928 1853h-154l-219 -200l-217 200h-154l295 -362h152zM1053 365q0 180 -113 286q-55 51 -155.5 94t-241.5 78q-76 16 -134.5 40t-101.5 52q-76 53 -76 154q0 90 72 150q74 61 189 61q76 0 134 -10t105 -45q23 -18 38 -43t24.5 -51.5t13.5 -50t4 -38.5v-59h174l-1 25 q-1 25 -5 58.5t-10 70.5t-19 61q-14 33 -29.5 53.5t-37.5 46.5q-41 43 -80 65.5t-88 45.5q-53 23 -108.5 30t-108.5 7q-182 0 -310 -107q-129 -111 -129 -266q0 -174 111 -272q53 -49 137 -86t195 -66q111 -27 182.5 -55.5t112.5 -58.5q76 -55 75 -158q0 -117 -84 -189 q-86 -76 -213 -75q-147 0 -256 96q-104 96 -104 219v82h-160v-543h160v123q55 -55 123 -88q113 -55 235 -55q201 0 338 119q142 119 142 299z" />
<glyph unicode="&#x161;" horiz-adv-x="917" d="M831 1438h-153l-219 -201l-217 201h-154l295 -363h152zM870 260q0 129 -75 205q-41 41 -117 67.5t-184 47.5q-150 27 -195 57q-18 14 -28.5 34.5t-10.5 55.5q0 59 45 102q49 45 133 45q100 0 166 -59q33 -29 49.5 -71t20.5 -113h153v342h-155v-27q-49 43 -108.5 62.5 t-127.5 19.5q-141 0 -237 -82q-100 -82 -101 -223q0 -143 92 -211q86 -63 267 -94q158 -27 209 -66q23 -16 34 -39.5t11 -62.5q0 -68 -64 -117q-72 -49 -166 -49q-127 0 -200 68q-35 33 -54.5 82t-21.5 135h-160v-402h160v64q37 -35 86 -58q82 -37 180 -36q180 0 287 86 q112 87 112 237z" />
<glyph unicode="&#x178;" horiz-adv-x="1236" d="M895 1571v196h-197v-196h197zM541 1571v196h-197v-196h197zM1307 1266v157h-523v-157h154l-303 -478l-342 543h-2l-58 92h-305v-157h195l412 -650v-491h-193v-158h373v125v524l411 650h181z" />
<glyph unicode="&#x192;" d="M1141 1481q-45 14 -72 21t-49.5 11.5t-47 7.5t-52.5 3q-127 0 -199 -66.5t-100 -183.5l-43 -178h-168l-33 -158h168l-246 -1135q-4 -27 -15.5 -44t-23.5 -29q-12 -10 -32.5 -16.5t-51.5 -6.5q-39 0 -74 8l-40 9q-19 4 -54 14l-37 -164q49 -16 100.5 -28.5t104.5 -12.5 q72 0 127 16.5t92 55.5q37 35 61.5 91t41.5 130l241 1112h222l34 158h-223l33 135q8 39 20.5 61.5t24.5 32.5q29 23 78 23q47 0 88 -7l37 -8q18 -4 53 -14z" />
<glyph unicode="&#x2c6;" horiz-adv-x="681" d="M713 1073l-297 363h-152l-295 -363h154l217 201l219 -201h154z" />
<glyph unicode="&#x2dc;" horiz-adv-x="681" d="M719 1376h-125q-16 -43 -27.5 -60.5t-21.5 -23.5q-20 -14 -47 -14q-20 0 -52 10t-77 37q-100 53 -179 53q-68 0 -124 -51q-29 -25 -51.5 -69t-49.5 -125h123q16 43 28.5 60t22.5 24q20 14 47 14q18 0 50 -10.5t79 -36.5q96 -53 179 -54q68 0 124 52q29 25 51.5 68.5 t49.5 125.5z" />
<glyph unicode="&#x2000;" horiz-adv-x="944" />
<glyph unicode="&#x2001;" horiz-adv-x="1890" />
<glyph unicode="&#x2002;" horiz-adv-x="944" />
<glyph unicode="&#x2003;" horiz-adv-x="1890" />
<glyph unicode="&#x2004;" horiz-adv-x="628" />
<glyph unicode="&#x2005;" horiz-adv-x="471" />
<glyph unicode="&#x2006;" horiz-adv-x="313" />
<glyph unicode="&#x2007;" horiz-adv-x="313" />
<glyph unicode="&#x2008;" horiz-adv-x="235" />
<glyph unicode="&#x2009;" horiz-adv-x="376" />
<glyph unicode="&#x200a;" horiz-adv-x="104" />
<glyph unicode="&#x2010;" horiz-adv-x="704" d="M664 481v158h-627v-158h627z" />
<glyph unicode="&#x2011;" horiz-adv-x="704" d="M664 481v158h-627v-158h627z" />
<glyph unicode="&#x2012;" horiz-adv-x="704" d="M664 481v158h-627v-158h627z" />
<glyph unicode="&#x2013;" horiz-adv-x="1024" d="M1057 426v174h-1090v-174h1090z" />
<glyph unicode="&#x2014;" horiz-adv-x="2048" d="M2081 426v174h-2114v-174h2114z" />
<glyph unicode="&#x2018;" horiz-adv-x="512" d="M365 1284v141q-66 -4 -102 -23.5t-58 -53.5q-39 -66 -39 -187v-252h180v256h-51q2 76 12 101q2 8 10.5 13t47.5 5z" />
<glyph unicode="&#x2019;" horiz-adv-x="512" d="M346 1171v252h-180v-256h51q-2 -76 -12 -100q-2 -8 -10.5 -13t-47.5 -5v-142q66 4 102 23.5t58 54.5q39 65 39 186z" />
<glyph unicode="&#x201a;" horiz-adv-x="512" d="M346 -29v252h-180v-256h51q-2 -76 -12 -100q-2 -8 -10.5 -13.5t-47.5 -5.5v-141q66 4 102 23.5t58 54.5q39 65 39 186z" />
<glyph unicode="&#x201c;" horiz-adv-x="980" d="M829 1284v141q-66 -4 -101.5 -23.5t-57.5 -53.5q-39 -66 -39 -187v-252h180v256h-51q2 76 12 101q2 8 10 13t47 5zM350 1284v141q-66 -4 -101.5 -23.5t-58.5 -53.5q-39 -66 -38 -187v-252h180v256h-51q2 76 12 101q2 8 10 13t47 5z" />
<glyph unicode="&#x201d;" horiz-adv-x="980" d="M829 1171v252h-180v-256h51q-2 -76 -12 -100q-2 -8 -10 -13t-47 -5v-142q66 4 101.5 23.5t58.5 54.5q38 65 38 186zM350 1171v252h-180v-256h51q-2 -76 -12 -100q-2 -8 -10.5 -13t-46.5 -5v-142q66 4 101.5 23.5t57.5 54.5q39 65 39 186z" />
<glyph unicode="&#x201e;" horiz-adv-x="980" d="M834 -29v252h-181v-256h52q-2 -76 -13 -100q-2 -8 -10 -13.5t-47 -5.5v-141q66 4 101.5 23.5t58.5 54.5q39 65 39 186zM346 -29v252h-180v-256h51q-2 -76 -12 -100q-2 -8 -10.5 -13.5t-47.5 -5.5v-141q66 4 102 23.5t58 54.5q39 65 39 186z" />
<glyph unicode="&#x2020;" horiz-adv-x="960" d="M971 782v193q-117 -2 -179.5 -5t-84.5 -14q-12 -4 -52.5 -8t-111.5 -8q4 96 7 145.5t7 59.5q10 23 13 89t5 189h-184q0 -240 17 -278q4 -10 8 -59.5t8 -145.5q-139 6 -164 16q-23 10 -86 13.5t-180 5.5v-193q225 0 266 17q10 4 51 9t115 9q0 -33 -1 -57.5t-3 -44.5 q-6 -45 -33 -115q0 -182 12 -473l13 -284q6 -138 14 -285h111l39 1042q-29 72 -33 115q-2 20 -3 44.5t-1 57.5q72 -4 112.5 -9t53.5 -9q41 -17 264 -17z" />
<glyph unicode="&#x2021;" horiz-adv-x="1003" d="M991 -25v193q-117 -2 -179 -5t-85 -13q-12 -4 -52 -8.5t-114 -8.5q2 41 3 81t5 77q4 41 17.5 89t42.5 112q-53 113 -60 196q-4 37 -5 76t-3 78q72 -4 113 -9.5t53 -9.5q41 -16 264 -16v192q-117 -2 -179 -5t-85 -13q-12 -4 -52 -8t-112 -8q8 147 19 165q6 23 9 92.5 t3 200.5h-180q0 -131 3 -200.5t9 -92.5q10 -18 18 -165q-74 4 -113.5 8t-49.5 8q-23 10 -86.5 13t-180.5 5v-192q225 0 267 16q10 4 51 9.5t114 9.5l-4 -78q-2 -39 -6 -76q-4 -43 -17 -90t-38 -106q27 -63 39 -111.5t16 -89.5q4 -37 5 -77t3 -81q-139 6 -163 17 q-23 10 -86.5 13t-180.5 5v-193q225 0 267 17q23 10 163 18q-8 -152 -16 -170q-8 -20 -11 -89.5t-3 -199.5h180q0 129 -3 199t-11 90q-8 18 -17 170q72 -4 112 -9t52 -9q41 -17 264 -17z" />
<glyph unicode="&#x2022;" horiz-adv-x="677" d="M526 623q0 84 -57 139q-55 57 -139 57q-82 0 -140 -57q-57 -55 -57 -139t57 -142q61 -57 142 -57q80 0 137 57.5t57 141.5z" />
<glyph unicode="&#x2026;" horiz-adv-x="2048" d="M1806 -33v197h-180v-197h180zM1124 -33v197h-180v-197h180zM442 -33v197h-180v-197h180z" />
<glyph unicode="&#x202f;" horiz-adv-x="376" />
<glyph unicode="&#x2030;" horiz-adv-x="2048" d="M2032 344q0 188 -74 295q-80 111 -236 111q-154 0 -233 -111q-76 -109 -76 -295q0 -92 17.5 -167t56.5 -128q41 -57 100.5 -83.5t134.5 -26.5q76 0 135.5 26.5t100.5 83.5q39 53 56.5 128t17.5 167zM1337 344q0 188 -73 295q-80 111 -236 111q-154 0 -233 -111 q-76 -109 -76 -295q0 -92 17.5 -167t56.5 -128q41 -57 100 -83.5t135 -26.5t135.5 26.5t100.5 83.5q39 53 56 128t17 167zM1268 1423h-105h-28h-684q-57 23 -123 23q-156 0 -234 -111q-76 -106 -76 -293q0 -78 14.5 -150.5t49.5 -129.5t94.5 -91t151.5 -34q76 0 135 26.5 t100 84.5q39 53 56.5 127.5t17.5 166.5q0 70 -14.5 146t-55.5 139h484l-959 -1360h150zM1884 344q0 -72 -11 -126t-32 -91q-37 -66 -117 -66q-78 0 -116 66q-20 35 -31.5 89t-11.5 126t11 125t32 92q39 68 114 68q78 0 119 -68q20 -35 31.5 -89t11.5 -126zM1190 344 q0 -72 -11.5 -126t-31.5 -91q-37 -66 -117 -66q-78 0 -117 66q-20 35 -31.5 89t-11.5 126t11.5 125t31.5 92q39 68 115 68q78 0 119 -68q20 -35 31.5 -89t11.5 -126zM489 1042q0 -72 -11 -126t-32 -89q-39 -68 -116 -67q-80 0 -117 65q-43 74 -43 215q0 72 11.5 125.5 t31.5 89.5q39 68 115 68q78 0 118 -68q20 -35 31.5 -88t11.5 -125z" />
<glyph unicode="&#x2039;" horiz-adv-x="468" d="M518 -33l-332 522l332 523h-190l-334 -523l334 -522h190z" />
<glyph unicode="&#x203a;" horiz-adv-x="468" d="M475 489l-334 523h-190l332 -523l-332 -522h190z" />
<glyph unicode="&#x205f;" horiz-adv-x="471" />
<glyph unicode="&#x2122;" horiz-adv-x="1921" d="M1718 541v882h-211l-186 -585l-180 585h-213v-882h159v555l173 -555h118l185 567v-567h155zM901 1270v153h-702v-153h274v-729h156v729h272z" />
<glyph unicode="&#xe000;" horiz-adv-x="1000" d="M0 1000h1000v-1000h-1000v1000z" />
<glyph unicode="&#xe001;" horiz-adv-x="1366" d="M1251 342v156h-551l125 315h426v156h-366l96 250h-160l-96 -250h-612v-156h553l-125 -315h-428v-156h368l-96 -250h160l96 250h610z" />
<glyph unicode="&#xe002;" horiz-adv-x="1460" d="M1444 541q0 139 -103 229q-100 90 -221 90q-94 0 -180 -43q-76 -37 -209 -160q-133 123 -209 160q-86 43 -180 43q-121 0 -221 -90q-102 -90 -103 -229q0 -139 103 -230q100 -90 221 -90q72 0 166 39q84 39 223 164q139 -125 223 -164q94 -39 166 -39q121 0 221 90 q103 91 103 230zM1274 541q0 -70 -41 -111q-39 -39 -113 -39q-80 0 -147 49q-31 23 -60.5 47.5t-58.5 53.5q29 29 58.5 53l60.5 47q68 49 147 49q70 0 111 -47q43 -49 43 -102zM608 541q-29 -29 -58.5 -53.5t-60.5 -47.5q-68 -49 -147 -49q-74 0 -113 39q-41 41 -41 111 q0 53 43 102q41 47 111 47q80 0 147 -49l60.5 -47t58.5 -53z" />
<glyph unicode="&#xe003;" horiz-adv-x="1366" d="M1251 190v175l-895 372l895 373v174l-1138 -483v-127zM1251 -33v137h-1138v-137h1138z" />
<glyph unicode="&#xe004;" horiz-adv-x="1366" d="M1253 674v127l-1138 483v-174l893 -373l-893 -372v-175zM1253 -33v137h-1138v-137h1138z" />
<glyph unicode="&#xe005;" horiz-adv-x="1011" d="M979 805q0 332 -166 547q-172 215 -412 215q-88 0 -161 -23q-35 -10 -70 -24.5t-88 -38.5l121 -156q45 23 73.5 35t55.5 22q49 18 114 19q145 0 226 -129q84 -137 84 -361q0 -25 -1 -50t-3 -54q-2 -16 -4.5 -30.5t-4.5 -31.5q-33 25 -61.5 44.5t-56.5 31.5 q-76 35 -166 35q-180 0 -312 -147q-127 -145 -127 -349q0 -209 138 -325q135 -111 282 -111q139 0 240.5 75t167.5 216q131 275 131 590zM715 604q-37 -295 -113 -424q-39 -68 -85 -98.5t-103 -30.5q-78 0 -113 66q-18 39 -28.5 85t-10.5 101q0 188 88 301q43 55 88 81 t90 26q70 0 115 -33q45 -35 72 -74z" />
<glyph unicode="&#xe006;" horiz-adv-x="1460" d="M1464 270h-110q-35 -90 -60.5 -135t-48.5 -61q-18 -16 -54 -25.5t-91 -9.5h-688l573 659l-536 703h473q92 0 141 -13.5t65 -35.5q23 -27 42.5 -70t39.5 -115h101l-17 392h-1046l-285 18l737 -965l-747 -854l197 11h1028q39 0 71 -9l46 -8l69 -12q10 86 19.5 144.5 t19.5 109.5q10 53 24 116z" />
<glyph unicode="&#xe007;" horiz-adv-x="1685" d="M1677 -420v113q-86 0 -121.5 9t-48 21.5t-20.5 37t-8 65.5v1282q0 51 11 83t28 48q18 18 52 28.5t101 10.5v113h-1648v-113q68 0 101.5 -10.5t51.5 -28.5q18 -16 29.5 -48t11.5 -83v-1282q0 -41 -8 -65.5t-21 -36.5q-10 -12 -47 -21.5t-123 -9.5v-113h695v111 q-86 4 -122 13t-48.5 21.5t-20.5 36t-8 64.5v1386h668v-1386q0 -41 -8.5 -65.5t-20.5 -37t-47 -21.5t-121 -9v-113h692z" />
<glyph unicode="&#xe008;" horiz-adv-x="1124" d="M1118 342h-110q0 -57 -7.5 -83t-21.5 -40q-25 -31 -59 -31q-12 0 -29 7.5t-37 27.5q-16 14 -25.5 42t-9.5 75q0 76 6 227l7.5 120t7.5 101h262v242h-797q-131 0 -207 -104q-35 -47 -63.5 -107.5t-59.5 -159.5h99q29 47 48 72t36 35q35 23 75 22h60l-55 -432 q-6 -47 -33 -85t-60 -72q-14 -12 -23 -25.5t-18 -28.5q-20 -33 -20 -73q0 -57 43 -101q39 -43 100 -43q78 0 117 58q33 49 49 110l90 692h166q-10 -80 -16 -145t-10 -117l-7.5 -112.5t-3.5 -102.5q0 -86 15.5 -154.5t48.5 -117.5q31 -49 71.5 -77t94.5 -28q113 0 194 105 q41 53 60.5 123.5t21.5 179.5z" />
<glyph unicode="&#xe009;" horiz-adv-x="561" d="M629 1485q0 74 -60 112q-51 35 -108 35q-92 0 -142.5 -68.5t-68.5 -185.5q-37 -227 -37 -665q0 -520 6 -645q6 -127 6 -193q0 -61 -4 -102t-10 -64q-2 -6 -3 -13t-5 -13h2q-6 0 -21 20q-18 23 -39.5 35t-50.5 12q-43 0 -84 -37q-39 -35 -39 -86q0 -72 54 -114 q51 -41 102 -41q100 0 159.5 72.5t86.5 199.5q29 129 41 325.5t12 471.5q0 143 -6 277t-17 261q-10 125 -15 204t-5 116q0 4 4 12q10 0 23 -14q33 -35 82 -35q63 0 100 39q16 18 26.5 38.5t10.5 45.5z" />
<glyph unicode="&#xe00a;" horiz-adv-x="1572" d="M1540 -33v398h-88q-16 -55 -25.5 -79t-15.5 -32q-4 -4 -19.5 -9t-50.5 -5h-282q203 55 317 213q123 166 123 364q0 297 -215 463q-207 162 -496 162q-285 0 -497 -164q-213 -170 -213 -461q0 -225 129 -381q119 -143 311 -196h-282q-35 0 -50.5 5t-19.5 9 q-6 8 -15.5 30.5t-23.5 80.5h-90v-398h674l-39 369q-72 23 -121 58.5t-90 94.5q-78 115 -78 334q0 129 28.5 219.5t82.5 149.5q113 119 294 119q186 0 295 -123q111 -123 111 -365q0 -219 -82 -331q-41 -59 -91 -96.5t-116 -59.5l-39 -369h674z" />
<glyph unicode="&#xe00b;" horiz-adv-x="1124" d="M1092 1577l-136 18l-249 -1562l-373 762l-357 -177l62 -126l197 96l528 -1094z" />
<glyph unicode="&#xe00c;" horiz-adv-x="1366" d="M1180 981l-142 47q-29 -39 -50 -59.5t-44 -32.5q-47 -25 -98 -25q-31 0 -203 52q-170 55 -248 55q-90 0 -168 -41q-41 -20 -81 -58t-93 -110l144 -57q39 47 62.5 71.5t41.5 34.5q35 23 88 23q20 0 72.5 -13.5t142.5 -42.5q88 -29 150.5 -43t97.5 -14q86 0 172 45 q45 25 82 61.5t74 106.5zM1180 510l-142 47q-29 -39 -50 -59.5t-44 -32.5q-47 -25 -98 -25q-31 0 -203 52q-170 55 -248 55q-90 0 -168 -41q-41 -20 -81 -58t-93 -110l144 -57q39 47 62.5 71.5t41.5 34.5q35 23 88 23q20 0 72.5 -13.5t142.5 -42.5q88 -29 150.5 -43 t97.5 -14q86 0 172 45q45 25 82 61.5t74 106.5z" />
<glyph unicode="&#xe00d;" horiz-adv-x="1253" d="M1294 -33l-624 1524l-709 -1524h1333zM942 133h-743l393 844z" />
<glyph unicode="&#xe00e;" horiz-adv-x="1011" d="M991 772l-413 787h-164l-414 -787l414 -805h164zM795 772l-299 -590l-299 590l299 571z" />
<glyph unicode="&#xe00f;" horiz-adv-x="1087" d="M1122 1018v405h-944v-125v-874h-127v-158h127v-141h-180v-158h360v125v174h127v158h-127v213l512 2v156h-512v471h607v-248h157z" />
<glyph unicode="&#xe010;" horiz-adv-x="1622" d="M1143 1819h-152q-23 -47 -43 -74t-43 -41q-47 -31 -102 -31q-57 0 -103 31q-23 16 -44 42t-44 73h-153q33 -92 66.5 -145.5t78.5 -88.5q88 -74 199 -74q106 0 196 74q45 35 79 88.5t65 145.5zM1544 659h-758v-157h568q-35 -176 -170 -277q-154 -113 -357 -112 q-256 0 -415 163q-162 166 -162 420q0 260 155.5 422t395.5 162q166 0 311 -92q72 -47 121 -113.5t80 -171.5h149v418h-157v-80q-78 78 -185 131q-154 74 -321 74q-313 0 -520 -213q-209 -215 -209 -537q0 -164 52 -299t161 -239q211 -211 542 -211q313 0 514 184 q102 94 152.5 221t52.5 307z" />
<glyph unicode="&#xe011;" horiz-adv-x="1216" d="M907 1403h-151q-23 -47 -43.5 -73.5t-42.5 -41.5q-47 -31 -103 -31q-57 0 -102 31q-23 16 -44.5 42t-43.5 73h-154q33 -92 67 -145.5t79 -88.5q88 -74 198 -73q106 0 197 73q45 35 78.5 88.5t64.5 145.5zM1264 844v157h-351v-143q-70 82 -139 119q-100 51 -213 51 q-215 0 -364.5 -161.5t-149.5 -391.5q0 -223 148 -373q143 -150 364 -149q119 0 229 55q70 37 125 98v-139q0 -143 -92 -219q-96 -78 -250 -78q-23 0 -56.5 5.5l-67 11.5t-61.5 12t-40 10l-39 -153l28 -8q28 -7 67.5 -16t83.5 -16.5t75 -7.5q229 0 375 127q150 129 149 342 v867h179zM913 483q0 -158 -100 -268q-100 -106 -248 -106q-154 0 -248 104q-96 106 -96 270t101 277q98 111 243 110q141 0 246 -112q102 -115 102 -275z" />
<glyph unicode="&#xe012;" horiz-adv-x="575" d="M375 1462v197h-180v-197h180zM553 -33v158h-176v1173v125h-180v-125v-1173h-174v-158h530z" />
<glyph unicode="&#xe013;" horiz-adv-x="1110" d="M1053 365q0 180 -113 286q-55 51 -155.5 94t-241.5 78q-76 16 -134.5 40t-101.5 52q-76 53 -76 154q0 90 72 150q74 61 189 61q76 0 134 -10t105 -45q23 -18 38 -43t24.5 -51.5t13.5 -50t4 -38.5v-59h174l-1 25q-1 25 -5 58.5t-10 70.5t-19 61q-14 33 -29.5 53.5 t-37.5 46.5q-41 43 -80 65.5t-88 45.5q-53 23 -108.5 30t-108.5 7q-182 0 -310 -107q-129 -111 -129 -266q0 -174 111 -272q53 -49 137 -86t195 -66q111 -27 182.5 -55.5t112.5 -58.5q76 -55 75 -158q0 -117 -84 -189q-86 -76 -213 -75q-147 0 -256 96q-104 96 -104 219v82 h-160v-543h160v123q55 -55 123 -88q78 -37 158 -49l-29 -150q55 0 77.5 -5t35.5 -13q20 -14 20 -41q0 -37 -35 -57q-23 -12 -44 -17.5t-44 -7.5q-25 -2 -51.5 0t-65.5 4v-133h62q158 0 248 51q98 55 98 174q0 82 -51 133q-41 39 -92 50l2 8q168 16 284 117q142 119 142 299z " />
<glyph unicode="&#xe014;" horiz-adv-x="917" d="M870 260q0 129 -75 205q-41 41 -117 67.5t-184 47.5q-150 27 -195 57q-18 14 -28.5 34.5t-10.5 55.5q0 59 45 102q49 45 133 45q100 0 166 -59q33 -29 49.5 -71t20.5 -113h153v342h-155v-27q-49 43 -108.5 62.5t-127.5 19.5q-141 0 -237 -82q-100 -82 -101 -223 q0 -143 92 -211q86 -63 267 -94q158 -27 209 -66q23 -16 34 -39.5t11 -62.5q0 -68 -64 -117q-72 -49 -166 -49q-127 0 -200 68q-35 33 -54.5 82t-21.5 135h-160v-402h160v64q37 -35 86 -57.5t110 -32.5l-26 -138q55 0 77.5 -5t34.5 -13q20 -14 21 -41q0 -37 -35 -57 q-23 -12 -44 -17.5t-44 -7.5q-25 -2 -51.5 0t-65.5 4v-133h62q158 0 248 51q98 55 98 174q0 82 -51 133q-37 37 -86 50q135 12 219 82q112 87 112 237z" />
<glyph unicode="&#xe015;" horiz-adv-x="1536" d="M1059 1864h-201l-246 -383h154zM1513 467l-151 90q-53 -141 -107.5 -223t-117.5 -127q-131 -94 -314 -94q-240 0 -393 163q-156 162 -156 420t152 422q152 162 389 162q168 0 309 -92q70 -45 112 -109.5t62 -165.5h156v387h-160v-49q-88 88 -192 133q-141 61 -283 62 q-319 0 -524 -209q-201 -213 -201 -541q0 -336 201 -542q203 -207 526 -207q227 0 406 116q90 59 159.5 156.5t126.5 247.5z" />
<glyph unicode="&#xe016;" horiz-adv-x="1044" d="M782 1448h-200l-246 -383h153zM1026 281l-147 61q-29 -72 -60 -114t-67 -70q-76 -57 -187 -58q-154 0 -246 105q-94 104 -94 278t92 279q88 104 234 104q102 0 190 -65q39 -31 61.5 -84t26.5 -150h152v373h-154v-12q-37 33 -79 55q-84 45 -197 45q-213 0 -358 -158 q-141 -160 -142 -387q0 -238 142 -391q143 -154 370 -153q154 0 273 81q59 41 105 102t85 159z" />
<glyph unicode="&#xe017;" horiz-adv-x="1536" d="M1194 1853h-154l-219 -200l-217 200h-153l294 -362h152zM1513 467l-151 90q-53 -141 -107.5 -223t-117.5 -127q-131 -94 -314 -94q-240 0 -393 163q-156 162 -156 420t152 422q152 162 389 162q168 0 309 -92q70 -45 112 -109.5t62 -165.5h156v387h-160v-49 q-88 88 -192 133q-141 61 -283 62q-319 0 -524 -209q-201 -213 -201 -541q0 -336 201 -542q203 -207 526 -207q227 0 406 116q90 59 159.5 156.5t126.5 247.5z" />
<glyph unicode="&#xe018;" horiz-adv-x="1044" d="M918 1438h-154l-219 -201l-217 201h-154l295 -363h152zM1026 281l-147 61q-29 -72 -60 -114t-67 -70q-76 -57 -187 -58q-154 0 -246 105q-94 104 -94 278t92 279q88 104 234 104q102 0 190 -65q39 -31 61.5 -84t26.5 -150h152v373h-154v-12q-37 33 -79 55q-84 45 -197 45 q-213 0 -358 -158q-141 -160 -142 -387q0 -238 142 -391q143 -154 370 -153q154 0 273 81q59 41 105 102t85 159z" />
<glyph unicode="&#xe019;" horiz-adv-x="1216" d="M1243 -33v158h-176v930h119v151h-119v217h-170v-92h-2v-125h-293v-151h293v-185q-59 68 -129 105q-111 53 -219 53q-219 0 -362.5 -155.5t-143.5 -389.5q0 -223 145 -379q147 -152 367 -151q117 0 217 51q68 33 125 94v-131h348zM897 489q0 -168 -96 -276 q-98 -106 -248 -107q-145 0 -246 109q-100 111 -100 268q0 166 98 281q100 111 244 110q143 0 246 -110q102 -113 102 -275z" />
<glyph unicode="&#xe01a;" horiz-adv-x="1366" d="M1204 291l-135 133q39 53 61 115q29 70 29 159q0 84 -29 160q-27 61 -61 115l135 133l-112 113l-134 -136q-53 39 -114 62q-70 29 -160 29q-84 0 -160 -29q-61 -27 -114 -62l-131 136l-113 -113l135 -131q-47 -63 -69.5 -131t-22.5 -146q0 -84 29 -159q27 -61 61 -115 l-131 -133l108 -113l134 135q53 -39 114 -61q70 -29 160 -29q84 0 160 29q61 27 114 61l134 -135zM997 698q0 -129 -92 -221t-221 -92t-221 92t-92 221t92 221.5t221 92.5t221 -92.5t92 -221.5z" />
<glyph unicode="&#xe01b;" horiz-adv-x="1343" d="M1034 1612v125h-723v-125h723zM1425 -33v158h-182l-399 1141h160v157h-451l-37 -114l-410 -1184h-186v-158h356v125l138 404h516l129 -371h-160v-158h526zM877 653h-408l205 594z" />
<glyph unicode="&#xe01c;" horiz-adv-x="1044" d="M885 1196v125h-723v-125h723zM1057 -33v158h-162v596q0 154 -107 233q-51 39 -122.5 56.5t-163.5 17.5q-41 0 -91.5 -12t-94.5 -25.5t-73 -25.5l-30 -13l49 -123l40 14l61.5 19t69.5 17.5t65 7.5q106 0 170 -41q55 -35 55 -125v-176q-29 14 -56.5 23.5t-56.5 17.5 q-80 18 -143 18q-174 0 -285 -92q-111 -96 -110 -240q0 -127 94 -225q94 -94 240 -94q92 0 190 43q35 16 65.5 33.5t61.5 40.5v-103h334zM723 240q-53 -55 -133 -97q-86 -43 -160 -43q-86 0 -135 50q-49 51 -49 114q0 82 61 137q61 57 178 58q66 0 133 -23q55 -23 105 -49 v-147z" />
<glyph unicode="&#xe01d;" horiz-adv-x="1343" d="M1014 1819h-152q-23 -47 -43 -74t-43 -41q-47 -31 -102 -31q-57 0 -103 31q-23 16 -44 42t-44 73h-153q33 -92 66.5 -145.5t78.5 -88.5q88 -74 199 -74q106 0 196 74q45 35 79 88.5t65 145.5zM1425 -33v158h-182l-399 1141h160v157h-451l-37 -114l-410 -1184h-186v-158 h356v125l138 404h516l129 -371h-160v-158h526zM877 653h-408l205 594z" />
<glyph unicode="&#xe01e;" horiz-adv-x="1044" d="M864 1403h-151q-23 -47 -43.5 -73.5t-42.5 -41.5q-47 -31 -103 -31q-57 0 -102 31q-23 16 -44.5 42t-43.5 73h-154q33 -92 67 -145.5t79 -88.5q88 -74 198 -73q106 0 197 73q45 35 78.5 88.5t64.5 145.5zM1057 -33v158h-162v596q0 154 -107 233q-51 39 -122.5 56.5 t-163.5 17.5q-41 0 -91.5 -12t-94.5 -25.5t-73 -25.5l-30 -13l49 -123l40 14l61.5 19t69.5 17.5t65 7.5q106 0 170 -41q55 -35 55 -125v-176q-29 14 -56.5 23.5t-56.5 17.5q-80 18 -143 18q-174 0 -285 -92q-111 -96 -110 -240q0 -127 94 -225q94 -94 240 -94q92 0 190 43 q35 16 65.5 33.5t61.5 40.5v-103h334zM723 240q-53 -55 -133 -97q-86 -43 -160 -43q-86 0 -135 50q-49 51 -49 114q0 82 61 137q61 57 178 58q66 0 133 -23q55 -23 105 -49v-147z" />
<glyph unicode="&#xe01f;" horiz-adv-x="1343" d="M1452 -338v152q-53 -20 -75.5 -26.5l-35.5 -10.5q-10 -2 -23 -3t-30 -1q-35 0 -67 22q-25 18 -25 60q0 33 18.5 63.5t36.5 48.5h174v158h-182l-399 1141h160v157h-451l-37 -114l-410 -1184h-186v-158h356v125l138 404h516l129 -371h-160v-158h180l-12 -18 q-35 -51 -35 -113q0 -104 80 -166q72 -59 178 -59q47 0 81 11t81 40zM877 653h-408l205 594z" />
<glyph unicode="&#xe020;" horiz-adv-x="1044" d="M1145 -338v152q-53 -20 -75.5 -26.5l-35.5 -10.5q-10 -2 -23.5 -3t-29.5 -1q-35 0 -68 22q-25 18 -24 60q0 33 18.5 63.5t36.5 48.5h113v158h-162v596q0 154 -107 233q-51 39 -122.5 56.5t-163.5 17.5q-41 0 -91.5 -12t-94.5 -25.5t-73 -25.5l-30 -13l49 -123l40 14 l61.5 19t69.5 17.5t65 7.5q106 0 170 -41q55 -35 55 -125v-176q-29 14 -56.5 23.5t-56.5 17.5q-80 18 -143 18q-174 0 -285 -92q-111 -96 -110 -240q0 -127 94 -225q94 -94 240 -94q92 0 190 43q35 16 65.5 33.5t61.5 40.5v-103h49l-12 -18q-35 -51 -35 -113q0 -104 80 -166 q72 -59 178 -59q47 0 81 11t81 40zM723 240q-53 -55 -133 -97q-86 -43 -160 -43q-86 0 -135 50q-49 51 -49 114q0 82 61 137q61 57 178 58q66 0 133 -23q55 -23 105 -49v-147z" />
<glyph unicode="&#xe021;" horiz-adv-x="1449" d="M1030 1853h-153l-220 -200l-217 200h-153l295 -362h151zM1386 694q0 324 -190 527q-195 203 -584 202h-628v-157h192v-1174v-125h434q211 0 362.5 54.5t241.5 166.5q172 217 172 506zM1206 694q0 -145 -36.5 -249.5t-108.5 -176.5q-147 -143 -434 -143h-271v1141h267 q281 0 432 -148t151 -424z" />
<glyph unicode="&#xe022;" horiz-adv-x="1380" d="M1329 1171v252h-180v-256h51q-2 -76 -12 -100q-2 -8 -10.5 -13t-47.5 -5v-142q66 4 102 23.5t58 54.5q39 65 39 186zM1243 -33v158h-176v1298h-172v-125v-428q-59 68 -129 105q-111 53 -219 53q-219 0 -362.5 -155.5t-143.5 -389.5q0 -223 145 -379q147 -152 367 -151 q117 0 217 51q68 33 125 94v-131h348zM897 489q0 -168 -96 -276q-98 -106 -248 -107q-145 0 -246 109q-100 111 -100 268q0 166 98 281q100 111 244 110q143 0 246 -110q102 -113 102 -275z" />
<glyph unicode="&#xe023;" horiz-adv-x="1449" d="M1386 694q0 324 -190 527q-195 203 -584 202h-628v-153l192 4v-498h-190v-158h190v-526v-125h434q211 0 362.5 54.5t241.5 166.5q172 217 172 506zM1206 694q0 -145 -36.5 -249.5t-108.5 -176.5q-147 -143 -434 -143h-271v493h428v158h-428v490h267q281 0 432 -148 t151 -424z" />
<glyph unicode="&#xe024;" horiz-adv-x="1236" d="M981 1612v125h-723v-125h723zM1178 -33v158h-127h-695v508h578v158h-578v475h662v-246h158v403h-1178v-157h178v-1174v-125h1002z" />
<glyph unicode="&#xe025;" d="M928 1196v125h-723v-125h723zM1096 428q-8 156 -45 263.5t-109 185.5q-141 152 -367 151q-229 0 -378 -154q-147 -158 -148 -391q0 -238 152 -389q150 -156 381 -155q41 0 96 13t106.5 28.5t85.5 28.5l35 14l-43 141q-14 -6 -47 -18.5t-71.5 -24.5t-78.5 -21.5t-67 -9.5 q-164 0 -270 111q-88 88 -107 227h875zM909 586h-680q25 106 88 176q98 111 250 110q143 0 236 -88q77 -79 106 -198z" />
<glyph unicode="&#xe026;" horiz-adv-x="1236" d="M719 1571v196h-197v-196h197zM1178 -33v158h-127h-695v508h578v158h-578v475h662v-246h158v403h-1178v-157h178v-1174v-125h1002z" />
<glyph unicode="&#xe027;" d="M666 1155v197h-197v-197h197zM1096 428q-8 156 -45 263.5t-109 185.5q-141 152 -367 151q-229 0 -378 -154q-147 -158 -148 -391q0 -238 152 -389q150 -156 381 -155q41 0 96 13t106.5 28.5t85.5 28.5l35 14l-43 141q-14 -6 -47 -18.5t-71.5 -24.5t-78.5 -21.5t-67 -9.5 q-164 0 -270 111q-88 88 -107 227h875zM909 586h-680q25 106 88 176q98 111 250 110q143 0 236 -88q77 -79 106 -198z" />
<glyph unicode="&#xe028;" horiz-adv-x="1236" d="M1178 -33v158h-127h-695v508h578v158h-578v475h662v-246h158v403h-1178v-157h178v-1174v-125h576l-13 -18q-35 -51 -34 -113q0 -104 79 -166q72 -59 179 -59q47 0 80.5 11t80.5 40v152q-53 -20 -75.5 -26.5t-34.5 -10.5q-10 -2 -23.5 -3t-29.5 -1q-35 0 -68 22 q-25 18 -25 60q0 33 18.5 63.5t37.5 48.5h254z" />
<glyph unicode="&#xe029;" d="M1096 428q-8 156 -45 263.5t-109 185.5q-141 152 -367 151q-229 0 -378 -154q-147 -158 -148 -391q0 -238 152 -389q102 -109 254 -143q-37 -53 -37 -115q0 -104 80 -166q72 -59 178 -59q47 0 81 11t81 40v152q-53 -20 -76 -26.5t-35 -10.5q-10 -2 -23.5 -3t-29.5 -1 q-35 0 -68 22q-25 18 -24 60q0 25 9 45t23 41q41 4 91.5 17t95.5 27.5t75 25.5l29 12l-43 141q-14 -6 -47 -18.5t-71.5 -24.5t-78.5 -21.5t-67 -9.5q-164 0 -270 111q-88 88 -107 227h875zM909 586h-680q25 106 88 176q98 111 250 110q143 0 236 -88q77 -79 106 -198z" />
<glyph unicode="&#xe02a;" horiz-adv-x="1236" d="M991 1853h-153l-220 -200l-217 200h-153l295 -362h151zM1178 -33v158h-127h-695v508h578v158h-578v475h662v-246h158v403h-1178v-157h178v-1174v-125h1002z" />
<glyph unicode="&#xe02b;" d="M938 1438h-154l-219 -201l-217 201h-153l294 -363h152zM1096 428q-8 156 -45 263.5t-109 185.5q-141 152 -367 151q-229 0 -378 -154q-147 -158 -148 -391q0 -238 152 -389q150 -156 381 -155q41 0 96 13t106.5 28.5t85.5 28.5l35 14l-43 141q-14 -6 -47 -18.5 t-71.5 -24.5t-78.5 -21.5t-67 -9.5q-164 0 -270 111q-88 88 -107 227h875zM909 586h-680q25 106 88 176q98 111 250 110q143 0 236 -88q77 -79 106 -198z" />
<glyph unicode="&#xe02c;" horiz-adv-x="1622" d="M1544 659h-758v-157h568q-35 -176 -170 -277q-154 -113 -357 -112q-256 0 -415 163q-162 166 -162 420q0 260 155.5 422t395.5 162q166 0 311 -92q72 -47 121 -113.5t80 -171.5h149v418h-157v-80q-78 78 -185 131q-154 74 -321 74q-313 0 -520 -213q-209 -215 -209 -537 q0 -164 52 -299t161 -239q186 -188 467 -209l-27 -146q55 0 77.5 -5t35.5 -13q20 -14 20 -41q0 -37 -35 -57q-23 -12 -44 -17.5t-44 -7.5q-25 -2 -51.5 0t-65.5 4v-133h62q158 0 248 51q98 55 98 174q0 82 -51 133q-41 39 -92 50l2 8q279 16 456 182q102 94 152.5 221 t52.5 307z" />
<glyph unicode="&#xe02d;" horiz-adv-x="1216" d="M803 1448h-201l-246 -383h154zM1264 844v157h-351v-143q-70 82 -139 119q-100 51 -213 51q-215 0 -364.5 -161.5t-149.5 -391.5q0 -223 148 -373q143 -150 364 -149q119 0 229 55q70 37 125 98v-139q0 -143 -92 -219q-96 -78 -250 -78q-23 0 -56.5 5.5l-67 11.5t-61.5 12 t-40 10l-39 -153l28 -8q28 -7 67.5 -16t83.5 -16.5t75 -7.5q229 0 375 127q150 129 149 342v867h179zM913 483q0 -158 -100 -268q-100 -106 -248 -106q-154 0 -248 104q-96 106 -96 270t101 277q98 111 243 110q141 0 246 -112q102 -115 102 -275z" />
<glyph unicode="&#xe02e;" horiz-adv-x="575" d="M649 1612v125h-723v-125h723zM553 -33v158h-176v1173v125h-180v-125v-1173h-174v-158h530z" />
<glyph unicode="&#xe02f;" horiz-adv-x="512" d="M618 1196v125h-722v-125h722zM526 -33v158h-166v876h-342v-157h170v-719h-170v-158h508z" />
<glyph unicode="&#xe030;" horiz-adv-x="575" d="M375 1462v197h-180v-197h180zM553 -33v158h-176v1173v125h-180v-125v-1173h-174v-158h155l-12 -18q-35 -51 -35 -113q0 -104 80 -166q72 -59 178 -59q47 0 81 11t81 40v152q-53 -20 -75.5 -26.5l-35.5 -10.5q-10 -2 -23.5 -3t-29.5 -1q-35 0 -68 22q-25 18 -24 60 q0 33 18.5 63.5t36.5 48.5h203z" />
<glyph unicode="&#xe031;" horiz-adv-x="512" d="M358 1331q0 49 -34 80q-31 35 -80 35t-80 -35q-35 -35 -35 -82q0 -49 35 -80q31 -35 80 -35t80 35q34 35 34 82zM530 -338v152q-53 -20 -75.5 -26.5t-34.5 -10.5q-10 -2 -23.5 -3t-29.5 -1q-35 0 -68 22q-25 18 -25 60q0 33 18.5 63.5t37.5 48.5h194v158h-166v876h-342 v-157h170v-785h2v-57q-18 -18 -43 -53q-35 -51 -34 -113q0 -104 79 -166q72 -59 179 -59q47 0 80.5 11t80.5 40z" />
<glyph unicode="&#xe032;" horiz-adv-x="1193" d="M1262 -33v158h-168l-562 614l533 527h168v157h-238l-100 -102l-537 -526v471h191v157h-555v-157h184v-1174v-125h35l-27 -139q57 0 80 -4t35 -14q20 -14 21 -41q0 -37 -35 -58q-39 -23 -90 -22q-25 -2 -51.5 -1t-63.5 3v-133h61q158 0 248 51q98 57 98 174q0 82 -51 133 q-39 39 -92 51h205v158h-193v537l535 -592l90 -103h279z" />
<glyph unicode="&#xe033;" horiz-adv-x="1067" d="M1126 -33v158h-168l-462 387l487 332h127v157h-174l-60 -42l-151 -103l-193 -132l-188 -128v827h-350v-157h178v-1207h2v-92h43l-29 -145q55 0 79 -5t34 -14q20 -14 21 -41q0 -39 -33 -57q-23 -12 -45.5 -17t-44.5 -7q-25 -2 -51.5 0t-65.5 4v-134h61q158 0 248 52 q98 55 98 174q0 82 -51 133q-37 39 -92 49l2 8h174v158h-178v303l528 -461h254z" />
<glyph unicode="&#xe034;" horiz-adv-x="1044" d="M670 1864h-201l-246 -383h154zM1053 -33v516h-176v-358h-508v1141h2v157h-371v-157h188v-1141h-188v-158h1053z" />
<glyph unicode="&#xe035;" horiz-adv-x="491" d="M588 1839h-201l-246 -383h154zM506 -33v158h-174v1298h-348v-157h176v-1174v-125h346z" />
<glyph unicode="&#xe036;" horiz-adv-x="1044" d="M1053 -33v516h-176v-358h-508v1141h2v157h-371v-157h188v-1141h-188v-158h457l-27 -145q55 0 77.5 -5t35.5 -14q20 -14 20 -41q0 -41 -35 -57q-23 -12 -44 -17t-44 -7q-25 -2 -51.5 0t-64.5 4v-134h61q158 0 248 52q98 55 98 174q0 82 -51 133q-37 39 -92 49l2 8h463z " />
<glyph unicode="&#xe037;" horiz-adv-x="491" d="M506 -33v158h-174v1298h-348v-157h176v-1174v-125h35l-27 -145q55 0 77.5 -4t35.5 -15q20 -14 20 -41q0 -37 -35 -57q-39 -18 -88 -22q-25 -2 -51.5 -1t-65.5 3v-134h62q158 0 248 52q98 57 98 174q0 82 -51 135q-41 37 -92 49l2 6h178z" />
<glyph unicode="&#xe038;" horiz-adv-x="1044" d="M899 1171v252h-180v-256h51q-2 -76 -12 -100q-2 -8 -10.5 -13t-47.5 -5v-142q66 4 102 23.5t58 54.5q39 65 39 186zM1053 -33v516h-176v-358h-508v1141h2v157h-371v-157h188v-1141h-188v-158h1053z" />
<glyph unicode="&#xe039;" horiz-adv-x="655" d="M602 1171v252h-180v-256h51q-2 -76 -12 -100q-2 -8 -10.5 -13t-47.5 -5v-142q66 4 102 23.5t58 54.5q39 65 39 186zM506 -33v158h-174v1298h-348v-157h176v-1174v-125h346z" />
<glyph unicode="&#xe03a;" horiz-adv-x="1044" d="M768 643v197h-197v-197h197zM1053 -33v516h-176v-358h-508v1141h2v157h-371v-157h188v-1141h-188v-158h1053z" />
<glyph unicode="&#xe03b;" horiz-adv-x="655" d="M614 643v197h-196v-197h196zM506 -33v158h-174v1298h-348v-157h176v-1174v-125h346z" />
<glyph unicode="&#xe03c;" horiz-adv-x="1449" d="M963 1864h-201l-246 -383h154zM1462 1266v157h-342v-125v-1034l-171 265l-171 259l-203 308l-208 327h-379v-157h186v-1174v-125h358v158h-196v1030l786 -1206h160v1317h180z" />
<glyph unicode="&#xe03d;" horiz-adv-x="1087" d="M780 1448h-200l-246 -383h153zM1114 -33v158h-153v616q0 129 -80 209q-80 78 -211 78q-100 0 -209 -45q-35 -16 -67 -34.5t-62 -41.5v94h-348v-157h176v-752v-125h329v158h-157v592q35 31 72.5 56.5t80.5 47.5q92 45 170 45q133 0 133 -137v-637v-125h326z" />
<glyph unicode="&#xe03e;" horiz-adv-x="1449" d="M1462 1266v157h-342v-125v-1034l-171 265l-171 259l-203 308l-208 327h-379v-157h186v-1174v-125h45l-26 -141q55 0 78.5 -5t33.5 -14q20 -14 21 -40q0 -37 -33 -58q-23 -12 -45.5 -17t-44.5 -7q-25 -2 -51.5 0t-65.5 4v-133h61q158 0 248 51q98 57 99 174q0 82 -52 133 q-37 39 -90 49v4h180v158h-196v1030l786 -1206h160v1317h180z" />
<glyph unicode="&#xe03f;" horiz-adv-x="1087" d="M1114 -33v158h-153v616q0 129 -80 209q-80 78 -211 78q-100 0 -209 -45q-35 -16 -67 -34.5t-62 -41.5v94h-348v-157h176v-752v-125h53l-27 -137q55 0 78 -5t35 -13q20 -14 20 -41q0 -41 -34 -58q-23 -12 -44.5 -17t-43.5 -7q-25 -2 -51.5 0t-65.5 4v-133h61q158 0 248 51 q98 55 98 174q0 82 -51 133q-37 39 -90 49h143v158h-157v592q35 31 72.5 56.5t80.5 47.5q92 45 170 45q133 0 133 -137v-637v-125h326z" />
<glyph unicode="&#xe040;" horiz-adv-x="1449" d="M1098 1853h-154l-219 -200l-217 200h-154l295 -362h152zM1462 1266v157h-342v-125v-1034l-171 265l-171 259l-203 308l-208 327h-379v-157h186v-1174v-125h358v158h-196v1030l786 -1206h160v1317h180z" />
<glyph unicode="&#xe041;" horiz-adv-x="1087" d="M915 1438h-153l-219 -201l-217 201h-154l295 -363h151zM1114 -33v158h-153v616q0 129 -80 209q-80 78 -211 78q-100 0 -209 -45q-35 -16 -67 -34.5t-62 -41.5v94h-348v-157h176v-752v-125h329v158h-157v592q35 31 72.5 56.5t80.5 47.5q92 45 170 45q133 0 133 -137v-637 v-125h326z" />
<glyph unicode="&#xe042;" horiz-adv-x="1599" d="M1161 1612v125h-723v-125h723zM1536 696q0 322 -209 537q-207 213 -524 213t-524 -213q-209 -215 -209 -537t209 -536q207 -213 524 -213t524 213q209 214 209 536zM1356 696q0 -252 -156 -420q-158 -164 -397 -163q-242 0 -395 166q-158 164 -158 417q0 254 158 418 q154 166 395 166q240 0 397 -164q156 -168 156 -420z" />
<glyph unicode="&#xe043;" d="M928 1196v125h-723v-125h723zM1083 483q0 229 -147.5 387t-368.5 158t-368.5 -157.5t-147.5 -387.5q0 -231 148 -387q147 -158 368 -157q221 0 369 157q147 156 147 387zM909 483q0 -168 -96 -276q-98 -106 -246 -107q-147 0 -245 107q-96 109 -97 276q0 168 97 277 q98 106 245 106t246 -106q96 -109 96 -277z" />
<glyph unicode="&#xe044;" horiz-adv-x="1599" d="M1243 1864h-201l-245 -383h153zM1008 1864h-199l-246 -383h154zM1536 696q0 322 -209 537q-207 213 -524 213t-524 -213q-209 -215 -209 -537t209 -536q207 -213 524 -213t524 213q209 214 209 536zM1356 696q0 -252 -156 -420q-158 -164 -397 -163q-242 0 -395 166 q-158 164 -158 417q0 254 158 418q154 166 395 166q240 0 397 -164q156 -168 156 -420z" />
<glyph unicode="&#xe045;" d="M1010 1448h-201l-246 -383h154zM774 1448h-199l-245 -383h153zM1083 483q0 229 -147.5 387t-368.5 158t-368.5 -157.5t-147.5 -387.5q0 -231 148 -387q147 -158 368 -157q221 0 369 157q147 156 147 387zM909 483q0 -168 -96 -276q-98 -106 -246 -107q-147 0 -245 107 q-96 109 -97 276q0 168 97 277q98 106 245 106t246 -106q96 -109 96 -277z" />
<glyph unicode="&#xe046;" horiz-adv-x="1173" d="M803 1864h-201l-246 -383h154zM1237 -33v158h-190l-252 557q145 39 221 125q84 98 84 250q0 160 -117 264q-115 102 -293 102h-717v-157h205v-1301h180v697h254l314 -695h311zM920 1047q0 -113 -72 -168q-76 -59 -219 -60h-271v447h308q121 0 186 -62q68 -55 68 -157z " />
<glyph unicode="&#xe047;" horiz-adv-x="811" d="M700 1448h-200l-246 -383h154zM817 860v166l-69 4q-35 2 -75 -2t-80 -12t-77 -20.5t-67 -26.5q-23 -12 -43.5 -30.5t-36.5 -39.5v102h-357v-157h185v-752v-125h370v158h-198v401q0 92 23.5 153.5t66.5 100.5t113.5 59.5t172.5 20.5h72z" />
<glyph unicode="&#xe048;" horiz-adv-x="1173" d="M1237 -33v158h-190l-252 557q145 39 221 125q84 98 84 250q0 160 -117 264q-115 102 -293 102h-717v-157h205v-1301h19l-27 -139q55 0 78.5 -4t34.5 -15q20 -14 20 -40q0 -37 -33 -58q-39 -18 -90 -22q-25 -2 -51.5 -1t-65.5 3v-133h62q158 0 248 51q98 57 98 174 q0 82 -51 135q-37 37 -92 49h30v697h254l314 -695h311zM920 1047q0 -113 -72 -168q-76 -59 -219 -60h-271v447h308q121 0 186 -62q68 -55 68 -157z" />
<glyph unicode="&#xe049;" horiz-adv-x="811" d="M817 860v166l-69 4q-35 2 -75 -2t-80 -12t-77 -20.5t-67 -26.5q-23 -12 -43.5 -30.5t-36.5 -39.5v102h-357v-157h185v-752v-125h22l-24 -137q55 0 77.5 -5t34.5 -13q20 -14 21 -41q0 -37 -35 -58q-23 -12 -44.5 -17t-43.5 -7q-25 -2 -51.5 0t-65.5 4v-133h62 q158 0 247 51q98 57 99 174q0 82 -52 133q-37 39 -88 49h211v158h-198v401q0 92 23.5 153.5t66.5 100.5t113.5 59.5t172.5 20.5h72z" />
<glyph unicode="&#xe04a;" horiz-adv-x="1173" d="M938 1853h-154l-219 -200l-217 200h-153l294 -362h152zM1237 -33v158h-190l-252 557q145 39 221 125q84 98 84 250q0 160 -117 264q-115 102 -293 102h-717v-157h205v-1301h180v697h254l314 -695h311zM920 1047q0 -113 -72 -168q-76 -59 -219 -60h-271v447h308 q121 0 186 -62q68 -55 68 -157z" />
<glyph unicode="&#xe04b;" horiz-adv-x="811" d="M836 1438h-154l-219 -201l-217 201h-154l295 -363h152zM817 860v166l-69 4q-35 2 -75 -2t-80 -12t-77 -20.5t-67 -26.5q-23 -12 -43.5 -30.5t-36.5 -39.5v102h-357v-157h185v-752v-125h370v158h-198v401q0 92 23.5 153.5t66.5 100.5t113.5 59.5t172.5 20.5h72z" />
<glyph unicode="&#xe04c;" horiz-adv-x="1110" d="M793 1864h-201l-246 -383h154zM1053 365q0 180 -113 286q-55 51 -155.5 94t-241.5 78q-76 16 -134.5 40t-101.5 52q-76 53 -76 154q0 90 72 150q74 61 189 61q76 0 134 -10t105 -45q23 -18 38 -43t24.5 -51.5t13.5 -50t4 -38.5v-59h174l-1 25q-1 25 -5 58.5t-10 70.5 t-19 61q-14 33 -29.5 53.5t-37.5 46.5q-41 43 -80 65.5t-88 45.5q-53 23 -108.5 30t-108.5 7q-182 0 -310 -107q-129 -111 -129 -266q0 -174 111 -272q53 -49 137 -86t195 -66q111 -27 182.5 -55.5t112.5 -58.5q76 -55 75 -158q0 -117 -84 -189q-86 -76 -213 -75 q-147 0 -256 96q-104 96 -104 219v82h-160v-543h160v123q55 -55 123 -88q113 -55 235 -55q201 0 338 119q142 119 142 299z" />
<glyph unicode="&#xe04d;" horiz-adv-x="917" d="M696 1448h-200l-246 -383h153zM870 260q0 129 -75 205q-41 41 -117 67.5t-184 47.5q-150 27 -195 57q-18 14 -28.5 34.5t-10.5 55.5q0 59 45 102q49 45 133 45q100 0 166 -59q33 -29 49.5 -71t20.5 -113h153v342h-155v-27q-49 43 -108.5 62.5t-127.5 19.5 q-141 0 -237 -82q-100 -82 -101 -223q0 -143 92 -211q86 -63 267 -94q158 -27 209 -66q23 -16 34 -39.5t11 -62.5q0 -68 -64 -117q-72 -49 -166 -49q-127 0 -200 68q-35 33 -54.5 82t-21.5 135h-160v-402h160v64q37 -35 86 -58q82 -37 180 -36q180 0 287 86q112 87 112 237z " />
<glyph unicode="&#xe04e;" horiz-adv-x="1173" d="M1174 1083v340h-1172v-503h160v346h336v-1141h-191v-158h209l-22 -123q55 0 77.5 -5t34.5 -13q20 -14 21 -41q0 -41 -35 -57q-20 -12 -43 -17.5t-45 -7.5q-25 -2 -51.5 -1t-65.5 3v-131h62q158 0 247 51q98 55 99 174q0 82 -52 133q-27 27 -65 43v1291h336v-183h160z" />
<glyph unicode="&#xe04f;" horiz-adv-x="532" d="M543 -242q0 82 -51 133q-41 39 -93 50l2 12l119 18v160l-149 -25q-18 0 -27.5 4.5t-13.5 8.5q-4 6 -8.5 19.5t-4.5 41.5v664h203v157h-203v220l-172 -2v-218h-172v-157h172v-684q0 -68 27 -124t98 -79l-28 -154q55 0 77.5 -5t34.5 -13q20 -14 21 -41q0 -37 -35 -57 q-23 -12 -44.5 -17.5t-43.5 -7.5q-25 -2 -51.5 0t-65.5 4v-133h62q158 0 247 51q99 55 99 174z" />
<glyph unicode="&#xe050;" horiz-adv-x="1173" d="M938 1853h-154l-219 -200l-217 200h-153l294 -362h152zM1174 1083v340h-1172v-503h160v346h336v-1141h-191v-158h371v1299h336v-183h160z" />
<glyph unicode="&#xe051;" horiz-adv-x="737" d="M725 1171v252h-180v-256h51q-2 -76 -12 -100q-2 -8 -10.5 -13t-47.5 -5v-142q66 4 102 23.5t58 54.5q39 65 39 186zM520 -29v160l-149 -25q-18 0 -27.5 4.5t-13.5 8.5q-4 6 -8.5 19.5t-4.5 41.5v664h203v157h-203v220l-172 -2v-218h-172v-157h172v-684q0 -100 52 -158 q29 -31 68.5 -44t88.5 -13z" />
<glyph unicode="&#xe052;" horiz-adv-x="1323" d="M1024 1612v125h-723v-125h723zM1348 1266v157h-359v-125v-899q0 -145 -80 -215q-41 -35 -102.5 -53t-147.5 -18q-162 0 -243 75q-84 72 -84 215v863h176v157h-535v-157h179v-850q0 -227 135 -348q133 -121 375 -121t374 121q133 125 133 348v850h179z" />
<glyph unicode="&#xe053;" horiz-adv-x="1110" d="M918 1196v125h-723v-125h723zM1126 -33v158h-168v876h-172v-124v-607q-61 -61 -149 -108q-92 -47 -174 -47q-127 0 -127 131v755h-342v-157h170v-617q0 -125 76 -200q41 -39 92 -56.5t112 -17.5q113 0 220 47q72 33 122 70v-103h340z" />
<glyph unicode="&#xe054;" horiz-adv-x="1323" d="M883 1669q0 90 -65.5 155.5t-155.5 65.5t-156 -65q-63 -63 -64 -156q0 -92 64 -156q66 -66 156 -65q90 0 155.5 65.5t65.5 155.5zM1348 1266v157h-359v-125v-899q0 -145 -80 -215q-41 -35 -102.5 -53t-147.5 -18q-162 0 -243 75q-84 72 -84 215v863h176v157h-535v-157 h179v-850q0 -227 135 -348q133 -121 375 -121t374 121q133 125 133 348v850h179zM756 1669q0 -41 -27 -67.5t-67 -26.5q-39 0 -66 26.5t-27 67.5t27 67.5t66 26.5q41 0 67.5 -26.5t26.5 -67.5z" />
<glyph unicode="&#xe055;" horiz-adv-x="1110" d="M776 1253q0 90 -65.5 156t-155.5 66t-156 -66q-63 -63 -63 -156q0 -92 63 -155q66 -66 156 -66t155.5 65.5t65.5 155.5zM1126 -33v158h-168v876h-172v-124v-607q-61 -61 -149 -108q-92 -47 -174 -47q-127 0 -127 131v755h-342v-157h170v-617q0 -125 76 -200 q41 -39 92 -56.5t112 -17.5q113 0 220 47q72 33 122 70v-103h340zM649 1253q0 -41 -26.5 -67.5t-67.5 -26.5q-39 0 -65.5 26.5t-26.5 67.5t26.5 68t65.5 27q41 0 67.5 -27t26.5 -68z" />
<glyph unicode="&#xe056;" horiz-adv-x="1323" d="M1106 1864h-201l-246 -383h154zM870 1864h-198l-246 -383h154zM1348 1266v157h-359v-125v-899q0 -145 -80 -215q-41 -35 -102.5 -53t-147.5 -18q-162 0 -243 75q-84 72 -84 215v863h176v157h-535v-157h179v-850q0 -227 135 -348q133 -121 375 -121t374 121 q133 125 133 348v850h179z" />
<glyph unicode="&#xe057;" horiz-adv-x="1323" d="M1348 1266v157h-359v-125v-899q0 -145 -80 -215q-41 -35 -102.5 -53t-147.5 -18q-162 0 -243 75q-84 72 -84 215v863h176v157h-535v-157h179v-850q0 -227 135 -348q100 -90 262 -113q-18 -27 -28.5 -55.5t-10.5 -63.5q0 -104 80 -166q72 -59 178 -59q47 0 81 11t81 40 v152q-53 -20 -76 -26.5t-35 -10.5q-10 -2 -23.5 -3t-29.5 -1q-35 0 -68 22q-25 18 -24 60q0 33 18 63q4 10 10.5 16.5t10.5 14.5q205 10 323 119q133 125 133 348v850h179z" />
<glyph unicode="&#xe058;" horiz-adv-x="1110" d="M1206 -338v152q-53 -20 -75.5 -26.5t-34.5 -10.5q-10 -2 -23.5 -3t-30.5 -1q-35 0 -67 22q-25 18 -25 60q0 33 18.5 63.5t37.5 48.5h120v158h-168v876h-172v-124v-607q-61 -61 -149 -108q-92 -47 -174 -47q-127 0 -127 131v755h-342v-157h170v-617q0 -125 76 -200 q41 -39 92 -56.5t112 -17.5q113 0 220 47q72 33 122 70v-103h48l-13 -18q-35 -51 -35 -113q0 -104 80 -166q72 -59 178 -59q47 0 81 11t81 40z" />
<glyph unicode="&#xe059;" d="M803 1864h-201l-246 -383h154zM1100 -33v424h-160v-266h-684l823 1165v133h-1011v-157h125h651l-821 -1164v-135h1077z" />
<glyph unicode="&#xe05a;" horiz-adv-x="980" d="M727 1448h-201l-245 -383h153zM926 866v135h-817v-157h116h477l-643 -740v-137h865v420h-152v-262h-491z" />
<glyph unicode="&#xe05b;" d="M666 1571v196h-197v-196h197zM1100 -33v424h-160v-266h-684l823 1165v133h-1011v-157h125h651l-821 -1164v-135h1077z" />
<glyph unicode="&#xe05c;" horiz-adv-x="980" d="M590 1155v197h-197v-197h197zM926 866v135h-817v-157h116h477l-643 -740v-137h865v420h-152v-262h-491z" />
</font>
</defs>
</svg>
