<?xml version="1.0" standalone="no"?>
<!DOCTYPE svg PUBLIC "-//W3C//DTD SVG 1.1//EN" "http://www.w3.org/Graphics/SVG/1.1/DTD/svg11.dtd" >
<svg xmlns="http://www.w3.org/2000/svg">
<metadata>
This is a custom SVG webfont generated by Font Squirrel.
Copyright   : Copyright c Manfred Klein 032005
</metadata>
<defs>
<font id="webfontr5XbSuJ0" horiz-adv-x="1130" >
<font-face units-per-em="2048" ascent="1638" descent="-410" />
<missing-glyph horiz-adv-x="512" />
<glyph unicode="&#xd;" horiz-adv-x="512" d="M510 -16v125h-166v876h-309v-125h170v-751h-170v-125h475z" />
<glyph horiz-adv-x="681" d="M659 1386h-118q-20 -43 -42 -69.5t-46 -42.5q-47 -33 -111 -33q-63 0 -111 33q-49 35 -90 112h-118q27 -74 58.5 -121.5t72.5 -82.5q84 -70 188 -70q102 0 186 70q43 35 74.5 82.5t56.5 121.5z" />
<glyph horiz-adv-x="681" d="M424 1171v164h-164v-164h164z" />
<glyph horiz-adv-x="681" d="M545 1253q0 82 -60 146q-63 59 -145 59q-84 0 -143 -59q-59 -63 -60 -146q0 -82 60 -145q59 -59 143 -59q82 0 145 59q60 63 60 145zM451 1253q0 -47 -33 -77q-31 -33 -78 -33t-78 33q-31 31 -31 77q0 47 31 78q31 33 78 33t78 -33q33 -31 33 -78z" />
<glyph unicode="&#xa;" horiz-adv-x="681" d="M844 1432h-158l-227 -351h116zM608 1432h-155l-228 -351h117z" />
<glyph horiz-adv-x="681" d="M535 -330v119q-39 -14 -58.5 -19.5t-32.5 -9.5q-12 -2 -26.5 -3t-30.5 -1q-45 0 -78 25q-31 25 -30 74q0 39 20 71q12 20 28.5 39t55.5 51h-135q-20 -16 -35.5 -34.5l-32.5 -40.5q-33 -47 -33 -105q0 -96 74 -153q70 -55 168 -56q45 0 76 10t70 33z" />
<glyph horiz-adv-x="681" d="M678 1421h-113l-225 -207l-223 207h-113l268 -329h136z" />
<glyph horiz-adv-x="704" d="M911 1407h-110l-1004 -1423h111z" />
<glyph horiz-adv-x="1110" d="M989 1331q0 37 -28 70q-33 29 -70 29t-70 -29q-29 -33 -28 -72q0 -37 28 -69q33 -29 70 -29t70 29q28 32 28 71zM1100 -16v125h-146v876h-473h-28h-127v178q0 74 30 109q33 33 84 33q49 0 74 -25q14 -14 25.5 -34.5t21.5 -59.5l125 18q-8 53 -27.5 91t-50.5 71 q-63 63 -166 64q-115 0 -184 -80q-37 -39 -54.5 -91.5t-17.5 -115.5v-158h-149v-125h149v-751h-155v-125h436v125h-141v751h127h28h334v-751h-151v-125h436z" />
<glyph horiz-adv-x="1110" d="M1100 -16v125h-148v1298h-401q-39 23 -107 23q-117 0 -186 -80q-37 -39 -54.5 -91.5t-17.5 -115.5v-158h-155v-125h155v-751h-155v-125h436v125h-141v751h157v125h-157v178q0 74 30 109q33 33 84 33q57 0 82 -35t39 -84l125 18q-8 47 -20 78h147v-1173h-149v-125h436z " />
<glyph horiz-adv-x="1044" d="M1036 -16v585h-143v-460h-541v614l281 229v133l-281 -229v426h187v125h-521v-125h187v-547l-221 -180v-133l221 180v-493h-189v-125h1020z" />
<glyph horiz-adv-x="491" d="M541 881v123l-226 -185v588h-315v-125h176v-575l-223 -183v-123l223 183v-475h-174v-125h487v125h-174v587z" />
<glyph d="M903 1837h-112l-226 -207l-223 207h-113l269 -330h135zM1083 -16v391h-127v-266h-733l840 1185v113h-979v-125h109h684l-838 -1184v-114h1044z" />
<glyph horiz-adv-x="980" d="M827 1421h-112l-226 -207l-223 207h-112l268 -329h135zM909 872v113h-784v-125h100h512l-661 -762v-114h831v387h-119v-262h-542z" />
<glyph unicode=" "  horiz-adv-x="512" />
<glyph unicode="&#x09;" horiz-adv-x="512" />
<glyph unicode="&#xa0;" horiz-adv-x="512" />
<glyph unicode="!" horiz-adv-x="512" d="M326 1407h-140v-453l25 -602h90l25 596v459zM330 -16v143h-148v-143h148z" />
<glyph unicode="&#x22;" horiz-adv-x="575" d="M522 1198v232h-147v-230l31 -274h86zM203 1198v232h-148v-230l31 -274h86z" />
<glyph unicode="#" horiz-adv-x="1368" d="M1219 414v125h-267l76 364h191v125h-164l86 418h-131l-86 -418h-351l86 418h-131l-86 -418h-290v-125h264l-76 -364h-188v-125h163l-86 -416h131l86 416h351l-86 -416h131l86 416h291zM897 903l-76 -364h-350l76 364h350z" />
<glyph unicode="$" horiz-adv-x="1044" d="M1004 346q0 168 -97 275q-86 94 -305 143v481q80 -18 129 -74q39 -39 59.5 -95t22.5 -142h131q-4 127 -37 210t-96 132q-94 76 -209 94v60h-127v-60q-137 -14 -242 -94q-127 -96 -127 -242q0 -156 95 -256q86 -88 274 -127v-561q-59 10 -105 29.5t-85 56.5l-97 -94 q59 -53 129 -80t158 -35v-157h127v157q156 14 266 105q136 110 136 274zM475 793q-102 27 -158 71q-70 57 -69 170q0 92 78 156q63 47 149 59v-456zM872 358q0 -117 -90 -196q-37 -31 -82 -50.5t-98 -23.5v539q72 -18 120 -41t77 -47q73 -72 73 -181z" />
<glyph unicode="%" horiz-adv-x="1728" d="M1675 362q0 186 -71 285q-74 104 -222 105q-145 0 -221 -105q-72 -98 -71 -285q0 -184 71 -286q74 -102 221 -103q152 0 224 103q69 102 69 286zM1417 1407h-84h-16h-852q-55 23 -121 23q-145 0 -219 -103q-74 -100 -74 -285q0 -184 72 -286.5t223 -102.5q147 0 221 103 q70 102 70 286q0 39 -4 80t-13.5 82t-28 78t-44.5 68h721l-961 -1366h109zM1561 362q0 -74 -11.5 -129t-33.5 -96q-43 -74 -132 -74q-86 0 -131 74q-45 80 -45 223q0 141 45 226q45 76 129 76q88 0 134 -76q45 -81 45 -224zM522 1042q0 -74 -11 -129t-34 -96 q-43 -74 -131 -74q-86 0 -131 76q-45 80 -45 221q0 139 45 224q45 76 131 75q86 0 131 -75q45 -81 45 -222z" />
<glyph unicode="&#x26;" horiz-adv-x="1429" d="M1364 590v125h-266q-12 -70 -28.5 -127.5t-39.5 -112.5q-16 -39 -32.5 -70.5t-32.5 -58.5l-322 442q123 47 217 119q121 90 121 228q0 127 -98 213q-96 82 -234 82q-141 0 -241 -87q-102 -90 -103 -219q0 -84 64 -178q20 -31 40 -56l35 -48q-158 -59 -249 -154 q-104 -111 -105 -278q0 -170 125 -308q121 -139 346 -139q57 0 114.5 12.5t115.5 40.5q47 20 87 50t76 69l111 -151l147 6l-170 248q51 66 86 139q23 43 41.5 96t34.5 117h160zM854 1137q0 -88 -86 -150q-78 -55 -199 -96l-32 47l-37 53q-59 88 -60 142q0 80 62 127 q63 47 143 47q84 0 150 -47q59 -47 59 -123zM879 242q-72 -72 -134 -105q-82 -41 -170 -41q-143 0 -239 97q-98 98 -98 237q0 100 77 182q35 37 85.5 69t117.5 56z" />
<glyph unicode="'" horiz-adv-x="448" d="M299 1198v232h-147v-230l30 -274h86z" />
<glyph unicode="(" horiz-adv-x="724" d="M690 -436v123q-211 123 -297 317q-88 195 -88 485q0 291 88 486q86 195 297 317v123q-147 -66 -245.5 -155t-159.5 -211q-121 -242 -121 -560q0 -317 121 -559q61 -123 159.5 -211.5t245.5 -154.5z" />
<glyph unicode=")" horiz-adv-x="724" d="M561 489q0 317 -121 560q-61 123 -159.5 212t-245.5 154v-123q211 -123 297 -317q88 -195 88 -486t-88 -485q-86 -195 -297 -317v-123q147 66 245.5 154.5t159.5 211.5q121 242 121 559z" />
<glyph unicode="*" horiz-adv-x="1003" d="M944 1028l-47 148q-166 -53 -178 -66q-4 -4 -46 -25l-130 -61q10 96 16 142t10 51q10 18 11 190h-156q0 -172 10 -190q4 -4 10.5 -50.5t16.5 -142.5l-130 61q-42 20 -46 25q-12 12 -179 66l-47 -148q78 -25 121 -37t62 -12q12 0 59 -8t133 -27l-97 -105q-32 -34 -36 -34 q-6 -4 -35.5 -38t-85.5 -110l125 -92q104 139 105 162q0 4 22 44l70 124l69 -125q23 -41 23 -45q0 -20 104 -160l125 92q-55 76 -84.5 110t-36.5 38q-4 0 -35 34l-98 105q86 18 134.5 26.5t64.5 8.5t58 12t118 37z" />
<glyph unicode="+" horiz-adv-x="1366" d="M1235 598v123h-492v489h-122v-489h-492v-123h492v-496h122v496h492z" />
<glyph unicode="," horiz-adv-x="512" d="M330 -37v182h-148v-161h51q-6 -106 -16 -131q-4 -10 -15.5 -15.5t-37.5 -5.5v-106q47 2 76.5 18t50.5 47q39 59 39 172z" />
<glyph unicode="-" horiz-adv-x="704" d="M647 498v125h-594v-125h594z" />
<glyph unicode="." horiz-adv-x="512" d="M340 -16v163h-147v-163h147z" />
<glyph unicode="/" horiz-adv-x="575" d="M596 1407h-129l-490 -1460h129z" />
<glyph unicode="0" horiz-adv-x="1087" d="M1008 696q0 344 -113 537q-115 197 -350 197q-236 0 -352 -197q-113 -193 -113 -537q0 -342 113 -534q113 -197 350 -197q236 0 352 197q113 192 113 534zM870 696q0 -285 -84 -452q-78 -160 -241 -160q-164 0 -244 160q-84 168 -84 452q0 287 84 455q78 160 242 160 t243 -160q84 -168 84 -455z" />
<glyph unicode="1" horiz-adv-x="1087" d="M819 -16v125h-196v1300l-336 -45v-102h196v-1153h-196v-125h532z" />
<glyph unicode="2" horiz-adv-x="1087" d="M958 346h-122l-11 -237h-589q23 133 112 258q94 133 318 270q152 94 211 184q63 94 63 232q0 168 -106 272q-111 104 -285 105q-98 0 -175 -33t-143 -105l88 -88q45 57 100.5 82t131.5 25q106 0 180 -74q72 -72 72 -184q0 -117 -59.5 -188.5t-180.5 -145.5 q-133 -82 -224 -170t-142 -187q-51 -96 -79 -180t-24 -155l4 -43h848z" />
<glyph unicode="3" horiz-adv-x="1087" d="M985 385q0 156 -88 250q-68 78 -184 108q86 43 135 111q57 82 57 199q0 164 -106.5 270.5t-272.5 106.5q-168 0 -274 -103q-51 -53 -78 -127t-31 -178h131q2 82 18.5 133t51.5 86q63 70 176 70t180.5 -72t67.5 -182q0 -125 -80 -199q-41 -35 -92 -50t-117 -24l-51 -6 v-110l107 2q72 2 129 -18.5t100 -57.5q86 -78 86 -207q0 -133 -90 -217q-90 -86 -228 -86q-72 0 -131 24.5t-112 77.5l-96 -82q76 -72 156.5 -105.5t178.5 -33.5q199 0 328 117t129 303z" />
<glyph unicode="4" horiz-adv-x="1087" d="M1012 391v115h-228v913h-114l-594 -921l-64 -105l129 -2h521v-299v-108h247v125h-125v282h228zM662 506h-447l447 708v-708z" />
<glyph unicode="5" horiz-adv-x="1087" d="M999 451q0 193 -120 323q-123 131 -306 131q-84 0 -172 -35q-70 -29 -120 -75l45 477h481h111v135h-707l-68 -737q37 -14 56 -25q10 -6 20 -14t27 -25q78 104 145 139q76 41 158 41q143 0 229 -92q86 -96 86 -245q0 -164 -92 -265q-94 -100 -237 -100q-129 0 -222 86 l-104 -72q74 -72 152.5 -102.5t170.5 -30.5q205 0 338 135q129 136 129 351z" />
<glyph unicode="6" horiz-adv-x="1087" d="M993 442q0 201 -110 328q-115 129 -291 129q-115 0 -227 -65q-61 -37 -113 -89q10 250 82 402q80 164 266 164q55 0 98 -20.5t84 -69.5l82 94q-61 59 -128.5 87t-145.5 28q-229 0 -352 -203q-121 -199 -121 -568q0 -367 116 -528q119 -166 336 -166q190 0 308 133 q116 135 116 344zM858 434q0 -162 -80 -256q-76 -94 -211 -94t-225 121t-90 364v29q70 82 147 127q94 55 179 55q127 0 204 -92q76 -94 76 -254z" />
<glyph unicode="7" horiz-adv-x="1087" d="M958 1292v115h-843v-342h127v207h563q-176 -231 -268 -539q-18 -63 -35 -149t-28 -170t-19.5 -159t-12.5 -117t-4 -46v-108h303v125h-163q4 315 94 618q47 156 117.5 296t168.5 269z" />
<glyph unicode="8" horiz-adv-x="1087" d="M1016 383q0 131 -72 227q-57 80 -180 125q90 37 143 105q66 84 66 213q0 162 -123 270q-121 106 -307 107q-184 0 -307 -105q-121 -109 -121 -274q0 -133 69 -217q51 -63 135 -99q-106 -37 -169 -117q-80 -98 -80 -233q0 -184 135 -303q135 -117 340 -117q201 0 338 115 q133 117 133 303zM842 1051q0 -127 -80 -191q-78 -70 -219 -69q-139 0 -217 69q-80 68 -80 187q0 117 84 190q86 74 221 74q129 0 209 -74q82 -73 82 -186zM881 389q0 -139 -93 -221q-96 -84 -245 -84q-152 0 -246 84q-90 84 -90 223q0 133 90 207q94 78 248 78 q150 0 243 -78t93 -209z" />
<glyph unicode="9" horiz-adv-x="1087" d="M969 735q0 365 -115 529q-121 166 -334 166q-190 0 -309 -136q-119 -131 -119 -344q0 -197 111 -325q113 -129 291 -129q119 0 225 63q31 18 59.5 40t52.5 48q-4 -127 -24.5 -226t-54.5 -175q-80 -162 -254 -162q-115 0 -189 82l-84 -90q61 -59 130 -85t153 -26 q223 0 344 209q117 205 117 561zM834 795q-35 -41 -72 -72t-78 -55q-88 -53 -174 -54q-129 0 -203 93q-78 94 -78 241q0 170 78 266.5t213 96.5q139 0 225 -119q88 -119 89 -367v-30z" />
<glyph unicode=":" horiz-adv-x="512" d="M340 762v164h-147v-164h147zM340 -16v163h-147v-163h147z" />
<glyph unicode=";" horiz-adv-x="512" d="M340 762v164h-147v-164h147zM330 -37v182h-148v-161h51q-6 -106 -16 -131q-4 -10 -15.5 -15.5t-37.5 -5.5v-106q47 2 76.5 18t50.5 47q39 59 39 172z" />
<glyph unicode="&#x3c;" horiz-adv-x="1366" d="M1235 133v137l-922 385l922 385v138l-1106 -471v-103z" />
<glyph unicode="=" horiz-adv-x="1366" d="M1245 829v123h-1106v-123h1106zM1245 543v123h-1106v-123h1106z" />
<glyph unicode="&#x3e;" horiz-adv-x="1366" d="M1237 604v103l-1106 471v-138l920 -385l-920 -385v-137z" />
<glyph unicode="?" horiz-adv-x="917" d="M848 1036q0 145 -107 271q-109 123 -295 123q-193 0 -299 -119q-51 -59 -76.5 -130t-25.5 -163h129q0 76 18.5 127t55.5 86q74 74 190 74q121 0 199 -78q76 -78 76 -189q0 -147 -95 -207q-70 -45 -174 -45q-35 0 -79 7l-33 -13l41 -420h78l24 297h8q168 0 269 113 q96 114 96 266zM481 -16v163h-147v-163h147z" />
<glyph unicode="@" horiz-adv-x="1363" d="M1272 502h-107q-29 -43 -71.5 -78t-104.5 -68q-123 -63 -272 -63q-190 0 -338 145q-152 141 -152 367q0 215 146 366q143 150 346 150q182 0 311 -125q125 -125 125 -289q0 -156 -86 -266q-45 -59 -85 -85t-75 -26q-6 0 -14 9q-4 4 -4 14q0 4 1 8t1 10l119 557h-115 l-14 -67q-25 37 -70 59q-66 35 -119 35q-166 0 -264 -139q-94 -133 -94 -293q0 -137 73.5 -211t170.5 -74q82 0 147 45l38 30q17 13 32 30q10 -51 26 -74q10 -14 23.5 -24.5t30.5 -10.5q131 0 247 141q115 139 115 328q0 203 -149 350q-147 152 -375 152q-240 0 -408 -180 q-166 -182 -166 -414q0 -244 162 -420q166 -182 424 -182q184 0 330 88q74 43 126 91t89 114zM842 905q0 -123 -72 -248q-37 -66 -77 -94t-87 -28q-55 0 -106 43q-47 43 -47 137q0 129 65 241q66 106 174 107q66 0 107 -47q43 -48 43 -111z" />
<glyph unicode="A" horiz-adv-x="1343" d="M1409 -16v125h-176l-414 1173h168v125h-422l-35 -102l-413 -1196h-180v-125h323v112l143 416h537l143 -403h-168v-125h494zM899 637h-453l228 659z" />
<glyph unicode="B" horiz-adv-x="1153" d="M1090 397q0 133 -78 228q-66 78 -170 114q70 33 116 97q61 80 62 198q0 178 -115 277q-115 96 -319 96h-568v-125h179v-1190v-2v-108l389 2q236 0 368 106q136 106 136 307zM872 1038q0 -115 -84 -182q-86 -68 -227 -68h-217v494h236q133 0 215 -65q77 -66 77 -179z M942 389q0 -135 -94 -207q-96 -74 -273 -73h-231v555h236q176 0 270 -70q92 -68 92 -205z" />
<glyph unicode="C" horiz-adv-x="1536" d="M1493 459l-123 73q-47 -129 -102.5 -210.5t-122.5 -128.5q-133 -96 -322 -97q-244 0 -405 168q-160 168 -160 432q0 260 156 432q156 168 401 168q174 0 320 -94q72 -47 115.5 -113.5t60.5 -158.5h127v354h-127v-76q-92 106 -215 160q-139 61 -277 62q-313 0 -512 -205 q-197 -207 -196 -529q0 -328 196.5 -530.5t513.5 -202.5q225 0 396 113q88 59 155.5 152.5t120.5 230.5z" />
<glyph unicode="D" horiz-adv-x="1449" d="M1370 694q0 317 -186 516q-190 197 -572 197h-612v-125h193v-1190v-108h417q422 0 592 215q168 212 168 495zM1223 694q0 -291 -152 -438q-147 -147 -444 -147h-287v1173h283q287 0 444 -154q156 -151 156 -434z" />
<glyph unicode="E" horiz-adv-x="1236" d="M1161 -16v125h-110h-711v540h578v125h-578v508h694v-246h125v371h-1145v-125h179v-1190v-108h968z" />
<glyph unicode="F" horiz-adv-x="1087" d="M1106 1034v373h-1092v-125h181v-1173h-181v-125h328v108v561l512 -2v127h-512v504h639v-248h125z" />
<glyph unicode="G" horiz-adv-x="1622" d="M1528 643h-725v-125h571q-31 -195 -180 -305q-158 -117 -367 -117q-262 0 -428 168t-166 432q0 262 160 432q160 168 408 168q170 0 321 -96q74 -47 124 -114.5t79 -165.5h121v385h-125v-107q-84 98 -209 160q-150 72 -313 72q-305 0 -510 -209q-203 -209 -203 -525 q0 -322 207 -528q207 -205 532 -205q309 0 504 180q98 92 147.5 214t51.5 286z" />
<glyph unicode="H" horiz-adv-x="1409" d="M1382 1282v125h-495v-125h180v-494h-727v510v109h-317v-125h170v-1173h-168v-125h315v108v574h727v-557h-178v-125h325v108v1190h168z" />
<glyph unicode="I" horiz-adv-x="575" d="M358 1479v163h-147v-163h147zM537 -16v125h-177v1189v109h-147v-109v-1189h-174v-125h498z" />
<glyph unicode="J" horiz-adv-x="555" d="M555 1282v125h-555v-125h209v-1393q0 -117 -45 -161q-23 -23 -64 -34t-112 -11l-4 -132q197 0 284.5 86.5t87.5 264.5v1380h199z" />
<glyph unicode="K" horiz-adv-x="1193" d="M1245 -16v125h-158l-577 632l547 541h160v125h-213l-99 -96l-588 -580l588 -649l84 -98h256zM535 -16v125h-193v622v551h190v125h-522v-125h185v-1190v-108h340z" />
<glyph unicode="L" horiz-adv-x="1044" d="M1036 -16v483h-143v-358h-541v1173h2v125h-338v-125h189v-1173h-189v-125h1020z" />
<glyph unicode="M" horiz-adv-x="1748" d="M1729 -16v125h-175v1173h175v125h-386l-466 -1139l-471 1139h-383v-125h180v-1190v-108h295v125h-166v1142l514 -1267h43l518 1263v-1155v-108h322z" />
<glyph unicode="N" horiz-adv-x="1449" d="M1446 1282v125h-309v-109v-1089l-186 290l-187 281l-202 306l-206 321h-352v-125h186v-1190v-108h326v125h-197v1101l814 -1245h133v1317h180z" />
<glyph unicode="O" horiz-adv-x="1599" d="M1520 696q0 315 -203 525q-207 209 -514 209q-309 0 -514 -209q-203 -209 -203 -525q0 -315 203 -524q205 -209 514 -209q307 0 514 209q203 209 203 524zM1372 696q0 -262 -160 -430q-160 -170 -409 -170q-248 0 -408 170q-162 168 -162 430t162 430q160 170 408 170 q250 0 409.5 -170t159.5 -430z" />
<glyph unicode="P" d="M1108 981q0 205 -127 313q-127 113 -352 113h-613v-125h185v-1173h-185v-125h332v108v465h301q209 0 332 115q127 114 127 309zM961 969q0 -143 -89 -215q-94 -72 -264 -72h-260v600h260q96 0 163 -19.5t108 -54.5q82 -71 82 -239z" />
<glyph unicode="Q" horiz-adv-x="1599" d="M1520 696q0 315 -203 525q-207 209 -514 209q-309 0 -514 -209q-203 -209 -203 -525q0 -315 203 -526q117 -119 286 -172q-41 -10 -73.5 -27.5t-65.5 -42.5l62 -88q29 20 51 31.5t45 19.5q43 14 86 15q27 0 93.5 -24.5t142 -58.5t147.5 -70t108 -60l76 112q-18 10 -59 31 l-90 44l-100 48q-50 25 -89 41q242 31 408 201q203 211 203 526zM1372 696q0 -262 -160 -430q-160 -170 -409 -170q-248 0 -408 170q-162 168 -162 430t162 430q160 170 408 170q250 0 409.5 -170t159.5 -430z" />
<glyph unicode="R" horiz-adv-x="1173" d="M1221 -16v125h-185l-266 583q158 37 234 125q80 98 79 240q0 154 -112 252q-111 98 -281 98h-700v-125h205v-1300h147v696h281l313 -694h285zM936 1047q0 -119 -78 -181q-82 -63 -229 -63h-287v479h324q123 0 198 -65q72 -61 72 -170z" />
<glyph unicode="S" horiz-adv-x="1110" d="M1036 365q0 174 -106 274q-106 96 -391 168q-154 37 -240 96q-84 55 -84 166q0 96 78 162q82 66 199 65q76 0 137 -10t112 -49q25 -18 42.5 -46t26.5 -55.5t13 -53t4 -40.5v-43h142l-1 22q-1 22 -4 51.5t-9.5 62t-18.5 55.5q-14 33 -28.5 52.5t-37.5 43.5 q-41 43 -77.5 64.5t-83.5 44.5q-51 23 -104.5 29t-106.5 6q-174 0 -299 -103q-123 -102 -123 -254q0 -166 104 -260q53 -47 134 -83t192 -64q217 -53 301 -117q82 -63 82 -172q0 -121 -88 -201q-90 -80 -226 -80q-158 0 -266 101q-111 100 -110 231v66h-127v-510h127v151 q57 -74 145 -119q113 -53 229 -53q195 0 328 115q135 113 135 287z" />
<glyph unicode="T" horiz-adv-x="1173" d="M1157 1100v307h-1139v-471h127v346h369v-1173h-190v-125h338v1298h368v-182h127z" />
<glyph unicode="U" horiz-adv-x="1323" d="M1331 1282v125h-325v-109v-899q0 -154 -86 -227q-88 -76 -261 -76q-168 0 -256 80q-88 78 -88 227v879h177v125h-502v-125h178v-866q0 -219 129 -336q66 -59 157 -88t208 -29q233 0 362 117q129 119 129 336v866h178z" />
<glyph unicode="V" horiz-adv-x="1343" d="M1407 1282v125h-481v-125h164l-400 -1083l-424 1106l-33 102h-294v-125h184l498 -1313h120l482 1313h184z" />
<glyph unicode="W" horiz-adv-x="1941" d="M1995 1282v125h-482v-125h173l-300 -1079l-299 1100l-30 104h-170l-25 -104l-280 -1098l-316 1098l-28 104h-295v-125h178l393 -1313h119l334 1297l356 -1297h115l379 1313h178z" />
<glyph unicode="X" horiz-adv-x="1343" d="M1331 -16v125h-203l-389 610l355 563h192v125h-500v-125h158l-282 -444l-295 469l-68 100h-287v-125h201l373 -582l-373 -591h-201v-125h523v125h-170l297 473l319 -506l55 -92h295z" />
<glyph unicode="Y" horiz-adv-x="1236" d="M1290 1282v125h-489v-125h166l-332 -524l-352 557h-2l-58 92h-278v-125h188l418 -659v-514h-193v-125h340v108v531l418 659h174z" />
<glyph unicode="Z" d="M1083 -16v391h-127v-266h-733l840 1185v113h-979v-125h109h684l-838 -1184v-114h1044z" />
<glyph unicode="[" horiz-adv-x="704" d="M690 -428v125h-328v1585h328v125h-467v-1835h467z" />
<glyph unicode="\" horiz-adv-x="575" d="M598 -45l-489 1452h-132l490 -1452h131z" />
<glyph unicode="]" horiz-adv-x="704" d="M483 1407h-469v-125h328l2 -1585h-330v-125h467z" />
<glyph unicode="^" horiz-adv-x="1343" d="M1141 874l-469 566l-469 -566l86 -75l383 458l383 -458z" />
<glyph unicode="_" horiz-adv-x="1024" d="M1040 -272v135h-1056v-135h1056z" />
<glyph unicode="`" horiz-adv-x="681" d="M522 1081l-227 351h-158l269 -351h116z" />
<glyph unicode="a" horiz-adv-x="1044" d="M1040 -16v125h-161v612q0 147 -99 219q-96 72 -278 72q-41 0 -87 -11.5t-87 -23.5t-68 -24l-27 -11l37 -92q6 2 31 11t58.5 18.5t70.5 16.5t68 7q113 0 178 -43q63 -41 63 -139v-203l-67.5 29.5t-65.5 21.5q-78 18 -139 19q-172 0 -274 -88q-104 -92 -105 -228 q0 -123 90 -213t228 -90q88 0 184 43q76 31 149 90v-118h301zM739 233q-55 -61 -141 -104q-88 -45 -168 -45q-96 0 -147 55q-53 57 -54 125q0 88 66 150q68 61 190 61q72 0 138 -24q61 -20 116 -54v-164z" />
<glyph unicode="b" horiz-adv-x="1259" d="M1190 502q0 221 -141 366q-141 143 -361 144q-102 0 -209 -54q-88 -43 -151 -135v584h-316v-125h176v-1190v-108h140v161q70 -88 151 -129q98 -47 199 -47q225 0 371 148q141 149 141 385zM1049 498q0 -178 -101 -295q-100 -113 -262 -113q-152 0 -256 109 q-104 106 -104 295q0 172 106.5 284.5t257.5 112.5q156 0 258 -111q101 -112 101 -282z" />
<glyph unicode="c" horiz-adv-x="1044" d="M1004 270l-115 52q-27 -61 -57.5 -103.5t-69.5 -73.5q-80 -61 -197 -61q-160 0 -258 109q-98 111 -98 290q0 176 96 289q92 111 246 111q113 0 201 -70q43 -35 65.5 -89t26.5 -140h121v340h-121v-37q-41 51 -105 82q-84 43 -188 43q-209 0 -346 -154q-137 -150 -137 -375 q0 -233 137 -379q137 -150 358 -149q145 0 264 78q57 41 100.5 97t76.5 140z" />
<glyph unicode="d" horiz-adv-x="1216" d="M1227 -16v125h-176v1298h-140v-109v-475q-70 94 -151 138q-102 51 -213 51q-211 0 -350 -152q-139 -147 -140 -377q0 -219 141.5 -366.5t354.5 -147.5q113 0 211 49q82 41 147 125v-159h316zM913 489q0 -174 -100 -286.5t-260 -112.5q-152 0 -258 113q-104 117 -105 280 q0 172 103 291q104 117 256 117q154 0 258 -115q106 -115 106 -287z" />
<glyph unicode="e" d="M1077 444q-6 141 -43 245t-104 175q-135 147 -355 148q-223 0 -366 -149.5t-143 -379.5q0 -227 145 -379q147 -150 371 -149q39 0 92 12.5t99 26.5t79 26l33 13l-33 110q-6 -4 -36 -15t-68.5 -23.5t-79.5 -21.5t-70 -9q-172 0 -283 116q-98 98 -110 254h872zM930 569 h-721q12 61 35.5 112.5t60.5 92.5q104 115 262 115q154 0 248 -94q90 -87 115 -226z" />
<glyph unicode="f" horiz-adv-x="512" d="M680 1204q-8 53 -27.5 91t-50.5 71q-63 63 -166 64q-115 0 -184 -80q-37 -39 -54.5 -91.5t-17.5 -115.5v-158h-149v-125h149v-784h2v-92h328v125h-191v751h191v125h-191v178q0 74 31 109q33 33 84 33q49 0 74 -25q14 -14 25.5 -34.5t21.5 -59.5z" />
<glyph unicode="g" horiz-adv-x="1216" d="M1247 860v125h-317v-174q-82 111 -164 152q-98 49 -205 49q-207 0 -352 -158q-145 -156 -146 -379q0 -217 142 -360q145 -145 354 -146q113 0 223 54q84 43 148 133v-189q0 -152 -99 -231q-100 -82 -260 -82q-25 0 -58.5 5t-65.5 11l-57 12q-26 5 -32 7l-30 -123l25 -6 l62 -15q36 -8 75.5 -14t70.5 -6q223 0 365 123q143 123 143 329v883h178zM930 483q0 -168 -105 -280q-104 -111 -260 -111q-158 0 -260 109q-100 113 -100 282q0 170 104.5 287t255.5 117q150 0 258 -117q107 -119 107 -287z" />
<glyph unicode="h" horiz-adv-x="1110" d="M1114 -16v125h-156v632q0 123 -75 197q-78 74 -201 74q-106 0 -203 -45q-86 -39 -153 -95v535h-316v-125h176v-1206h4v-92h295v125h-159v616q35 33 75.5 60.5t87.5 50.5q100 47 179 47q74 0 112.5 -39t38.5 -115v-637v-108h295z" />
<glyph unicode="i" horiz-adv-x="512" d="M342 1331q0 37 -29 70q-33 29 -69 29q-37 0 -70 -29q-29 -33 -29 -72q0 -37 29 -69q33 -29 70 -29t69 29q29 32 29 71zM508 -16v125h-166v876h-309v-125h170v-784h2v-92h303z" />
<glyph unicode="j" horiz-adv-x="491" d="M346 1331q0 37 -29 70q-33 29 -69 29q-37 0 -70 -29q-29 -33 -28 -72q0 -37 28 -69q33 -29 70 -29t69 29q29 32 29 71zM346 -121v1106h-317v-125h178v-954q0 -113 -48 -169q-41 -48 -132 -48q-17 0 -35 2v-125q24 -2 46 -2q63 0 110 17q65 24 110 65q88 81 88 233z" />
<glyph unicode="k" horiz-adv-x="1067" d="M1110 -16v125h-158l-483 403l508 348h117v125h-154l-30 -20l-79 -56l-112 -79l-132 -90l-136 -92l-123 -83v842h-318v-125h178v-1206h2v-92h316v125h-178v354l551 -479h231z" />
<glyph unicode="l" horiz-adv-x="491" d="M489 -16v125h-174v1298h-315v-125h176v-1190v-108h313z" />
<glyph unicode="m" horiz-adv-x="1728" d="M1716 -16v125h-151v632q0 123 -76 197q-80 74 -205 74q-100 0 -209 -58q-47 -25 -86 -49t-67 -53q-33 78 -91 115q-66 45 -165 45q-104 0 -197 -45q-76 -35 -145 -93v111h-316v-125h176v-768v-108h299v125h-159v616q72 66 161 111q98 47 172 47q76 0 111 -39 q37 -37 37 -115v-745h139v733q39 37 79 66.5t85 52.5q86 47 172 47q74 0 109.5 -41t35.5 -113v-637v-108h291z" />
<glyph unicode="n" horiz-adv-x="1087" d="M1098 -16v125h-154v632q0 123 -76 197q-78 74 -198 74q-104 0 -201 -45q-86 -39 -154 -95v113h-315v-125h176v-768v-108h297v125h-158v616q35 33 76 60.5t88 50.5q98 47 176 47q76 0 113 -40t37 -114v-637v-108h293z" />
<glyph unicode="o" d="M1067 483q0 225 -143 375q-141 154 -357 154q-215 0 -356 -154q-143 -150 -143 -375t143 -374q141 -154 356 -154t357 154q143 149 143 374zM926 483q0 -174 -100.5 -286.5t-258.5 -112.5t-258 112.5t-100 286.5t100.5 287t257.5 113q158 0 258.5 -113t100.5 -287z" />
<glyph unicode="p" horiz-adv-x="1216" d="M1145 489q0 225 -139 373q-137 150 -349 150q-104 0 -208 -49q-84 -43 -154 -138v160h-303v-125h164v-1202v-109h315v125h-176v463q68 -94 145 -133q100 -49 211 -49q219 0 357 151q137 150 137 383zM1014 483q0 -176 -101 -288q-98 -111 -260 -111q-154 0 -258 111 q-104 113 -104 292q0 178 102 291q102 109 254 109q164 0 264 -113q103 -113 103 -291z" />
<glyph unicode="q" horiz-adv-x="1216" d="M1237 872v125h-319v-166q-68 90 -150 130q-102 51 -209 51q-209 0 -350 -152q-139 -152 -139 -373q0 -238 137 -383q137 -150 362 -149q109 0 209 51q82 41 140 129v-461h-173v-125h312v109v1214h180zM924 487q0 -182 -104.5 -292.5t-260.5 -110.5q-158 0 -258 111 q-98 113 -98 290q0 174 102 289q104 113 264 113q156 0 254 -109q101 -113 101 -291z" />
<glyph unicode="r" horiz-adv-x="811" d="M801 877v135l-56 2q-11 1 -22 0q-23 0 -49 -2q-39 -4 -78 -11.5t-75 -19.5t-64 -27q-33 -18 -59.5 -46.5t-45.5 -55.5v133h-323v-125h184v-768v-108h338v125h-199v417q0 182 94 267q96 84 299 84h56z" />
<glyph unicode="s" horiz-adv-x="917" d="M854 260q0 125 -72 195q-35 35 -108.5 61.5t-184.5 46.5q-150 27 -198 62q-47 31 -47 102q0 66 51 115q49 49 143 49q102 0 176 -64q35 -33 53.5 -75.5t20.5 -104.5h123v309h-123v-47q-51 53 -114.5 78t-137.5 25q-131 0 -227 -78q-94 -76 -94 -211q0 -137 86 -197 q82 -61 260 -92q162 -29 213 -67q53 -37 53 -117q0 -78 -72 -129q-76 -53 -174 -53q-129 0 -211 71q-41 35 -60.5 86t-21.5 127h-127v-368h127v88q47 -55 109 -84q82 -35 174 -35q174 0 277 82q106 86 106 225z" />
<glyph unicode="t" horiz-adv-x="532" d="M504 -14v125l-133 -21q-35 0 -54 19q-16 20 -16 71v680h203v125h-203v219l-139 -2v-217h-172v-125h172v-700q0 -47 11 -84t36 -64q49 -51 145 -51z" />
<glyph unicode="u" horiz-adv-x="1110" d="M1110 -16v125h-168v876h-139v-108v-615q-35 -33 -74 -61.5t-86 -53.5q-96 -49 -180 -49q-68 0 -107 39q-37 37 -37 109v739h-309v-125h170v-633q0 -119 72 -188q70 -70 192 -70q115 0 213 45q41 18 77 40t69 48v-118h307z" />
<glyph unicode="v" horiz-adv-x="1067" d="M1090 860v125h-244l-37 -102l-264 -715l-256 692h125v125h-434v-125h165l342 -891h121l328 891h154z" />
<glyph unicode="w" horiz-adv-x="1536" d="M1550 860v125h-241l-31 -104l-221 -660l-201 639h102v125h-399v-125h107l-209 -657l-207 678l-31 104h-229v-125h131l276 -891h129l232 807l239 -807h123l289 891h141z" />
<glyph unicode="x" horiz-adv-x="1087" d="M1067 -16v125h-129l-317 391l282 360h139v125h-389v-125h88l-202 -258l-205 258h96v125h-393v-125h133l289 -360l-303 -398l-93 -118h367v125h-111l220 290l264 -323h4l70 -92h190z" />
<glyph unicode="y" horiz-adv-x="1087" d="M1102 860v125h-436v-125h145l-248 -659l-280 682l-37 102h-258v-125h166l340 -833l-168 -478h129l495 1311h152z" />
<glyph unicode="z" horiz-adv-x="980" d="M909 872v113h-784v-125h100h512l-661 -762v-114h831v387h-119v-262h-542z" />
<glyph unicode="{" horiz-adv-x="681" d="M600 -428v129q-59 0 -92 10t-51.5 28.5t-28.5 62.5t-10 120v240q0 147 -56 233q-43 63 -106 94q63 31 106 95q55 86 56 233v240q0 76 10 120t28.5 62t51.5 28.5t92 10.5v129h-49q-76 0 -131 -20.5t-86 -65.5q-59 -88 -60 -205v-280q0 -129 -43 -203q-23 -35 -56.5 -53.5 t-92.5 -18.5v-143q59 0 93 -18.5t56 -53.5q43 -74 43 -203v-280q0 -117 60 -205q31 -45 86 -65.5t131 -20.5h49z" />
<glyph unicode="|" horiz-adv-x="1015" d="M578 -475v1882h-140v-1882h140z" />
<glyph unicode="}" horiz-adv-x="681" d="M600 418v143q-59 0 -93 18.5t-56 53.5q-43 74 -43 203v280q0 117 -60 205q-31 45 -86 65.5t-131 20.5h-49v-129q59 0 92 -10.5t51.5 -28.5t28.5 -62t10 -120v-240q0 -147 55 -233q41 -61 107 -95q-63 -31 -107 -94q-55 -86 -55 -233v-240q0 -76 -10 -120t-28.5 -62.5 t-51.5 -28.5t-92 -10v-129h49q76 0 131 20.5t86 65.5q59 88 60 205v280q0 129 43 203q23 35 56.5 53.5t92.5 18.5z" />
<glyph unicode="~" horiz-adv-x="1343" d="M1225 686l-2 150l-101 -67q-39 -26 -71 -44q-59 -35 -133 -35q-78 0 -232 76q-160 78 -264 78q-106 0 -186 -49q-39 -23 -67 -42.5t-50 -37.5v-152l94 69q37 26 72 44q66 35 139 35q80 0 231 -76q162 -78 267 -78q104 0 184 49q76 45 119 80z" />
<glyph unicode="&#xa1;" horiz-adv-x="512" d="M330 760v225h-148v-225h148zM326 -438v452l-25 602h-90l-25 -596v-458h140z" />
<glyph unicode="&#xa2;" horiz-adv-x="1044" d="M1004 270l-115 52q-27 -61 -57.5 -103.5t-69.5 -73.5q-80 -61 -197 -61q-43 0 -69 6l192 748l32 -20q15 -9 30 -19q43 -35 66.5 -89.5t27.5 -140.5h121v402h-121v-99q-41 51 -105 82l-18 9l108 423h-102l-102 -395q-35 6 -74 6q-207 0 -346 -151q-137 -150 -137 -371 q0 -229 137 -373q61 -68 164 -112l-115 -441h102l107 414q20 -4 46 -6t54 -2q145 0 264 78q57 41 100.5 97t76.5 140zM592 866l-191 -745q-57 31 -94 69q-98 106 -98 285q0 176 96 285q92 109 246 108h20q11 0 21 -2z" />
<glyph unicode="&#xa3;" horiz-adv-x="1067" d="M1047 289v35h-115q-2 -72 -11.5 -116t-25.5 -73q-33 -51 -102 -51q-57 0 -119 43q-31 20 -66 48t-71 63q10 43 12 75q6 39 6 90q0 63 -14 127q-10 53 -25 95h229v125h-274l-35 93l-33 93q-33 96 -32 168q0 100 65.5 153.5t159.5 53.5q115 0 170 -66q29 -35 43 -78 t16 -106h133q-2 182 -98 274q-94 94 -266 95q-170 0 -264 -97q-96 -96 -97 -235q0 -84 29 -174q25 -76 68 -174h-236v-125h283l20.5 -56.5t20.5 -64.5q20 -70 20 -142l-6 -47q-12 8 -25.5 15.5t-27.5 11.5q-43 18 -92 18q-98 0 -156 -57q-59 -59 -59 -139q0 -86 55 -144 q57 -55 145 -55q66 0 125 41q55 37 99 117q37 -37 73.5 -64.5t71.5 -48.5q41 -23 78 -34t74 -11q113 0 184 92q70 95 70 232zM410 201q-12 -29 -26.5 -51.5t-33.5 -40.5q-37 -37 -80 -37q-41 0 -65.5 24.5t-24.5 61.5q0 45 33 71q37 25 76 25q29 0 59 -12q25 -10 62 -41z " />
<glyph unicode="&#xa4;" horiz-adv-x="1536" d="M1534 459l-123 73q-39 -104 -89 -185t-115.5 -137t-150.5 -85t-192 -29q-102 0 -190 30t-156.5 84t-118 128t-73.5 164h796v123h-819q-2 16 -3 34.5t-1 36.5q0 45 6 92h817v123h-790q27 84 74 155t113.5 122t151.5 79.5t185 28.5q84 0 166 -23.5t149.5 -69.5 t115.5 -114.5t65 -158.5h127v354h-127v-76q-94 106 -221 164t-271 58q-133 0 -244.5 -38t-199.5 -105.5t-148.5 -163t-89.5 -212.5h-162v-123h140q-2 -23 -3 -46t-1 -46v-37q0 -18 2 -34h-138v-123h156q27 -121 86 -220.5t148.5 -170t204 -109.5t251.5 -39q254 0 417 128 t255 368z" />
<glyph unicode="&#x20ac;" horiz-adv-x="1536" d="M1534 459l-123 73q-39 -104 -89 -185t-115.5 -137t-150.5 -85t-192 -29q-102 0 -190 30t-156.5 84t-118 128t-73.5 164h796v123h-819q-2 16 -3 34.5t-1 36.5q0 45 6 92h817v123h-790q27 84 74 155t113.5 122t151.5 79.5t185 28.5q84 0 166 -23.5t149.5 -69.5 t115.5 -114.5t65 -158.5h127v354h-127v-76q-94 106 -221 164t-271 58q-133 0 -244.5 -38t-199.5 -105.5t-148.5 -163t-89.5 -212.5h-162v-123h140q-2 -23 -3 -46t-1 -46v-37q0 -18 2 -34h-138v-123h156q27 -121 86 -220.5t148.5 -170t204 -109.5t251.5 -39q254 0 417 128 t255 368z" />
<glyph unicode="&#xa5;" d="M1149 1282v125h-494v-125h170l-100 -209h-164h-127l-96 209h174v125h-528v-125h186l96 -209h-282v-125h342l98 -213h-440v-125h499l9 -20v-481h-193v-125h539v125h-199v493l4 8h500v125h-438l104 213h334v125h-273l103 209h176zM664 948l-89 -182l-83 182h69h103z" />
<glyph unicode="&#xa6;" horiz-adv-x="1015" d="M578 629v778h-140v-778h140zM578 -475v776h-140v-776h140z" />
<glyph unicode="&#xa7;" horiz-adv-x="897" d="M879 434q0 119 -72 203q-76 84 -225 147l-166 72q-61 29 -104.5 57.5t-71.5 57.5q-51 59 -52 137q0 100 74 149q78 53 160 54q102 0 178 -58q35 -29 56.5 -76t27.5 -122h127q-4 104 -36 174.5t-91 113.5q-117 86 -252 87q-156 0 -266 -87q-109 -90 -109 -243 q0 -78 33 -146q33 -66 94 -114q-76 -53 -118 -129q-49 -84 -50 -166q0 -119 72 -203q76 -84 225 -147l166 -72q61 -29 104.5 -57.5t71.5 -57.5q51 -59 52 -137q0 -100 -74 -150q-78 -53 -160 -53q-102 0 -178 58q-35 29 -56.5 75.5t-27.5 122.5h-125q4 -104 35 -175t90 -114 q117 -86 252 -86q156 0 266 86q109 90 109 244q0 78 -33 146q-33 66 -94 114q76 53 118 129q50 82 50 166zM748 422q0 -72 -39 -129q-37 -55 -95 -90l-286 127q-55 27 -91 53.5t-55 50.5q-35 47 -35 127q0 74 39 127q37 53 97 92l284 -129q106 -49 146 -102q35 -47 35 -127z " />
<glyph unicode="&#xa8;" horiz-adv-x="681" d="M600 1171v164h-164v-164h164zM246 1171v164h-164v-164h164z" />
<glyph unicode="&#xa9;" horiz-adv-x="1642" d="M1599 729q0 319 -227 551q-231 227 -553 227t-551 -227q-227 -231 -227 -553t227 -551q229 -227 553 -227q319 0 551 227q227 229 227 553zM1470 727q0 -268 -190 -458.5t-461 -190.5q-268 0 -458.5 190.5t-190.5 460.5q0 268 190.5 458.5t460.5 190.5 q268 0 458.5 -190.5t190.5 -460.5zM1182 563l-121 43q-18 -57 -41 -94t-53 -63q-57 -51 -142 -52q-123 0 -190 97q-68 98 -68 245q0 127 70 219q70 86 199 86q41 0 71.5 -11t57.5 -34q53 -47 82 -125l129 39q-31 66 -64 109t-74 74q-80 61 -200 61q-193 0 -301 -121 q-109 -125 -109 -309q0 -203 115 -326q115 -127 286 -127q121 0 215 72q47 35 81 87t57 130z" />
<glyph unicode="&#xaa;" horiz-adv-x="681" d="M692 799v88h-104v360q0 55 -22.5 91t-58.5 55.5t-81 28t-90 8.5q-104 0 -168 -39q-33 -20 -57.5 -48t-47.5 -75l89 -19q25 51 63 74q43 27 119 27q72 0 112 -25q39 -25 39 -78v-110q-35 16 -79 26q-57 10 -93 11q-115 0 -180 -54q-72 -55 -72 -141q0 -78 62 -133 q57 -55 151 -55q53 0 109.5 21.5t101.5 51.5v-65h207zM485 958q-41 -37 -88 -59q-55 -27 -106 -27q-61 0 -92 31q-33 33 -33 70q0 53 41 86q41 35 119 35q47 0 88 -15q43 -12 71 -30v-91z" />
<glyph unicode="&#xab;" horiz-adv-x="960" d="M954 -16l-323 505l323 506h-151l-324 -506l324 -505h151zM518 -16l-323 505l323 506h-151l-324 -506l324 -505h151z" />
<glyph unicode="&#xac;" horiz-adv-x="1366" d="M1235 352v613h-1106v-125h981v-488h125z" />
<glyph unicode="&#xad;" horiz-adv-x="704" d="M647 498v125h-594v-125h594z" />
<glyph unicode="&#xae;" horiz-adv-x="1642" d="M1599 729q0 319 -227 551q-231 227 -553 227t-551 -227q-227 -231 -227 -553t227 -551q229 -227 553 -227q319 0 551 227q227 229 227 553zM1470 727q0 -268 -190 -458.5t-461 -190.5q-268 0 -458.5 190.5t-190.5 460.5q0 268 190.5 458.5t460.5 190.5 q268 0 458.5 -190.5t190.5 -460.5zM1180 301q-45 104 -78 170t-58 107q-20 29 -44.5 53t-59.5 41q88 18 135 69q66 72 66 166q0 92 -70 160q-70 70 -217 70h-358v-836h139v348h49q115 0 174 -53q57 -47 164 -295h158zM993 903q0 -63 -41 -100q-43 -37 -170 -37h-147v256h158 q96 0 153 -27q47 -24 47 -92z" />
<glyph unicode="&#xaf;" horiz-adv-x="681" d="M686 1212v93h-690v-93h690z" />
<glyph unicode="&#xb0;" horiz-adv-x="811" d="M711 1124q0 125 -90.5 215.5t-214.5 90.5q-125 0 -215.5 -90.5t-90.5 -215.5t90.5 -215t215.5 -90t215 90t90 215zM596 1124q0 -80 -55.5 -135t-134.5 -55q-80 0 -135.5 55t-55.5 135t55.5 135.5t135.5 55.5t135 -55.5t55 -135.5z" />
<glyph unicode="&#xb1;" horiz-adv-x="1366" d="M1235 756v123h-492v493h-122v-493h-492v-123h492v-494h122v494h492zM1235 -16v122h-1106v-122h1106z" />
<glyph unicode="&#xb2;" horiz-adv-x="661" d="M582 922h-88l-7 -179h-350q12 63 64 123q57 66 196 138q47 23 79 47t54 49q41 53 41 127q0 92 -69 149q-68 55 -180 56q-123 0 -193 -68q-74 -68 -74 -176v-33h92v29q0 78 43 125q45 45 134 45q66 0 108 -37q41 -37 41 -90q0 -55 -35 -90q-33 -35 -110 -76 q-166 -84 -230 -189q-66 -100 -65 -180l4 -28h536z" />
<glyph unicode="&#xb3;" horiz-adv-x="661" d="M621 881q0 86 -58 135q-35 35 -94 51q43 23 66 51q37 45 36 109q0 90 -69 147q-66 57 -172 58q-104 0 -172 -56q-35 -29 -52.5 -69.5t-19.5 -102.5h94q2 47 12.5 73t28.5 42q39 35 105 35q68 0 108 -35q39 -37 39 -90q0 -59 -47 -96t-123 -37l-39 4v-86l74 6 q41 4 76 -7.5t61 -31.5q49 -37 49 -100q0 -66 -53 -107q-53 -43 -137 -43q-82 0 -139 47q-29 23 -45.5 56.5t-22.5 85.5h-90q4 -70 26.5 -117t63.5 -82q86 -68 205 -68q127 0 205 64q84 62 84 164z" />
<glyph unicode="&#xb4;" horiz-adv-x="681" d="M545 1432h-158l-227 -351h116z" />
<glyph unicode="&#xb5;" d="M1116 -16v125h-168v876h-307v-125h168v-598q-35 -33 -73 -61.5t-85 -53.5q-96 -49 -176 -49q-68 0 -104 37q-35 41 -35 111v739h-309v-125h170v-1311h133v469q10 -8 20 -14l21 -12q49 -23 104 -23q106 0 199 45q76 37 135 86v-116h307z" />
<glyph unicode="&#xb6;" horiz-adv-x="1323" d="M1282 1237v170h-711q-223 0 -356 -121q-135 -121 -135 -321q0 -182 127 -310q121 -121 321 -127v-979h164v1688h234v-1688h164v1688h192z" />
<glyph unicode="&#xb7;" horiz-adv-x="598" d="M340 571v164h-147v-164h147z" />
<glyph unicode="&#x2219;" horiz-adv-x="598" d="M340 571v164h-147v-164h147z" />
<glyph unicode="&#xb8;" horiz-adv-x="681" d="M506 -242q0 76 -47 123q-41 41 -99 47l15 74h-101l-34 -182q43 0 65.5 -6.5t36.5 -16.5q29 -16 29 -53q0 -47 -43 -72q-47 -27 -97 -26q-49 0 -100 2v-99h45q154 0 240 50q90 53 90 159z" />
<glyph unicode="&#xb9;" horiz-adv-x="661" d="M504 664v79h-121v676h-221v-80h121v-596h-123v-79h344z" />
<glyph unicode="&#xba;" horiz-adv-x="724" d="M694 1106q0 137 -94 229q-92 94 -235 95q-143 0 -236 -95q-94 -92 -94 -229t94 -232q92 -92 236 -92q143 0 235 92q94 95 94 232zM592 1106q0 -100 -64 -168q-66 -66 -163 -66q-98 0 -164 66q-63 68 -64 168q0 102 64 166q66 66 164 65q98 0 163 -65q64 -64 64 -166z" />
<glyph unicode="&#xbb;" horiz-adv-x="960" d="M920 489l-324 506h-152l324 -506l-324 -505h152zM483 489l-323 506h-152l324 -506l-324 -505h152z" />
<glyph unicode="&#xbc;" horiz-adv-x="1728" d="M1470 195v75h-139v475h-82l-381 -495q16 -10 21.5 -14.5t9.5 -8.5t7 -10t7 -22h328v-132h-96v-79h262v79h-76v132h139zM1339 1407h-110l-1004 -1423h111zM506 664v79h-121v676h-221v-80h121v-596h-123v-79h344zM1241 270h-256l256 342v-342z" />
<glyph unicode="&#xbd;" horiz-adv-x="1728" d="M1552 242h-88l-6 -179h-350q12 63 63 123q57 66 197 138q47 23 79 47t54 49q41 53 41 127q0 92 -69 149q-68 55 -181 56q-123 0 -192 -68q-74 -68 -74 -176v-33h92v29q0 78 43 125q45 45 133 45q66 0 109 -37q41 -37 41 -90q0 -55 -35 -90q-33 -35 -111 -76 q-166 -84 -229 -188q-66 -100 -65 -181l4 -28h536zM1337 1407h-110l-1004 -1423h111zM504 664v79h-121v676h-221v-80h121v-596h-123v-79h344z" />
<glyph unicode="&#xbe;" horiz-adv-x="1728" d="M1620 195v75h-139v475h-82l-381 -495q16 -10 21 -14.5l9.5 -8.5t7.5 -10t7 -22h328v-132h-97v-79h262v79h-75v132h139zM1491 1407h-111l-1003 -1423h110zM696 881q0 86 -57 135q-35 35 -94 51q43 23 65 51q37 45 37 109q0 90 -69 147q-66 57 -172 58q-104 0 -173 -56 q-35 -29 -52 -69.5t-19 -102.5h94q2 47 12.5 73t28.5 42q39 35 104 35q68 0 109 -35q39 -37 39 -90q0 -59 -47 -96t-123 -37l-39 4v-86l74 6q41 4 75.5 -7.5t61.5 -31.5q49 -37 49 -100q0 -66 -53 -107q-53 -43 -137 -43q-82 0 -140 47q-29 23 -45 56.5t-22 85.5h-90 q4 -70 26.5 -117t63.5 -82q86 -68 205 -68q127 0 204 64q84 62 84 164zM1391 270h-256l256 342v-342z" />
<glyph unicode="&#xbf;" horiz-adv-x="917" d="M584 762v225h-148v-225h148zM872 -47h-129q0 -76 -18 -127t-55 -86q-74 -74 -191 -74q-121 0 -198 78q-76 78 -76 188q0 145 92 205q76 47 176 47q33 0 80 -6l33 12l-41 420h-78l-25 -297h-8q-168 0 -268 -112q-96 -115 -96 -267q0 -147 104 -270q106 -123 295 -123 q193 0 299 119q53 59 78.5 130t25.5 163z" />
<glyph unicode="&#xc0;" horiz-adv-x="1343" d="M854 1497l-227 350h-158l268 -350h117zM1409 -16v125h-176l-414 1173h168v125h-422l-35 -102l-413 -1196h-180v-125h323v112l143 416h537l143 -403h-168v-125h494zM899 637h-453l228 659z" />
<glyph unicode="&#xc1;" horiz-adv-x="1343" d="M877 1847h-158l-227 -350h116zM1409 -16v125h-176l-414 1173h168v125h-422l-35 -102l-413 -1196h-180v-125h323v112l143 416h537l143 -403h-168v-125h494zM899 637h-453l228 659z" />
<glyph unicode="&#xc2;" horiz-adv-x="1343" d="M1010 1505l-271 330h-135l-268 -330h113l223 207l225 -207h113zM1409 -16v125h-176l-414 1173h168v125h-422l-35 -102l-413 -1196h-180v-125h323v112l143 416h537l143 -403h-168v-125h494zM899 637h-453l228 659z" />
<glyph unicode="&#xc3;" horiz-adv-x="1343" d="M1028 1776h-90q-29 -66 -51 -80q-29 -18 -58 -19q-23 0 -56.5 11.5t-80.5 37.5q-98 51 -170 52q-61 0 -112 -47q-27 -23 -47.5 -62t-43.5 -104h89q16 35 28.5 53t24.5 27q25 18 57 18q23 0 56.5 -11.5t80.5 -37.5q98 -51 170 -51q61 0 113 47q27 23 47 61.5t43 104.5z M1409 -16v125h-176l-414 1173h168v125h-422l-35 -102l-413 -1196h-180v-125h323v112l143 416h537l143 -403h-168v-125h494zM899 637h-453l228 659z" />
<glyph unicode="&#xc4;" horiz-adv-x="1343" d="M932 1587v164h-164v-164h164zM578 1587v164h-164v-164h164zM1409 -16v125h-176l-414 1173h168v125h-422l-35 -102l-413 -1196h-180v-125h323v112l143 416h537l143 -403h-168v-125h494zM899 637h-453l228 659z" />
<glyph unicode="&#xc5;" horiz-adv-x="1343" d="M877 1669q0 82 -60 146q-63 59 -145 59q-84 0 -144 -59q-59 -63 -59 -146q0 -82 59 -145q59 -59 144 -60q82 0 145 60q60 63 60 145zM1409 -16v125h-176l-414 1173h168v125h-422l-35 -102l-413 -1196h-180v-125h323v112l143 416h537l143 -403h-168v-125h494zM782 1669 q0 -47 -32 -78q-31 -33 -78 -32q-47 0 -78 32q-31 31 -31 78t31 78q31 33 78 33t78 -33q32 -31 32 -78zM899 637h-453l228 659z" />
<glyph unicode="&#xc6;" horiz-adv-x="1921" d="M1845 -16v374h-127v-249h-698v540h582v125h-582v508h715h108v125h-1403v-125h217l-135 -249l-154 -282l-154 -283l-133 -246l-94 -173l-36 -65h364v125h-149l301 542h405v-542h-231v-125h1204zM872 776h-340l279 506h61v-506z" />
<glyph unicode="&#xc7;" horiz-adv-x="1536" d="M1493 459l-123 73q-47 -129 -102.5 -210.5t-122.5 -128.5q-133 -96 -322 -97q-244 0 -405 168q-160 168 -160 432q0 260 156 432q156 168 401 168q174 0 320 -94q72 -47 115.5 -113.5t60.5 -158.5h127v354h-127v-76q-92 106 -215 160q-139 61 -277 62q-313 0 -512 -205 q-197 -207 -196 -529q0 -328 196 -530q160 -166 402 -197l-29 -149q43 0 65.5 -6.5t36.5 -16.5q29 -16 29 -53q0 -47 -43 -72q-47 -27 -96 -26q-49 0 -101 2v-99h45q154 0 240 50q90 53 90 159q0 76 -47 123q-41 41 -98 47l6 35h14q221 -2 396 113q88 59 155.5 152.5 t120.5 230.5z" />
<glyph unicode="&#xc8;" horiz-adv-x="1236" d="M801 1497l-228 350h-157l268 -350h117zM1161 -16v125h-110h-711v540h578v125h-578v508h694v-246h125v371h-1145v-125h179v-1190v-108h968z" />
<glyph unicode="&#xc9;" horiz-adv-x="1236" d="M823 1847h-157l-228 -350h117zM1161 -16v125h-110h-711v540h578v125h-578v508h694v-246h125v371h-1145v-125h179v-1190v-108h968z" />
<glyph unicode="&#xca;" horiz-adv-x="1236" d="M956 1505l-270 330h-135l-268 -330h112l223 207l226 -207h112zM1161 -16v125h-110h-711v540h578v125h-578v508h694v-246h125v371h-1145v-125h179v-1190v-108h968z" />
<glyph unicode="&#xcb;" horiz-adv-x="1236" d="M879 1587v164h-164v-164h164zM524 1587v164h-164v-164h164zM1161 -16v125h-110h-711v540h578v125h-578v508h694v-246h125v371h-1145v-125h179v-1190v-108h968z" />
<glyph unicode="&#xcc;" horiz-adv-x="575" d="M469 1497l-227 350h-158l158 -205h-31v-163h147v18h111zM537 -16v125h-177v1189v109h-147v-109v-1189h-174v-125h498z" />
<glyph unicode="&#xcd;" horiz-adv-x="575" d="M492 1847h-158l-228 -350h105v-18h147v163h-24zM537 -16v125h-177v1189v109h-147v-109v-1189h-174v-125h498z" />
<glyph unicode="&#xce;" horiz-adv-x="575" d="M625 1505l-271 330h-135l-268 -330h112l224 207l225 -207h113zM358 1479v163h-147v-163h147zM537 -16v125h-177v1189v109h-147v-109v-1189h-174v-125h498z" />
<glyph unicode="&#xcf;" horiz-adv-x="575" d="M547 1587v164h-164v-164h164zM358 1479v163h-147v-163h147zM193 1587v164h-164v-164h164zM537 -16v125h-177v1189v109h-147v-109v-1189h-174v-125h498z" />
<glyph unicode="&#xd0;" horiz-adv-x="1449" d="M1370 694q0 317 -186 516q-190 197 -572 197h-612v-121l193 4v-530h-191v-125h191v-543v-108h417q422 0 592 215q168 212 168 495zM1223 694q0 -291 -152 -438q-147 -147 -444 -147h-287v526h428v125h-428v522h283q287 0 444 -154q156 -151 156 -434z" />
<glyph unicode="&#xd1;" horiz-adv-x="1449" d="M1081 1776h-90q-29 -66 -51 -80q-29 -18 -57 -19q-23 0 -56.5 11.5t-81.5 37.5q-98 51 -170 52q-61 0 -112 -47q-27 -23 -47.5 -62t-42.5 -104h88q16 35 28.5 53t24.5 27q25 18 57 18q23 0 57 -11.5t81 -37.5q98 -51 170 -51q61 0 112 47q27 23 47 61.5t43 104.5z M1446 1282v125h-309v-109v-1089l-186 290l-187 281l-202 306l-206 321h-352v-125h186v-1190v-108h326v125h-197v1101l814 -1245h133v1317h180z" />
<glyph unicode="&#xd2;" horiz-adv-x="1599" d="M981 1497l-227 350h-158l268 -350h117zM1520 696q0 315 -203 525q-207 209 -514 209q-309 0 -514 -209q-203 -209 -203 -525q0 -315 203 -524q205 -209 514 -209q307 0 514 209q203 209 203 524zM1372 696q0 -262 -160 -430q-160 -170 -409 -170q-248 0 -408 170 q-162 168 -162 430t162 430q160 170 408 170q250 0 409.5 -170t159.5 -430z" />
<glyph unicode="&#xd3;" horiz-adv-x="1599" d="M1004 1847h-158l-228 -350h117zM1520 696q0 315 -203 525q-207 209 -514 209q-309 0 -514 -209q-203 -209 -203 -525q0 -315 203 -524q205 -209 514 -209q307 0 514 209q203 209 203 524zM1372 696q0 -262 -160 -430q-160 -170 -409 -170q-248 0 -408 170 q-162 168 -162 430t162 430q160 170 408 170q250 0 409.5 -170t159.5 -430z" />
<glyph unicode="&#xd4;" horiz-adv-x="1599" d="M1137 1505l-271 330h-135l-268 -330h112l224 207l225 -207h113zM1520 696q0 315 -203 525q-207 209 -514 209q-309 0 -514 -209q-203 -209 -203 -525q0 -315 203 -524q205 -209 514 -209q307 0 514 209q203 209 203 524zM1372 696q0 -262 -160 -430q-160 -170 -409 -170 q-248 0 -408 170q-162 168 -162 430t162 430q160 170 408 170q250 0 409.5 -170t159.5 -430z" />
<glyph unicode="&#xd5;" horiz-adv-x="1599" d="M1155 1776h-90q-29 -66 -51 -80q-29 -18 -58 -19q-23 0 -56.5 11.5t-80.5 37.5q-98 51 -170 52q-61 0 -112 -47q-27 -23 -47.5 -62t-43.5 -104h89q16 35 28 53t25 27q25 18 57 18q23 0 56.5 -11.5t80.5 -37.5q98 -51 170 -51q61 0 113 47q27 23 47 61.5t43 104.5z M1520 696q0 315 -203 525q-207 209 -514 209q-309 0 -514 -209q-203 -209 -203 -525q0 -315 203 -524q205 -209 514 -209q307 0 514 209q203 209 203 524zM1372 696q0 -262 -160 -430q-160 -170 -409 -170q-248 0 -408 170q-162 168 -162 430t162 430q160 170 408 170 q250 0 409.5 -170t159.5 -430z" />
<glyph unicode="&#xd6;" horiz-adv-x="1599" d="M1059 1587v164h-164v-164h164zM705 1587v164h-164v-164h164zM1520 696q0 315 -203 525q-207 209 -514 209q-309 0 -514 -209q-203 -209 -203 -525q0 -315 203 -524q205 -209 514 -209q307 0 514 209q203 209 203 524zM1372 696q0 -262 -160 -430q-160 -170 -409 -170 q-248 0 -408 170q-162 168 -162 430t162 430q160 170 408 170q250 0 409.5 -170t159.5 -430z" />
<glyph unicode="&#xd7;" horiz-adv-x="1368" d="M1196 233l-422 422l422 422l-90 90l-422 -422l-422 422l-90 -90l422 -422l-422 -422l90 -90l422 422l422 -422z" />
<glyph unicode="&#xd8;" horiz-adv-x="1599" d="M1520 696q0 154 -48.5 285t-156.5 242v-23l139 158l-78 67l-127 -145q-176 150 -446 150q-309 0 -514 -209q-203 -209 -203 -525q0 -154 48 -283.5t147 -232.5l-127 -147l77 -68l127 144q176 -145 445 -146q307 0 514 209q203 209 203 524zM1372 696q0 -262 -160 -430 q-160 -170 -409 -170q-215 0 -354 119l782 889q141 -164 141 -408zM1157 1176l-782 -889q-141 162 -142 409q0 262 162 430q160 170 408 170q211 1 354 -120z" />
<glyph unicode="&#xd9;" horiz-adv-x="1323" d="M844 1497l-228 350h-157l268 -350h117zM1331 1282v125h-325v-109v-899q0 -154 -86 -227q-88 -76 -261 -76q-168 0 -256 80q-88 78 -88 227v879h177v125h-502v-125h178v-866q0 -219 129 -336q66 -59 157 -88t208 -29q233 0 362 117q129 119 129 336v866h178z" />
<glyph unicode="&#xda;" horiz-adv-x="1323" d="M866 1847h-157l-228 -350h117zM1331 1282v125h-325v-109v-899q0 -154 -86 -227q-88 -76 -261 -76q-168 0 -256 80q-88 78 -88 227v879h177v125h-502v-125h178v-866q0 -219 129 -336q66 -59 157 -88t208 -29q233 0 362 117q129 119 129 336v866h178z" />
<glyph unicode="&#xdb;" horiz-adv-x="1323" d="M999 1505l-270 330h-135l-268 -330h112l224 207l225 -207h112zM1331 1282v125h-325v-109v-899q0 -154 -86 -227q-88 -76 -261 -76q-168 0 -256 80q-88 78 -88 227v879h177v125h-502v-125h178v-866q0 -219 129 -336q66 -59 157 -88t208 -29q233 0 362 117q129 119 129 336 v866h178z" />
<glyph unicode="&#xdc;" horiz-adv-x="1323" d="M922 1485v164h-164v-164h164zM567 1485v164h-164v-164h164zM1331 1282v125h-325v-109v-899q0 -154 -86 -227q-88 -76 -261 -76q-168 0 -256 80q-88 78 -88 227v879h177v125h-502v-125h178v-866q0 -219 129 -336q66 -59 157 -88t208 -29q233 0 362 117q129 119 129 336 v866h178z" />
<glyph unicode="&#xdd;" horiz-adv-x="1236" d="M823 1847h-157l-228 -350h117zM1290 1282v125h-489v-125h166l-332 -524l-352 557h-2l-58 92h-278v-125h188l418 -659v-514h-193v-125h340v108v531l418 659h174z" />
<glyph unicode="&#xde;" d="M1108 694q0 203 -133 316q-133 111 -361 110h-266v162h187v125h-519v-125h185v-1173h-185v-125h332v108v178h301q209 0 332 115q127 114 127 309zM961 682q0 -143 -89 -215q-94 -72 -264 -72h-260v600h260q96 0 163 -19.5t108 -53.5q82 -72 82 -240z" />
<glyph unicode="&#xdf;" horiz-adv-x="1259" d="M1190 410q0 174 -92 282q-78 88 -191 123q76 33 111 96q45 76 45 160q0 164 -119 262q-115 96 -313 97q-197 0 -318 -101q-63 -51 -93 -131t-30 -186v-903h-174v-125h314v108v944q0 139 79.5 207t219.5 68q119 0 209 -60q88 -55 88 -172q0 -109 -66 -161 q-63 -57 -172 -58h-37v-115q109 0 182.5 -22.5t122.5 -65.5q98 -84 99 -249q0 -131 -74 -226q-70 -94 -195 -94q-20 0 -36.5 1t-30.5 3l-28 8q-13 4 -40 15v-129l127 -17q195 0 305 129q107 128 107 312z" />
<glyph unicode="&#xe0;" horiz-adv-x="1044" d="M705 1081l-228 351h-158l269 -351h117zM1040 -16v125h-161v612q0 147 -99 219q-96 72 -278 72q-41 0 -87 -11.5t-87 -23.5t-68 -24l-27 -11l37 -92q6 2 31 11t58.5 18.5t70.5 16.5t68 7q113 0 178 -43q63 -41 63 -139v-203l-67.5 29.5t-65.5 21.5q-78 18 -139 19 q-172 0 -274 -88q-104 -92 -105 -228q0 -123 90 -213t228 -90q88 0 184 43q76 31 149 90v-118h301zM739 233q-55 -61 -141 -104q-88 -45 -168 -45q-96 0 -147 55q-53 57 -54 125q0 88 66 150q68 61 190 61q72 0 138 -24q61 -20 116 -54v-164z" />
<glyph unicode="&#xe1;" horiz-adv-x="1044" d="M727 1432h-158l-227 -351h117zM1040 -16v125h-161v612q0 147 -99 219q-96 72 -278 72q-41 0 -87 -11.5t-87 -23.5t-68 -24l-27 -11l37 -92q6 2 31 11t58.5 18.5t70.5 16.5t68 7q113 0 178 -43q63 -41 63 -139v-203l-67.5 29.5t-65.5 21.5q-78 18 -139 19q-172 0 -274 -88 q-104 -92 -105 -228q0 -123 90 -213t228 -90q88 0 184 43q76 31 149 90v-118h301zM739 233q-55 -61 -141 -104q-88 -45 -168 -45q-96 0 -147 55q-53 57 -54 125q0 88 66 150q68 61 190 61q72 0 138 -24q61 -20 116 -54v-164z" />
<glyph unicode="&#xe2;" horiz-adv-x="1044" d="M860 1090l-270 329h-135l-269 -329h113l223 206l226 -206h112zM1040 -16v125h-161v612q0 147 -99 219q-96 72 -278 72q-41 0 -87 -11.5t-87 -23.5t-68 -24l-27 -11l37 -92q6 2 31 11t58.5 18.5t70.5 16.5t68 7q113 0 178 -43q63 -41 63 -139v-203l-67.5 29.5t-65.5 21.5 q-78 18 -139 19q-172 0 -274 -88q-104 -92 -105 -228q0 -123 90 -213t228 -90q88 0 184 43q76 31 149 90v-118h301zM739 233q-55 -61 -141 -104q-88 -45 -168 -45q-96 0 -147 55q-53 57 -54 125q0 88 66 150q68 61 190 61q72 0 138 -24q61 -20 116 -54v-164z" />
<glyph unicode="&#xe3;" horiz-adv-x="1044" d="M879 1360h-91q-29 -66 -51 -80q-29 -18 -57 -18q-23 0 -56.5 11t-80.5 38q-98 51 -170 51q-61 0 -113 -47q-27 -23 -47 -62t-43 -104h88q16 35 28.5 53.5t24.5 26.5q25 18 58 18q23 0 56.5 -11t80.5 -38q98 -51 170 -51q61 0 112 47q27 23 47.5 61.5t43.5 104.5z M1040 -16v125h-161v612q0 147 -99 219q-96 72 -278 72q-41 0 -87 -11.5t-87 -23.5t-68 -24l-27 -11l37 -92q6 2 31 11t58.5 18.5t70.5 16.5t68 7q113 0 178 -43q63 -41 63 -139v-203l-67.5 29.5t-65.5 21.5q-78 18 -139 19q-172 0 -274 -88q-104 -92 -105 -228 q0 -123 90 -213t228 -90q88 0 184 43q76 31 149 90v-118h301zM739 233q-55 -61 -141 -104q-88 -45 -168 -45q-96 0 -147 55q-53 57 -54 125q0 88 66 150q68 61 190 61q72 0 138 -24q61 -20 116 -54v-164z" />
<glyph unicode="&#xe4;" horiz-adv-x="1044" d="M782 1171v164h-164v-164h164zM428 1171v164h-164v-164h164zM1040 -16v125h-161v612q0 147 -99 219q-96 72 -278 72q-41 0 -87 -11.5t-87 -23.5t-68 -24l-27 -11l37 -92q6 2 31 11t58.5 18.5t70.5 16.5t68 7q113 0 178 -43q63 -41 63 -139v-203l-67.5 29.5t-65.5 21.5 q-78 18 -139 19q-172 0 -274 -88q-104 -92 -105 -228q0 -123 90 -213t228 -90q88 0 184 43q76 31 149 90v-118h301zM739 233q-55 -61 -141 -104q-88 -45 -168 -45q-96 0 -147 55q-53 57 -54 125q0 88 66 150q68 61 190 61q72 0 138 -24q61 -20 116 -54v-164z" />
<glyph unicode="&#xe5;" horiz-adv-x="1044" d="M727 1253q0 82 -59 146q-63 59 -146 59q-84 0 -143 -59q-59 -63 -60 -146q0 -82 60 -145q59 -59 143 -59q82 0 146 59q59 63 59 145zM1040 -16v125h-161v612q0 147 -99 219q-96 72 -278 72q-41 0 -87 -11.5t-87 -23.5t-68 -24l-27 -11l37 -92q6 2 31 11t58.5 18.5 t70.5 16.5t68 7q113 0 178 -43q63 -41 63 -139v-203l-67.5 29.5t-65.5 21.5q-78 18 -139 19q-172 0 -274 -88q-104 -92 -105 -228q0 -123 90 -213t228 -90q88 0 184 43q76 31 149 90v-118h301zM633 1253q0 -47 -33 -77q-31 -33 -78 -33t-78 33q-31 31 -30 77q0 47 30 78 q31 33 78 33t78 -33q33 -31 33 -78zM739 233q-55 -61 -141 -104q-88 -45 -168 -45q-96 0 -147 55q-53 57 -54 125q0 88 66 150q68 61 190 61q72 0 138 -24q61 -20 116 -54v-164z" />
<glyph unicode="&#xe6;" horiz-adv-x="1771" d="M1716 444q-6 129 -41 229.5t-98 180.5q-129 158 -338 158q-129 0 -229 -56q-86 -51 -158 -143q-18 57 -54 96t-83 61.5t-101.5 32t-111.5 9.5q-78 0 -142.5 -16.5t-123.5 -57.5l67 -90q41 29 88 42t107 13q111 0 176 -43q61 -41 61 -139v-203l-66.5 29.5t-64.5 21.5 q-78 18 -137 19q-166 0 -268 -88q-104 -92 -105 -228q0 -125 94 -213q92 -90 240 -90q143 0 250 66q47 29 85 62.5t73 68.5q76 -106 178 -158q113 -53 231 -53q37 0 87 12.5t95.5 27.5t76.5 28l32 12l-70 106q-4 -2 -28.5 -13t-57 -23.5t-69.5 -21.5t-64 -9q-168 0 -274 114 q-98 106 -107 256h850zM1563 569h-693q25 125 93 205q102 115 254 115t239 -94q89 -89 107 -226zM735 233q-55 -61 -139 -104q-84 -45 -166 -45q-92 0 -143 55q-51 51 -51 125q0 88 65 150q63 61 186 61q68 0 134 -24q59 -20 114 -54v-164z" />
<glyph unicode="&#xe7;" horiz-adv-x="1044" d="M1004 270l-115 52q-27 -61 -57.5 -103.5t-69.5 -73.5q-80 -61 -197 -61q-160 0 -258 109q-98 111 -98 290q0 176 96 289q92 111 246 111q113 0 201 -70q43 -35 65.5 -89t26.5 -140h121v340h-121v-37q-41 51 -105 82q-84 43 -188 43q-209 0 -346 -154q-137 -150 -137 -375 q0 -233 137 -379q102 -111 250 -139l-29 -145q43 0 65.5 -6.5t36.5 -16.5q29 -16 29 -53q0 -47 -43 -72q-47 -27 -96 -26q-49 0 -101 2v-99h45q154 0 240 50q90 53 90 159q0 76 -47 123q-41 41 -98 47l4 27h12q145 0 264 78q57 41 100.5 97t76.5 140z" />
<glyph unicode="&#xe8;" d="M748 1081l-228 351h-158l269 -351h117zM1077 444q-6 141 -43 245t-104 175q-135 147 -355 148q-223 0 -366 -149.5t-143 -379.5q0 -227 145 -379q147 -150 371 -149q39 0 92 12.5t99 26.5t79 26l33 13l-33 110q-6 -4 -36 -15t-68.5 -23.5t-79.5 -21.5t-70 -9 q-172 0 -283 116q-98 98 -110 254h872zM930 569h-721q12 61 35.5 112.5t60.5 92.5q104 115 262 115q154 0 248 -94q90 -87 115 -226z" />
<glyph unicode="&#xe9;" d="M770 1432h-158l-227 -351h117zM1077 444q-6 141 -43 245t-104 175q-135 147 -355 148q-223 0 -366 -149.5t-143 -379.5q0 -227 145 -379q147 -150 371 -149q39 0 92 12.5t99 26.5t79 26l33 13l-33 110q-6 -4 -36 -15t-68.5 -23.5t-79.5 -21.5t-70 -9q-172 0 -283 116 q-98 98 -110 254h872zM930 569h-721q12 61 35.5 112.5t60.5 92.5q104 115 262 115q154 0 248 -94q90 -87 115 -226z" />
<glyph unicode="&#xea;" d="M903 1090l-270 329h-135l-269 -329h113l223 206l226 -206h112zM1077 444q-6 141 -43 245t-104 175q-135 147 -355 148q-223 0 -366 -149.5t-143 -379.5q0 -227 145 -379q147 -150 371 -149q39 0 92 12.5t99 26.5t79 26l33 13l-33 110q-6 -4 -36 -15t-68.5 -23.5 t-79.5 -21.5t-70 -9q-172 0 -283 116q-98 98 -110 254h872zM930 569h-721q12 61 35.5 112.5t60.5 92.5q104 115 262 115q154 0 248 -94q90 -87 115 -226z" />
<glyph unicode="&#xeb;" d="M825 1171v164h-163v-164h163zM471 1171v164h-164v-164h164zM1077 444q-6 141 -43 245t-104 175q-135 147 -355 148q-223 0 -366 -149.5t-143 -379.5q0 -227 145 -379q147 -150 371 -149q39 0 92 12.5t99 26.5t79 26l33 13l-33 110q-6 -4 -36 -15t-68.5 -23.5t-79.5 -21.5 t-70 -9q-172 0 -283 116q-98 98 -110 254h872zM930 569h-721q12 61 35.5 112.5t60.5 92.5q104 115 262 115q154 0 248 -94q90 -87 115 -226z" />
<glyph unicode="&#xec;" horiz-adv-x="512" d="M438 1081l-227 351h-158l269 -351h116zM510 -16v125h-166v876h-309v-125h170v-751h-170v-125h475z" />
<glyph unicode="&#xed;" horiz-adv-x="512" d="M461 1432h-158l-227 -351h117zM510 -16v125h-166v876h-309v-125h170v-751h-170v-125h475z" />
<glyph unicode="&#xee;" horiz-adv-x="512" d="M594 1090l-270 329h-136l-268 -329h113l223 206l225 -206h113zM510 -16v125h-166v876h-309v-125h170v-751h-170v-125h475z" />
<glyph unicode="&#xef;" horiz-adv-x="512" d="M516 1171v164h-164v-164h164zM162 1171v164h-164v-164h164zM510 -16v125h-166v876h-309v-125h170v-751h-170v-125h475z" />
<glyph unicode="&#xf0;" horiz-adv-x="1153" d="M1077 584q0 279 -159 506q-27 35 -61 71.5t-77 77.5l262 125l-106 74l-254 -121q-76 59 -225 121l-150 -74l142 -66q55 -27 90 -49l-269 -127l107 -73l268 127q31 -29 54.5 -48.5t37.5 -35.5q90 -98 131 -191q-51 45 -106 70q-92 41 -184 41q-217 0 -359 -156 q-141 -154 -141 -379t143.5 -374.5t362.5 -149.5q227 0 360 176q133 172 133 455zM934 504q0 -182 -103 -303q-100 -119 -256 -119q-154 0 -253 113q-102 115 -103 282q0 178 100 291q98 115 259 115q154 0 256 -109q100 -110 100 -270z" />
<glyph unicode="&#xf1;" horiz-adv-x="1087" d="M899 1360h-90q-29 -66 -51 -80q-29 -18 -58 -18q-23 0 -56.5 11t-80.5 38q-98 51 -170 51q-61 0 -112 -47q-27 -23 -47.5 -62t-43.5 -104h89q16 35 28 53.5t25 26.5q25 18 57 18q23 0 56.5 -11t80.5 -38q98 -51 170 -51q61 0 113 47q27 23 47 61.5t43 104.5zM1098 -16 v125h-154v632q0 123 -76 197q-78 74 -198 74q-104 0 -201 -45q-86 -39 -154 -95v113h-315v-125h176v-768v-108h297v125h-158v616q35 33 76 60.5t88 50.5q98 47 176 47q76 0 113 -40t37 -114v-637v-108h293z" />
<glyph unicode="&#xf2;" d="M748 1081l-228 351h-158l269 -351h117zM1067 483q0 225 -143 375q-141 154 -357 154q-215 0 -356 -154q-143 -150 -143 -375t143 -374q141 -154 356 -154t357 154q143 149 143 374zM926 483q0 -174 -100.5 -286.5t-258.5 -112.5t-258 112.5t-100 286.5t100.5 287 t257.5 113q158 0 258.5 -113t100.5 -287z" />
<glyph unicode="&#xf3;" d="M770 1432h-158l-227 -351h117zM1067 483q0 225 -143 375q-141 154 -357 154q-215 0 -356 -154q-143 -150 -143 -375t143 -374q141 -154 356 -154t357 154q143 149 143 374zM926 483q0 -174 -100.5 -286.5t-258.5 -112.5t-258 112.5t-100 286.5t100.5 287t257.5 113 q158 0 258.5 -113t100.5 -287z" />
<glyph unicode="&#xf4;" d="M903 1090l-270 329h-135l-269 -329h113l223 206l226 -206h112zM1067 483q0 225 -143 375q-141 154 -357 154q-215 0 -356 -154q-143 -150 -143 -375t143 -374q141 -154 356 -154t357 154q143 149 143 374zM926 483q0 -174 -100.5 -286.5t-258.5 -112.5t-258 112.5 t-100 286.5t100.5 287t257.5 113q158 0 258.5 -113t100.5 -287z" />
<glyph unicode="&#xf5;" d="M922 1360h-91q-29 -66 -51 -80q-29 -18 -57 -18q-23 0 -56.5 11t-80.5 38q-98 51 -170 51q-61 0 -113 -47q-27 -23 -47 -62t-43 -104h88q16 35 28.5 53.5t24.5 26.5q25 18 58 18q23 0 56.5 -11t80.5 -38q98 -51 170 -51q61 0 112 47q27 23 47.5 61.5t43.5 104.5z M1067 483q0 225 -143 375q-141 154 -357 154q-215 0 -356 -154q-143 -150 -143 -375t143 -374q141 -154 356 -154t357 154q143 149 143 374zM926 483q0 -174 -100.5 -286.5t-258.5 -112.5t-258 112.5t-100 286.5t100.5 287t257.5 113q158 0 258.5 -113t100.5 -287z" />
<glyph unicode="&#xf6;" d="M825 1171v164h-163v-164h163zM471 1171v164h-164v-164h164zM1067 483q0 225 -143 375q-141 154 -357 154q-215 0 -356 -154q-143 -150 -143 -375t143 -374q141 -154 356 -154t357 154q143 149 143 374zM926 483q0 -174 -100.5 -286.5t-258.5 -112.5t-258 112.5 t-100 286.5t100.5 287t257.5 113q158 0 258.5 -113t100.5 -287z" />
<glyph unicode="&#xf7;" horiz-adv-x="1368" d="M768 991v164h-147v-164h147zM1235 594v123h-1106v-123h1106zM768 100v164h-147v-164h147z" />
<glyph unicode="&#xf8;" d="M1085 1004l-77 67l-140 -162q-121 102 -301 103q-215 0 -356 -154q-143 -150 -143 -375q0 -211 122 -354l-139 -164l78 -65l135 157q121 -102 303 -102q215 0 357 154q143 150 143 374q0 209 -123 355zM782 809l-501 -578q-72 102 -72 252q0 174 100.5 287t257.5 113 q129 0 215 -74zM926 483q0 -174 -100.5 -286.5t-258.5 -112.5q-129 0 -217 72l504 577q72 -100 72 -250z" />
<glyph unicode="&#xf9;" horiz-adv-x="1110" d="M737 1081l-227 351h-158l269 -351h116zM1110 -16v125h-168v876h-139v-108v-615q-35 -33 -74 -61.5t-86 -53.5q-96 -49 -180 -49q-68 0 -107 39q-37 37 -37 109v739h-309v-125h170v-633q0 -119 72 -188q70 -70 192 -70q115 0 213 45q41 18 77 40t69 48v-118h307z" />
<glyph unicode="&#xfa;" horiz-adv-x="1110" d="M760 1432h-158l-227 -351h117zM1110 -16v125h-168v876h-139v-108v-615q-35 -33 -74 -61.5t-86 -53.5q-96 -49 -180 -49q-68 0 -107 39q-37 37 -37 109v739h-309v-125h170v-633q0 -119 72 -188q70 -70 192 -70q115 0 213 45q41 18 77 40t69 48v-118h307z" />
<glyph unicode="&#xfb;" horiz-adv-x="1110" d="M893 1090l-270 329h-136l-268 -329h113l223 206l225 -206h113zM1110 -16v125h-168v876h-139v-108v-615q-35 -33 -74 -61.5t-86 -53.5q-96 -49 -180 -49q-68 0 -107 39q-37 37 -37 109v739h-309v-125h170v-633q0 -119 72 -188q70 -70 192 -70q115 0 213 45q41 18 77 40 t69 48v-118h307z" />
<glyph unicode="&#xfc;" horiz-adv-x="1110" d="M815 1171v164h-164v-164h164zM461 1171v164h-164v-164h164zM1110 -16v125h-168v876h-139v-108v-615q-35 -33 -74 -61.5t-86 -53.5q-96 -49 -180 -49q-68 0 -107 39q-37 37 -37 109v739h-309v-125h170v-633q0 -119 72 -188q70 -70 192 -70q115 0 213 45q41 18 77 40t69 48 v-118h307z" />
<glyph unicode="&#xfd;" horiz-adv-x="1087" d="M748 1432h-158l-228 -351h117zM1102 860v125h-436v-125h145l-248 -659l-280 682l-37 102h-258v-125h166l340 -833l-168 -478h129l495 1311h152z" />
<glyph unicode="&#xfe;" horiz-adv-x="1216" d="M1145 489q0 225 -139 373q-137 150 -349 150q-104 0 -208 -49q-84 -43 -154 -138v582h-315v-125h176v-1608h-176v-125h313v93h2v495q68 -94 145 -133q100 -49 211 -49q219 0 357 151q137 150 137 383zM1014 483q0 -176 -101 -288q-98 -111 -260 -111q-154 0 -258 111 q-104 113 -104 292q0 178 102 291q102 109 254 109q164 0 264 -113q103 -113 103 -291z" />
<glyph unicode="&#xff;" horiz-adv-x="1087" d="M803 1171v164h-164v-164h164zM449 1171v164h-164v-164h164zM1102 860v125h-436v-125h145l-248 -659l-280 682l-37 102h-258v-125h166l340 -833l-168 -478h129l495 1311h152z" />
<glyph unicode="&#x152;" horiz-adv-x="2154" d="M2050 -16v125h-111h-710v540h577v125h-577v508h694v-246h125v371h-1214q-338 0 -543 -190.5t-205 -509.5q0 -340 205 -533q205 -190 565 -190h1194zM1081 109h-221q-291 0 -461 151q-166 150 -166 424q0 293 162 444q162 154 471 154h215v-1173z" />
<glyph unicode="&#x153;" horiz-adv-x="1898" d="M1845 444q-6 129 -41 229.5t-98 180.5q-127 158 -334 158q-141 0 -258 -74q-100 -61 -164 -176q-53 109 -151 174q-115 76 -264 76q-205 0 -336 -154q-135 -152 -136 -375q0 -225 136 -374q131 -154 336 -154q147 0 260 70q102 63 155 168q66 -113 168 -173 q111 -66 260 -65q74 0 143.5 19.5t141.5 62.5l-64 106q-57 -37 -108 -53t-107 -16q-160 0 -264 114q-94 104 -104 256h829zM1698 569h-678q25 127 90 205q96 115 246 115q143 0 231 -94q86 -87 111 -226zM879 483q0 -174 -97 -286q-92 -113 -239 -113q-150 0 -242 113 q-96 113 -96 286q0 174 96 287q92 113 242 113q147 0 239 -113q97 -113 97 -287z" />
<glyph unicode="&#x160;" horiz-adv-x="1110" d="M893 1837h-113l-225 -207l-223 207h-113l268 -330h136zM1036 365q0 174 -106 274q-106 96 -391 168q-154 37 -240 96q-84 55 -84 166q0 96 78 162q82 66 199 65q76 0 137 -10t112 -49q25 -18 42.5 -46t26.5 -55.5t13 -53t4 -40.5v-43h142l-1 22q-1 22 -4 51.5t-9.5 62 t-18.5 55.5q-14 33 -28.5 52.5t-37.5 43.5q-41 43 -77.5 64.5t-83.5 44.5q-51 23 -104.5 29t-106.5 6q-174 0 -299 -103q-123 -102 -123 -254q0 -166 104 -260q53 -47 134 -83t192 -64q217 -53 301 -117q82 -63 82 -172q0 -121 -88 -201q-90 -80 -226 -80q-158 0 -266 101 q-111 100 -110 231v66h-127v-510h127v151q57 -74 145 -119q113 -53 229 -53q195 0 328 115q135 113 135 287z" />
<glyph unicode="&#x161;" horiz-adv-x="917" d="M797 1421h-113l-225 -207l-223 207h-113l268 -329h135zM854 260q0 125 -72 195q-35 35 -108.5 61.5t-184.5 46.5q-150 27 -198 62q-47 31 -47 102q0 66 51 115q49 49 143 49q102 0 176 -64q35 -33 53.5 -75.5t20.5 -104.5h123v309h-123v-47q-51 53 -114.5 78t-137.5 25 q-131 0 -227 -78q-94 -76 -94 -211q0 -137 86 -197q82 -61 260 -92q162 -29 213 -67q53 -37 53 -117q0 -78 -72 -129q-76 -53 -174 -53q-129 0 -211 71q-41 35 -60.5 86t-21.5 127h-127v-368h127v88q47 -55 109 -84q82 -35 174 -35q174 0 277 82q106 86 106 225z" />
<glyph unicode="&#x178;" horiz-adv-x="1236" d="M879 1587v164h-164v-164h164zM524 1587v164h-164v-164h164zM1290 1282v125h-489v-125h166l-332 -524l-352 557h-2l-58 92h-278v-125h188l418 -659v-514h-193v-125h340v108v531l418 659h174z" />
<glyph unicode="&#x192;" d="M1120 1468l-56 18q-24 7 -46 11q-51 10 -98 10q-119 0 -186.5 -63.5t-96.5 -173.5l-45 -191h-170l-25 -125h168l-250 -1153q-12 -53 -45 -84q-33 -27 -94 -26q-39 0 -78 8q-20 4 -37.5 8t-40.5 10l-28 -131q27 -10 48 -15l44 -11l47.5 -7.5t44.5 -3.5q143 0 209 66 q66 70 96 213l244 1126h221l29 125h-223l36 156q16 72 52 102q33 27 88 27q49 0 90 -6q20 -4 37 -8l39 -11z" />
<glyph unicode="&#x2c6;" horiz-adv-x="681" d="M678 1090l-270 329h-136l-268 -329h113l223 206l225 -206h113z" />
<glyph unicode="&#x2dc;" horiz-adv-x="681" d="M696 1360h-90q-29 -66 -51 -80q-29 -18 -57 -18q-23 0 -56.5 11t-81.5 38q-98 51 -170 51q-61 0 -112 -47q-27 -23 -47.5 -62t-42.5 -104h88q16 35 28.5 53.5t24.5 26.5q25 18 57 18q23 0 56.5 -11t81.5 -38q98 -51 170 -51q61 0 112 47q27 23 47 61.5t43 104.5z" />
<glyph unicode="&#x2000;" horiz-adv-x="948" />
<glyph unicode="&#x2001;" horiz-adv-x="1896" />
<glyph unicode="&#x2002;" horiz-adv-x="948" />
<glyph unicode="&#x2003;" horiz-adv-x="1896" />
<glyph unicode="&#x2004;" horiz-adv-x="630" />
<glyph unicode="&#x2005;" horiz-adv-x="473" />
<glyph unicode="&#x2006;" horiz-adv-x="315" />
<glyph unicode="&#x2007;" horiz-adv-x="315" />
<glyph unicode="&#x2008;" horiz-adv-x="235" />
<glyph unicode="&#x2009;" horiz-adv-x="378" />
<glyph unicode="&#x200a;" horiz-adv-x="104" />
<glyph unicode="&#x2010;" horiz-adv-x="704" d="M647 498v125h-594v-125h594z" />
<glyph unicode="&#x2011;" horiz-adv-x="704" d="M647 498v125h-594v-125h594z" />
<glyph unicode="&#x2012;" horiz-adv-x="704" d="M647 498v125h-594v-125h594z" />
<glyph unicode="&#x2013;" horiz-adv-x="1024" d="M1040 442v142h-1056v-142h1056z" />
<glyph unicode="&#x2014;" horiz-adv-x="2048" d="M2064 442v142h-2080v-142h2080z" />
<glyph unicode="&#x2018;" horiz-adv-x="512" d="M348 1300v109q-49 -4 -79.5 -21.5t-49.5 -48.5q-37 -66 -37 -178v-235h148v223h-51q0 47 4 76.5t8 46t16 22.5t41 6z" />
<glyph unicode="&#x2019;" horiz-adv-x="512" d="M330 1171v236h-148v-223h51q0 -47 -4 -77t-8 -46.5t-16 -22.5t-41 -6v-108q49 4 79.5 21.5t49.5 47.5q37 63 37 178z" />
<glyph unicode="&#x201a;" horiz-adv-x="512" d="M330 -29v236h-148v-223h51q0 -47 -4 -77t-8 -46.5t-16 -22.5t-41 -6v-108q49 4 79.5 21t49.5 48q37 63 37 178z" />
<glyph unicode="&#x201c;" horiz-adv-x="980" d="M813 1300v109q-49 -4 -80 -21.5t-49 -48.5q-37 -66 -37 -178v-235h148v223h-52q0 47 4.5 76.5t8.5 46t16 22.5t41 6zM334 1300v109q-49 -4 -80 -21.5t-49 -48.5q-37 -66 -37 -178v-235h147v223h-51q0 47 4 76.5t8.5 46t16.5 22.5t41 6z" />
<glyph unicode="&#x201d;" horiz-adv-x="980" d="M813 1171v236h-147v-223h51q0 -47 -4 -77t-8.5 -46.5t-16.5 -22.5t-41 -6v-108q49 4 80 21.5t49 47.5q37 63 37 178zM334 1171v236h-148v-223h52q0 -47 -4.5 -77t-8.5 -46.5t-16 -22.5t-41 -6v-108q49 4 80 21.5t49 47.5q37 63 37 178z" />
<glyph unicode="&#x201e;" horiz-adv-x="980" d="M817 -29v236h-147v-223h51q0 -47 -4 -77t-8 -46.5t-16.5 -22.5t-41.5 -6v-108q49 4 80 21t49 48q37 63 37 178zM330 -29v236h-148v-223h51q0 -47 -4 -77t-8 -46.5t-16 -22.5t-41 -6v-108q49 4 79.5 21t49.5 48q37 63 37 178z" />
<glyph unicode="&#x2020;" horiz-adv-x="960" d="M954 799v159q-104 -2 -162.5 -5t-78.5 -13q-16 -4 -62.5 -9t-126.5 -9q6 205 19 229q8 20 11 82.5t5 173.5h-151q0 -219 14 -256q12 -23 20 -229q-82 4 -128 9t-60 9q-20 10 -79.5 13t-164.5 5v-159q209 0 244 16q14 4 60 10t128 11q0 -39 -1 -70t-3 -53q-6 -47 -32 -115 q0 -180 12 -469l12 -284l12 -271h82l37 1022q-31 72 -33 117q-2 23 -3 53.5t-1 69.5q80 -4 126 -10.5t63 -10.5q34 -16 241 -16z" />
<glyph unicode="&#x2021;" horiz-adv-x="1003" d="M975 -8v160q-104 -2 -162.5 -5.5t-79.5 -13.5q-16 -4 -62 -9t-126 -9q2 47 3 91t5 85q6 86 57 201q-27 53 -40 101t-17 93q-4 43 -6 86t-2 88q80 -4 126 -10t62 -10q35 -16 242 -17v160q-104 -2 -162.5 -5t-79.5 -13q-16 -4 -62 -9.5t-126 -9.5q12 168 20 191 q6 18 9.5 83.5t3.5 186.5h-148q0 -121 3 -186.5t9 -83.5q8 -23 21 -191q-82 4 -128 9.5t-61 9.5q-20 10 -79.5 13t-163.5 5v-160q209 0 243 17q14 4 60.5 10t128.5 10l-4 -88q-2 -43 -6 -86q-4 -45 -17.5 -93t-38.5 -101q27 -59 39.5 -107.5t16.5 -93.5q4 -41 5 -85t5 -91 q-82 4 -128 9t-61 9q-20 10 -79.5 13.5t-163.5 5.5v-160q209 0 243 16q14 4 60.5 10.5t128.5 10.5q-12 -176 -21 -195q-12 -35 -12 -266h148q0 231 -13 266q-8 18 -20 195q80 -4 126 -10.5t62 -10.5q35 -16 242 -16z" />
<glyph unicode="&#x2022;" horiz-adv-x="1024" d="M692 623q0 72 -53 129q-51 51 -129 51q-76 0 -127 -51q-53 -57 -53 -129q0 -76 53 -129.5t129 -53.5q74 0 127 53.5t53 129.5z" />
<glyph unicode="&#x2026;" horiz-adv-x="2048" d="M1790 -16v163h-148v-163h148zM1108 -16v163h-147v-163h147zM426 -16v163h-147v-163h147z" />
<glyph unicode="&#x202f;" horiz-adv-x="378" />
<glyph unicode="&#x2030;" horiz-adv-x="2048" d="M2015 344q0 186 -71 285q-74 104 -222 104q-145 0 -221 -104q-72 -98 -71 -285q0 -184 71 -287q74 -102 221 -102t222 102q71 103 71 287zM1321 344q0 186 -72 285q-74 104 -221 104q-145 0 -221 -104q-72 -98 -72 -285q0 -184 72 -287q74 -102 221 -102t221 102 q72 103 72 287zM1235 1407h-72h-28h-686q-57 23 -121 23q-145 0 -219 -103q-74 -100 -74 -285q0 -184 69 -286q72 -102 224 -103q147 0 221 103q72 102 72 286q0 76 -17.5 159t-68.5 142h546l-956 -1359h108zM1901 344q0 -74 -11.5 -129t-34.5 -96q-43 -74 -131 -74 q-86 0 -131 74q-45 80 -45 223q0 141 45 225q45 76 129 76q88 0 133 -76q46 -80 46 -223zM1206 344q0 -74 -11 -129t-34 -96q-43 -74 -131 -74q-86 0 -131 74q-45 80 -45 223q0 141 45 225q45 76 129 76q88 0 133 -76q45 -80 45 -223zM506 1042q0 -143 -45 -223 q-45 -76 -131 -76q-88 0 -131 74q-45 84 -45 223t45 224q45 76 129 75q88 0 133 -75q45 -81 45 -222z" />
<glyph unicode="&#x2039;" horiz-adv-x="468" d="M489 -16l-323 505l323 506h-151l-324 -506l324 -505h151z" />
<glyph unicode="&#x203a;" horiz-adv-x="468" d="M455 489l-324 506h-151l323 -506l-323 -505h151z" />
<glyph unicode="&#x205f;" horiz-adv-x="473" />
<glyph unicode="&#x2122;" horiz-adv-x="1921" d="M1702 557v850h-182l-199 -623l-193 623h-184v-850h127v647l201 -647h94l213 653v-653h123zM885 1286v121h-670v-121h274v-729h123v729h273z" />
<glyph unicode="&#xe000;" horiz-adv-x="985" d="M0 985h985v-985h-985v985z" />
<glyph unicode="&#xe001;" horiz-adv-x="1366" d="M1235 358v123h-557l135 348h422v123h-373l96 250h-124l-97 -250h-608v-123h559l-135 -348h-424v-123h375l-96 -249h124l97 249h606z" />
<glyph unicode="&#xe002;" horiz-adv-x="1460" d="M1427 541q0 133 -96 217q-96 86 -211 86q-86 0 -172 -41q-80 -41 -217 -168q-137 127 -217 168q-86 41 -172 41q-117 0 -211 -86q-96 -84 -96 -217t96 -217q94 -86 211 -86q76 0 160 38q88 37 229 170q141 -133 230 -170q84 -39 159 -38q115 0 211 86q96 84 96 217z M1290 541q0 -76 -45 -121t-125 -45q-86 0 -157.5 51t-131.5 115q59 63 131 114.5t158 51.5q80 0 123 -54q47 -53 47 -112zM631 541q-59 -63 -131 -114.5t-158 -51.5q-80 0 -125 45t-45 121q0 59 47 112q43 53 123 54q86 0 158 -51.5t131 -114.5z" />
<glyph unicode="&#xe003;" horiz-adv-x="1366" d="M1235 215v137l-922 385l922 385v138l-1106 -472v-102zM1235 -16v104h-1106v-104h1106z" />
<glyph unicode="&#xe004;" horiz-adv-x="1366" d="M1237 686v102l-1106 472v-138l920 -385l-920 -385v-137zM1237 -16v104h-1106v-104h1106z" />
<glyph unicode="&#xe005;" horiz-adv-x="1011" d="M963 805q0 330 -164 536q-164 209 -398 209q-84 0 -157 -22q-35 -10 -66 -22.5l-72 -30.5l103 -129l62 29q28 13 55 24q51 18 120 18q154 0 240 -137q86 -141 86 -369q0 -25 -1 -51t-3 -55q-4 -23 -6 -45.5t-6 -44.5q-78 63 -138 92q-68 33 -159 33q-174 0 -299 -142 q-123 -141 -123 -338q0 -203 131 -313q131 -106 272 -106q262 0 394 282q129 273 129 582zM733 608q-37 -299 -117 -436q-78 -137 -202 -137q-88 0 -127 76q-41 82 -41 192q0 193 90 311q92 113 192 113q76 0 125 -37q47 -39 80 -82z" />
<glyph unicode="&#xe006;" horiz-adv-x="1460" d="M1444 254h-78q-33 -80 -59.5 -126t-51.5 -67q-45 -39 -155 -38h-723l586 677l-547 717h506q92 0 144 -14t75 -41q25 -29 45 -71t37 -107h69l-12 358h-1034l-248 17l725 -949l-733 -833l157 8h1031q41 0 75 -8l44 -8q22 -4 53 -9l18 128q8 56 18.5 109.5t24 114 t33.5 142.5z" />
<glyph unicode="&#xe007;" horiz-adv-x="1685" d="M1661 -223v80q-72 0 -110 9t-54 25q-35 35 -35 115v1282q0 53 11.5 87t34 56.5t56 33t91.5 10.5v79h-1616v-79q57 0 92 -10.5t57.5 -33t33.5 -56.5t11 -87v-1282q0 -78 -32 -115q-16 -16 -54 -25t-112 -9v-80h661v80q-72 2 -109.5 11t-54.5 26q-35 31 -34 112v1403h700 v-1403q0 -80 -35 -115q-16 -16 -53 -25t-109 -9v-80h660z" />
<glyph unicode="&#xe008;" horiz-adv-x="1124" d="M1102 326h-78q0 -47 -8 -74t-25 -45q-29 -35 -71 -35q-37 0 -76 39q-41 37 -41 129q0 76 6 227q4 72 8 130.5t8 107.5h260v209h-780q-125 0 -192 -96q-35 -47 -62.5 -104.5t-52.5 -137.5h68q23 43 43 67.5t38 36.5q39 25 86 25h78l-57 -451q-6 -49 -35 -90t-63 -76 l-20 -25l-17 -26q-18 -31 -19 -65q0 -51 37 -88q37 -39 90 -39q68 0 105 49q33 49 45 106l92 705h199q-10 -86 -17.5 -156.5t-11.5 -124.5q-4 -57 -7 -110.5t-3 -102.5q0 -172 59 -264q63 -96 154 -96q104 0 180 98q39 49 58.5 116t21.5 161z" />
<glyph unicode="&#xe009;" horiz-adv-x="561" d="M612 1761q0 68 -51 101q-49 31 -100 30q-80 0 -128 -62.5t-67 -176.5q-37 -225 -37 -664q0 -518 7 -643q6 -129 6 -194q0 -61 -4.5 -103.5t-10.5 -66.5q-12 -39 -22 -39t-35 26q-31 41 -76 41q-41 0 -71 -30q-35 -31 -35 -76q0 -61 47 -103q23 -16 46 -26.5t46 -10.5 q92 0 147.5 68t81.5 193q29 127 41.5 323.5t12.5 468.5q0 145 -6.5 278.5t-16.5 260.5q-10 125 -15 204.5t-5 114.5q0 12 6 23q2 6 14 6q18 0 35 -18q27 -31 70 -31q59 0 88 35q32 36 32 71z" />
<glyph unicode="&#xe00a;" horiz-adv-x="1572" d="M1524 -16v364h-60q-12 -47 -21 -70.5t-20 -33.5q-16 -20 -82 -21h-305l2 29q207 49 326 211t119 354q0 289 -209 449q-207 160 -486 159q-283 0 -487 -161q-207 -164 -207 -447q0 -219 125 -371q121 -145 320 -194l2 -29h-305q-66 0 -82 21q-10 10 -19.5 33.5t-21.5 70.5 h-60v-364h639l-37 340q-127 35 -206 155q-82 123 -82 344q0 254 114 379q117 125 307 125q193 0 308 -127q57 -66 85.5 -158t28.5 -219q0 -223 -86 -342q-82 -119 -202 -157l-37 -340h639z" />
<glyph unicode="&#xe00b;" horiz-adv-x="1124" d="M1073 1882l-104 14l-254 -1599l-387 795l-330 -162l47 -99l197 97l514 -1059z" />
<glyph unicode="&#xe00c;" horiz-adv-x="1366" d="M1157 973l-113 35q-23 -33 -45 -52.5t-47 -33.5q-51 -27 -106 -27q-18 0 -69.5 12.5t-137.5 40.5q-176 53 -244 53q-86 0 -162 -38q-37 -20 -74.5 -54.5t-80.5 -93.5l115 -45q31 41 55 65.5t45 36.5q39 25 96 25q43 0 221 -55q88 -29 148.5 -43.5t93.5 -14.5q82 0 166 43 q41 23 74.5 57t64.5 89zM1157 502l-113 35q-23 -33 -45 -52.5t-47 -33.5q-51 -27 -106 -27q-18 0 -69.5 12.5t-137.5 40.5q-176 53 -244 53q-86 0 -162 -38q-37 -20 -74.5 -54.5t-80.5 -93.5l115 -45q31 41 55 65.5t45 36.5q39 25 96 25q43 0 221 -55q88 -29 148.5 -43.5 t93.5 -14.5q82 0 166 43q41 23 74.5 57t64.5 89z" />
<glyph unicode="&#xe00d;" horiz-adv-x="1253" d="M1270 -16l-602 1466l-682 -1466h1284zM967 117h-793l420 901z" />
<glyph unicode="&#xe00e;" horiz-adv-x="1011" d="M973 772l-406 770h-143l-406 -770l406 -788h143zM813 772l-317 -625l-318 625l318 608z" />
<glyph unicode="&#xe00f;" horiz-adv-x="2070" d="M2064 -16v125h-157l-578 632l547 541h160v125h-213l-99 -96l-587 -580l587 -649l84 -98h256zM1354 -16v125h-193v622v66l123 125l-65 65l-58 -57v352h191v125h-523v-125h185v-231l-158 157q-59 59 -131 58q-72 0 -133 -62q-49 -51 -72 -127q-20 -61 -24 -114 q-53 23 -102.5 8t-90.5 -56q-47 -47 -72 -114q-18 -49 -24 -103l-47 50l-156 -156l68 -66l82 82l354 -354l53 -55l148 147l-66 66l-74 -74l-282 280q2 59 24 125q20 63 56 101q37 33 65 30q35 0 68 -34l352 -353l72 74l-344 344q4 72 20 129q18 59 57 99q35 35 68 31.5 t66 -34.5l223 -225v-813v-108h340zM1286 -303q0 72 -53 129q-51 51 -129 51q-76 0 -127 -51q-53 -57 -53 -129q0 -76 53 -129t129 -53q74 0 127 53t53 129z" />
<glyph unicode="&#xe010;" horiz-adv-x="1087" d="M1106 1034v373h-911v-109v-890h-127v-125h127v-174h-181v-125h328v108v191h127v125h-127v245l512 2v123h-512v504h639v-248h125z" />
<glyph unicode="&#xe011;" horiz-adv-x="1622" d="M1120 1802h-119q-20 -43 -41.5 -69.5t-46.5 -42.5q-47 -33 -110 -33t-111 33q-49 35 -90 112h-119q27 -74 58.5 -122t72.5 -83q84 -70 189 -69q102 0 186 69q43 35 74.5 83t56.5 122zM1528 643h-725v-125h571q-31 -195 -180 -305q-158 -117 -367 -117q-262 0 -428 168 t-166 432q0 262 160 432q160 168 408 168q170 0 321 -96q74 -47 124 -114.5t79 -165.5h121v385h-125v-107q-84 98 -209 160q-150 72 -313 72q-305 0 -510 -209q-203 -209 -203 -525q0 -322 207 -528q207 -205 532 -205q309 0 504 180q98 92 147.5 214t51.5 286z" />
<glyph unicode="&#xe012;" horiz-adv-x="1216" d="M885 1386h-119q-20 -43 -42 -69.5t-46 -42.5q-47 -33 -111 -33q-63 0 -110 33q-49 35 -90 112h-119q27 -74 58.5 -121.5t72.5 -82.5q84 -70 188 -70q102 0 187 70q43 35 74.5 82.5t56.5 121.5zM1247 860v125h-317v-174q-82 111 -164 152q-98 49 -205 49q-207 0 -352 -158 q-145 -156 -146 -379q0 -217 142 -360q145 -145 354 -146q113 0 223 54q84 43 148 133v-189q0 -152 -99 -231q-100 -82 -260 -82q-25 0 -58.5 5t-65.5 11l-57 12q-26 5 -32 7l-30 -123l25 -6l62 -15q36 -8 75.5 -14t70.5 -6q223 0 365 123q143 123 143 329v883h178zM930 483 q0 -168 -105 -280q-104 -111 -260 -111q-158 0 -260 109q-100 113 -100 282q0 170 104.5 287t255.5 117q150 0 258 -117q107 -119 107 -287z" />
<glyph unicode="&#xe013;" horiz-adv-x="575" d="M358 1479v163h-147v-163h147zM537 -16v125h-177v1189v109h-147v-109v-1189h-174v-125h498z" />
<glyph unicode="&#xe014;" horiz-adv-x="1110" d="M1036 365q0 174 -106 274q-106 96 -391 168q-154 37 -240 96q-84 55 -84 166q0 96 78 162q82 66 199 65q76 0 137 -10t112 -49q25 -18 42.5 -46t26.5 -55.5t13 -53t4 -40.5v-43h142l-1 22q-1 22 -4 51.5t-9.5 62t-18.5 55.5q-14 33 -28.5 52.5t-37.5 43.5 q-41 43 -77.5 64.5t-83.5 44.5q-51 23 -104.5 29t-106.5 6q-174 0 -299 -103q-123 -102 -123 -254q0 -166 104 -260q53 -47 134 -83t192 -64q217 -53 301 -117q82 -63 82 -172q0 -121 -88 -201q-90 -80 -226 -80q-158 0 -266 101q-111 100 -110 231v66h-127v-510h127v151 q57 -74 145 -119q82 -39 170 -49l-29 -147q43 0 65.5 -6.5t37.5 -16.5q29 -16 28 -53q0 -47 -43 -72q-47 -27 -96 -26q-49 0 -100 2v-99h45q154 0 240 50q90 53 90 159q0 76 -47 123q-41 41 -99 47l6 37q170 10 289 113q135 113 135 287z" />
<glyph unicode="&#xe015;" horiz-adv-x="917" d="M854 260q0 125 -72 195q-35 35 -108.5 61.5t-184.5 46.5q-150 27 -198 62q-47 31 -47 102q0 66 51 115q49 49 143 49q102 0 176 -64q35 -33 53.5 -75.5t20.5 -104.5h123v309h-123v-47q-51 53 -114.5 78t-137.5 25q-131 0 -227 -78q-94 -76 -94 -211q0 -137 86 -197 q82 -61 260 -92q162 -29 213 -67q53 -37 53 -117q0 -78 -72 -129q-76 -53 -174 -53q-129 0 -211 71q-41 35 -60.5 86t-21.5 127h-127v-368h127v88q47 -55 109 -84q55 -23 123 -33l-27 -135q43 0 65.5 -6.5t37.5 -16.5q29 -16 28 -53q0 -47 -43 -72q-47 -27 -96 -26 q-49 0 -100 2v-99h45q154 0 239 50q90 53 90 159q0 76 -47 123q-41 41 -98 47l4 27q139 8 230 80q106 86 106 225z" />
<glyph unicode="&#xe016;" horiz-adv-x="1536" d="M1026 1847h-158l-227 -350h117zM1493 459l-123 73q-47 -129 -102.5 -210.5t-122.5 -128.5q-133 -96 -322 -97q-244 0 -405 168q-160 168 -160 432q0 260 156 432q156 168 401 168q174 0 320 -94q72 -47 115.5 -113.5t60.5 -158.5h127v354h-127v-76q-92 106 -215 160 q-139 61 -277 62q-313 0 -512 -205q-197 -207 -196 -529q0 -328 196.5 -530.5t513.5 -202.5q225 0 396 113q88 59 155.5 152.5t120.5 230.5z" />
<glyph unicode="&#xe017;" horiz-adv-x="1044" d="M750 1432h-158l-227 -351h116zM1004 270l-115 52q-27 -61 -57.5 -103.5t-69.5 -73.5q-80 -61 -197 -61q-160 0 -258 109q-98 111 -98 290q0 176 96 289q92 111 246 111q113 0 201 -70q43 -35 65.5 -89t26.5 -140h121v340h-121v-37q-41 51 -105 82q-84 43 -188 43 q-209 0 -346 -154q-137 -150 -137 -375q0 -233 137 -379q137 -150 358 -149q145 0 264 78q57 41 100.5 97t76.5 140z" />
<glyph unicode="&#xe018;" horiz-adv-x="1536" d="M1159 1837h-112l-226 -207l-223 207h-113l269 -330h135zM1493 459l-123 73q-47 -129 -102.5 -210.5t-122.5 -128.5q-133 -96 -322 -97q-244 0 -405 168q-160 168 -160 432q0 260 156 432q156 168 401 168q174 0 320 -94q72 -47 115.5 -113.5t60.5 -158.5h127v354h-127 v-76q-92 106 -215 160q-139 61 -277 62q-313 0 -512 -205q-197 -207 -196 -529q0 -328 196.5 -530.5t513.5 -202.5q225 0 396 113q88 59 155.5 152.5t120.5 230.5z" />
<glyph unicode="&#xe019;" horiz-adv-x="1044" d="M883 1421h-113l-225 -207l-223 207h-113l268 -329h135zM1004 270l-115 52q-27 -61 -57.5 -103.5t-69.5 -73.5q-80 -61 -197 -61q-160 0 -258 109q-98 111 -98 290q0 176 96 289q92 111 246 111q113 0 201 -70q43 -35 65.5 -89t26.5 -140h121v340h-121v-37q-41 51 -105 82 q-84 43 -188 43q-209 0 -346 -154q-137 -150 -137 -375q0 -233 137 -379q137 -150 358 -149q145 0 264 78q57 41 100.5 97t76.5 140z" />
<glyph unicode="&#xe01a;" horiz-adv-x="1216" d="M1227 -16v125h-176v962h118v119h-118v217h-138v-92h-2v-125h-293v-119h293v-248q-70 94 -151 138q-102 51 -213 51q-211 0 -350 -152q-139 -147 -140 -377q0 -219 141.5 -366.5t354.5 -147.5q113 0 211 49q82 41 147 125v-159h316zM913 489q0 -174 -100 -286.5 t-260 -112.5q-152 0 -258 113q-104 117 -105 280q0 172 103 291q104 117 256 117q154 0 258 -115q106 -115 106 -287z" />
<glyph unicode="&#xe01b;" horiz-adv-x="1366" d="M1180 291l-131 131q43 57 67 123q27 68 27 153q0 88 -29 154q-23 61 -65 123l131 131l-88 88l-131 -131q-59 43 -123 67q-68 27 -154 27q-88 0 -154 -29q-61 -23 -122 -65l-129 131l-89 -88l132 -131q-47 -61 -72 -129t-25 -148q0 -88 29 -153q25 -66 68 -123l-132 -131 l86 -88l132 131q57 -43 122 -68q68 -27 154 -26q88 0 154 28q61 23 123 66l131 -131zM1014 698q0 -133 -96 -233q-100 -96 -234 -96q-133 0 -233 96q-96 100 -97 233q0 133 97 234q100 96 233 96t234 -96q96 -101 96 -234z" />
<glyph unicode="&#xe01c;" horiz-adv-x="1343" d="M1018 1628v92h-690v-92h690zM1409 -16v125h-176l-414 1173h168v125h-422l-35 -102l-413 -1196h-180v-125h323v112l143 416h537l143 -403h-168v-125h494zM899 637h-453l228 659z" />
<glyph unicode="&#xe01d;" horiz-adv-x="1044" d="M868 1212v93h-690v-93h690zM1040 -16v125h-161v612q0 147 -99 219q-96 72 -278 72q-41 0 -87 -11.5t-87 -23.5t-68 -24l-27 -11l37 -92q6 2 31 11t58.5 18.5t70.5 16.5t68 7q113 0 178 -43q63 -41 63 -139v-203l-67.5 29.5t-65.5 21.5q-78 18 -139 19q-172 0 -274 -88 q-104 -92 -105 -228q0 -123 90 -213t228 -90q88 0 184 43q76 31 149 90v-118h301zM739 233q-55 -61 -141 -104q-88 -45 -168 -45q-96 0 -147 55q-53 57 -54 125q0 88 66 150q68 61 190 61q72 0 138 -24q61 -20 116 -54v-164z" />
<glyph unicode="&#xe01e;" horiz-adv-x="1343" d="M991 1802h-119q-20 -43 -41.5 -69.5t-46.5 -42.5q-47 -33 -110 -33t-111 33q-49 35 -90 112h-119q27 -74 58.5 -122t72.5 -83q84 -70 189 -69q102 0 186 69q43 35 74.5 83t56.5 122zM1409 -16v125h-176l-414 1173h168v125h-422l-35 -102l-413 -1196h-180v-125h323v112 l143 416h537l143 -403h-168v-125h494zM899 637h-453l228 659z" />
<glyph unicode="&#xe01f;" horiz-adv-x="1044" d="M842 1386h-119q-20 -43 -42 -69.5t-46 -42.5q-47 -33 -111 -33q-63 0 -110 33q-49 35 -90 112h-119q27 -74 58.5 -121.5t72.5 -82.5q84 -70 188 -70q102 0 187 70q43 35 74.5 82.5t56.5 121.5zM1040 -16v125h-161v612q0 147 -99 219q-96 72 -278 72q-41 0 -87 -11.5 t-87 -23.5t-68 -24l-27 -11l37 -92q6 2 31 11t58.5 18.5t70.5 16.5t68 7q113 0 178 -43q63 -41 63 -139v-203l-67.5 29.5t-65.5 21.5q-78 18 -139 19q-172 0 -274 -88q-104 -92 -105 -228q0 -123 90 -213t228 -90q88 0 184 43q76 31 149 90v-118h301zM739 233 q-55 -61 -141 -104q-88 -45 -168 -45q-96 0 -147 55q-53 57 -54 125q0 88 66 150q68 61 190 61q72 0 138 -24q61 -20 116 -54v-164z" />
<glyph unicode="&#xe020;" horiz-adv-x="1343" d="M1436 -330v119q-39 -14 -58.5 -19.5t-31.5 -9.5q-12 -2 -26.5 -3t-31.5 -1q-45 0 -78 25q-31 25 -30 74q0 39 20 71q20 37 45 58h164v125h-176l-414 1173h168v125h-422l-35 -102l-413 -1196h-180v-125h323v112l143 416h537l143 -403h-168v-125h199l-16 -21l-17 -22 q-33 -47 -32 -105q0 -96 73 -153q70 -55 168 -56q45 0 76 10t70 33zM899 637h-453l228 659z" />
<glyph unicode="&#xe021;" horiz-adv-x="1044" d="M1128 -330v119q-39 -14 -58 -19.5l-32 -9.5q-12 -2 -26.5 -3t-30.5 -1q-45 0 -78 25q-31 25 -31 74q0 39 21 71q20 37 45 58h102v125h-161v612q0 147 -99 219q-96 72 -278 72q-41 0 -87 -11.5t-87 -23.5t-68 -24l-27 -11l37 -92q6 2 31 11t58.5 18.5t70.5 16.5t68 7 q113 0 178 -43q63 -41 63 -139v-203l-67.5 29.5t-65.5 21.5q-78 18 -139 19q-172 0 -274 -88q-104 -92 -105 -228q0 -123 90 -213t228 -90q88 0 184 43q76 31 149 90v-118h68l-16 -21l-17 -22q-33 -47 -33 -105q0 -96 74 -153q70 -55 168 -56q45 0 75.5 10t69.5 33zM739 233 q-55 -61 -141 -104q-88 -45 -168 -45q-96 0 -147 55q-53 57 -54 125q0 88 66 150q68 61 190 61q72 0 138 -24q61 -20 116 -54v-164z" />
<glyph unicode="&#xe022;" horiz-adv-x="1449" d="M995 1837h-112l-226 -207l-223 207h-112l268 -330h135zM1370 694q0 317 -186 516q-190 197 -572 197h-612v-125h193v-1190v-108h417q422 0 592 215q168 212 168 495zM1223 694q0 -291 -152 -438q-147 -147 -444 -147h-287v1173h283q287 0 444 -154q156 -151 156 -434z " />
<glyph unicode="&#xe023;" horiz-adv-x="1380" d="M1313 1171v236h-148v-223h52q0 -47 -4.5 -77t-8.5 -46.5t-16 -22.5t-41 -6v-108q49 4 79.5 21.5t49.5 47.5q37 63 37 178zM1227 -16v125h-176v1298h-140v-109v-475q-70 94 -151 138q-102 51 -213 51q-211 0 -350 -152q-139 -147 -140 -377q0 -219 141.5 -366.5 t354.5 -147.5q113 0 211 49q82 41 147 125v-159h316zM913 489q0 -174 -100 -286.5t-260 -112.5q-152 0 -258 113q-104 117 -105 280q0 172 103 291q104 117 256 117q154 0 258 -115q106 -115 106 -287z" />
<glyph unicode="&#xe024;" horiz-adv-x="1449" d="M1370 694q0 317 -186 516q-190 197 -572 197h-612v-121l193 4v-530h-191v-125h191v-543v-108h417q422 0 592 215q168 212 168 495zM1223 694q0 -291 -152 -438q-147 -147 -444 -147h-287v526h428v125h-428v522h283q287 0 444 -154q156 -151 156 -434z" />
<glyph unicode="&#xe025;" horiz-adv-x="1236" d="M965 1628v92h-691v-92h691zM1161 -16v125h-110h-711v540h578v125h-578v508h694v-246h125v371h-1145v-125h179v-1190v-108h968z" />
<glyph unicode="&#xe026;" d="M911 1212v93h-690v-93h690zM1077 444q-6 141 -43 245t-104 175q-135 147 -355 148q-223 0 -366 -149.5t-143 -379.5q0 -227 145 -379q147 -150 371 -149q39 0 92 12.5t99 26.5t79 26l33 13l-33 110q-6 -4 -36 -15t-68.5 -23.5t-79.5 -21.5t-70 -9q-172 0 -283 116 q-98 98 -110 254h872zM930 569h-721q12 61 35.5 112.5t60.5 92.5q104 115 262 115q154 0 248 -94q90 -87 115 -226z" />
<glyph unicode="&#xe027;" horiz-adv-x="1236" d="M702 1587v164h-163v-164h163zM1161 -16v125h-110h-711v540h578v125h-578v508h694v-246h125v371h-1145v-125h179v-1190v-108h968z" />
<glyph unicode="&#xe028;" d="M649 1171v164h-164v-164h164zM1077 444q-6 141 -43 245t-104 175q-135 147 -355 148q-223 0 -366 -149.5t-143 -379.5q0 -227 145 -379q147 -150 371 -149q39 0 92 12.5t99 26.5t79 26l33 13l-33 110q-6 -4 -36 -15t-68.5 -23.5t-79.5 -21.5t-70 -9q-172 0 -283 116 q-98 98 -110 254h872zM930 569h-721q12 61 35.5 112.5t60.5 92.5q104 115 262 115q154 0 248 -94q90 -87 115 -226z" />
<glyph unicode="&#xe029;" horiz-adv-x="1236" d="M1161 -16v125h-110h-711v540h578v125h-578v508h694v-246h125v371h-1145v-125h179v-1190v-108h593l-16 -21q-8 -10 -16 -22q-33 -47 -33 -105q0 -96 74 -153q70 -55 168 -56q45 0 75.5 10.5t69.5 32.5v119q-39 -14 -58.5 -19.5t-31.5 -9.5q-12 -2 -26.5 -3t-30.5 -1 q-45 0 -78 25q-31 25 -31 74q0 39 20 71q20 37 46 58h243z" />
<glyph unicode="&#xe02a;" d="M1077 444q-6 141 -43 245t-104 175q-135 147 -355 148q-223 0 -366 -149.5t-143 -379.5q0 -227 145 -379q115 -115 272 -141q-4 -6 -8 -11t-8 -11q-33 -47 -33 -105q0 -96 74 -153q70 -55 168 -56q45 0 75.5 10.5t69.5 32.5v119q-39 -14 -58.5 -19.5t-31.5 -9.5 q-12 -2 -26.5 -3t-30.5 -1q-45 0 -78 25q-31 25 -31 74q0 39 21 71q4 10 10 16.5t10 14.5q39 2 88 14.5t91 26.5l71 25l29 10l-33 110q-6 -4 -36 -15t-68.5 -23.5t-79.5 -21.5t-70 -9q-172 0 -283 116q-98 98 -110 254h872zM930 569h-721q12 61 35.5 112.5t60.5 92.5 q104 115 262 115q154 0 248 -94q90 -87 115 -226z" />
<glyph unicode="&#xe02b;" horiz-adv-x="1236" d="M956 1837h-112l-226 -207l-223 207h-112l268 -330h135zM1161 -16v125h-110h-711v540h578v125h-578v508h694v-246h125v371h-1145v-125h179v-1190v-108h968z" />
<glyph unicode="&#xe02c;" d="M903 1421h-112l-226 -207l-223 207h-113l269 -329h135zM1077 444q-6 141 -43 245t-104 175q-135 147 -355 148q-223 0 -366 -149.5t-143 -379.5q0 -227 145 -379q147 -150 371 -149q39 0 92 12.5t99 26.5t79 26l33 13l-33 110q-6 -4 -36 -15t-68.5 -23.5t-79.5 -21.5 t-70 -9q-172 0 -283 116q-98 98 -110 254h872zM930 569h-721q12 61 35.5 112.5t60.5 92.5q104 115 262 115q154 0 248 -94q90 -87 115 -226z" />
<glyph unicode="&#xe02d;" horiz-adv-x="1622" d="M1528 643h-725v-125h571q-31 -195 -180 -305q-158 -117 -367 -117q-262 0 -428 168t-166 432q0 262 160 432q160 168 408 168q170 0 321 -96q74 -47 124 -114.5t79 -165.5h121v385h-125v-107q-84 98 -209 160q-150 72 -313 72q-305 0 -510 -209q-203 -209 -203 -525 q0 -322 207 -528q190 -186 477 -203l-29 -145q43 0 65.5 -6.5t37.5 -16.5q29 -16 28 -53q0 -47 -43 -72q-47 -27 -96 -26q-49 0 -100 2v-99h45q154 0 240 50q90 53 90 159q0 76 -47 123q-41 41 -99 47l6 35q279 12 461 180q98 92 147.5 214t51.5 286z" />
<glyph unicode="&#xe02e;" horiz-adv-x="1216" d="M770 1432h-158l-227 -351h117zM1247 860v125h-317v-174q-82 111 -164 152q-98 49 -205 49q-207 0 -352 -158q-145 -156 -146 -379q0 -217 142 -360q145 -145 354 -146q113 0 223 54q84 43 148 133v-189q0 -152 -99 -231q-100 -82 -260 -82q-25 0 -58.5 5t-65.5 11l-57 12 q-26 5 -32 7l-30 -123l25 -6l62 -15q36 -8 75.5 -14t70.5 -6q223 0 365 123q143 123 143 329v883h178zM930 483q0 -168 -105 -280q-104 -111 -260 -111q-158 0 -260 109q-100 113 -100 282q0 170 104.5 287t255.5 117q150 0 258 -117q107 -119 107 -287z" />
<glyph unicode="&#xe02f;" horiz-adv-x="575" d="M633 1628v92h-690v-92h690zM537 -16v125h-177v1189v109h-147v-109v-1189h-174v-125h498z" />
<glyph unicode="&#xe030;" horiz-adv-x="512" d="M602 1212v93h-690v-93h690zM510 -16v125h-166v876h-309v-125h170v-751h-170v-125h475z" />
<glyph unicode="&#xe031;" horiz-adv-x="575" d="M358 1479v163h-147v-163h147zM537 -16v125h-177v1189v109h-147v-109v-1189h-174v-125h174l-16 -21l-17 -22q-33 -47 -33 -105q0 -96 74 -153q70 -55 168 -56q45 0 76 10.5t70 32.5v119q-39 -14 -58.5 -19.5t-32.5 -9.5q-12 -2 -26.5 -3t-30.5 -1q-45 0 -78 25 q-31 25 -30 74q0 39 20 71q20 37 45 58h193z" />
<glyph unicode="&#xe032;" horiz-adv-x="512" d="M342 1331q0 37 -29 70q-33 29 -69 29q-37 0 -70 -29q-29 -33 -29 -72q0 -37 29 -69q33 -29 70 -29t69 29q29 32 29 71zM514 -330v119q-39 -14 -58.5 -19.5t-31.5 -9.5q-12 -2 -26.5 -3t-30.5 -1q-45 0 -78 25q-31 25 -31 74q0 39 21 71q20 37 45 58h184v125h-166v876 h-309v-125h170v-784h2v-80q-23 -20 -45 -55q-33 -47 -33 -105q0 -96 74 -153q70 -55 168 -56q45 0 75.5 10t69.5 33z" />
<glyph unicode="&#xe033;" horiz-adv-x="1193" d="M1245 -16v125h-158l-577 632l547 541h160v125h-213l-99 -96l-588 -580l588 -649l84 -98h256zM535 -16v125h-193v622v551h190v125h-522v-125h185v-1190v-108h38l-26 -140q41 0 64.5 -5t37.5 -15q29 -23 29 -55q0 -47 -43 -72q-47 -27 -96 -27t-101 4v-100h45q150 0 240 49 q90 53 90 160q0 72 -47 123q-41 41 -100 47l6 31h203z" />
<glyph unicode="&#xe034;" horiz-adv-x="1067" d="M1110 -16v125h-158l-483 403l508 348h117v125h-154l-30 -20l-79 -56l-112 -79l-132 -90l-136 -92l-123 -83v842h-318v-125h178v-1206h2v-92h46l-27 -146q41 0 63.5 -6t38.5 -16q27 -18 27 -54q0 -49 -43 -71q-47 -27 -96 -27t-101 2v-98h45q154 0 240 49q90 51 90 160 q0 76 -45 121t-100 47l8 39h170v125h-178v354l551 -479h231z" />
<glyph unicode="&#xe035;" horiz-adv-x="1044" d="M637 1847h-158l-227 -350h117zM1036 -16v483h-143v-358h-541v1173h2v125h-338v-125h189v-1173h-189v-125h1020z" />
<glyph unicode="&#xe036;" horiz-adv-x="491" d="M555 1823h-158l-227 -350h117zM489 -16v125h-174v1298h-315v-125h176v-1190v-108h313z" />
<glyph unicode="&#xe037;" horiz-adv-x="1044" d="M1036 -16v483h-143v-358h-541v1173h2v125h-338v-125h189v-1173h-189v-125h461l-28 -146q43 0 65.5 -6t36.5 -16q29 -16 29 -54q0 -47 -43 -71q-47 -27 -97 -27q-49 0 -100 2v-98h45q154 0 240 49q90 53 90 160q0 76 -47 121q-41 45 -99 47l6 39h461z" />
<glyph unicode="&#xe038;" horiz-adv-x="491" d="M489 -16v125h-174v1298h-315v-125h176v-1190v-108h39l-29 -146q43 0 65.5 -5t37.5 -15q29 -20 28 -56q0 -47 -43 -71q-47 -27 -96 -27t-100 4v-100h45q154 0 239 49q90 53 91 160q0 76 -47 123q-41 41 -99 47l6 37h176z" />
<glyph unicode="&#xe039;" horiz-adv-x="1044" d="M883 1171v236h-148v-223h51q0 -47 -4 -77t-8 -46.5t-16.5 -22.5t-40.5 -6v-108q49 4 79.5 21.5t49.5 47.5q37 63 37 178zM1036 -16v483h-143v-358h-541v1173h2v125h-338v-125h189v-1173h-189v-125h1020z" />
<glyph unicode="&#xe03a;" horiz-adv-x="655" d="M586 1171v236h-148v-223h51q0 -47 -4 -77t-8 -46.5t-16 -22.5t-41 -6v-108q49 4 79.5 21.5t49.5 47.5q37 63 37 178zM489 -16v125h-174v1298h-315v-125h176v-1190v-108h313z" />
<glyph unicode="&#xe03b;" horiz-adv-x="1044" d="M752 659v164h-164v-164h164zM1036 -16v483h-143v-358h-541v1173h2v125h-338v-125h189v-1173h-189v-125h1020z" />
<glyph unicode="&#xe03c;" horiz-adv-x="655" d="M598 659v164h-164v-164h164zM489 -16v125h-174v1298h-315v-125h176v-1190v-108h313z" />
<glyph unicode="&#xe03d;" horiz-adv-x="1449" d="M930 1847h-158l-227 -350h117zM1446 1282v125h-309v-109v-1089l-186 290l-187 281l-202 306l-206 321h-352v-125h186v-1190v-108h326v125h-197v1101l814 -1245h133v1317h180z" />
<glyph unicode="&#xe03e;" horiz-adv-x="1087" d="M748 1432h-158l-228 -351h117zM1098 -16v125h-154v632q0 123 -76 197q-78 74 -198 74q-104 0 -201 -45q-86 -39 -154 -95v113h-315v-125h176v-768v-108h297v125h-158v616q35 33 76 60.5t88 50.5q98 47 176 47q76 0 113 -40t37 -114v-637v-108h293z" />
<glyph unicode="&#xe03f;" horiz-adv-x="1449" d="M1446 1282v125h-309v-109v-1089l-186 290l-187 281l-202 306l-206 321h-352v-125h186v-1190v-108h50l-27 -142q41 0 63.5 -5t38.5 -15q27 -20 27 -55q0 -49 -41 -72q-47 -27 -96 -27t-103 2v-98h45q154 0 240 49q90 51 90 160q0 76 -45 123q-41 41 -100 47l6 33h178v125 h-197v1101l814 -1245h133v1317h180z" />
<glyph unicode="&#xe040;" horiz-adv-x="1087" d="M1098 -16v125h-154v632q0 123 -76 197q-78 74 -198 74q-104 0 -201 -45q-86 -39 -154 -95v113h-315v-125h176v-768v-108h55l-26 -138q43 0 65.5 -6t36.5 -16q29 -16 29 -53q0 -47 -43 -72q-47 -27 -96 -27t-101 2v-98h45q154 0 240 49q90 53 90 160q0 76 -47 121 q-41 45 -98 47l4 31h143v125h-158v616q35 33 76 60.5t88 50.5q98 47 176 47q76 0 113 -40t37 -114v-637v-108h293z" />
<glyph unicode="&#xe041;" horiz-adv-x="1449" d="M1063 1837h-113l-225 -207l-223 207h-113l268 -330h136zM1446 1282v125h-309v-109v-1089l-186 290l-187 281l-202 306l-206 321h-352v-125h186v-1190v-108h326v125h-197v1101l814 -1245h133v1317h180z" />
<glyph unicode="&#xe042;" horiz-adv-x="1087" d="M881 1421h-113l-225 -207l-224 207h-112l268 -329h135zM1098 -16v125h-154v632q0 123 -76 197q-78 74 -198 74q-104 0 -201 -45q-86 -39 -154 -95v113h-315v-125h176v-768v-108h297v125h-158v616q35 33 76 60.5t88 50.5q98 47 176 47q76 0 113 -40t37 -114v-637v-108h293 z" />
<glyph unicode="&#xe043;" horiz-adv-x="1599" d="M1145 1628v92h-690v-92h690zM1520 696q0 315 -203 525q-207 209 -514 209q-309 0 -514 -209q-203 -209 -203 -525q0 -315 203 -524q205 -209 514 -209q307 0 514 209q203 209 203 524zM1372 696q0 -262 -160 -430q-160 -170 -409 -170q-248 0 -408 170q-162 168 -162 430 t162 430q160 170 408 170q250 0 409.5 -170t159.5 -430z" />
<glyph unicode="&#xe044;" d="M911 1212v93h-690v-93h690zM1067 483q0 225 -143 375q-141 154 -357 154q-215 0 -356 -154q-143 -150 -143 -375t143 -374q141 -154 356 -154t357 154q143 149 143 374zM926 483q0 -174 -100.5 -286.5t-258.5 -112.5t-258 112.5t-100 286.5t100.5 287t257.5 113 q158 0 258.5 -113t100.5 -287z" />
<glyph unicode="&#xe045;" horiz-adv-x="1599" d="M1210 1847h-157l-228 -350h117zM975 1847h-156l-227 -350h117zM1520 696q0 315 -203 525q-207 209 -514 209q-309 0 -514 -209q-203 -209 -203 -525q0 -315 203 -524q205 -209 514 -209q307 0 514 209q203 209 203 524zM1372 696q0 -262 -160 -430q-160 -170 -409 -170 q-248 0 -408 170q-162 168 -162 430t162 430q160 170 408 170q250 0 409.5 -170t159.5 -430z" />
<glyph unicode="&#xe046;" d="M977 1432h-158l-227 -351h117zM741 1432h-155l-228 -351h117zM1067 483q0 225 -143 375q-141 154 -357 154q-215 0 -356 -154q-143 -150 -143 -375t143 -374q141 -154 356 -154t357 154q143 149 143 374zM926 483q0 -174 -100.5 -286.5t-258.5 -112.5t-258 112.5 t-100 286.5t100.5 287t257.5 113q158 0 258.5 -113t100.5 -287z" />
<glyph unicode="&#xe047;" horiz-adv-x="1173" d="M770 1847h-158l-227 -350h117zM1221 -16v125h-185l-266 583q158 37 234 125q80 98 79 240q0 154 -112 252q-111 98 -281 98h-700v-125h205v-1300h147v696h281l313 -694h285zM936 1047q0 -119 -78 -181q-82 -63 -229 -63h-287v479h324q123 0 198 -65q72 -61 72 -170z" />
<glyph unicode="&#xe048;" horiz-adv-x="811" d="M668 1432h-158l-227 -351h116zM801 877v135l-56 2q-33 2 -71.5 -2t-77.5 -11.5t-75 -19.5t-64 -27q-33 -18 -59.5 -46.5t-45.5 -55.5v133h-323v-125h184v-768v-108h338v125h-199v417q0 182 94 267q96 84 299 84h56z" />
<glyph unicode="&#xe049;" horiz-adv-x="1173" d="M1221 -16v125h-185l-266 583q158 37 234 125q80 98 79 240q0 154 -112 252q-111 98 -281 98h-700v-125h205v-1300h22l-27 -140q41 0 63.5 -5t39.5 -15q27 -20 26 -55q0 -49 -43 -72q-47 -27 -96 -27t-100 4v-100h45q154 0 240 49q90 51 90 160q0 76 -45 123 q-45 41 -101 47l6 31h27v696h281l313 -694h285zM936 1047q0 -119 -78 -181q-82 -63 -229 -63h-287v479h324q123 0 198 -65q72 -61 72 -170z" />
<glyph unicode="&#xe04a;" horiz-adv-x="811" d="M801 877v135l-56 2q-33 2 -71.5 -2t-77.5 -11.5t-75 -19.5t-64 -27q-33 -18 -59.5 -46.5t-45.5 -55.5v133h-323v-125h184v-768v-108h27l-27 -138q43 0 65.5 -5t36.5 -15q29 -20 29 -55q0 -47 -43 -72q-47 -27 -96 -27t-101 2v-98h46q154 0 239 49q90 53 90 160 q0 76 -47 123q-41 41 -98 47l4 29h213v125h-199v417q0 182 94 267q96 84 299 84h56z" />
<glyph unicode="&#xe04b;" horiz-adv-x="1173" d="M903 1837h-112l-226 -207l-223 207h-113l269 -330h135zM1221 -16v125h-185l-266 583q158 37 234 125q80 98 79 240q0 154 -112 252q-111 98 -281 98h-700v-125h205v-1300h147v696h281l313 -694h285zM936 1047q0 -119 -78 -181q-82 -63 -229 -63h-287v479h324 q123 0 198 -65q72 -61 72 -170z" />
<glyph unicode="&#xe04c;" horiz-adv-x="811" d="M801 1421h-113l-225 -207l-223 207h-113l268 -329h135zM801 877v135l-56 2q-33 2 -71.5 -2t-77.5 -11.5t-75 -19.5t-64 -27q-33 -18 -59.5 -46.5t-45.5 -55.5v133h-323v-125h184v-768v-108h338v125h-199v417q0 182 94 267q96 84 299 84h56z" />
<glyph unicode="&#xe04d;" horiz-adv-x="1110" d="M760 1847h-158l-227 -350h117zM1036 365q0 174 -106 274q-106 96 -391 168q-154 37 -240 96q-84 55 -84 166q0 96 78 162q82 66 199 65q76 0 137 -10t112 -49q25 -18 42.5 -46t26.5 -55.5t13 -53t4 -40.5v-43h142l-1 22q-1 22 -4 51.5t-9.5 62t-18.5 55.5 q-14 33 -28.5 52.5t-37.5 43.5q-41 43 -77.5 64.5t-83.5 44.5q-51 23 -104.5 29t-106.5 6q-174 0 -299 -103q-123 -102 -123 -254q0 -166 104 -260q53 -47 134 -83t192 -64q217 -53 301 -117q82 -63 82 -172q0 -121 -88 -201q-90 -80 -226 -80q-158 0 -266 101 q-111 100 -110 231v66h-127v-510h127v151q57 -74 145 -119q113 -53 229 -53q195 0 328 115q135 113 135 287z" />
<glyph unicode="&#xe04e;" horiz-adv-x="917" d="M664 1432h-158l-227 -351h116zM854 260q0 125 -72 195q-35 35 -108.5 61.5t-184.5 46.5q-150 27 -198 62q-47 31 -47 102q0 66 51 115q49 49 143 49q102 0 176 -64q35 -33 53.5 -75.5t20.5 -104.5h123v309h-123v-47q-51 53 -114.5 78t-137.5 25q-131 0 -227 -78 q-94 -76 -94 -211q0 -137 86 -197q82 -61 260 -92q162 -29 213 -67q53 -37 53 -117q0 -78 -72 -129q-76 -53 -174 -53q-129 0 -211 71q-41 35 -60.5 86t-21.5 127h-127v-368h127v88q47 -55 109 -84q82 -35 174 -35q174 0 277 82q106 86 106 225z" />
<glyph unicode="&#xe04f;" horiz-adv-x="1173" d="M1157 1100v307h-1139v-471h127v346h369v-1173h-190v-125h213l-23 -123q41 0 63.5 -6.5t38.5 -16.5q27 -18 27 -53q0 -49 -43 -72q-47 -27 -96 -26q-49 0 -101 2v-99h46q158 0 239 50q90 51 90 159q0 76 -47 121q-37 41 -98 47l2 17h27v1298h368v-182h127z" />
<glyph unicode="&#xe050;" horiz-adv-x="532" d="M526 -242q0 76 -47 123q-41 41 -98 47l6 39l117 19v125l-133 -21q-35 0 -54 19q-16 20 -16 71v680h203v125h-203v219l-139 -2v-217h-172v-125h172v-700q0 -70 27.5 -123t99.5 -70l-29 -147q43 0 65.5 -6.5t36.5 -16.5q29 -16 29 -53q0 -47 -43 -72q-47 -27 -96 -26 q-49 0 -100 2v-99h45q154 0 239 50q90 53 90 159z" />
<glyph unicode="&#xe051;" horiz-adv-x="1173" d="M903 1837h-112l-226 -207l-223 207h-113l269 -330h135zM1157 1100v307h-1139v-471h127v346h369v-1173h-190v-125h338v1298h368v-182h127z" />
<glyph unicode="&#xe052;" horiz-adv-x="737" d="M709 1171v236h-148v-223h51q0 -47 -4 -77t-8 -46.5t-16.5 -22.5t-40.5 -6v-108q49 4 79.5 21.5t49.5 47.5q37 63 37 178zM504 -14v125l-133 -21q-35 0 -54 19q-16 20 -16 71v680h203v125h-203v219l-139 -2v-217h-172v-125h172v-700q0 -47 11 -84t36 -64q49 -51 145 -51z " />
<glyph unicode="&#xe053;" horiz-adv-x="1323" d="M1008 1628v92h-691v-92h691zM1331 1282v125h-325v-109v-899q0 -154 -86 -227q-88 -76 -261 -76q-168 0 -256 80q-88 78 -88 227v879h177v125h-502v-125h178v-866q0 -219 129 -336q66 -59 157 -88t208 -29q233 0 362 117q129 119 129 336v866h178z" />
<glyph unicode="&#xe054;" horiz-adv-x="1110" d="M901 1212v93h-690v-93h690zM1110 -16v125h-168v876h-139v-108v-615q-35 -33 -74 -61.5t-86 -53.5q-96 -49 -180 -49q-68 0 -107 39q-37 37 -37 109v739h-309v-125h170v-633q0 -119 72 -188q70 -70 192 -70q115 0 213 45q41 18 77 40t69 48v-118h307z" />
<glyph unicode="&#xe055;" horiz-adv-x="1323" d="M866 1669q0 82 -59 146q-63 59 -145 59q-84 0 -144 -59q-59 -63 -59 -146q0 -82 59 -145q59 -59 144 -60q82 0 145 60q59 63 59 145zM1331 1282v125h-325v-109v-899q0 -154 -86 -227q-88 -76 -261 -76q-168 0 -256 80q-88 78 -88 227v879h177v125h-502v-125h178v-866 q0 -219 129 -336q66 -59 157 -88t208 -29q233 0 362 117q129 119 129 336v866h178zM772 1669q0 -47 -33 -78q-31 -33 -77 -32q-47 0 -78 32q-31 31 -31 78t31 78q31 33 78 33t77 -33q33 -31 33 -78z" />
<glyph unicode="&#xe056;" horiz-adv-x="1110" d="M760 1253q0 82 -60 146q-63 59 -145 59q-84 0 -143 -59q-59 -63 -60 -146q0 -82 60 -145q59 -59 143 -59q82 0 145 59q60 63 60 145zM1110 -16v125h-168v876h-139v-108v-615q-35 -33 -74 -61.5t-86 -53.5q-96 -49 -180 -49q-68 0 -107 39q-37 37 -37 109v739h-309v-125 h170v-633q0 -119 72 -188q70 -70 192 -70q115 0 213 45q41 18 77 40t69 48v-118h307zM666 1253q0 -47 -33 -77q-31 -33 -78 -33t-78 33q-31 31 -31 77q0 47 31 78q31 33 78 33t78 -33q33 -31 33 -78z" />
<glyph unicode="&#xe057;" horiz-adv-x="1323" d="M1073 1847h-158l-227 -350h117zM838 1847h-156l-227 -350h116zM1331 1282v125h-325v-109v-899q0 -154 -86 -227q-88 -76 -261 -76q-168 0 -256 80q-88 78 -88 227v879h177v125h-502v-125h178v-866q0 -219 129 -336q66 -59 157 -88t208 -29q233 0 362 117q129 119 129 336 v866h178z" />
<glyph unicode="&#xe058;" horiz-adv-x="1323" d="M1331 1282v125h-325v-109v-899q0 -154 -86 -227q-88 -76 -261 -76q-168 0 -256 80q-88 78 -88 227v879h177v125h-502v-125h178v-866q0 -219 129 -336q106 -94 281 -113q-23 -29 -37.5 -59.5t-14.5 -71.5q0 -96 74 -153q70 -55 168 -56q45 0 75.5 10.5t69.5 32.5v119 q-39 -14 -58 -19.5l-32 -9.5q-12 -2 -26.5 -3t-30.5 -1q-45 0 -78 25q-31 25 -31 74q0 39 21 71q6 10 13 20l14 17q207 12 319 117q129 119 129 336v866h178z" />
<glyph unicode="&#xe059;" horiz-adv-x="1110" d="M1190 -330v119q-39 -14 -58.5 -19.5t-31.5 -9.5q-12 -2 -26.5 -3t-31.5 -1q-45 0 -77 25q-31 25 -31 74q0 39 20 71q20 37 45 58h111v125h-168v876h-139v-108v-615q-35 -33 -74 -61.5t-86 -53.5q-96 -49 -180 -49q-68 0 -107 39q-37 37 -37 109v739h-309v-125h170v-633 q0 -119 72 -188q70 -70 192 -70q115 0 213 45q41 18 77 40t69 48v-118h65l-16 -21q-8 -10 -16 -22q-33 -47 -33 -105q0 -96 74 -153q70 -55 167 -56q45 0 76 10t70 33z" />
<glyph unicode="&#xe05a;" d="M770 1847h-158l-227 -350h117zM1083 -16v391h-127v-266h-733l840 1185v113h-979v-125h109h684l-838 -1184v-114h1044z" />
<glyph unicode="&#xe05b;" horiz-adv-x="980" d="M694 1432h-157l-228 -351h117zM909 872v113h-784v-125h100h512l-661 -762v-114h831v387h-119v-262h-542z" />
<glyph unicode="&#xe05c;" d="M649 1587v164h-164v-164h164zM1083 -16v391h-127v-266h-733l840 1185v113h-979v-125h109h684l-838 -1184v-114h1044z" />
<glyph unicode="&#xe05d;" horiz-adv-x="980" d="M573 1171v164h-163v-164h163zM909 872v113h-784v-125h100h512l-661 -762v-114h831v387h-119v-262h-542z" />
</font>
</defs>
</svg>
