<?xml version="1.0" standalone="no"?>
<!DOCTYPE svg PUBLIC "-//W3C//DTD SVG 1.1//EN" "http://www.w3.org/Graphics/SVG/1.1/DTD/svg11.dtd" >
<svg xmlns="http://www.w3.org/2000/svg">
<metadata>
This is a custom SVG webfont generated by Font Squirrel.
Copyright   : Copyright c Manfred Klein 032005
</metadata>
<defs>
<font id="webfontkBJNz9jR" horiz-adv-x="1255" >
<font-face units-per-em="2048" ascent="1638" descent="-410" />
<missing-glyph horiz-adv-x="569" />
<glyph unicode="&#xd;" horiz-adv-x="569" d="M559 -66v224h-166v876h-407v-223h170v-653h-170v-224h573z" />
<glyph horiz-adv-x="757" d="M727 1436h-217q-29 -59 -48.5 -84t-35.5 -37q-41 -25 -84 -25q-45 0 -84 25q-16 12 -36.5 36.5t-49.5 84.5h-219q23 -63 43 -109.5t39.5 -80.5t41 -58.5t46.5 -44.5q102 -80 219 -80q115 0 217 80q25 20 46.5 44.5t42 58.5t40 80.5t39.5 109.5z" />
<glyph horiz-adv-x="757" d="M473 1122v262h-262v-262h262z" />
<glyph horiz-adv-x="757" d="M594 1253q0 106 -74 180t-180 74q-109 0 -178 -75q-74 -74 -74 -179q0 -104 74 -178q70 -76 178 -76q106 0 180 74t74 180zM401 1253q0 -29 -18 -43q-16 -18 -43 -18q-23 0 -43 16q-16 20 -16 45t16 45q20 16 43 17q27 0 43 -19q18 -16 18 -43z" />
<glyph unicode="&#xa;" horiz-adv-x="757" d="M653 1409l-243 -377h231l344 449h-276h-9h-274l-291 -449h232z" />
<glyph horiz-adv-x="757" d="M584 -356v217q-43 -16 -71 -25.5t-43 -15.5t-22.5 -8t-13.5 -2q-10 -2 -21.5 -3.5t-25.5 -1.5q-27 0 -47 17q-4 4 -8 10t-4 23q0 25 14 47q4 6 10 14t23.5 25.5t50.5 46.5l90 78h-285q-35 -27 -55 -49.5t-37 -49.5q-41 -59 -41 -131q0 -119 92 -192q88 -66 199 -66 q53 0 94.5 15.5t100.5 50.5z" />
<glyph horiz-adv-x="757" d="M782 1470h-235l-207 -188l-203 188h-235l348 -428h180z" />
<glyph horiz-adv-x="782" d="M1008 1456h-234l-1073 -1522h233z" />
<glyph horiz-adv-x="1232" d="M1038 1331q0 57 -43 105q-47 43 -104 43t-105 -43q-43 -43 -43 -107q0 -57 43 -104q47 -43 105 -43q57 0 104 43q43 43 43 106zM1149 -66v224h-145v876h-523h-28h-78v129q0 49 14 70.5t51 21.5q16 0 25.5 -4t15.5 -8q6 -6 15.5 -25.5t29.5 -87.5l217 33 q-16 96 -39.5 147.5t-60.5 88.5q-41 41 -91 60.5t-110 19.5q-137 0 -221 -97q-43 -47 -63.5 -107.5t-20.5 -131.5v-109h-149v-223h149v-653h-155v-224h534v224h-141v653h78h28h285v-653h-152v-224h535z" />
<glyph horiz-adv-x="1232" d="M1149 -66v224h-148v1298h-438q-51 23 -119 23q-66 0 -123 -23.5t-100 -73.5q-43 -47 -63.5 -107.5t-20.5 -131.5v-109h-155v-223h155v-653h-155v-224h534v224h-141v653h157v223h-157v129q0 49 14 70.5t51 21.5q29 0 46.5 -22.5t39.5 -102.5l217 33q-6 43 -12 70h33v-1075 h-150v-224h535z" />
<glyph horiz-adv-x="1159" d="M1085 -66v684h-241v-460h-443v542l281 230v258l-281 -230v275h187v223h-619v-223h187v-475l-222 -180v-259l222 181v-342h-189v-224h1118z" />
<glyph horiz-adv-x="544" d="M590 858v250l-225 -184v532h-414v-223h176v-504l-223 -182v-248l223 182v-323h-174v-224h586v224h-174v516z" />
<glyph d="M1008 1927h-236l-207 -188l-203 188h-235l348 -428h180zM1133 -66v490h-226v-266h-588l793 1122v176h-1077v-223h158h587l-790 -1120v-179h1143z" />
<glyph horiz-adv-x="1089" d="M932 1511h-236l-207 -188l-202 188h-236l348 -428h181zM958 854v180h-882v-223h149h406l-604 -694v-183h929v486h-217v-262h-387z" />
<glyph unicode=" "  horiz-adv-x="569" />
<glyph unicode="&#x09;" horiz-adv-x="569" />
<glyph unicode="&#xa0;" horiz-adv-x="569" />
<glyph unicode="!" horiz-adv-x="569" d="M375 1456h-238v-504l27 -649h184l27 643v510zM379 -66v242h-246v-242h246z" />
<glyph unicode="&#x22;" horiz-adv-x="638" d="M571 1194v285h-245v-283l34 -319h177zM252 1194v285h-246v-283l35 -319h176z" />
<glyph unicode="#" horiz-adv-x="1517" d="M1268 365v223h-256l55 266h201v223h-154l86 418h-229l-86 -418h-252l86 418h-230l-86 -418h-301v-223h254l-55 -266h-199v-223h154l-86 -416h229l86 416h252l-86 -416h230l86 416h301zM838 854l-56 -266h-252l56 266h252z" />
<glyph unicode="$" horiz-adv-x="1159" d="M1053 346q0 186 -109 307q-45 51 -119.5 87t-173.5 63v371l24 -17q11 -8 21 -18q29 -31 47.5 -85.5t22.5 -168.5h229q-6 170 -41.5 270t-111.5 160q-88 70 -191 96v68h-225v-66q-127 -25 -221 -98q-147 -111 -148 -281q0 -86 27 -158.5t82 -130.5q45 -47 110.5 -78.5 t149.5 -54.5v-460q-33 10 -63.5 28.5t-77.5 65.5l-166 -166q82 -76 155.5 -111t151.5 -47v-162h225v164q141 23 248 109q154 125 154 313zM426 860q-51 20 -76 43q-53 41 -53 131q0 70 59 117q31 25 70 37v-328zM823 358q0 -94 -73 -159q-39 -35 -99 -52v414q86 -31 113 -57 q59 -56 59 -146z" />
<glyph unicode="%" horiz-adv-x="1918" d="M1724 362q0 96 -19 175t-60 139q-47 66 -113 95.5t-150 29.5q-82 0 -147.5 -30t-112.5 -95q-43 -59 -62.5 -138t-19.5 -176q0 -96 19.5 -176t60.5 -139q47 -63 112.5 -93t149.5 -30q102 0 169 39t105 101.5t53 141t15 156.5zM1511 362q0 -72 -10 -120.5t-28 -79.5 q-29 -49 -89 -49q-59 0 -88 49q-16 31 -27.5 79t-11.5 119q0 133 39 201q31 51 86 51q59 0 91 -51q16 -31 27 -79t11 -120zM1513 1456h-180h-16h-842q-57 23 -131 23q-82 0 -147.5 -30t-112.5 -93q-43 -59 -62.5 -138t-19.5 -176q0 -96 19.5 -176t60.5 -139 q47 -63 113.5 -93t150.5 -30t149.5 30t110.5 95q41 59 60.5 138t19.5 175q0 59 -10 127t-39 131h537l-963 -1366h231zM473 1042q0 -72 -10 -121t-29 -79q-29 -49 -88 -49t-88 51q-18 31 -28.5 79t-10.5 117q0 70 10.5 118t28.5 81q29 51 88 51t88 -51q18 -31 28.5 -79 t10.5 -118z" />
<glyph unicode="&#x26;" horiz-adv-x="1587" d="M1413 541v223h-356q-16 -96 -33.5 -156.5t-40.5 -113.5q-6 -16 -12 -30l-13 -28l-239 332q47 20 89 45t81 53q68 53 104.5 120t36.5 149q0 152 -117 249q-109 94 -264 95q-160 0 -272 -99q-121 -102 -121 -256q0 -51 18.5 -102t53.5 -104q10 -14 19 -29t20 -27 q-125 -55 -207 -141q-59 -61 -89 -140t-30 -171q0 -186 137 -340q72 -80 168 -118t215 -38q129 0 252 57q76 35 135 90l92 -129l263 11l-201 293q23 29 39 59l33 59q37 82 67 187h172zM805 1137q0 -29 -14.5 -55.5t-51.5 -53.5q-57 -41 -151 -78q-10 16 -22.5 32.5 t-24.5 37.5q-31 45 -41.5 71.5t-10.5 41.5q0 57 41 88q49 37 115 36q70 0 119 -36q41 -33 41 -84zM813 248q-27 -25 -48.5 -41.5t-41.5 -26.5q-70 -35 -148 -35q-123 0 -204 82q-84 82 -84 203q0 84 63 150q27 27 64 51t88 47z" />
<glyph unicode="'" horiz-adv-x="497" d="M348 1194v285h-246v-283l35 -319h176z" />
<glyph unicode="(" horiz-adv-x="804" d="M739 -512v225q-121 72 -190.5 146.5t-110.5 165.5q-84 184 -84 464q0 281 84 465q41 90 110.5 165t190.5 147v225q-102 -45 -180 -92t-137.5 -98.5t-103.5 -108.5t-76 -121q-127 -248 -127 -582t127 -581q33 -66 76.5 -122t103 -107.5t137.5 -98.5t180 -92z" />
<glyph unicode=")" horiz-adv-x="804" d="M610 489q0 334 -127 582q-33 63 -77 120.5t-103 109t-137 98.5t-180 92v-225q121 -72 190.5 -147t110.5 -165q84 -184 84 -465t-84 -464q-41 -90 -111 -165t-190 -147v-225q102 45 180 92t137 98.5t103.5 107.5t76.5 122q127 247 127 581z" />
<glyph unicode="*" horiz-adv-x="1114" d="M1006 995l-76 242q-123 -39 -178.5 -60.5t-67.5 -31.5q0 -2 -82 -39q4 45 7 65l3 21q10 16 13.5 76.5t3.5 187.5h-254q0 -127 3 -187.5t13 -76.5l3 -21q3 -20 7 -65q-82 37 -82 39q-12 10 -67 31.5t-178 60.5l-76 -242q109 -35 164 -50t80 -15q6 0 29.5 -3t68.5 -14 l-53 -61q-14 -4 -54 -49t-122 -156l202 -151q78 102 112 155.5t34 75.5q0 2 43 70q43 -68 43 -72q0 -20 33.5 -73.5t111.5 -155.5l203 151q-82 111 -122 156t-54 49q-2 0 -53 61q47 10 71.5 13.5t32.5 3.5q23 0 76 15t162 50z" />
<glyph unicode="+" horiz-adv-x="1515" d="M1284 549v221h-491v490h-222v-490h-491v-221h491v-496h222v496h491z" />
<glyph unicode="," horiz-adv-x="569" d="M379 -37v232h-246v-261h47q-2 -31 -4 -44t-4 -17t-10 2t-47 6v-207q96 4 142 25.5t75 64.5q27 41 37 91.5t10 107.5z" />
<glyph unicode="-" horiz-adv-x="782" d="M696 449v223h-692v-223h692z" />
<glyph unicode="." horiz-adv-x="569" d="M410 -66v263h-246v-263h246z" />
<glyph unicode="/" horiz-adv-x="638" d="M664 1456h-232l-522 -1558h231z" />
<glyph unicode="0" horiz-adv-x="1206" d="M1057 696q0 174 -29 315.5t-90 245.5q-129 221 -393 222q-266 0 -395 -222q-61 -104 -90 -245.5t-29 -315.5t28.5 -314t90.5 -245q129 -221 393 -221q266 0 395 221q61 104 90 244.5t29 314.5zM821 696q0 -141 -20.5 -247.5t-57.5 -182.5q-35 -72 -84 -102.5t-114 -30.5 q-66 0 -116 32t-85 101q-37 76 -57.5 182.5t-20.5 247.5q0 143 20.5 250t57.5 182q35 72 84 103t115 31t116 -32t84 -102q37 -76 57.5 -182.5t20.5 -249.5z" />
<glyph unicode="1" horiz-adv-x="1206" d="M868 -66v224h-196v1308l-434 -59v-195h196v-1054h-196v-224h630z" />
<glyph unicode="2" horiz-adv-x="1206" d="M997 395h-221v-237h-479q14 47 35.5 91t54.5 89q90 125 305 258q76 47 133.5 96t92.5 103q37 53 54 118.5t17 139.5q0 92 -29.5 169.5t-93.5 137.5q-61 61 -141 90t-176 29q-106 0 -197.5 -41t-187.5 -146l160 -162q31 39 58.5 65t54 41t54 20.5t60.5 5.5q84 0 145 -58 q57 -61 58 -151q0 -100 -49 -156q-51 -68 -168 -137q-135 -82 -231.5 -175t-151.5 -200q-51 -96 -83 -186t-26 -174l6 -91h942z" />
<glyph unicode="3" horiz-adv-x="1206" d="M1034 385q0 86 -23.5 156.5t-76.5 128.5q-51 55 -113 84q68 57 100.5 133t32.5 166q0 180 -120 305q-121 121 -308 121q-92 0 -171 -29t-138 -88q-59 -61 -90 -151.5t-35 -237.5h232q0 57 5 96t12 65.5t16.5 44t21.5 29.5q49 53 141 54q47 0 82 -14.5t62 -41.5 q55 -59 55 -149q0 -102 -66 -162q-31 -29 -72.5 -42t-107.5 -19l-94 -11v-207l158 5q63 2 111 -15.5t83 -48.5t52.5 -72t17.5 -98q0 -113 -74 -182q-76 -72 -195 -72q-59 0 -113 24.5t-126 96.5l-174 -148q111 -109 207 -149.5t202 -40.5t197.5 32t163.5 97q145 133 145 340 z" />
<glyph unicode="4" horiz-adv-x="1206" d="M1061 342v213h-227v913h-191l-608 -944l-111 -178l217 -4h471v-250v-158h387v224h-165v184h227zM612 555h-309l309 489v-489z" />
<glyph unicode="5" horiz-adv-x="1206" d="M1049 451q0 217 -136 358q-135 145 -340 145q-125 0 -233 -59l31 328h436h160v233h-801l-74 -821q45 -16 59.5 -22.5t22.5 -10.5q2 -2 6 -4t11 -9l22 -21l39 -38q31 43 55.5 73t43 49.5t33.5 30.5t32 19q63 35 133 35q121 0 192 -78q35 -39 54.5 -90t19.5 -120 q0 -74 -20.5 -131.5t-59.5 -100.5q-39 -41 -87 -62.5t-113 -21.5q-57 0 -127 28.5t-136 92.5l-133 -156q106 -102 198.5 -142t194.5 -40q229 0 373 150q144 152 144 385z" />
<glyph unicode="6" horiz-adv-x="1206" d="M1042 442q0 219 -122 361q-129 145 -328 145q-80 0 -150.5 -24.5t-132.5 -67.5q18 166 70 268q35 70 88 104t133 34q20 0 41 -4.5t41 -16.5t45 -35.5t55 -60.5l150 174q-92 92 -172 126t-170 34q-256 0 -393 -228q-66 -111 -97.5 -258t-31.5 -334q0 -184 29.5 -324 t95.5 -233q135 -186 376 -186q213 0 344 150q129 147 129 376zM809 434q0 -76 -17.5 -130t-50.5 -95q-66 -76 -174 -76q-111 0 -184 100q-39 53 -60.5 135.5t-21.5 200.5v11q59 68 123 102q82 49 154 49q106 0 165 -74q31 -39 48.5 -93t17.5 -130z" />
<glyph unicode="7" horiz-adv-x="1206" d="M1008 1276v180h-942v-440h225v207h418q-72 -104 -125.5 -223t-94.5 -252q-25 -84 -44 -196t-31.5 -214t-18.5 -173l-6 -71v-160h402v224h-164q8 279 92 555q47 154 117 291t172 272z" />
<glyph unicode="8" horiz-adv-x="1206" d="M1065 383q0 145 -80 256q-23 31 -50.5 55.5t-60.5 44.5q76 53 112 134t36 180q0 186 -141 307q-133 119 -338 119t-340 -117q-137 -125 -137 -311q0 -147 81 -248q25 -33 66 -64q-29 -18 -54.5 -39.5t-47.5 -50.5q-90 -115 -91 -264q0 -205 152 -340q150 -129 373 -129 t370 127q150 131 150 340zM793 1051q0 -102 -62 -154q-33 -29 -78 -43t-110 -14q-63 0 -108.5 14t-78.5 43q-29 27 -45 62.5t-16 87.5q0 94 67 153q35 29 81 45.5t108 16.5q109 0 176 -62q66 -59 66 -149zM831 389q0 -115 -75 -184q-78 -72 -213 -72q-72 0 -123 18.5 t-88 53.5q-76 66 -76 186q0 109 74 170q37 31 90 48.5t125 17.5t123 -17.5t90 -48.5q73 -61 73 -172z" />
<glyph unicode="9" horiz-adv-x="1206" d="M1018 735q0 184 -30 324.5t-95 232.5q-131 186 -373 187q-213 0 -346 -152q-131 -150 -131 -377q0 -104 29.5 -194t93.5 -162q129 -147 328 -148q78 0 147.5 24t134.5 67q-18 -166 -69 -269q-35 -72 -86.5 -103.5t-122.5 -31.5q-47 0 -88 20.5t-101 86.5l-153 -166 q94 -90 177 -124t175 -34q129 0 225 59.5t162 174.5q63 111 93 257t30 328zM784 813q-57 -63 -125 -102q-80 -47 -149 -47q-104 0 -166 73q-31 39 -48 90.5t-17 120.5q0 82 17 139.5t50 96.5q61 78 174 78q115 0 187 -99q37 -51 57 -133t20 -205v-12z" />
<glyph unicode=":" horiz-adv-x="569" d="M389 713v262h-246v-262h246zM389 -66v263h-246v-263h246z" />
<glyph unicode=";" horiz-adv-x="569" d="M389 713v262h-246v-262h246zM379 -37v232h-246v-261h47q-2 -31 -4 -44t-4 -17t-10 2t-47 6v-207q96 4 142 25.5t75 64.5q27 41 37 91.5t10 107.5z" />
<glyph unicode="&#x3c;" horiz-adv-x="1515" d="M1284 59v244l-844 352l844 353v243l-1204 -512v-168z" />
<glyph unicode="=" horiz-adv-x="1515" d="M1294 780v221h-1204v-221h1204zM1294 494v221h-1204v-221h1204z" />
<glyph unicode="&#x3e;" horiz-adv-x="1515" d="M1300 571v168l-1204 512v-243l842 -353l-842 -352v-244z" />
<glyph unicode="?" horiz-adv-x="1017" d="M897 1036q0 166 -119 301q-61 72 -145 107t-187 35q-104 0 -189 -33t-146 -103q-59 -66 -87 -151.5t-28 -222.5h227q0 106 15.5 153t44.5 74q59 59 155 59q100 0 164 -63q61 -66 62 -154q0 -66 -19.5 -104.5t-52.5 -61.5q-55 -37 -148 -36q-16 0 -35.5 2t-48.5 6l-79 -31 l47 -502h168l26 299q162 10 266 129q109 127 109 297zM530 -66v263h-245v-263h245z" />
<glyph unicode="@" horiz-adv-x="1363" d="M1255 903q0 209 -153 363q-154 156 -387 155q-246 0 -420 -186q-170 -186 -170 -424q0 -248 166 -432q168 -186 436 -186q182 0 338 90l-53 94q-59 -31 -140 -49.5t-155 -18.5q-176 0 -328 140q-145 141 -145 356q0 209 141 354.5t334 145.5q178 0 299 -121t121 -277 q0 -147 -84 -256q-43 -59 -80 -81.5t-66 -22.5l-2 2v4q0 8 2 14l123 578h-149l-11 -49q-10 12 -23 21t-28 18q-68 37 -127 36q-174 0 -276 -145q-98 -141 -99 -303q0 -143 78 -223q82 -78 183 -78q86 0 155 47q16 10 29 21l24 22q6 -31 23 -53q10 -16 26.5 -28.5t39.5 -12.5 q72 0 136 38t124 109q118 143 118 338zM825 905q0 -115 -69 -239q-35 -61 -72 -88t-78 -27q-49 0 -94 39q-20 18 -31.5 48t-11.5 77q0 131 63 233q63 98 160 99q59 0 94 -41q39 -42 39 -101z" />
<glyph unicode="A" horiz-adv-x="1517" d="M1495 -66v224h-190l-379 1075h147v223h-506l-45 -137l-403 -1161h-195v-224h422v154l129 375h467l109 -305h-148v-224h592zM866 686h-313l158 459z" />
<glyph unicode="B" horiz-adv-x="1280" d="M1139 397q0 152 -88 260q-47 53 -109 91q33 27 55 57q72 92 72 229q0 98 -32.5 177t-100.5 137q-66 57 -155 82.5t-195 25.5h-617v-223h178v-1141v-160l439 2q123 0 222 29t177 88q78 61 116 148t38 198zM823 1038q0 -90 -65 -143q-70 -57 -197 -57h-168v395h187 q63 0 107 -14.5t77 -40.5q59 -50 59 -140zM893 389q0 -59 -19.5 -99t-56.5 -69q-39 -29 -97 -46t-145 -17h-182v456h187q86 0 145 -15t96 -44q35 -27 53.5 -67t18.5 -99z" />
<glyph unicode="C" horiz-adv-x="1705" d="M1554 481l-211 123q-59 -166 -113 -248t-114 -123q-123 -88 -293 -88q-227 0 -370 154q-145 156 -146 397q0 244 144 400q141 152 364 151q158 0 293 -86q61 -41 101 -103.5t63 -176.5h215v452h-225v-8q-35 29 -71 50.5t-75 37.5q-150 66 -297 66q-336 0 -547 -219 q-106 -111 -158.5 -252.5t-52.5 -311.5q0 -172 51.5 -313t159.5 -252q211 -217 549 -217q236 0 424 121q96 63 169.5 168.5t139.5 277.5z" />
<glyph unicode="D" horiz-adv-x="1609" d="M1434 694q0 336 -201 549q-104 111 -256 162t-350 51h-662v-223h193v-1141v-158h467q215 0 373.5 55.5t256.5 178.5q179 227 179 526zM1188 694q0 -141 -35 -239.5t-100.5 -164t-167 -99t-244.5 -33.5h-238v1075h234q139 0 239.5 -36t170 -103.5t105.5 -166t36 -233.5z " />
<glyph unicode="E" horiz-adv-x="1372" d="M1210 -66v224h-159h-662v442h578v223h-578v410h596v-246h223v469h-1243v-223h178v-1141v-158h1067z" />
<glyph unicode="F" horiz-adv-x="1206" d="M1155 985v471h-1190v-223h180v-1075h-180v-224h426v158v512l512 -2v225h-512v406h541v-248h223z" />
<glyph unicode="G" horiz-adv-x="1800" d="M1577 692h-823v-223h559q-37 -133 -148 -217q-72 -53 -155.5 -80t-182.5 -27q-244 0 -393 154q-76 78 -113.5 175t-37.5 222q0 246 145 398q143 154 373 153q158 0 295 -88q66 -41 111.5 -107.5t80.5 -181.5h207v504h-223v-59q-31 25 -66 46t-71 40q-162 78 -336 78 q-328 0 -545 -223.5t-217 -559.5q0 -342 221 -563q221 -219 567 -219q326 0 537 192q109 100 161 238.5t54 347.5z" />
<glyph unicode="H" horiz-adv-x="1564" d="M1432 1233v223h-594v-223h180v-395h-629v460v158h-416v-223h170v-1075h-168v-224h414v158v524h629v-458h-178v-224h424v158v1141h168z" />
<glyph unicode="I" horiz-adv-x="638" d="M422 1511v263h-246v-263h246zM600 -66v224h-176v1140v158h-246v-158v-1140h-174v-224h596z" />
<glyph unicode="J" horiz-adv-x="616" d="M604 1233v223h-653v-223h209v-1344q0 -57 -10.5 -86.5t-20.5 -40.5q-6 -6 -16.5 -11t-31 -9t-54 -7t-84.5 -3l-11 -230q143 0 229.5 22.5t141.5 76t79 130t24 171.5v1331h198z" />
<glyph unicode="K" horiz-adv-x="1325" d="M1294 -66v224h-186l-530 581l499 494h189v223h-283l-113 -110l-479 -474v361h191v223h-621v-223h184v-1141v-158h439v224h-193v420l477 -529l99 -115h327z" />
<glyph unicode="L" horiz-adv-x="1159" d="M1085 -66v582h-241v-358h-443l2 1298h-436v-223h189v-1075h-189v-224h1118z" />
<glyph unicode="M" horiz-adv-x="1941" d="M1778 -66v224h-174v1075h174v223h-467l-434 -1059l-439 1059h-465v-223h181v-1141v-158h393v224h-166v841l430 -1065h111l436 1063v-905v-158h420z" />
<glyph unicode="N" horiz-adv-x="1609" d="M1495 1233v223h-408v-158v-921l-282 430l-203 308l-217 341h-430v-223h186v-1141v-158h424v224h-196v886l737 -1128h209v1317h180z" />
<glyph unicode="O" horiz-adv-x="1775" d="M1569 696q0 336 -217 559.5t-549 223.5t-549 -223.5t-217 -559.5t217 -559t549 -223t549 223t217 559zM1323 696q0 -242 -147 -397q-145 -154 -373 -154q-225 0 -373 156q-147 154 -147 395q0 242 147 396q147 156 373 155q227 0 373 -153q147 -158 147 -398z" />
<glyph unicode="P" d="M1157 981q0 111 -35 198t-108.5 152.5t-171 95t-213.5 29.5h-662v-223h185v-1075h-185v-224h430v158v416h252q111 0 203 30.5t163.5 96t106.5 154t35 192.5zM911 969q0 -66 -18.5 -108t-50.5 -68q-37 -29 -93.5 -45.5t-140.5 -16.5h-211v502h211q92 0 149.5 -16.5 t88.5 -45.5q29 -27 47 -74.5t18 -127.5z" />
<glyph unicode="Q" horiz-adv-x="1775" d="M1569 696q0 336 -217 559.5t-549 223.5t-549 -223.5t-217 -559.5t217 -559q88 -90 195 -141q-14 -8 -30 -20.5t-50 -36.5l116 -168q59 41 83 54t42 19q39 12 70 13q20 0 81.5 -23.5t138.5 -58.5t153.5 -75t130.5 -75l133 197q-49 29 -119 63l-139 68q168 55 293 184 q217 223 217 559zM1323 696q0 -242 -147 -397q-145 -154 -373 -154q-225 0 -373 156q-147 154 -147 395q0 242 147 396q147 156 373 155q227 0 373 -153q147 -158 147 -398z" />
<glyph unicode="R" horiz-adv-x="1302" d="M1270 -66v224h-201l-229 501q61 20 112.5 51t87.5 76q47 55 70 124t23 147q0 174 -129 289q-63 57 -142.5 83.5t-171.5 26.5h-749v-223h204v-1301h246v697h199l313 -695h367zM887 1047q0 -51 -15.5 -85t-44.5 -57q-31 -25 -79 -39t-119 -14h-238v381h275q57 0 97 -14.5 t68 -38.5q56 -47 56 -133z" />
<glyph unicode="S" horiz-adv-x="1232" d="M1085 365q0 195 -122 309q-59 57 -165 101t-247 79q-150 37 -225 90q-61 39 -62 125q0 72 60 123q63 55 168 55q76 0 128 -9t93 -40q18 -14 30.5 -34.5t19.5 -43t11 -44t4 -34.5v-92h242l-1 31q-1 31 -6 74t-12.5 87t-19.5 70q-16 35 -32.5 57.5t-43.5 51.5 q-43 47 -85 71.5t-93 47.5q-57 25 -115.5 32t-113.5 7q-193 0 -330 -113q-141 -119 -141 -293q0 -184 120 -297q59 -53 146.5 -91t200.5 -67q111 -27 179 -54t105 -54q61 -49 62 -133q0 -98 -72 -164q-74 -68 -193 -68q-137 0 -233 88q-94 86 -94 195v115h-225v-609h225v84 q39 -27 76 -45q123 -59 249 -59q213 0 361 127q151 129 151 324z" />
<glyph unicode="T" horiz-adv-x="1302" d="M1221 1051v405h-1237v-569h225v346h270v-1075h-190v-224h436v1299h270v-182h226z" />
<glyph unicode="U" horiz-adv-x="1468" d="M1395 1233v223h-424v-158v-899q0 -72 -18.5 -116.5t-51.5 -73.5q-35 -29 -89 -46.5t-138 -17.5q-78 0 -133.5 17.5t-89.5 50.5q-35 29 -53.5 75t-18.5 115v830h176v223h-600v-223h178v-817q0 -117 35 -211t111 -162q74 -68 174 -98.5t223 -30.5t223 31.5t174 97.5 q74 70 109 163t35 210v817h178z" />
<glyph unicode="V" horiz-adv-x="1490" d="M1456 1233v223h-579v-223h141l-330 -895l-375 983l-45 135h-379v-223h201l498 -1313h186l481 1313h201z" />
<glyph unicode="W" horiz-adv-x="2154" d="M2044 1233v223h-580v-223h158l-236 -844l-251 928l-41 139h-248l-31 -143l-237 -922l-265 926l-37 139h-382v-223h190l393 -1313h195l297 1155l317 -1155h189l378 1313h191z" />
<glyph unicode="X" horiz-adv-x="1490" d="M1395 -66v224h-224l-358 561l324 514h213v223h-598v-223h118l-194 -303l-254 403l-82 123h-363v-223h222l342 -533l-342 -542h-222v-224h621v224h-129l207 331l282 -446l66 -109h371z" />
<glyph unicode="Y" horiz-adv-x="1372" d="M1382 1233v223h-587v-223h127l-244 -383l-324 514l-59 92h-356v-223h208l398 -625v-450h-193v-224h439v158v516l397 625h194z" />
<glyph unicode="Z" d="M1133 -66v490h-226v-266h-588l793 1122v176h-1077v-223h158h587l-790 -1120v-179h1143z" />
<glyph unicode="[" horiz-adv-x="782" d="M739 -477v223h-327v1487h327v223h-565v-1933h565z" />
<glyph unicode="\" horiz-adv-x="638" d="M668 -94l-525 1550h-235l524 -1550h236z" />
<glyph unicode="]" horiz-adv-x="782" d="M532 1456h-567v-223h328l2 -1487h-330v-223h565z" />
<glyph unicode="^" horiz-adv-x="1490" d="M1208 870l-536 646l-537 -646l158 -143l379 453l379 -453z" />
<glyph unicode="_" horiz-adv-x="1136" d="M1090 -516v233h-1156v-233h1156z" />
<glyph unicode="`" horiz-adv-x="757" d="M612 1032l-290 449h-285l344 -449h231z" />
<glyph unicode="a" horiz-adv-x="1159" d="M1090 -66v224h-162v563q0 82 -29 147.5t-90 112.5q-59 41 -136 60.5t-171 19.5q-43 0 -100.5 -14.5t-108.5 -32t-87 -31.5l-36 -14l74 -183l54 20l67.5 22.5t70.5 18.5t62 7q53 0 90 -9t61 -26q18 -12 29.5 -34.5t11.5 -63.5v-127q-18 8 -36.5 13t-35.5 9q-80 20 -151 21 q-92 0 -169 -23.5t-136 -76.5q-123 -104 -123 -265q0 -147 104 -247q104 -104 263 -105q76 0 148.5 24.5t135.5 63.5v-74h400zM690 254q-49 -49 -115 -82q-78 -39 -145 -39q-41 0 -67.5 10.5t-45.5 28.5q-39 41 -38 92q0 68 51 113q23 23 60.5 36t94.5 13q66 0 121 -20 q41 -14 84 -37v-115z" />
<glyph unicode="b" horiz-adv-x="1398" d="M1239 502q0 242 -156 399q-158 160 -395 160q-113 0 -231 -57q-41 -20 -80 -54v506h-414v-223h176v-1141v-158h238v91q20 -16 39.5 -29.5t42.5 -24.5q109 -51 219 -51q250 0 405 164q156 162 156 418zM999 498q0 -162 -88 -262q-86 -96 -225 -97q-133 0 -221 94 q-43 45 -66.5 110t-23.5 151q0 154 94 251q90 96 221 97q135 0 221 -94q88 -98 88 -250z" />
<glyph unicode="c" horiz-adv-x="1159" d="M1067 297l-205 88q-39 -90 -68.5 -132t-62.5 -69q-33 -25 -73 -38t-93 -13q-139 0 -221 92q-41 47 -63.5 109.5t-22.5 148.5q0 162 84 258q80 92 209 93q96 0 170 -60q31 -23 51.5 -73t24.5 -166h217v438h-189q-59 47 -128.5 67.5t-145.5 20.5q-229 0 -383 -170 q-150 -164 -150 -408q0 -250 152 -413.5t393 -163.5q164 0 291 88q66 45 116 112.5t97 190.5z" />
<glyph unicode="d" horiz-adv-x="1349" d="M1276 -66v224h-176v1298h-238v-158v-348q-37 31 -82 54q-109 57 -233 57q-233 0 -387 -166q-152 -164 -152 -412q0 -240 155.5 -401.5t389.5 -161.5q121 0 231 53q20 10 40 22.5t38 29.5v-91h414zM864 489q0 -156 -88 -253q-86 -96 -223 -97q-129 0 -221 98.5t-92 245.5 q0 156 90 258q92 100 219 101q129 0 221 -101q94 -100 94 -252z" />
<glyph unicode="e" d="M1130 395q-10 184 -50 302t-115 202q-150 162 -390 162q-242 0 -401 -164q-158 -164 -158 -414q0 -246 160 -411q162 -166 406 -166q43 0 104.5 15.5t118.5 32.5t98 33l41 15l-61 207l-63 -25l-78 -28q-40 -14 -78.5 -23.5t-65.5 -9.5q-150 0 -248 100q-70 76 -90 172 h870zM866 618h-594q23 70 70 123q88 98 225 99q133 0 213 -80q59 -60 86 -142z" />
<glyph unicode="f" horiz-adv-x="569" d="M737 1163q-16 96 -39.5 147.5t-60.5 88.5q-41 41 -91 60.5t-110 19.5q-137 0 -221 -97q-43 -47 -63.5 -107.5t-20.5 -131.5v-109h-149v-223h149v-784l4 -93h424v224h-190v653h190v223h-190v129q0 49 14 70.5t51 21.5q16 0 25.5 -4t15.5 -8q6 -6 15.5 -25.5t29.5 -87.5z " />
<glyph unicode="g" horiz-adv-x="1349" d="M1296 811v223h-415v-94q-45 43 -93 66q-109 55 -227 55q-227 0 -389 -172q-158 -174 -158 -414q0 -238 156 -395q156 -160 389 -160q125 0 244 60q23 10 41 22t37 27v-62q0 -68 -20.5 -114t-59.5 -78q-84 -72 -230 -72q-23 0 -55.5 5t-66.5 12l-68 15q-33 7 -57 13 l-56 -217l34 -8l81 -20q47 -11 96 -19t82 -8q242 0 397 135q160 137 160 366v834h178zM881 483q0 -152 -93 -245q-88 -96 -223 -97q-137 0 -223 95q-88 94 -88 247q0 152 92 254q88 100 219 101q127 0 221 -103q95 -100 95 -252z" />
<glyph unicode="h" horiz-adv-x="1232" d="M1163 -66v224h-155v583q0 143 -90 232q-47 47 -106.5 67.5t-129.5 20.5q-86 0 -161 -24.5t-146 -67.5v487h-414v-223h176v-1206h4v-93h394v224h-160v544q29 25 62.5 47.5t74.5 41.5q45 23 83 33t73 10q53 0 77.5 -25t24.5 -80v-637v-158h393z" />
<glyph unicode="i" horiz-adv-x="569" d="M391 1331q0 57 -43 105q-47 43 -104 43t-105 -43q-43 -43 -43 -107q0 -57 43 -104q47 -43 105 -43q57 0 104 43q43 43 43 106zM557 -66v224h-166v876h-407v-223h170v-784l4 -93h399z" />
<glyph unicode="j" horiz-adv-x="544" d="M395 1331q0 57 -43 105q-47 43 -104 43t-105 -43q-43 -43 -43 -107q0 -57 43 -104q47 -43 105 -43q57 0 104 43q43 43 43 106zM395 -121v1155h-415v-223h178v-905q0 -47 -8.5 -80t-32 -53.5t-65.5 -27.5q-27 -5 -64 -5q-21 0 -45 2v-223q39 -3 72 -3q85 0 143 18 q80 26 133 75q55 51 79.5 118.5t24.5 151.5z" />
<glyph unicode="k" horiz-adv-x="1183" d="M1159 -66v224h-188l-420 350l442 303h150v223h-217l-54 -37l-135 -93l-178 -123l-182 -124v799h-416v-223h178v-1206l4 -93h412v224h-178v198l483 -422h299z" />
<glyph unicode="l" horiz-adv-x="544" d="M539 -66v224h-174v1298h-414v-223h176v-1141v-158h412z" />
<glyph unicode="m" horiz-adv-x="1918" d="M1765 -66v224h-151v583q0 143 -92 234q-47 45 -106.5 65.5t-131.5 20.5q-55 0 -113.5 -16.5t-117.5 -45.5q-63 -33 -115 -71q-47 72 -117.5 102.5t-154.5 30.5q-80 0 -154 -24.5t-139 -65.5v63h-414v-223h176v-719v-158h397v224h-159v544q29 25 62.5 47.5t72.5 41.5 q45 23 82 33t67 10q33 0 49.5 -7.5t26.5 -15.5q10 -10 16.5 -28.5t6.5 -53.5v-795h237v760q66 63 137 99q76 41 150 41q51 0 73.5 -25t22.5 -80v-637v-158h389z" />
<glyph unicode="n" horiz-adv-x="1206" d="M1147 -66v224h-154v583q0 143 -90 232q-47 47 -105.5 67.5t-127.5 20.5q-84 0 -160 -25.5t-145 -66.5v65h-414v-223h176v-719v-158h395v224h-157v544q29 25 62.5 47.5t72.5 41.5q45 23 83 33t72 10q53 0 77 -25t24 -80v-637v-158h391z" />
<glyph unicode="o" d="M1116 483q0 242 -155.5 410t-393.5 168t-393.5 -168t-155.5 -410t156 -409.5t393 -167.5q238 0 393.5 167.5t155.5 409.5zM877 483q0 -156 -89 -254q-86 -96 -221 -96t-221 96q-88 98 -88 254t88 254q86 96 221 97q135 0 221 -97q89 -98 89 -254z" />
<glyph unicode="p" horiz-adv-x="1349" d="M1204 489q0 121 -37 222.5t-114 183.5q-154 166 -385 166q-119 0 -230 -55q-23 -10 -43 -24.5t-41 -31.5v84h-401v-223h164v-1153v-158h413v224h-176v284q16 -14 36 -26.5t40 -22.5q113 -53 232 -53q240 0 393 166q149 167 149 417zM975 483q0 -82 -22.5 -144.5 t-65.5 -111.5q-84 -94 -223 -94q-133 0 -224 96q-43 47 -66.5 110.5t-23.5 147.5q0 162 88 256.5t219 94.5q141 0 228 -97q90 -96 90 -258z" />
<glyph unicode="q" horiz-adv-x="1349" d="M1286 823v224h-418v-93q-35 29 -80 52q-111 55 -229 55q-231 0 -387 -168q-152 -168 -152 -406q0 -254 152 -417q78 -84 177.5 -124t219.5 -40q121 0 232 55q18 10 35 22l32 23v-282h-172v-224h410v158v1165h180zM874 487q0 -86 -23.5 -149.5t-66.5 -110.5 q-88 -94 -225 -94q-133 0 -221 94q-41 47 -63.5 110.5t-22.5 147.5q0 82 22.5 144.5t67.5 111.5q90 96 227 97q135 0 217 -95q88 -94 88 -256z" />
<glyph unicode="r" horiz-adv-x="901" d="M860 815v215l-102 2h-20q-60 0 -108 -10q-56 -12 -124 -45q-29 -14 -57.5 -33.5t-36.5 -23.5v114h-422v-223h184v-719v-158h436v224h-198v368q0 86 20.5 131t56.5 78q39 35 103.5 57.5t163.5 22.5h104z" />
<glyph unicode="s" horiz-adv-x="1017" d="M903 260q0 68 -20.5 126t-65.5 103.5t-127 74t-190 48.5q-78 12 -121 26.5t-62 25.5q-10 8 -17 21t-7 42q0 45 35 80q16 16 42.5 25.5t67.5 9.5q47 0 81 -13.5t63 -37.5q27 -23 41 -63t18 -130h219v408h-213q-47 29 -100 42t-111 13q-152 0 -258 -88q-113 -94 -112 -250 q0 -74 24.5 -135.5t81.5 -102.5q47 -35 117.5 -59.5t161.5 -40.5q82 -14 129 -28.5t67 -30.5q14 -10 22.5 -26.5t8.5 -49.5q0 -25 -11.5 -46.5t-39.5 -43.5q-59 -43 -146 -43q-115 0 -178 59q-29 27 -46 73t-19 152h-226v-467h226v31q20 -14 41 -22q86 -39 192 -39 q92 0 170 22.5t137 69.5q125 100 125 264z" />
<glyph unicode="t" horiz-adv-x="591" d="M567 -55v225l-186 -31h-10q-6 8 -6 41v631h202v223h-202v221l-238 -6v-215h-172v-223h172v-651q0 -53 13.5 -99.5t47.5 -80.5q35 -37 81 -52.5t104 -15.5z" />
<glyph unicode="u" horiz-adv-x="1232" d="M1169 -66v224h-168v876h-237v-157v-594q-53 -51 -133 -93q-86 -43 -158 -43q-94 0 -94 99v788h-408v-223h170v-584q0 -66 20.5 -123t65.5 -100q45 -45 102.5 -64.5t125.5 -19.5q123 0 233 49q20 10 39 21l37 20v-76h405z" />
<glyph unicode="v" horiz-adv-x="1183" d="M1139 811v223h-326l-51 -135l-217 -590l-187 502h105v223h-533v-223h181l342 -891h188l328 891h170z" />
<glyph unicode="w" horiz-adv-x="1705" d="M1599 811v223h-327l-41 -139l-172 -516l-135 432h84v223h-498v-223h88l-139 -442l-162 526l-41 139h-315v-223h143l276 -891h203l197 682l201 -682h194l289 891h155z" />
<glyph unicode="x" horiz-adv-x="1206" d="M1128 -66v224h-153l-279 342l244 311h164v223h-488v-223h37l-102 -129l-102 129h43v223h-492v-223h160l250 -311l-281 -367l-154 -199h578v224h-121l121 161l240 -292l73 -93h262z" />
<glyph unicode="y" horiz-adv-x="1206" d="M1151 811v223h-535v-223h125l-180 -477l-231 567l-51 133h-340v-223h182l321 -786l-186 -525h231l496 1311h168z" />
<glyph unicode="z" horiz-adv-x="1089" d="M958 854v180h-882v-223h149h406l-604 -694v-183h929v486h-217v-262h-387z" />
<glyph unicode="{" horiz-adv-x="757" d="M649 -477v227q-47 0 -76.5 2t-46 6t-24.5 8.5t-10 8.5q-6 6 -15.5 37.5t-9.5 109.5v240q0 78 -14.5 143.5t-49.5 116.5q-14 20 -28.5 36.5t-30.5 30.5q16 14 30.5 31t28.5 37q35 51 49.5 116.5t14.5 143.5v240q0 78 9 109.5t16 37.5q2 4 10 8.5t24.5 8.5t46 6t76.5 2v227 h-98q-82 0 -149.5 -24.5t-108.5 -83.5q-68 -98 -68 -232v-280q0 -61 -10 -105.5t-27 -73.5q-6 -10 -14 -18t-25.5 -14.5t-45 -10.5t-70.5 -4v-241q43 0 70.5 -4.5t45 -10.5t25.5 -14t14 -18q16 -29 26.5 -73t10.5 -106v-280q0 -133 68 -232q41 -59 108.5 -83.5t149.5 -24.5 h98z" />
<glyph unicode="|" horiz-adv-x="1128" d="M627 -524v1980h-238v-1980h238z" />
<glyph unicode="}" horiz-adv-x="757" d="M649 369v241q-43 0 -70.5 4t-45 10.5t-25.5 14.5t-14 18q-16 29 -26.5 73t-10.5 106v280q0 133 -68 232q-41 59 -108.5 83.5t-149.5 24.5h-98v-227q47 0 76.5 -2t46 -6t23.5 -8.5t11 -8.5q6 -6 15.5 -37.5t9.5 -109.5v-240q0 -78 14.5 -143.5t49.5 -116.5 q14 -20 28.5 -36.5t30.5 -31.5q-16 -14 -30.5 -30.5t-28.5 -36.5q-35 -51 -49.5 -116.5t-14.5 -143.5v-240q0 -78 -9 -109.5t-16 -37.5q-4 -4 -11 -8.5t-23.5 -8.5t-46 -6t-76.5 -2v-227h98q82 0 149.5 24.5t108.5 83.5q68 98 68 232v280q0 61 10 105.5t27 73.5q6 10 14 18 t25.5 14t45 10.5t70.5 4.5z" />
<glyph unicode="~" horiz-adv-x="1490" d="M1274 664l-4 264l-98 -68l-67 -44l-46 -29l-33 -19q-51 -29 -108 -29q-29 0 -80.5 15.5t-128.5 54.5q-82 41 -154 62.5t-133 21.5q-119 0 -213 -55q-39 -25 -71 -47.5t-68 -53.5v-274l96 74l65 47l44 29q17 11 34 20q53 29 115 29q29 0 81 -16.5t130 -53.5 q80 -41 151.5 -62.5t135.5 -21.5q115 0 211 55q39 23 70 46z" />
<glyph unicode="&#xa1;" horiz-adv-x="569" d="M379 711v323h-246v-323h246zM375 -487v503l-27 650h-184l-27 -643v-510h238z" />
<glyph unicode="&#xa2;" horiz-adv-x="1159" d="M1067 297l-205 88q-39 -90 -68.5 -132t-62.5 -69q-33 -25 -73 -38t-93 -13h-8l162 627q33 -25 53.5 -75t24.5 -165h217v500h-219v-41q-4 4 -8.5 5t-8.5 5l115 447h-205l-100 -392q-10 2 -19 3h-18q-229 0 -383 -166q-150 -164 -150 -406q0 -248 152 -407q57 -59 139 -105 l-119 -463h205l105 408q14 -2 30 -2h33q164 0 291 88q66 45 116 112.5t97 190.5zM528 819l-157 -620q-8 6 -15 12l-12 12q-41 47 -63.5 108.5t-22.5 143.5q0 158 84 252q67 82 186 92z" />
<glyph unicode="&#xa3;" horiz-adv-x="1183" d="M1096 289v84h-211q-2 -53 -5 -90t-7.5 -60.5t-8.5 -38t-10 -22.5q-8 -14 -21.5 -21.5t-39.5 -7.5q-20 0 -43 7t-50 26l-52 40q-28 22 -58 48q4 16 5 28.5t3 24.5q6 43 6 96q0 86 -22 172h213v224h-289q-16 39 -30 77l-27 76q-16 47 -22.5 85t-6.5 67q0 43 12 70.5 t35 44.5q49 43 129 43q51 0 82 -13.5t51 -36.5q23 -25 34 -65.5t15 -134.5h230q-2 137 -29 219t-84 139t-133 83t-168 26t-167 -27t-132 -84q-111 -111 -111 -270q0 -96 31 -191q8 -25 18.5 -52.5t22.5 -55.5h-211v-224h297q8 -20 14 -41.5t15 -44.5q6 -27 10 -50t6 -48 q-47 18 -100 19q-55 0 -103.5 -17.5t-87.5 -54.5q-74 -74 -73 -174q0 -106 69 -178q72 -70 180 -70q41 0 80 13.5t74 35.5q47 31 80 82q59 -51 132 -91t155 -40q139 0 223 113q80 104 80 260zM348 186q-16 -27 -33 -43q-12 -14 -23 -18t-22 -4q-20 0 -30 10l-7.5 11t-3.5 16 q0 14 4.5 20t8.5 10q23 16 47 17q16 0 30.5 -5.5t28.5 -13.5z" />
<glyph unicode="&#xa4;" horiz-adv-x="1705" d="M1595 481l-211 123q-43 -121 -94 -208t-113.5 -142t-139 -82t-173.5 -27q-172 0 -291.5 84t-177.5 224h776v221h-823v22v21q0 12 2 22h821v222h-770q59 129 174 207.5t281 78.5q78 0 151.5 -21.5t135 -66.5t106.5 -114.5t64 -163.5h215v493h-225v-51q-94 76 -207 116 t-236 40q-135 0 -251.5 -37t-209 -105.5t-159 -164t-101.5 -211.5h-172v-222h135v-43v-22h-135v-221h166q33 -123 98.5 -222.5t158.5 -170t212 -108.5t260 -38q270 0 447 144t286 423z" />
<glyph unicode="&#x20ac;" horiz-adv-x="1705" d="M1595 481l-211 123q-43 -121 -94 -208t-113.5 -142t-139 -82t-173.5 -27q-172 0 -291.5 84t-177.5 224h776v221h-823v22v21q0 12 2 22h821v222h-770q59 129 174 207.5t281 78.5q78 0 151.5 -21.5t135 -66.5t106.5 -114.5t64 -163.5h215v493h-225v-51q-94 76 -207 116 t-236 40q-135 0 -251.5 -37t-209 -105.5t-159 -164t-101.5 -211.5h-172v-222h135v-43v-22h-135v-221h166q33 -123 98.5 -222.5t158.5 -170t212 -108.5t260 -38q270 0 447 144t286 423z" />
<glyph unicode="&#xa5;" d="M1198 1233v223h-592v-223h142l-54 -111h-133h-94l-51 111h145v223h-627v-223h205l51 -111h-256v-223h361l53 -115h-414v-223h508v-403h-192v-224h637v224h-199v403h504v223h-410l58 115h352v223h-244l56 111h194zM590 946l-23 -47l-28 47h43h8z" />
<glyph unicode="&#xa6;" horiz-adv-x="1128" d="M627 580v876h-238v-876h238zM627 -524v874h-238v-874h238z" />
<glyph unicode="&#xa7;" horiz-adv-x="995" d="M928 434q0 139 -84 236q-82 90 -242 159l-166 72q-59 27 -98 52.5t-62 50.5q-39 45 -38 104q0 41 13 66.5t40 42.5q66 45 131 45q88 0 147 -48q25 -18 42.5 -61t25.5 -147h227q-10 150 -45 237.5t-106 140.5q-129 94 -281 95q-174 0 -297 -99q-66 -51 -96.5 -122.5 t-30.5 -157.5q0 -88 39 -166q10 -25 26.5 -47.5t35.5 -44.5q-27 -23 -48.5 -50.5t-37.5 -56.5q-55 -92 -56 -190q0 -139 84 -236q82 -90 242 -159l166 -72q59 -27 98 -52.5t61 -50.5q39 -45 39 -104q0 -41 -13 -66.5t-40 -42.5q-66 -45 -131 -45q-88 0 -147 47 q-25 18 -42.5 61.5t-25.5 147.5h-225q8 -150 43 -237.5t106 -141.5q129 -94 281 -94q174 0 297 99q66 51 96.5 122.5t30.5 157.5q0 88 -39 166q-10 25 -26.5 47.5t-35.5 44.5q27 23 48.5 50.5t37.5 56.5q56 92 56 190zM698 422q0 -57 -30 -103q-12 -18 -28 -32l-32 -29 l-260 117q-53 25 -82.5 48t-42.5 40q-27 33 -26 98q0 53 30 101q25 35 60 61l260 -117q53 -25 82.5 -47t42.5 -39q26 -32 26 -98z" />
<glyph unicode="&#xa8;" horiz-adv-x="757" d="M649 1122v262h-262v-262h262zM295 1122v262h-262v-262h262z" />
<glyph unicode="&#xa9;" horiz-adv-x="1642" d="M1616 729q0 330 -234 561q-231 233 -563 234q-332 0 -561 -234q-233 -231 -233 -563t233 -561q229 -233 563 -234q330 0 561 234q234 229 234 563zM1454 727q0 -260 -186 -446q-184 -186 -449 -187q-260 0 -446 187q-186 184 -187 448q0 260 187 447q184 186 448 186 q260 0 447 -186q186 -185 186 -449zM1202 573l-151 56q-23 -70 -44.5 -107t-50.5 -61q-57 -47 -131 -47q-115 0 -176 90q-66 94 -65 235q0 123 67 209q63 80 185 80q72 0 118 -41q25 -23 44.5 -52.5t37.5 -80.5l164 49q-31 61 -63.5 110.5t-75.5 85.5t-97.5 55.5 t-125.5 19.5q-199 0 -314 -127q-113 -125 -112 -320q0 -207 118.5 -338t298.5 -131q127 0 226 74q49 39 84.5 95t62.5 146z" />
<glyph unicode="&#xaa;" horiz-adv-x="757" d="M184 1202q20 43 31.5 56.5t24.5 23.5q12 8 34.5 13t59.5 5q59 0 88 -18q6 -4 10 -10t4 -25v-41q-12 4 -20 4q-59 12 -103 13q-74 -1 -129 -21zM741 750v186h-104v311q0 74 -29.5 119t-75 70.5t-98.5 34t-98 8.5q-55 0 -104.5 -11.5t-90.5 -35.5q-39 -25 -70.5 -65 t-76.5 -132l170 -39q-35 -16 -62 -37q-43 -35 -66.5 -80t-23.5 -100q0 -98 76 -168t186 -70q41 0 83 11.5t79 27.5v-30h305zM436 981q-25 -23 -61 -37q-45 -23 -84 -22q-41 0 -60 18q-10 10 -13 18.5t-3 14.5q0 29 23 49q10 10 31.5 16t56.5 6q29 0 56.5 -7t53.5 -17v-39z " />
<glyph unicode="&#xab;" horiz-adv-x="1067" d="M1042 -66l-352 555l352 555h-268l-354 -555l354 -555h268zM606 -66l-352 555l352 555h-268l-354 -555l354 -555h268z" />
<glyph unicode="&#xac;" horiz-adv-x="2070" d="M2081 -33v158h-168l-561 614l532 527h168v157h-237l-101 -102l-407 -399l-129 -109v156v297h190v157h-555v-157h184v-174l-129 129q-63 63 -143 61q-78 0 -145 -68q-47 -47 -76 -131q-8 -27 -13.5 -51t-9.5 -47q-53 16 -101 -1t-89 -58q-25 -25 -43.5 -54.5t-32.5 -64.5 q-12 -37 -18 -74l-37 37l-178 -178l90 -90l82 82l342 -342l65 -66l172 170l-90 90l-74 -76l-266 265l8 56q4 28 15 56q20 61 53 94q16 16 29.5 21.5t23.5 5.5q27 0 55 -29l365 -364l96 96l-350 350q0 63 18 117q18 59 54 94q29 29 54.5 27t53.5 -31l219 -219v-807v-125h373 v158h-192v537l534 -592l90 -103h279zM1303 -303q0 82 -57.5 139.5t-141.5 57.5q-82 0 -139.5 -57.5t-57.5 -139.5q0 -80 58 -141q61 -57 141 -58q78 0 139 58q58 61 58 141z" />
<glyph unicode="&#xad;" horiz-adv-x="782" d="M696 449v223h-692v-223h692z" />
<glyph unicode="&#xae;" horiz-adv-x="1642" d="M1616 729q0 330 -234 561q-231 233 -563 234q-332 0 -561 -234q-233 -231 -233 -563t233 -561q229 -233 563 -234q330 0 561 234q234 229 234 563zM1454 727q0 -260 -186 -446q-184 -186 -449 -187q-260 0 -446 187q-186 184 -187 448q0 260 187 447q184 186 448 186 q260 0 447 -186q186 -185 186 -449zM1206 285q-53 123 -88 191.5t-59 109.5q-31 47 -78 80q61 20 106 65q70 72 70 176q0 98 -74 172q-39 39 -97 56.5t-132 17.5h-375v-868h172v348h33q109 0 164 -49q29 -23 67.5 -93.5t94.5 -205.5h196zM977 903q0 -57 -35 -88 q-16 -14 -55 -23.5t-105 -9.5h-131v224h142q51 0 86.5 -7.5t58.5 -17.5q18 -10 28.5 -27.5t10.5 -50.5z" />
<glyph unicode="&#xaf;" horiz-adv-x="757" d="M735 1163v191h-788v-191h788z" />
<glyph unicode="&#xb0;" horiz-adv-x="901" d="M760 1124q0 147 -105 250q-102 104 -249 105q-150 0 -250 -105q-104 -102 -105 -250q0 -150 105 -250q102 -104 250 -104q147 0 249 104q105 100 105 250zM547 1124q0 -31 -10.5 -54t-30.5 -46q-23 -20 -46.5 -30.5t-53.5 -10.5q-31 0 -54.5 10.5t-46.5 30.5 q-20 23 -30.5 46.5t-10.5 53.5q0 31 10.5 54.5t30.5 46.5q23 20 46.5 30.5t54.5 10.5t54 -10.5t46 -30.5q20 -23 30.5 -46.5t10.5 -54.5z" />
<glyph unicode="&#xb1;" horiz-adv-x="1366" d="M1251 739v156h-491v494h-156v-494h-491v-156h491v-493h156v493h491zM1251 -33v156h-1138v-156h1138z" />
<glyph unicode="&#xb2;" horiz-adv-x="661" d="M600 938h-121l-6 -178h-315q14 45 55 96q51 61 190 133q94 45 140 101q45 57 45 137q0 100 -76 162q-72 59 -190 59q-127 0 -205 -72q-78 -70 -78 -188v-49h125v45q0 70 39 112q18 18 47 29.5t74 11.5q59 0 98 -32q35 -31 35 -78t-29 -80q-31 -31 -106 -72 q-84 -43 -143.5 -91t-94.5 -101q-33 -53 -50.5 -99.5t-17.5 -91.5l7 -45h565z" />
<glyph unicode="&#xb3;" horiz-adv-x="661" d="M637 881q0 92 -62 147q-31 27 -67 43q80 57 80 156q0 98 -76 159q-74 61 -182 62q-53 0 -100.5 -14.5t-82.5 -44.5q-37 -31 -56 -77t-23 -124h129q2 57 10 81.5t24 37.5q33 31 95 30q59 0 96 -30q35 -29 35 -78q0 -53 -41 -82q-45 -35 -111 -35l-57 6v-121l90 7 q41 4 71.5 -7.5t55.5 -27.5q43 -35 43 -88q0 -55 -47 -95q-49 -39 -127 -38q-80 0 -129 43q-25 23 -40 54.5t-24 90.5h-123q4 -86 29 -139.5t70 -87.5q45 -37 99 -54.5t116 -17.5q131 0 215 65q90 73 90 179z" />
<glyph unicode="&#xb4;" horiz-adv-x="757" d="M645 1481h-285l-290 -449h231z" />
<glyph unicode="&#xb5;" horiz-adv-x="1130" d="M1133 -33v158h-168v876h-340v-157h168v-574q-61 -61 -149.5 -108t-168.5 -47q-63 0 -92 32q-14 16 -22.5 40t-8.5 59v755h-342v-157h170v-1311h166v455q57 -35 129 -35q106 0 207 47q57 27 111 66v-99h340z" />
<glyph unicode="&#xb6;" horiz-adv-x="1468" d="M1331 1188v268h-760q-238 0 -389 -133q-78 -68 -114.5 -158t-36.5 -200q0 -203 141 -344q121 -121 307 -140v-981h262v1688h136v-1688h262v1688h192z" />
<glyph unicode="&#xb7;" horiz-adv-x="663" d="M389 522v262h-246v-262h246z" />
<glyph unicode="&#x2219;" horiz-adv-x="663" d="M389 522v262h-246v-262h246z" />
<glyph unicode="&#xb8;" horiz-adv-x="757" d="M555 -242q0 45 -14.5 85t-46.5 71q-33 37 -76 51l16 86h-198l-56 -280q43 0 68.5 -1t39 -3.5t18.5 -4.5t9 -4q6 -6 7 -14q0 -18 -19 -29q-31 -16 -74 -20q-25 -2 -54.5 0t-92.5 4v-199h94q78 0 144.5 13.5t119.5 42.5q115 67 115 202z" />
<glyph unicode="&#xb9;" horiz-adv-x="661" d="M520 647v113h-121v676h-254v-113h121v-563h-123v-113h377z" />
<glyph unicode="&#xba;" horiz-adv-x="804" d="M743 1106q0 156 -108 264q-106 109 -270 109t-271 -109q-109 -109 -108 -264q0 -158 108 -266q106 -106 271 -107q164 0 270 107q108 108 108 266zM543 1106q0 -43 -13.5 -76t-35.5 -57q-51 -51 -129 -51t-129 51q-23 25 -36.5 57.5t-13.5 75.5q0 82 50 131q51 51 129 51 t129 -51q49 -49 49 -131z" />
<glyph unicode="&#xbb;" horiz-adv-x="1067" d="M979 489l-354 555h-269l353 -555l-353 -555h269zM543 489l-355 555h-268l352 -555l-352 -555h268z" />
<glyph unicode="&#xbc;" horiz-adv-x="1728" d="M1487 178v109h-139v475h-107l-395 -516q29 -18 34 -22.5t7 -6.5t4 -9t12 -30h322v-98h-97v-113h295v113h-75v98h139zM1225 287h-207l207 276v-276zM1372 1423h-151l-1028 -1456h151zM522 647v113h-121v676h-254v-113h121v-563h-123v-113h377z" />
<glyph unicode="&#xbd;" horiz-adv-x="1728" d="M1571 258h-121l-6 -178h-316q14 45 56 96q51 61 190 133q94 45 139 101q45 57 46 137q0 100 -76 162q-72 59 -191 59q-127 0 -205 -72q-78 -70 -77 -188v-49h125v45q0 70 39 112q18 18 46.5 29.5t73.5 11.5q59 0 99 -32q35 -31 34 -78q0 -47 -28 -80q-31 -31 -107 -72 q-84 -43 -143 -91t-94 -101q-33 -53 -50.5 -99.5t-17.5 -91.5l6 -45h566zM1370 1423h-151l-1029 -1456h152zM520 647v113h-121v676h-254v-113h121v-563h-123v-113h377z" />
<glyph unicode="&#xbe;" horiz-adv-x="1728" d="M1636 178v109h-139v475h-106l-396 -516q29 -18 34 -22.5t7 -6.5t4 -9t13 -30h321v-98h-96v-113h295v113h-76v98h139zM1374 287h-207l207 276v-276zM1524 1423h-152l-1028 -1456h152zM713 881q0 92 -62 147q-31 27 -67 43q80 57 80 156q0 98 -76 159q-74 61 -182 62 q-53 0 -100.5 -14.5t-82.5 -44.5q-37 -31 -56.5 -77t-23.5 -124h129q2 57 10.5 81.5t24.5 37.5q33 31 94 30q59 0 97 -30q35 -29 34 -78q0 -53 -40 -82q-45 -35 -111 -35l-57 6v-121l90 7q41 4 71.5 -7.5t55.5 -27.5q43 -35 43 -88q0 -55 -47 -95q-49 -39 -127 -38 q-80 0 -129 43q-25 23 -40.5 54.5t-23.5 90.5h-123q4 -86 28.5 -139.5t70.5 -87.5q45 -37 99 -54.5t116 -17.5q131 0 215 65q90 73 90 179z" />
<glyph unicode="&#xbf;" horiz-adv-x="1017" d="M633 713v323h-246v-323h246zM922 2h-228q0 -106 -15 -153.5t-44 -73.5q-59 -59 -156 -60q-100 0 -164 64q-61 63 -61 153q0 66 19.5 105t50.5 59q61 39 149 39q16 0 35.5 -2t48.5 -6l80 -10l-47 542h-168l-27 -299q-162 -10 -266 -129q-109 -127 -109 -297 q0 -166 117 -301q61 -72 145.5 -106.5t186.5 -34.5q104 0 189 33t147 102q59 66 88 152t29 223z" />
<glyph unicode="&#xc0;" horiz-adv-x="1490" d="M944 1489l-291 448h-284l344 -448h231zM1458 -66v224h-190l-379 1075h147v223h-506l-45 -137l-403 -1161h-195v-224h422v154l129 375h467l109 -305h-148v-224h592zM829 686h-313l158 459z" />
<glyph unicode="&#xc1;" horiz-adv-x="1490" d="M977 1937h-285l-291 -448h232zM1458 -66v224h-190l-379 1075h147v223h-506l-45 -137l-403 -1161h-195v-224h422v154l129 375h467l109 -305h-148v-224h592zM829 686h-313l158 459z" />
<glyph unicode="&#xc2;" horiz-adv-x="1490" d="M1176 1497l-353 428h-180l-348 -428h235l203 189l207 -189h236zM1458 -66v224h-190l-379 1075h147v223h-506l-45 -137l-403 -1161h-195v-224h422v154l129 375h467l109 -305h-148v-224h592zM829 686h-313l158 459z" />
<glyph unicode="&#xc3;" horiz-adv-x="1490" d="M1096 1825h-193q-23 -59 -32 -72.5t-13 -15.5q-12 -10 -29 -11q-14 0 -41.5 9.5t-72.5 33.5q-49 27 -97.5 42.5t-95.5 15.5q-80 0 -145 -60q-35 -29 -61.5 -84t-63.5 -167h188q25 57 35 71.5t14 18.5q10 8 29 8q12 0 40 -9.5t73 -33.5q51 -27 99 -42.5t95 -15.5 q41 0 78 15.5t68 44.5q16 14 31.5 34.5t30 49.5t30 70t33.5 98zM1458 -66v224h-190l-379 1075h147v223h-506l-45 -137l-403 -1161h-195v-224h422v154l129 375h467l109 -305h-148v-224h592zM829 686h-313l158 459z" />
<glyph unicode="&#xc4;" horiz-adv-x="1490" d="M981 1538v262h-262v-262h262zM627 1538v262h-262v-262h262zM1458 -66v224h-190l-379 1075h147v223h-506l-45 -137l-403 -1161h-195v-224h422v154l129 375h467l109 -305h-148v-224h592zM829 686h-313l158 459z" />
<glyph unicode="&#xc5;" horiz-adv-x="1490" d="M967 1731q0 106 -74 180t-180 74q-109 0 -178 -76q-74 -74 -74 -178t74 -179q70 -76 178 -75q106 0 180 74t74 180zM774 1731q0 -29 -18 -43q-16 -18 -43 -19q-23 0 -43 17q-16 20 -17 45q0 25 17 45q20 16 43 16q27 0 43 -18q18 -16 18 -43zM1458 -66v224h-190 l-379 1075h147v223h-506l-45 -137l-403 -1161h-195v-224h422v154l129 375h467l109 -305h-148v-224h592zM829 686h-313l158 459z" />
<glyph unicode="&#xc6;" horiz-adv-x="2131" d="M1894 -66v474h-225v-250h-600v442h582v223h-582v410h666h157v223h-1501v-223h184l-139 -255l-154 -285l-154 -280l-133 -243l-93 -171l-35 -65h498v224h-117l248 444h327v-444h-231v-224h1302zM823 825h-209l209 379v-379z" />
<glyph unicode="&#xc7;" horiz-adv-x="1705" d="M1554 481l-211 123q-59 -166 -113 -248t-114 -123q-123 -88 -293 -88q-227 0 -370 154q-145 156 -146 397q0 244 144 400q141 152 364 151q158 0 293 -86q61 -41 101 -103.5t63 -176.5h215v452h-225v-8q-35 29 -71 50.5t-75 37.5q-150 66 -297 66q-336 0 -547 -219 q-106 -111 -158.5 -252.5t-52.5 -311.5q0 -172 51.5 -313t159.5 -252q154 -160 379 -203l-30 -157q43 0 68.5 -1t38.5 -3.5t18.5 -4.5t9.5 -4q6 -6 6 -14q0 -18 -19 -29q-31 -16 -73 -20q-25 -2 -54.5 0t-93.5 4v-199h94q78 0 144.5 13.5t120.5 42.5q115 68 114 202 q0 45 -14 85t-47 71l-4 6q172 23 315 115q96 63 169.5 168.5t139.5 277.5z" />
<glyph unicode="&#xc8;" horiz-adv-x="1372" d="M891 1489l-291 448h-285l344 -448h232zM1210 -66v224h-159h-662v442h578v223h-578v410h596v-246h223v469h-1243v-223h178v-1141v-158h1067z" />
<glyph unicode="&#xc9;" horiz-adv-x="1372" d="M924 1958h-285l-291 -449h232zM1210 -66v224h-159h-662v442h578v223h-578v410h596v-246h223v469h-1243v-223h178v-1141v-158h1067z" />
<glyph unicode="&#xca;" horiz-adv-x="1372" d="M1061 1497l-352 428h-181l-348 -428h236l202 189l207 -189h236zM1210 -66v224h-159h-662v442h578v223h-578v410h596v-246h223v469h-1243v-223h178v-1141v-158h1067z" />
<glyph unicode="&#xcb;" horiz-adv-x="1372" d="M928 1538v262h-262v-262h262zM573 1538v262h-262v-262h262zM1210 -66v224h-159h-662v442h578v223h-578v410h596v-246h223v469h-1243v-223h178v-1141v-158h1067z" />
<glyph unicode="&#xcc;" horiz-adv-x="638" d="M559 1489l-291 448h-284l198 -258l142 -190h51h184zM586 -66v224h-176v1140v158h-246v-158v-1140h-174v-224h596z" />
<glyph unicode="&#xcd;" horiz-adv-x="638" d="M592 1937h-285l-291 -448h242l79 106l74 102l82 109zM586 -66v224h-176v1140v158h-246v-158v-1140h-174v-224h596z" />
<glyph unicode="&#xce;" horiz-adv-x="638" d="M729 1456l-352 428h-180l-349 -428h236l133 125l70 64l65 -60l142 -129h235zM586 -66v224h-176v1140v158h-246v-158v-1140h-174v-224h596z" />
<glyph unicode="&#xcf;" horiz-adv-x="638" d="M596 1538v262h-262v-262h41h221zM242 1538v262h-262v-262h215h47zM586 -66v224h-176v1140v158h-246v-158v-1140h-174v-224h596z" />
<glyph unicode="&#xd0;" horiz-adv-x="1609" d="M1419 694q0 336 -200 549q-104 111 -256 162t-351 51h-661v-221l192 4v-430h-190v-223h190v-494v-158h467q215 0 374 55.5t257 178.5q178 227 178 526zM1174 694q0 -141 -35 -239.5t-100.5 -164t-167 -99t-244.5 -33.5h-238v428h428v223h-428v424h234q139 0 239.5 -36 t170 -103.5t105.5 -166t36 -233.5z" />
<glyph unicode="&#xd1;" horiz-adv-x="1609" d="M1149 1825h-193q-23 -59 -32 -72.5t-13 -15.5q-12 -10 -28 -11q-14 0 -42 9.5t-73 33.5q-49 27 -97 42.5t-96 15.5q-80 0 -145 -60q-35 -29 -61.5 -84t-63.5 -167h189q25 57 35 71.5t14 18.5q10 8 28 8q12 0 40 -9.5t73 -33.5q51 -27 99 -42.5t96 -15.5q41 0 77.5 15.5 t67.5 44.5q16 14 31.5 34.5t30 49.5t30 70t33.5 98zM1495 1233v223h-408v-158v-921l-282 430l-203 308l-217 341h-430v-223h186v-1141v-158h424v224h-196v886l737 -1128h209v1317h180z" />
<glyph unicode="&#xd2;" horiz-adv-x="1775" d="M1071 1509l-291 449h-284l344 -449h231zM1569 696q0 336 -217 559.5t-549 223.5t-549 -223.5t-217 -559.5t217 -559t549 -223t549 223t217 559zM1323 696q0 -242 -147 -397q-145 -154 -373 -154q-225 0 -373 156q-147 154 -147 395q0 242 147 396q147 156 373 155 q227 0 373 -153q147 -158 147 -398z" />
<glyph unicode="&#xd3;" horiz-adv-x="1775" d="M1104 1958h-285l-291 -449h232zM1569 696q0 336 -217 559.5t-549 223.5t-549 -223.5t-217 -559.5t217 -559t549 -223t549 223t217 559zM1323 696q0 -242 -147 -397q-145 -154 -373 -154q-225 0 -373 156q-147 154 -147 395q0 242 147 396q147 156 373 155q227 0 373 -153 q147 -158 147 -398z" />
<glyph unicode="&#xd4;" horiz-adv-x="1775" d="M1241 1497l-321 426l-211 2l-349 -428h236l203 189l207 -189h235zM1569 696q0 336 -217 559.5t-549 223.5t-549 -223.5t-217 -559.5t217 -559t549 -223t549 223t217 559zM1323 696q0 -242 -147 -397q-145 -154 -373 -154q-225 0 -373 156q-147 154 -147 395 q0 242 147 396q147 156 373 155q227 0 373 -153q147 -158 147 -398z" />
<glyph unicode="&#xd5;" horiz-adv-x="1775" d="M1223 1825h-193q-23 -59 -32 -72.5t-13 -15.5q-12 -10 -29 -11q-14 0 -41.5 9.5t-72.5 33.5q-49 27 -97.5 42.5t-95.5 15.5q-80 0 -145 -60q-35 -29 -61.5 -84t-63.5 -167h188q25 57 35 71.5t14 18.5q10 8 29 8q12 0 40 -9.5t73 -33.5q51 -27 99 -42.5t95 -15.5 q41 0 78 15.5t68 44.5q16 14 31.5 34.5t30 49.5t30 70t33.5 98zM1569 696q0 336 -217 559.5t-549 223.5t-549 -223.5t-217 -559.5t217 -559t549 -223t549 223t217 559zM1323 696q0 -242 -147 -397q-145 -154 -373 -154q-225 0 -373 156q-147 154 -147 395q0 242 147 396 q147 156 373 155q227 0 373 -153q147 -158 147 -398z" />
<glyph unicode="&#xd6;" horiz-adv-x="1775" d="M1108 1538v262h-262v-262h262zM754 1538v262h-262v-262h262zM1569 696q0 336 -217 559.5t-549 223.5t-549 -223.5t-217 -559.5t217 -559t549 -223t549 223t217 559zM1323 696q0 -242 -147 -397q-145 -154 -373 -154q-225 0 -373 156q-147 154 -147 395q0 242 147 396 q147 156 373 155q227 0 373 -153q147 -158 147 -398z" />
<glyph unicode="&#xd7;" horiz-adv-x="1517" d="M1266 233l-422 422l422 422l-160 160l-422 -422l-422 422l-160 -160l422 -422l-422 -422l160 -159l422 422l422 -422z" />
<glyph unicode="&#xd8;" horiz-adv-x="1775" d="M1569 696q0 139 -40 265t-140 247l135 154l-152 133l-129 -147q-182 131 -440 131q-332 0 -549 -223.5t-217 -559.5q0 -152 43 -280.5t135 -237.5l-131 -149l152 -133l129 145q182 -127 438 -127q332 0 549 223t217 559zM1323 696q0 -242 -147 -397q-145 -154 -373 -154 q-164 0 -281 76l707 805q94 -137 94 -330zM1085 1169l-708 -804q-94 137 -94 331q0 242 147 396q147 156 373 155q167 0 282 -78z" />
<glyph unicode="&#xd9;" horiz-adv-x="1468" d="M934 1489l-291 448h-285l344 -448h232zM1380 1233v223h-424v-158v-899q0 -72 -18 -116.5t-51 -73.5q-35 -29 -89.5 -46.5t-138.5 -17.5q-78 0 -133 17.5t-90 50.5q-35 29 -53 75t-18 115v830h176v223h-600v-223h178v-817q0 -117 34.5 -211t110.5 -162q74 -68 174.5 -98.5 t223.5 -30.5t223 31.5t174 97.5q74 70 108.5 163t34.5 210v817h178z" />
<glyph unicode="&#xda;" horiz-adv-x="1468" d="M967 1937h-285l-291 -448h232zM1380 1233v223h-424v-158v-899q0 -72 -18 -116.5t-51 -73.5q-35 -29 -89.5 -46.5t-138.5 -17.5q-78 0 -133 17.5t-90 50.5q-35 29 -53 75t-18 115v830h176v223h-600v-223h178v-817q0 -117 34.5 -211t110.5 -162q74 -68 174.5 -98.5 t223.5 -30.5t223 31.5t174 97.5q74 70 108.5 163t34.5 210v817h178z" />
<glyph unicode="&#xdb;" horiz-adv-x="1468" d="M1104 1497l-352 428h-181l-348 -428h236l203 189l206 -189h236zM1380 1233v223h-424v-158v-899q0 -72 -18 -116.5t-51 -73.5q-35 -29 -89.5 -46.5t-138.5 -17.5q-78 0 -133 17.5t-90 50.5q-35 29 -53 75t-18 115v830h176v223h-600v-223h178v-817q0 -117 34.5 -211 t110.5 -162q74 -68 174.5 -98.5t223.5 -30.5t223 31.5t174 97.5q74 70 108.5 163t34.5 210v817h178z" />
<glyph unicode="&#xdc;" horiz-adv-x="1468" d="M971 1497v262h-262v-262h262zM616 1497v262h-262v-262h262zM1380 1233v223h-424v-158v-899q0 -72 -18 -116.5t-51 -73.5q-35 -29 -89.5 -46.5t-138.5 -17.5q-78 0 -133 17.5t-90 50.5q-35 29 -53 75t-18 115v830h176v223h-600v-223h178v-817q0 -117 34.5 -211t110.5 -162 q74 -68 174.5 -98.5t223.5 -30.5t223 31.5t174 97.5q74 70 108.5 163t34.5 210v817h178z" />
<glyph unicode="&#xdd;" horiz-adv-x="1372" d="M924 1896h-285l-291 -448h232zM1339 1233v223h-587v-223h127l-244 -383l-324 514l-59 92h-356v-223h208l398 -625v-450h-193v-224h439v158v516l397 625h194z" />
<glyph unicode="&#xde;" d="M1157 694q0 223 -149 353q-76 63 -174.5 92.5t-219.5 29.5h-217v64h187v223h-617v-223h185v-1075h-185v-224h430v158v129h252q111 0 203 31t163.5 96.5t106.5 153.5t35 192zM911 682q0 -66 -18.5 -108t-50.5 -68q-37 -29 -93.5 -45.5t-140.5 -16.5h-211v502h211 q92 0 149.5 -16.5t88.5 -44.5q29 -27 47 -75t18 -128z" />
<glyph unicode="&#xdf;" horiz-adv-x="1398" d="M1239 410q0 193 -104 315q-55 61 -123 98q14 14 26.5 30.5t22.5 33.5q51 92 51 184q0 186 -137 299q-68 57 -154 83t-190 26t-191.5 -27t-156.5 -84q-74 -61 -108 -151.5t-34 -204.5v-854h-174v-224h412v158v944q0 66 16.5 107t44.5 63q68 55 189 56q102 0 182 -52 q66 -41 66 -131q0 -47 -12.5 -76.5t-35.5 -48.5q-51 -45 -141 -45h-86v-213q70 0 121 -5t89 -15t64.5 -23.5t47.5 -31.5q39 -35 60.5 -86.5t21.5 -126.5q0 -115 -64 -197q-59 -74 -156 -74q-16 0 -31.5 1t-25.5 3q-6 0 -12 2l-19.5 6.5l-36 12.5t-59.5 24v-243l174 -23 q109 0 195 36t149 112q119 143 119 342z" />
<glyph unicode="&#xe0;" horiz-adv-x="1159" d="M795 1094l-291 448h-285l344 -448h232zM1090 -66v224h-162v563q0 82 -29 147.5t-90 112.5q-59 41 -136 60.5t-171 19.5q-43 0 -100.5 -14.5t-108.5 -32t-87 -31.5l-36 -14l74 -183l54 20l67.5 22.5t70.5 18.5t62 7q53 0 90 -9t61 -26q18 -12 29.5 -34.5t11.5 -63.5v-127 q-18 8 -36.5 13t-35.5 9q-80 20 -151 21q-92 0 -169 -23.5t-136 -76.5q-123 -104 -123 -265q0 -147 104 -247q104 -104 263 -105q76 0 148.5 24.5t135.5 63.5v-74h400zM690 254q-49 -49 -115 -82q-78 -39 -145 -39q-41 0 -67.5 10.5t-45.5 28.5q-39 41 -38 92q0 68 51 113 q23 23 60.5 36t94.5 13q66 0 121 -20q41 -14 84 -37v-115z" />
<glyph unicode="&#xe1;" horiz-adv-x="1159" d="M827 1542h-284l-291 -448h231zM1090 -66v224h-162v563q0 82 -29 147.5t-90 112.5q-59 41 -136 60.5t-171 19.5q-43 0 -100.5 -14.5t-108.5 -32t-87 -31.5l-36 -14l74 -183l54 20l67.5 22.5t70.5 18.5t62 7q53 0 90 -9t61 -26q18 -12 29.5 -34.5t11.5 -63.5v-127 q-18 8 -36.5 13t-35.5 9q-80 20 -151 21q-92 0 -169 -23.5t-136 -76.5q-123 -104 -123 -265q0 -147 104 -247q104 -104 263 -105q76 0 148.5 24.5t135.5 63.5v-74h400zM690 254q-49 -49 -115 -82q-78 -39 -145 -39q-41 0 -67.5 10.5t-45.5 28.5q-39 41 -38 92q0 68 51 113 q23 23 60.5 36t94.5 13q66 0 121 -20q41 -14 84 -37v-115z" />
<glyph unicode="&#xe2;" horiz-adv-x="1159" d="M965 1081l-353 428h-180l-348 -428h235l203 189l207 -189h236zM1090 -66v224h-162v563q0 82 -29 147.5t-90 112.5q-59 41 -136 60.5t-171 19.5q-43 0 -100.5 -14.5t-108.5 -32t-87 -31.5l-36 -14l74 -183l54 20l67.5 22.5t70.5 18.5t62 7q53 0 90 -9t61 -26 q18 -12 29.5 -34.5t11.5 -63.5v-127q-18 8 -36.5 13t-35.5 9q-80 20 -151 21q-92 0 -169 -23.5t-136 -76.5q-123 -104 -123 -265q0 -147 104 -247q104 -104 263 -105q76 0 148.5 24.5t135.5 63.5v-74h400zM690 254q-49 -49 -115 -82q-78 -39 -145 -39q-41 0 -67.5 10.5 t-45.5 28.5q-39 41 -38 92q0 68 51 113q23 23 60.5 36t94.5 13q66 0 121 -20q41 -14 84 -37v-115z" />
<glyph unicode="&#xe3;" horiz-adv-x="1159" d="M946 1409h-192q-23 -59 -32 -72.5t-13 -15.5q-12 -10 -29 -10q-14 0 -42 9t-73 34q-49 27 -97 42t-95 15q-80 0 -146 -59q-35 -29 -61.5 -84.5t-63.5 -167.5h189q25 57 35 71.5t14 18.5q10 8 29 8q12 0 39.5 -9t72.5 -34q51 -27 99.5 -42t95.5 -15q41 0 78 15t67 44 q16 14 31.5 34.5t30 49.5t30 70t33.5 98zM1090 -66v224h-162v563q0 82 -29 147.5t-90 112.5q-59 41 -136 60.5t-171 19.5q-43 0 -100.5 -14.5t-108.5 -32t-87 -31.5l-36 -14l74 -183l54 20l67.5 22.5t70.5 18.5t62 7q53 0 90 -9t61 -26q18 -12 29.5 -34.5t11.5 -63.5v-127 q-18 8 -36.5 13t-35.5 9q-80 20 -151 21q-92 0 -169 -23.5t-136 -76.5q-123 -104 -123 -265q0 -147 104 -247q104 -104 263 -105q76 0 148.5 24.5t135.5 63.5v-74h400zM690 254q-49 -49 -115 -82q-78 -39 -145 -39q-41 0 -67.5 10.5t-45.5 28.5q-39 41 -38 92q0 68 51 113 q23 23 60.5 36t94.5 13q66 0 121 -20q41 -14 84 -37v-115z" />
<glyph unicode="&#xe4;" horiz-adv-x="1159" d="M831 1122v262h-262v-262h262zM477 1122v262h-262v-262h262zM1090 -66v224h-162v563q0 82 -29 147.5t-90 112.5q-59 41 -136 60.5t-171 19.5q-43 0 -100.5 -14.5t-108.5 -32t-87 -31.5l-36 -14l74 -183l54 20l67.5 22.5t70.5 18.5t62 7q53 0 90 -9t61 -26 q18 -12 29.5 -34.5t11.5 -63.5v-127q-18 8 -36.5 13t-35.5 9q-80 20 -151 21q-92 0 -169 -23.5t-136 -76.5q-123 -104 -123 -265q0 -147 104 -247q104 -104 263 -105q76 0 148.5 24.5t135.5 63.5v-74h400zM690 254q-49 -49 -115 -82q-78 -39 -145 -39q-41 0 -67.5 10.5 t-45.5 28.5q-39 41 -38 92q0 68 51 113q23 23 60.5 36t94.5 13q66 0 121 -20q41 -14 84 -37v-115z" />
<glyph unicode="&#xe5;" horiz-adv-x="1159" d="M776 1356q0 106 -73.5 180t-180.5 74q-109 0 -178 -76q-74 -74 -74 -178t74 -178q70 -76 178 -76q106 0 180 74t74 180zM584 1356q0 -29 -19 -43q-16 -18 -43 -19q-23 0 -43 17q-16 20 -16 45t16 45q20 16 43 16q27 0 43 -18q19 -16 19 -43zM1090 -66v224h-162v563 q0 82 -29 147.5t-90 112.5q-59 41 -136 60.5t-171 19.5q-43 0 -100.5 -14.5t-108.5 -32t-87 -31.5l-36 -14l74 -183l54 20l67.5 22.5t70.5 18.5t62 7q53 0 90 -9t61 -26q18 -12 29.5 -34.5t11.5 -63.5v-127q-18 8 -36.5 13t-35.5 9q-80 20 -151 21q-92 0 -169 -23.5 t-136 -76.5q-123 -104 -123 -265q0 -147 104 -247q104 -104 263 -105q76 0 148.5 24.5t135.5 63.5v-74h400zM690 254q-49 -49 -115 -82q-78 -39 -145 -39q-41 0 -67.5 10.5t-45.5 28.5q-39 41 -38 92q0 68 51 113q23 23 60.5 36t94.5 13q66 0 121 -20q41 -14 84 -37v-115z " />
<glyph unicode="&#xe6;" horiz-adv-x="1966" d="M1769 395q-10 174 -46.5 289t-108.5 201q-141 176 -375 176q-223 0 -375 -158q-31 47 -72.5 78t-89 48.5t-99.5 24.5t-101 7q-86 0 -162 -22.5t-174 -88.5l125 -170q66 45 109.5 59.5t97.5 14.5q53 0 89 -9t60 -26q16 -10 27.5 -33.5t11.5 -64.5v-127q-16 8 -34.5 13 t-35.5 9q-76 20 -149 21q-182 0 -301 -100q-121 -104 -121 -265q0 -145 109 -249q55 -53 124.5 -78t149.5 -25q78 0 147.5 17.5t129.5 56.5q35 23 66.5 47.5t59.5 50.5q72 -84 162 -129q115 -57 252 -57q39 0 101.5 16.5t121 37l100.5 36.5l42 16l-125 193l-58 -28 q-29 -13 -61 -25q-35 -12 -65.5 -20.5t-53.5 -8.5q-145 0 -239 100q-66 70 -86 172h847zM1503 618h-569q20 72 65 123q86 98 218 99q131 0 204 -78q57 -58 82 -144zM686 254q-23 -23 -50.5 -44.5t-62.5 -37.5q-78 -39 -143 -39q-72 0 -106 39q-39 41 -39 92q0 66 49 115 q25 23 61.5 35t91.5 12q63 0 117 -20q23 -8 43.5 -17.5t38.5 -19.5v-115z" />
<glyph unicode="&#xe7;" horiz-adv-x="1159" d="M1067 297l-205 88q-39 -90 -68.5 -132t-62.5 -69q-33 -25 -73 -38t-93 -13q-139 0 -221 92q-41 47 -63.5 109.5t-22.5 148.5q0 162 84 258q80 92 209 93q96 0 170 -60q31 -23 51.5 -73t24.5 -166h217v458h-219q-106 68 -244 68q-229 0 -383 -170q-150 -164 -150 -408 q0 -250 152 -413q47 -51 104.5 -87t122.5 -55l-30 -157q43 0 68.5 -1t38.5 -3.5t18.5 -4.5t9.5 -4q6 -6 6 -14q0 -18 -19 -29q-31 -16 -73 -20q-25 -2 -54.5 0t-93.5 4v-199h94q78 0 144.5 13.5t120.5 42.5q115 68 114 202q0 45 -14 85t-47 71q47 10 90 30.5t84 49.5 q66 45 116 112.5t97 190.5z" />
<glyph unicode="&#xe8;" d="M836 1090l-289 448h-285l344 -448h230zM1130 395q-10 184 -50 302t-115 202q-150 162 -390 162q-242 0 -401 -164q-158 -164 -158 -414q0 -246 160 -411q162 -166 406 -166q43 0 104.5 15.5t118.5 32.5t98 33l41 15l-61 207l-63 -25l-78 -28q-40 -14 -78.5 -23.5 t-65.5 -9.5q-150 0 -248 100q-70 76 -90 172h870zM866 618h-594q23 70 70 123q88 98 225 99q133 0 213 -80q59 -60 86 -142z" />
<glyph unicode="&#xe9;" d="M870 1542h-284l-291 -448h231zM1130 395q-10 184 -50 302t-115 202q-150 162 -390 162q-242 0 -401 -164q-158 -164 -158 -414q0 -246 160 -411q162 -166 406 -166q43 0 104.5 15.5t118.5 32.5t98 33l41 15l-61 207l-63 -25l-78 -28q-40 -14 -78.5 -23.5t-65.5 -9.5 q-150 0 -248 100q-70 76 -90 172h870zM866 618h-594q23 70 70 123q88 98 225 99q133 0 213 -80q59 -60 86 -142z" />
<glyph unicode="&#xea;" d="M1018 1075l-352 428h-181l-348 -428h234l204 189l205 -189h238zM1130 395q-10 184 -50 302t-115 202q-150 162 -390 162q-242 0 -401 -164q-158 -164 -158 -414q0 -246 160 -411q162 -166 406 -166q43 0 104.5 15.5t118.5 32.5t98 33l41 15l-61 207l-63 -25l-78 -28 q-40 -14 -78.5 -23.5t-65.5 -9.5q-150 0 -248 100q-70 76 -90 172h870zM866 618h-594q23 70 70 123q88 98 225 99q133 0 213 -80q59 -60 86 -142z" />
<glyph unicode="&#xeb;" d="M874 1122v262h-262v-262h262zM520 1122v262h-262v-262h262zM1130 395q-10 184 -50 302t-115 202q-150 162 -390 162q-242 0 -401 -164q-158 -164 -158 -414q0 -246 160 -411q162 -166 406 -166q43 0 104.5 15.5t118.5 32.5t98 33l41 15l-61 207l-63 -25l-78 -28 q-40 -14 -78.5 -23.5t-65.5 -9.5q-150 0 -248 100q-70 76 -90 172h870zM866 618h-594q23 70 70 123q88 98 225 99q133 0 213 -80q59 -60 86 -142z" />
<glyph unicode="&#xec;" horiz-adv-x="569" d="M528 1073l-290 449h-285l344 -449h231zM559 -66v224h-166v876h-407v-223h170v-653h-170v-224h573z" />
<glyph unicode="&#xed;" horiz-adv-x="569" d="M561 1522h-285l-290 -449h231zM559 -66v224h-166v876h-407v-223h170v-653h-170v-224h573z" />
<glyph unicode="&#xee;" horiz-adv-x="569" d="M698 1081l-352 428h-180l-348 -428h235l203 189l207 -189h235zM559 -66v224h-166v876h-407v-223h170v-653h-170v-224h573z" />
<glyph unicode="&#xef;" horiz-adv-x="569" d="M565 1122v262h-262v-262h262zM211 1122v262h-262v-262h262zM559 -66v224h-166v876h-407v-223h170v-653h-170v-224h573z" />
<glyph unicode="&#xf0;" horiz-adv-x="1280" d="M1139 1356l-199 139l-254 -121q-41 29 -96 55.5t-135 61.5l-262 -131l145 -66q55 -25 90 -43l-254 -121l170 -118q-86 -41 -162 -121q-154 -170 -153 -414q0 -244 157 -407q160 -166 398 -166q252 0 399 196q74 96 108.5 217t34.5 267q0 293 -170 534q-18 27 -41 52 l-49 55zM717 1040q-63 20 -139 21q-16 0 -33 -1t-33 -3l125 59q47 -39 63 -59l9 -8zM885 504q0 -164 -90 -271q-88 -102 -220 -102q-133 0 -217 96q-45 51 -67.5 111.5t-22.5 138.5q0 82 22.5 145.5t65.5 114.5q84 96 222 97q133 0 219 -93q88 -98 88 -237z" />
<glyph unicode="&#xf1;" horiz-adv-x="1206" d="M967 1409h-193q-23 -59 -32 -72.5t-13 -15.5q-12 -10 -29 -10q-14 0 -41.5 9t-72.5 34q-49 27 -97.5 42t-95.5 15q-80 0 -145 -59q-35 -29 -61.5 -84.5t-63.5 -167.5h188q25 57 35 71.5t14 18.5q10 8 29 8q12 0 40 -9t73 -34q51 -27 99 -42t95 -15q41 0 78 15t68 44 q16 14 31.5 34.5t30 49.5t30 70t33.5 98zM1147 -66v224h-154v583q0 143 -90 232q-47 47 -105.5 67.5t-127.5 20.5q-84 0 -160 -25.5t-145 -66.5v65h-414v-223h176v-719v-158h395v224h-157v544q29 25 62.5 47.5t72.5 41.5q45 23 83 33t72 10q53 0 77 -25t24 -80v-637v-158 h391z" />
<glyph unicode="&#xf2;" d="M838 1094l-291 448h-285l344 -448h232zM1116 483q0 242 -155.5 410t-393.5 168t-393.5 -168t-155.5 -410t156 -409.5t393 -167.5q238 0 393.5 167.5t155.5 409.5zM877 483q0 -156 -89 -254q-86 -96 -221 -96t-221 96q-88 98 -88 254t88 254q86 96 221 97q135 0 221 -97 q89 -98 89 -254z" />
<glyph unicode="&#xf3;" d="M870 1542h-284l-291 -448h231zM1116 483q0 242 -155.5 410t-393.5 168t-393.5 -168t-155.5 -410t156 -409.5t393 -167.5q238 0 393.5 167.5t155.5 409.5zM877 483q0 -156 -89 -254q-86 -96 -221 -96t-221 96q-88 98 -88 254t88 254q86 96 221 97q135 0 221 -97 q89 -98 89 -254z" />
<glyph unicode="&#xf4;" d="M1008 1081l-353 428h-180l-348 -428h235l203 189l207 -189h236zM1116 483q0 242 -155.5 410t-393.5 168t-393.5 -168t-155.5 -410t156 -409.5t393 -167.5q238 0 393.5 167.5t155.5 409.5zM877 483q0 -156 -89 -254q-86 -96 -221 -96t-221 96q-88 98 -88 254t88 254 q86 96 221 97q135 0 221 -97q89 -98 89 -254z" />
<glyph unicode="&#xf5;" d="M989 1409h-192q-23 -59 -32 -72.5t-13 -15.5q-12 -10 -29 -10q-14 0 -42 9t-73 34q-49 27 -97 42t-95 15q-80 0 -146 -59q-35 -29 -61.5 -84.5t-63.5 -167.5h189q25 57 35 71.5t14 18.5q10 8 29 8q12 0 39.5 -9t72.5 -34q51 -27 99.5 -42t95.5 -15q41 0 78 15t67 44 q16 14 31.5 34.5t30 49.5t30 70t33.5 98zM1116 483q0 242 -155.5 410t-393.5 168t-393.5 -168t-155.5 -410t156 -409.5t393 -167.5q238 0 393.5 167.5t155.5 409.5zM877 483q0 -156 -89 -254q-86 -96 -221 -96t-221 96q-88 98 -88 254t88 254q86 96 221 97q135 0 221 -97 q89 -98 89 -254z" />
<glyph unicode="&#xf6;" d="M874 1122v262h-262v-262h262zM520 1122v262h-262v-262h262zM1116 483q0 242 -155.5 410t-393.5 168t-393.5 -168t-155.5 -410t156 -409.5t393 -167.5q238 0 393.5 167.5t155.5 409.5zM877 483q0 -156 -89 -254q-86 -96 -221 -96t-221 96q-88 98 -88 254t88 254 q86 96 221 97q135 0 221 -97q89 -98 89 -254z" />
<glyph unicode="&#xf7;" horiz-adv-x="1517" d="M817 942v262h-246v-262h246zM1284 545v221h-1204v-221h1204zM817 51v262h-246v-262h246z" />
<glyph unicode="&#xf8;" d="M1155 1008l-151 133l-142 -164q-63 43 -137 63.5t-158 20.5q-238 0 -393.5 -168t-155.5 -410q0 -201 109 -352l-145 -172l153 -129l137 160q63 -43 137 -63.5t158 -20.5q238 0 393.5 168t155.5 409q0 201 -108 353zM709 801l-420 -486q-31 70 -31 168q0 156 88 254 q86 96 221 97q43 0 78 -8.5t64 -24.5zM877 483q0 -156 -89 -254q-86 -96 -221 -96q-84 0 -143 33l422 483q31 -68 31 -166z" />
<glyph unicode="&#xf9;" horiz-adv-x="1232" d="M827 1073l-290 449h-285l344 -449h231zM1159 -66v224h-168v876h-237v-157v-594q-53 -51 -133 -93q-86 -43 -158 -43q-94 0 -94 99v788h-408v-223h170v-584q0 -66 20.5 -123t65.5 -100q45 -45 102.5 -64.5t124.5 -19.5q123 0 234 49q20 10 39 21l37 20v-76h405z" />
<glyph unicode="&#xfa;" horiz-adv-x="1232" d="M860 1522h-285l-290 -449h231zM1159 -66v224h-168v876h-237v-157v-594q-53 -51 -133 -93q-86 -43 -158 -43q-94 0 -94 99v788h-408v-223h170v-584q0 -66 20.5 -123t65.5 -100q45 -45 102.5 -64.5t124.5 -19.5q123 0 234 49q20 10 39 21l37 20v-76h405z" />
<glyph unicode="&#xfb;" horiz-adv-x="1232" d="M987 1096l-352 428h-180l-349 -428h234l205 188l205 -188h237zM1159 -66v224h-168v876h-237v-157v-594q-53 -51 -133 -93q-86 -43 -158 -43q-94 0 -94 99v788h-408v-223h170v-584q0 -66 20.5 -123t65.5 -100q45 -45 102.5 -64.5t124.5 -19.5q123 0 234 49q20 10 39 21 l37 20v-76h405z" />
<glyph unicode="&#xfc;" horiz-adv-x="1232" d="M864 1122v262h-262v-262h262zM510 1122v262h-262v-262h262zM1159 -66v224h-168v876h-237v-157v-594q-53 -51 -133 -93q-86 -43 -158 -43q-94 0 -94 99v788h-408v-223h170v-584q0 -66 20.5 -123t65.5 -100q45 -45 102.5 -64.5t124.5 -19.5q123 0 234 49q20 10 39 21l37 20 v-76h405z" />
<glyph unicode="&#xfd;" horiz-adv-x="1206" d="M889 1481h-285l-291 -449h232zM1151 811v223h-535v-223h125l-180 -477l-231 567l-51 133h-340v-223h182l321 -786l-186 -525h231l496 1311h168z" />
<glyph unicode="&#xfe;" horiz-adv-x="1349" d="M1194 489q0 121 -37 222.5t-115 183.5q-154 166 -385 166q-119 0 -229 -55q-23 -10 -43 -24.5t-41 -31.5v506h-414v-223h176v-1509h-176v-224h412l2 508q2 -2 14 -10l31 -21q18 -12 31 -18q113 -53 231 -53q240 0 393 166q150 167 150 417zM965 483q0 -82 -22.5 -144.5 t-65.5 -111.5q-84 -94 -224 -94q-133 0 -223 96q-43 47 -66.5 110.5t-23.5 147.5q0 162 88 256.5t219 94.5q141 0 227 -97q91 -96 91 -258z" />
<glyph unicode="&#xff;" horiz-adv-x="1206" d="M852 1122v262h-262v-262h262zM498 1122v262h-262v-262h262zM1151 811v223h-535v-223h125l-180 -477l-231 567l-51 133h-340v-223h182l321 -786l-186 -525h231l496 1311h168z" />
<glyph unicode="&#x152;" horiz-adv-x="2392" d="M2099 -66v224h-160h-661v442h577v223h-577v410h596v-246h223v469h-1263q-176 0 -320.5 -49t-255.5 -154q-113 -104 -167 -241.5t-54 -304.5q0 -178 54 -320.5t167 -247.5q111 -104 261.5 -154.5t336.5 -50.5h1243zM1032 158h-172q-141 0 -246.5 35.5t-181.5 103.5 q-72 66 -110.5 162t-38.5 225q0 141 37.5 241.5t109.5 168t179.5 103.5t256.5 36h166v-1075z" />
<glyph unicode="&#x153;" horiz-adv-x="2107" d="M1898 395q-10 174 -46.5 288t-106.5 202q-141 176 -373 176q-156 0 -285 -80q-82 -53 -135 -125q-51 70 -127 121q-131 84 -290 84q-225 0 -373 -170q-76 -84 -112 -185.5t-36 -222.5t36 -222t112 -185q147 -170 373 -170q160 0 284 76q80 49 133 120q63 -80 142 -125 q123 -72 284 -71q82 0 163 23.5t190 88.5l-115 195q-84 -55 -135 -72.5t-97 -17.5q-139 0 -227 98q-63 70 -86 174h827zM1634 618h-551q20 72 66 123q80 98 207 99q123 0 196 -78q59 -62 82 -144zM829 483q0 -156 -84 -256q-80 -94 -202 -94q-125 0 -205 94q-84 100 -84 256 t84 256q80 94 205 95q123 0 202 -95q84 -100 84 -256z" />
<glyph unicode="&#x160;" horiz-adv-x="1232" d="M997 1948h-235l-207 -189l-203 189h-235l348 -428h180zM1085 365q0 195 -122 309q-59 57 -165 101t-247 79q-150 37 -225 90q-61 39 -62 125q0 72 60 123q63 55 168 55q76 0 128 -9t93 -40q18 -14 30.5 -34.5t19.5 -43t11 -44t4 -34.5v-92h242l-1 31q-1 31 -6 74 t-12.5 87t-19.5 70q-16 35 -32.5 57.5t-43.5 51.5q-43 47 -85 71.5t-93 47.5q-57 25 -115.5 32t-113.5 7q-193 0 -330 -113q-141 -119 -141 -293q0 -184 120 -297q59 -53 146.5 -91t200.5 -67q111 -27 179 -54t105 -54q61 -49 62 -133q0 -98 -72 -164q-74 -68 -193 -68 q-137 0 -233 88q-94 86 -94 195v115h-225v-609h225v84q39 -27 76 -45q123 -59 249 -59q213 0 361 127q151 129 151 324z" />
<glyph unicode="&#x161;" horiz-adv-x="1017" d="M901 1532h-235l-207 -189l-203 189h-236l349 -428h180zM903 260q0 68 -20.5 126t-65.5 103.5t-127 74t-190 48.5q-78 12 -121 26.5t-62 25.5q-10 8 -17 21t-7 42q0 45 35 80q16 16 42.5 25.5t67.5 9.5q47 0 81 -13.5t63 -37.5q27 -23 41 -63t18 -130h219v408h-213 q-47 29 -100 42t-111 13q-152 0 -258 -88q-113 -94 -112 -250q0 -74 24.5 -135.5t81.5 -102.5q47 -35 117.5 -59.5t161.5 -40.5q82 -14 129 -28.5t67 -30.5q14 -10 22.5 -26.5t8.5 -49.5q0 -25 -11.5 -46.5t-39.5 -43.5q-59 -43 -146 -43q-115 0 -178 59q-29 27 -46 73 t-19 152h-226v-467h226v31q20 -14 41 -22q86 -39 192 -39q92 0 170 22.5t137 69.5q125 100 125 264z" />
<glyph unicode="&#x178;" horiz-adv-x="1372" d="M928 1538v262h-262v-262h262zM573 1538v262h-262v-262h262zM1339 1233v223h-587v-223h127l-244 -383l-324 514l-59 92h-356v-223h208l398 -625v-450h-193v-224h439v158v516l397 625h194z" />
<glyph unicode="&#x192;" d="M1178 1503q-66 23 -96.5 31t-53.5 12q-25 4 -52.5 7t-55.5 3q-141 0 -221.5 -75.5t-108.5 -198.5l-37 -154h-170l-45 -223h166l-236 -1093q-4 -23 -12 -36.5t-16.5 -19.5t-21.5 -11t-42 -5q-47 0 -97 13.5t-95 27.5l-52 -227q72 -23 130.5 -38.5t113.5 -15.5 q74 0 136.5 18.5t107.5 61.5q41 41 66.5 101.5t41.5 136.5l238 1087h221l49 223h-223l23 97q8 35 18 52t16 21q8 6 21.5 11.5t36.5 5.5q45 0 82 -6l40 -10q22 -5 80 -23z" />
<glyph unicode="&#x2c6;" horiz-adv-x="757" d="M782 1040l-352 428h-180l-348 -428h235l203 189l207 -189h235z" />
<glyph unicode="&#x2dc;" horiz-adv-x="757" d="M764 1409h-193q-23 -59 -32 -72.5t-13 -15.5q-12 -10 -28 -10q-14 0 -42 9t-73 34q-49 27 -97 42t-96 15q-80 0 -145 -59q-35 -29 -61.5 -84.5t-63.5 -167.5h189q25 57 35 71.5t14 18.5q10 8 28 8q12 0 40 -9t73 -34q51 -27 99 -42t96 -15q41 0 77.5 15t67.5 44 q16 14 31.5 34.5t30 49.5t30 70t33.5 98z" />
<glyph unicode="&#x2000;" horiz-adv-x="991" />
<glyph unicode="&#x2001;" horiz-adv-x="1984" />
<glyph unicode="&#x2002;" horiz-adv-x="991" />
<glyph unicode="&#x2003;" horiz-adv-x="1984" />
<glyph unicode="&#x2004;" horiz-adv-x="661" />
<glyph unicode="&#x2005;" horiz-adv-x="495" />
<glyph unicode="&#x2006;" horiz-adv-x="329" />
<glyph unicode="&#x2007;" horiz-adv-x="329" />
<glyph unicode="&#x2008;" horiz-adv-x="247" />
<glyph unicode="&#x2009;" horiz-adv-x="395" />
<glyph unicode="&#x200a;" horiz-adv-x="108" />
<glyph unicode="&#x2010;" horiz-adv-x="782" d="M696 449v223h-692v-223h692z" />
<glyph unicode="&#x2011;" horiz-adv-x="782" d="M696 449v223h-692v-223h692z" />
<glyph unicode="&#x2012;" horiz-adv-x="782" d="M696 449v223h-692v-223h692z" />
<glyph unicode="&#x2013;" horiz-adv-x="1136" d="M1090 393v240h-1156v-240h1156z" />
<glyph unicode="&#x2014;" horiz-adv-x="2273" d="M2114 393v240h-2180v-240h2180z" />
<glyph unicode="&#x2018;" horiz-adv-x="569" d="M397 1313v147q-98 -6 -145 -28.5t-76 -67.5q-23 -41 -33 -92t-10 -111v-284h246v321h-49q4 47 8 57q0 2 2 11.5t8 19.5t17.5 18.5t31.5 8.5z" />
<glyph unicode="&#x2019;" horiz-adv-x="569" d="M379 1171v285h-246v-321h49q-4 -47 -8 -58q0 -2 -2 -11t-8 -19.5t-17.5 -18.5t-31.5 -8v-148q98 6 145 29t76 68q23 41 33 92t10 110z" />
<glyph unicode="&#x201a;" horiz-adv-x="569" d="M379 -29v285h-246v-322h49q-4 -47 -8 -57q0 -2 -2 -11t-8 -19.5t-17.5 -18.5t-31.5 -8v-148q98 6 145 29t76 68q23 41 33 92t10 110z" />
<glyph unicode="&#x201c;" horiz-adv-x="1089" d="M862 1313v147q-98 -6 -145 -28.5t-76 -67.5q-23 -41 -33 -92t-10 -111v-284h246v321h-49q4 47 8 57q0 2 2 11.5t8 19.5t17.5 18.5t31.5 8.5zM383 1313v147q-98 -6 -145.5 -28.5t-75.5 -67.5q-23 -41 -33 -92t-10 -111v-284h246v321h-50q4 47 9 57q0 2 2 11.5t8 19.5 t17.5 18.5t31.5 8.5z" />
<glyph unicode="&#x201d;" horiz-adv-x="1089" d="M862 1171v285h-246v-321h50q-4 -47 -9 -58q0 -2 -2 -11t-8 -19.5t-17.5 -18.5t-31.5 -8v-148q98 6 145.5 29t75.5 68q23 41 33 92t10 110zM383 1171v285h-246v-321h49q-4 -47 -8 -58q0 -2 -2 -11t-8 -19.5t-17.5 -18.5t-31.5 -8v-148q98 6 145 29t76 68q23 41 33 92 t10 110z" />
<glyph unicode="&#x201e;" horiz-adv-x="1089" d="M866 -29v285h-245v-322h49q-4 -47 -8 -57q0 -2 -2.5 -11t-8.5 -19.5t-17 -18.5t-32 -8v-148q98 6 145.5 29t75.5 68q23 41 33 92t10 110zM379 -29v285h-246v-322h49q-4 -47 -8 -57q0 -2 -2 -11t-8 -19.5t-17.5 -18.5t-31.5 -8v-148q98 6 145 29t76 68q23 41 33 92t10 110 z" />
<glyph unicode="&#x2020;" horiz-adv-x="1067" d="M1004 750v258q-137 -2 -209 -6.5t-101 -14.5q-6 -4 -34 -6l-85 -6q4 80 7.5 116.5t5.5 41.5q10 29 14 103.5t6 219.5h-250q0 -143 3.5 -219t15.5 -104q2 -4 6 -41t8 -117l-85 6q-28 2 -34 6q-29 10 -100.5 14.5t-210.5 6.5v-258q137 0 210 4t101 14q6 4 34 7t87 7 q-2 -18 -2 -34t-2 -29q-4 -20 -10 -46t-23 -67q0 -188 13 -479l12 -289q6 -141 16 -313h174l39 1081q-16 41 -23 66.5t-9 44.5q-2 14 -3 31q0 16 -2 34q57 -4 86 -7t35 -7q29 -10 101 -14t209 -4z" />
<glyph unicode="&#x2021;" horiz-adv-x="1114" d="M1024 -57v258q-137 -2 -209 -6.5t-100 -14.5q-12 -6 -119 -12q2 31 3 61.5t3 59.5q4 37 16.5 84t45.5 119q-31 68 -44.5 113.5t-17.5 84.5q-6 57 -6 117q55 -4 84 -7t35 -7q29 -10 100.5 -14.5t208.5 -4.5v258q-137 -2 -209 -6t-100 -14q-6 -4 -34 -6l-83 -7 q8 113 14 121q10 27 12.5 105t2.5 231h-246q0 -154 2 -231.5t12 -104.5q6 -8 15 -121q-57 4 -84 6.5t-33 6.5q-29 10 -100.5 14t-210.5 6v-258q137 0 209.5 4t101.5 15q6 4 33.5 7t85.5 7q-2 -29 -3 -58.5t-6 -58.5q-4 -41 -17 -87t-42 -111q31 -72 43 -119t16 -84 q2 -29 3.5 -59.5t5.5 -61.5l-85 6q-28 2 -34 6q-29 10 -100.5 14.5t-210.5 6.5v-258q137 0 209.5 4t101.5 14q6 4 33.5 7t83.5 7q-4 -61 -7.5 -89.5t-5.5 -32.5q-10 -27 -13 -105t-3 -229h246q0 152 -3 229.5t-14 104.5q-2 4 -5 32.5t-7 89.5q55 -4 83 -7t34 -7 q29 -10 100.5 -14t208.5 -4z" />
<glyph unicode="&#x2022;" horiz-adv-x="751" d="M559 623q0 96 -65 161q-68 68 -164 68q-98 0 -162 -68q-68 -66 -68 -161q0 -96 68 -164t164 -68q94 0 162 68q65 70 65 164z" />
<glyph unicode="&#x2026;" horiz-adv-x="2273" d="M1839 -66v263h-246v-263h246zM1157 -66v263h-246v-263h246zM475 -66v263h-246v-263h246z" />
<glyph unicode="&#x202f;" horiz-adv-x="395" />
<glyph unicode="&#x2030;" horiz-adv-x="2273" d="M2064 344q0 96 -19.5 175t-59.5 138q-47 66 -113 95.5t-150 29.5q-82 0 -147.5 -29.5t-112.5 -95.5q-43 -59 -62.5 -138t-19.5 -175t19.5 -176t60.5 -139q47 -63 112.5 -93t149.5 -30t149.5 29.5t113.5 93.5q41 59 60 139t19 176zM1851 344q0 -72 -10 -121t-29 -80 q-29 -49 -88 -49t-88 49q-16 31 -27.5 79t-11.5 120q0 133 39 201q31 51 86 51q59 0 90 -51q16 -31 27.5 -79t11.5 -120zM1370 344q0 96 -19.5 175t-60.5 138q-47 66 -112.5 95.5t-149.5 29.5q-78 0 -142.5 -27.5t-109.5 -86.5l555 788h-168h-28h-678q-53 23 -129 23 q-82 0 -147.5 -30t-112.5 -93q-43 -59 -62.5 -138t-19.5 -176q0 -78 14 -156.5t53 -141t105.5 -101.5t169.5 -39q78 0 140 26.5t110 82.5l-3 -2l-546 -777h231l498 707q-39 -59 -55.5 -133t-16.5 -164q0 -96 19.5 -176t60.5 -139q47 -63 112.5 -93t149.5 -30t149.5 29.5 t112.5 93.5q41 59 60.5 139t19.5 176zM987 1294l-385 -544q68 113 68 292q0 59 -9.5 125t-37.5 127h364zM1157 344q0 -72 -10 -121t-29 -80q-29 -49 -88 -49t-88 49q-16 31 -27.5 79t-11.5 120q0 133 39 201q31 51 86 51q59 0 90 -51q16 -31 27.5 -79t11.5 -120zM457 1042 q0 -72 -11.5 -120t-27.5 -78q-29 -51 -88 -51q-61 0 -88 49q-18 33 -28.5 81t-10.5 117q0 70 10 118t29 81q29 51 86 51q59 0 90 -51q18 -31 28.5 -79t10.5 -118z" />
<glyph unicode="&#x2039;" horiz-adv-x="520" d="M578 -66l-353 555l353 555h-269l-354 -555l354 -555h269z" />
<glyph unicode="&#x203a;" horiz-adv-x="520" d="M514 489l-354 555h-269l353 -555l-353 -555h269z" />
<glyph unicode="&#x205f;" horiz-adv-x="495" />
<glyph unicode="&#x2122;" horiz-adv-x="2131" d="M1751 508v948h-266l-164 -508l-156 508h-231h-39h-729v-219h274v-729h222v729h233v-729h225v373l115 -373h166l129 393v-393h221z" />
<glyph unicode="&#xe000;" horiz-adv-x="1035" d="M0 1035h1035v-1035h-1035v1035z" />
<glyph unicode="&#xe001;" horiz-adv-x="1366" d="M1251 342v156h-551l125 315h426v156h-366l96 250h-160l-96 -250h-612v-156h553l-125 -315h-428v-156h368l-96 -250h160l96 250h610z" />
<glyph unicode="&#xe002;" horiz-adv-x="1460" d="M1444 541q0 139 -103 229q-100 90 -221 90q-94 0 -180 -43q-76 -37 -209 -160q-133 123 -209 160q-86 43 -180 43q-121 0 -221 -90q-102 -90 -103 -229q0 -139 103 -230q100 -90 221 -90q72 0 166 39q84 39 223 164q139 -125 223 -164q94 -39 166 -39q121 0 221 90 q103 91 103 230zM1274 541q0 -70 -41 -111q-39 -39 -113 -39q-80 0 -147 49q-31 23 -60.5 47.5t-58.5 53.5q29 29 58.5 53l60.5 47q68 49 147 49q70 0 111 -47q43 -49 43 -102zM608 541q-29 -29 -58.5 -53.5t-60.5 -47.5q-68 -49 -147 -49q-74 0 -113 39q-41 41 -41 111 q0 53 43 102q41 47 111 47q80 0 147 -49l60.5 -47t58.5 -53z" />
<glyph unicode="&#xe003;" horiz-adv-x="1366" d="M1251 190v175l-895 372l895 373v174l-1138 -483v-127zM1251 -33v137h-1138v-137h1138z" />
<glyph unicode="&#xe004;" horiz-adv-x="1366" d="M1253 674v127l-1138 483v-174l893 -373l-893 -372v-175zM1253 -33v137h-1138v-137h1138z" />
<glyph unicode="&#xe005;" horiz-adv-x="1011" d="M979 805q0 332 -166 547q-172 215 -412 215q-88 0 -161 -23q-35 -10 -70 -24.5t-88 -38.5l121 -156q45 23 73.5 35t55.5 22q49 18 114 19q145 0 226 -129q84 -137 84 -361q0 -25 -1 -50t-3 -54q-2 -16 -4.5 -30.5t-4.5 -31.5q-33 25 -61.5 44.5t-56.5 31.5 q-76 35 -166 35q-180 0 -312 -147q-127 -145 -127 -349q0 -209 138 -325q135 -111 282 -111q139 0 240.5 75t167.5 216q131 275 131 590zM715 604q-37 -295 -113 -424q-39 -68 -85 -98.5t-103 -30.5q-78 0 -113 66q-18 39 -28.5 85t-10.5 101q0 188 88 301q43 55 88 81 t90 26q70 0 115 -33q45 -35 72 -74z" />
<glyph unicode="&#xe006;" horiz-adv-x="1460" d="M1464 270h-110q-35 -90 -60.5 -135t-48.5 -61q-18 -16 -54 -25.5t-91 -9.5h-688l573 659l-536 703h473q92 0 141 -13.5t65 -35.5q23 -27 42.5 -70t39.5 -115h101l-17 392h-1046l-285 18l737 -965l-747 -854l197 11h1028q39 0 71 -9l46 -8l69 -12q10 86 19.5 144.5 t19.5 109.5q10 53 24 116z" />
<glyph unicode="&#xe007;" horiz-adv-x="1685" d="M1677 -420v113q-86 0 -121.5 9t-48 21.5t-20.5 37t-8 65.5v1282q0 51 11 83t28 48q18 18 52 28.5t101 10.5v113h-1648v-113q68 0 101.5 -10.5t51.5 -28.5q18 -16 29.5 -48t11.5 -83v-1282q0 -41 -8 -65.5t-21 -36.5q-10 -12 -47 -21.5t-123 -9.5v-113h695v111 q-86 4 -122 13t-48.5 21.5t-20.5 36t-8 64.5v1386h668v-1386q0 -41 -8.5 -65.5t-20.5 -37t-47 -21.5t-121 -9v-113h692z" />
<glyph unicode="&#xe008;" horiz-adv-x="1124" d="M1118 342h-110q0 -57 -7.5 -83t-21.5 -40q-25 -31 -59 -31q-12 0 -29 7.5t-37 27.5q-16 14 -25.5 42t-9.5 75q0 76 6 227l7.5 120t7.5 101h262v242h-797q-131 0 -207 -104q-35 -47 -63.5 -107.5t-59.5 -159.5h99q29 47 48 72t36 35q35 23 75 22h60l-55 -432 q-6 -47 -33 -85t-60 -72q-14 -12 -23 -25.5t-18 -28.5q-20 -33 -20 -73q0 -57 43 -101q39 -43 100 -43q78 0 117 58q33 49 49 110l90 692h166q-10 -80 -16 -145t-10 -117l-7.5 -112.5t-3.5 -102.5q0 -86 15.5 -154.5t48.5 -117.5q31 -49 71.5 -77t94.5 -28q113 0 194 105 q41 53 60.5 123.5t21.5 179.5z" />
<glyph unicode="&#xe009;" horiz-adv-x="622" d="M662 1485q0 43 -18.5 80t-55.5 59q-59 41 -127 41q-55 0 -96 -21.5t-71 -60.5t-48.5 -90t-28.5 -109q-37 -231 -37 -671q0 -518 6 -647q6 -127 7 -191q0 -84 -7 -127q-18 16 -40.5 25.5t-51.5 9.5q-31 0 -57.5 -12.5t-48.5 -32.5q-49 -45 -49 -111q0 -88 65 -141 q29 -23 58.5 -35t64.5 -12q119 0 184.5 84t94.5 215q29 129 41 328.5t12 474.5q0 145 -6.5 279t-16.5 261q-16 182 -18 267q31 -18 74 -19q35 0 67.5 11.5t56.5 37.5q20 23 33 48.5t13 58.5z" />
<glyph unicode="&#xe00a;" horiz-adv-x="1744" d="M1573 -66v463h-148q-18 -76 -26 -97t-13 -24q-2 -4 -45 -4h-116q53 31 98 71t80 91q129 172 129 383q0 311 -227 488q-219 170 -517 170q-297 0 -518 -172q-225 -176 -225 -486q0 -236 135 -401q72 -88 172 -144h-116q-43 0 -46 4q-2 2 -11 22.5t-27 98.5h-148v-463h744 l-46 428q-82 23 -130 58t-83 88q-35 51 -54 128t-19 187q0 123 27.5 208t74.5 138q98 109 270 109q170 0 271 -111q49 -55 75.5 -139t26.5 -205q0 -109 -20.5 -185.5t-55.5 -127.5q-39 -55 -86 -90t-125 -60l-45 -426h744z" />
<glyph unicode="&#xe00b;" horiz-adv-x="1247" d="M1130 1604l-202 28l-238 -1493l-340 699l-418 -205l91 -187l196 97l561 -1157z" />
<glyph unicode="&#xe00c;" horiz-adv-x="1515" d="M1229 999l-205 68q-35 -53 -55.5 -72.5t-38.5 -29.5q-41 -20 -84 -21q-10 0 -56.5 11.5t-136.5 39.5q-86 27 -150.5 41.5t-107.5 14.5q-100 0 -184 -45q-45 -23 -91 -68t-120 -143l209 -84q47 63 70.5 86.5t37.5 33.5q29 16 72 17q16 0 64.5 -12.5t140.5 -40.5 q88 -29 152.5 -44.5t105.5 -15.5q96 0 188 49q49 27 92.5 73t96.5 142zM1229 528l-205 68q-35 -53 -55.5 -72.5t-38.5 -29.5q-41 -20 -84 -21q-10 0 -56.5 11.5t-136.5 39.5q-86 27 -150.5 41.5t-107.5 14.5q-100 0 -184 -45q-45 -23 -91 -68t-120 -143l209 -84 q47 63 70.5 86.5t37.5 33.5q29 16 72 17q16 0 64.5 -12.5t140.5 -40.5q88 -29 152.5 -44.5t105.5 -15.5q96 0 188 49q49 27 92.5 73t96.5 142z" />
<glyph unicode="&#xe00d;" horiz-adv-x="1390" d="M1343 -66l-671 1639l-762 -1639h1433zM893 166h-643l340 731z" />
<glyph unicode="&#xe00e;" horiz-adv-x="1122" d="M1028 772l-432 819h-201l-432 -819l430 -838h205zM758 772l-262 -516l-263 516l263 502z" />
<glyph unicode="&#xe00f;" horiz-adv-x="1206" d="M1155 985v471h-1010v-158v-841h-127v-224h127v-75h-180v-224h426v158v141h127v224h-127v147l512 2v221h-512v406h541v-248h223z" />
<glyph unicode="&#xe010;" horiz-adv-x="1800" d="M1188 1851h-217q-29 -59 -48.5 -83.5t-35.5 -36.5q-41 -25 -84 -25q-45 0 -84 25q-16 12 -36.5 36.5t-49.5 83.5h-219q23 -63 43 -109t39.5 -80t41 -58.5t46.5 -44.5q102 -80 219 -80q115 0 217 80q25 20 46 44.5t41.5 58.5t40.5 80t40 109zM1577 692h-823v-223h559 q-37 -133 -148 -217q-72 -53 -155.5 -80t-182.5 -27q-244 0 -393 154q-76 78 -113.5 175t-37.5 222q0 246 145 398q143 154 373 153q158 0 295 -88q66 -41 111.5 -107.5t80.5 -181.5h207v484h-223v-39q-31 25 -66 46t-71 40q-162 78 -336 78q-328 0 -545 -223.5t-217 -559.5 q0 -342 221 -563q221 -219 567 -219q326 0 537 192q109 100 161 238.5t54 347.5z" />
<glyph unicode="&#xe011;" horiz-adv-x="1349" d="M952 1436h-217q-29 -59 -48 -84t-36 -37q-41 -25 -84 -25q-45 0 -84 25q-16 12 -36.5 36.5t-49.5 84.5h-219q23 -63 43.5 -109.5t40 -80.5t41 -58.5t45.5 -44.5q102 -80 219 -80q115 0 217 80q25 20 46.5 44.5t42 58.5t40 80.5t39.5 109.5zM1296 811v223h-415v-94 q-45 43 -93 66q-109 55 -227 55q-227 0 -389 -172q-158 -174 -158 -414q0 -238 156 -395q156 -160 389 -160q125 0 244 60q23 10 41 22t37 27v-62q0 -68 -20.5 -114t-59.5 -78q-84 -72 -230 -72q-23 0 -55.5 5t-66.5 12l-68 15q-33 7 -57 13l-56 -217l34 -8l81 -20 q47 -11 96 -19t82 -8q242 0 397 135q160 137 160 366v834h178zM881 483q0 -152 -93 -245q-88 -96 -223 -97q-137 0 -223 95q-88 94 -88 247q0 152 92 254q88 100 219 101q127 0 221 -103q95 -100 95 -252z" />
<glyph unicode="&#xe012;" horiz-adv-x="638" d="M408 1511v263h-246v-263h246zM586 -66v224h-176v1140v158h-246v-158v-1140h-174v-224h596z" />
<glyph unicode="&#xe013;" horiz-adv-x="1232" d="M1085 365q0 195 -122 309q-59 57 -165 101t-247 79q-150 37 -225 90q-61 39 -62 125q0 72 60 123q63 55 168 55q76 0 128 -9t93 -40q18 -14 30.5 -34.5t19.5 -43t11 -44t4 -34.5v-92h242l-1 31q-1 31 -6 74t-12.5 87t-19.5 70q-16 35 -32.5 57.5t-43.5 51.5 q-43 47 -85 71.5t-93 47.5q-57 25 -115.5 32t-113.5 7q-193 0 -330 -113q-141 -119 -141 -293q0 -184 120 -297q59 -53 146.5 -91t200.5 -67q111 -27 179 -54t105 -54q61 -49 62 -133q0 -98 -72 -164q-74 -68 -193 -68q-137 0 -233 88q-94 86 -94 195v115h-225v-609h225v84 q45 -35 99 -57t110 -35l-31 -155q43 0 68.5 -1t39 -3.5t18.5 -4.5t9 -4q6 -6 6 -14q0 -18 -18 -29q-31 -16 -74 -20q-25 -2 -54.5 0t-92.5 4v-199h94q78 0 144.5 13.5t119.5 42.5q115 68 115 202q0 51 -19.5 95.5t-60.5 76.5q121 31 213 111q151 129 151 324z" />
<glyph unicode="&#xe014;" horiz-adv-x="1017" d="M903 260q0 68 -20.5 126t-65.5 103.5t-127 74t-190 48.5q-78 12 -121 26.5t-62 25.5q-10 8 -17 21t-7 42q0 45 35 80q16 16 42.5 25.5t67.5 9.5q47 0 81 -13.5t63 -37.5q27 -23 41 -63t18 -130h219v408h-213q-47 29 -100 42t-111 13q-152 0 -258 -88q-113 -94 -112 -250 q0 -74 24.5 -135.5t81.5 -102.5q47 -35 117.5 -59.5t161.5 -40.5q82 -14 129 -28.5t67 -30.5q14 -10 22.5 -26.5t8.5 -49.5q0 -25 -11.5 -46.5t-39.5 -43.5q-59 -43 -146 -43q-115 0 -178 59q-29 27 -46 73t-19 152h-226v-467h226v31q29 -18 60.5 -30.5t63.5 -18.5l-28 -145 q43 0 68.5 -1t39 -3.5t18.5 -4.5t9 -4q6 -6 6 -14q0 -18 -18 -29q-31 -16 -74 -20q-25 -2 -54.5 0t-92.5 4v-199h94q78 0 144.5 13.5t119.5 42.5q115 68 115 202q0 102 -72 166q84 27 141 72q125 100 125 264z" />
<glyph unicode="&#xe015;" horiz-adv-x="1705" d="M1126 1978h-284l-291 -448h231zM1554 481l-211 123q-59 -166 -113 -248t-114 -123q-123 -88 -293 -88q-227 0 -370 154q-145 156 -146 397q0 244 144 400q141 152 364 151q158 0 293 -86q61 -41 101 -103.5t63 -176.5h215v452h-225v-8q-35 29 -71 50.5t-75 37.5 q-150 66 -297 66q-336 0 -547 -219q-106 -111 -158.5 -252.5t-52.5 -311.5q0 -172 51.5 -313t159.5 -252q211 -217 549 -217q236 0 424 121q96 63 169.5 168.5t139.5 277.5z" />
<glyph unicode="&#xe016;" horiz-adv-x="1159" d="M850 1563h-285l-291 -449h232zM1067 297l-205 88q-39 -90 -68.5 -132t-62.5 -69q-33 -25 -73 -38t-93 -13q-139 0 -221 92q-41 47 -63.5 109.5t-22.5 148.5q0 162 84 258q80 92 209 93q96 0 170 -60q31 -23 51.5 -73t24.5 -166h217v438h-189q-59 47 -128.5 67.5 t-145.5 20.5q-229 0 -383 -170q-150 -164 -150 -408q0 -250 152 -413.5t393 -163.5q164 0 291 88q66 45 116 112.5t97 190.5z" />
<glyph unicode="&#xe017;" horiz-adv-x="1705" d="M1264 1948h-236l-207 -189l-203 189h-235l348 -428h180zM1554 481l-211 123q-59 -166 -113 -248t-114 -123q-123 -88 -293 -88q-227 0 -370 154q-145 156 -146 397q0 244 144 400q141 152 364 151q158 0 293 -86q61 -41 101 -103.5t63 -176.5h215v452h-225v-8 q-35 29 -71 50.5t-75 37.5q-150 66 -297 66q-336 0 -547 -219q-106 -111 -158.5 -252.5t-52.5 -311.5q0 -172 51.5 -313t159.5 -252q211 -217 549 -217q236 0 424 121q96 63 169.5 168.5t139.5 277.5z" />
<glyph unicode="&#xe018;" horiz-adv-x="1159" d="M987 1532h-235l-207 -189l-203 189h-236l349 -428h180zM1067 297l-205 88q-39 -90 -68.5 -132t-62.5 -69q-33 -25 -73 -38t-93 -13q-139 0 -221 92q-41 47 -63.5 109.5t-22.5 148.5q0 162 84 258q80 92 209 93q96 0 170 -60q31 -23 51.5 -73t24.5 -166h217v438h-189 q-59 47 -128.5 67.5t-145.5 20.5q-229 0 -383 -170q-150 -164 -150 -408q0 -250 152 -413.5t393 -163.5q164 0 291 88q66 45 116 112.5t97 190.5z" />
<glyph unicode="&#xe019;" horiz-adv-x="1349" d="M1276 -66v224h-176v864h119v217h-119v217h-236l-2 -217h-293v-178h-22q-233 0 -387 -166q-152 -164 -152 -412q0 -240 155.5 -401.5t389.5 -161.5q121 0 231 53q20 10 40 22.5t38 29.5v-91h414zM862 950q-53 43 -121 72h121v-72zM864 489q0 -156 -88 -253 q-86 -96 -223 -97q-129 0 -221 98.5t-92 245.5q0 156 90 258q92 100 219 101q129 0 221 -101q94 -100 94 -252z" />
<glyph unicode="&#xe01a;" horiz-adv-x="1515" d="M1249 291l-137 137q80 125 80 270q0 92 -31 172q-10 25 -22.5 49.5t-28.5 49.5l139 137l-157 158l-138 -138q-63 41 -128.5 60.5t-141.5 19.5q-92 0 -172 -30q-49 -23 -98 -50l-135 140l-158 -160l137 -135q-41 -61 -61.5 -128t-20.5 -145q0 -92 31 -172q10 -25 22.5 -49 t28.5 -49l-137 -137l155 -160l138 139q125 -80 270 -80q92 0 172 31q25 10 49.5 22.5t48.5 28.5l138 -139zM965 698q0 -117 -82 -198.5t-199 -81.5t-199 82t-82 198q0 117 82 199t199 82t199 -82t82 -199z" />
<glyph unicode="&#xe01b;" horiz-adv-x="1490" d="M1067 1579v190h-788v-190h788zM1458 -66v224h-190l-379 1075h147v223h-506l-45 -137l-403 -1161h-195v-224h422v154l129 375h467l109 -305h-148v-224h592zM829 686h-313l158 459z" />
<glyph unicode="&#xe01c;" horiz-adv-x="1159" d="M918 1163v191h-789v-191h789zM1090 -66v224h-162v563q0 82 -29 147.5t-90 112.5q-59 41 -136 60.5t-171 19.5q-43 0 -100.5 -14.5t-108.5 -32t-87 -31.5l-36 -14l74 -183l54 20l67.5 22.5t70.5 18.5t62 7q53 0 90 -9t61 -26q18 -12 29.5 -34.5t11.5 -63.5v-127 q-18 8 -36.5 13t-35.5 9q-80 20 -151 21q-92 0 -169 -23.5t-136 -76.5q-123 -104 -123 -265q0 -147 104 -247q104 -104 263 -105q76 0 148.5 24.5t135.5 63.5v-74h400zM690 254q-49 -49 -115 -82q-78 -39 -145 -39q-41 0 -67.5 10.5t-45.5 28.5q-39 41 -38 92q0 68 51 113 q23 23 60.5 36t94.5 13q66 0 121 -20q41 -14 84 -37v-115z" />
<glyph unicode="&#xe01d;" horiz-adv-x="1490" d="M1059 1851h-217q-29 -59 -48.5 -83.5t-35.5 -36.5q-41 -25 -84 -25q-45 0 -84 25q-16 12 -37 36.5t-49 83.5h-219q23 -63 43 -109t39.5 -80t41 -58.5t46.5 -44.5q102 -80 219 -80q115 0 217 80q25 20 46 44.5t41.5 58.5t40.5 80t40 109zM1458 -66v224h-190l-379 1075h147 v223h-506l-45 -137l-403 -1161h-195v-224h422v154l129 375h467l109 -305h-148v-224h592zM829 686h-313l158 459z" />
<glyph unicode="&#xe01e;" horiz-adv-x="1159" d="M909 1436h-217q-29 -59 -48 -84t-36 -37q-41 -25 -84 -25q-45 0 -84 25q-16 12 -36.5 36.5t-49.5 84.5h-219q23 -63 43.5 -109.5t40 -80.5t41 -58.5t45.5 -44.5q102 -80 219 -80q115 0 217 80q25 20 46.5 44.5t42 58.5t40 80.5t39.5 109.5zM1090 -66v224h-162v563 q0 82 -29 147.5t-90 112.5q-59 41 -136 60.5t-171 19.5q-43 0 -100.5 -14.5t-108.5 -32t-87 -31.5l-36 -14l74 -183l54 20l67.5 22.5t70.5 18.5t62 7q53 0 90 -9t61 -26q18 -12 29.5 -34.5t11.5 -63.5v-127q-18 8 -36.5 13t-35.5 9q-80 20 -151 21q-92 0 -169 -23.5 t-136 -76.5q-123 -104 -123 -265q0 -147 104 -247q104 -104 263 -105q76 0 148.5 24.5t135.5 63.5v-74h400zM690 254q-49 -49 -115 -82q-78 -39 -145 -39q-41 0 -67.5 10.5t-45.5 28.5q-39 41 -38 92q0 68 51 113q23 23 60.5 36t94.5 13q66 0 121 -20q41 -14 84 -37v-115z " />
<glyph unicode="&#xe01f;" horiz-adv-x="1490" d="M1485 -356v217q-43 -16 -71 -25.5t-43 -15.5t-22.5 -8t-13.5 -2q-10 -2 -21 -3.5t-26 -1.5q-27 0 -47 17q-4 4 -8 10t-4 23q0 25 14 47q14 25 23 32h192v224h-190l-379 1075h147v223h-506l-45 -137l-403 -1161h-195v-224h422v154l129 375h467l109 -305h-148v-224h156 q-23 -49 -23 -98q0 -119 93 -192q84 -66 198 -66q53 0 94.5 15.5t100.5 50.5zM829 686h-313l158 459z" />
<glyph unicode="&#xe020;" horiz-adv-x="1159" d="M1178 -356v217q-43 -16 -71 -25.5t-43 -15.5t-22.5 -8t-13.5 -2q-10 -2 -21.5 -3.5t-25.5 -1.5q-27 0 -47 17q-4 4 -8 10t-4 23q0 25 14 47q14 25 22 32h132v224h-162v563q0 82 -29 147.5t-90 112.5q-59 41 -136 60.5t-171 19.5q-43 0 -100.5 -14.5t-108.5 -32t-87 -31.5 l-36 -14l74 -183l54 20l67.5 22.5t70.5 18.5t62 7q53 0 90 -9t61 -26q18 -12 29.5 -34.5t11.5 -63.5v-127q-18 8 -36.5 13t-35.5 9q-80 20 -151 21q-92 0 -169 -23.5t-136 -76.5q-123 -104 -123 -265q0 -147 104 -247q104 -104 263 -105q76 0 148.5 24.5t135.5 63.5v-74h25 q-23 -49 -23 -98q0 -119 92 -192q84 -66 199 -66q53 0 94.5 15.5t100.5 50.5zM690 254q-49 -49 -115 -82q-78 -39 -145 -39q-41 0 -67.5 10.5t-45.5 28.5q-39 41 -38 92q0 68 51 113q23 23 60.5 36t94.5 13q66 0 121 -20q41 -14 84 -37v-115z" />
<glyph unicode="&#xe021;" horiz-adv-x="1609" d="M1100 1927h-236l-207 -188l-202 188h-236l348 -428h181zM1419 694q0 336 -200 549q-104 111 -256 162t-351 51h-661v-223h192v-1141v-158h467q215 0 374 55.5t257 178.5q178 227 178 526zM1174 694q0 -141 -35 -239.5t-100.5 -164t-167 -99t-244.5 -33.5h-238v1075h234 q139 0 239.5 -36t170 -103.5t105.5 -166t36 -233.5z" />
<glyph unicode="&#xe022;" horiz-adv-x="1531" d="M1276 -66v224h-176v714q98 6 144 29t75 68q23 41 33 92t10 110v285h-246v-321h49q-4 -47 -8 -58q-2 -4 -9 0t-48 4v375h-238v-158v-348q-37 31 -82 54q-109 57 -233 57q-233 0 -387 -166q-152 -164 -152 -412q0 -240 155.5 -401.5t389.5 -161.5q121 0 231 53 q20 10 40 22.5t38 29.5v-91h414zM864 489q0 -156 -88 -253q-86 -96 -223 -97q-129 0 -221 98.5t-92 245.5q0 156 90 258q92 100 219 101q129 0 221 -101q94 -100 94 -252z" />
<glyph unicode="&#xe023;" horiz-adv-x="1609" d="M1419 694q0 336 -200 549q-104 111 -256 162t-351 51h-661v-221l192 4v-430h-190v-223h190v-494v-158h467q215 0 374 55.5t257 178.5q178 227 178 526zM1174 694q0 -141 -35 -239.5t-100.5 -164t-167 -99t-244.5 -33.5h-238v428h428v223h-428v424h234q139 0 239.5 -36 t170 -103.5t105.5 -166t36 -233.5z" />
<glyph unicode="&#xe024;" horiz-adv-x="1372" d="M1014 1579v190h-789v-190h789zM1210 -66v224h-159h-662v442h578v223h-578v410h596v-246h223v469h-1243v-223h178v-1141v-158h1067z" />
<glyph unicode="&#xe025;" d="M961 1163v191h-789v-191h789zM1130 395q-10 184 -50 302t-115 202q-150 162 -390 162q-242 0 -401 -164q-158 -164 -158 -414q0 -246 160 -411q162 -166 406 -166q43 0 104.5 15.5t118.5 32.5t98 33l41 15l-61 207l-63 -25l-78 -28q-40 -14 -78.5 -23.5t-65.5 -9.5 q-150 0 -248 100q-70 76 -90 172h870zM866 618h-594q23 70 70 123q88 98 225 99q133 0 213 -80q59 -60 86 -142z" />
<glyph unicode="&#xe026;" horiz-adv-x="1372" d="M752 1538v262h-263v-262h263zM1210 -66v224h-159h-662v442h578v223h-578v410h596v-246h223v469h-1243v-223h178v-1141v-158h1067z" />
<glyph unicode="&#xe027;" d="M698 1122v262h-262v-262h262zM1130 395q-10 184 -50 302t-115 202q-150 162 -390 162q-242 0 -401 -164q-158 -164 -158 -414q0 -246 160 -411q162 -166 406 -166q43 0 104.5 15.5t118.5 32.5t98 33l41 15l-61 207l-63 -25l-78 -28q-40 -14 -78.5 -23.5t-65.5 -9.5 q-150 0 -248 100q-70 76 -90 172h870zM866 618h-594q23 70 70 123q88 98 225 99q133 0 213 -80q59 -60 86 -142z" />
<glyph unicode="&#xe028;" horiz-adv-x="1372" d="M1210 -66v224h-159h-662v442h578v223h-578v410h596v-246h223v469h-1243v-223h178v-1141v-158h551q-23 -49 -22 -98q0 -119 92 -192q84 -66 199 -66q53 0 94 15.5t100 50.5v217l-70.5 -25.5t-43 -15.5t-22.5 -8t-13 -2q-10 -2 -21.5 -3.5t-25.5 -1.5q-27 0 -48 17 q-4 4 -8 10t-4 23q0 25 14 47q14 25 23 32h272z" />
<glyph unicode="&#xe029;" d="M1130 395q-10 184 -50 302t-115 202q-150 162 -390 162q-242 0 -401 -164q-158 -164 -158 -414q0 -246 160 -411q98 -102 230 -142q-20 -41 -21 -94q0 -119 92 -192q84 -66 199 -66q53 0 94 15.5t100 50.5v217l-70.5 -25.5t-43 -15.5t-22.5 -8t-13 -2q-10 -2 -21.5 -3.5 t-25.5 -1.5q-27 0 -47 17q-4 4 -8.5 10t-4.5 23q0 27 19 55q43 6 96 21.5l101.5 30.5t80.5 28l33 12l-61 207l-63 -25l-78 -28q-40 -14 -78.5 -23.5t-65.5 -9.5q-150 0 -248 100q-70 76 -90 172h870zM866 618h-594q23 70 70 123q88 98 225 99q133 0 213 -80q59 -60 86 -142z " />
<glyph unicode="&#xe02a;" horiz-adv-x="1372" d="M1061 1927h-236l-207 -188l-202 188h-236l348 -428h181zM1210 -66v224h-159h-662v442h578v223h-578v410h596v-246h223v469h-1243v-223h178v-1141v-158h1067z" />
<glyph unicode="&#xe02b;" d="M1008 1532h-236l-207 -189l-203 189h-235l348 -428h180zM1130 395q-10 184 -50 302t-115 202q-150 162 -390 162q-242 0 -401 -164q-158 -164 -158 -414q0 -246 160 -411q162 -166 406 -166q43 0 104.5 15.5t118.5 32.5t98 33l41 15l-61 207l-63 -25l-78 -28 q-40 -14 -78.5 -23.5t-65.5 -9.5q-150 0 -248 100q-70 76 -90 172h870zM866 618h-594q23 70 70 123q88 98 225 99q133 0 213 -80q59 -60 86 -142z" />
<glyph unicode="&#xe02c;" horiz-adv-x="1800" d="M1577 692h-823v-223h559q-37 -133 -148 -217q-72 -53 -155.5 -80t-182.5 -27q-244 0 -393 154q-76 78 -113.5 175t-37.5 222q0 246 145 398q143 154 373 153q158 0 295 -88q66 -41 111.5 -107.5t80.5 -181.5h207v484h-223v-39q-31 25 -66 46t-71 40q-162 78 -336 78 q-328 0 -545 -223.5t-217 -559.5q0 -342 221 -563q188 -182 453 -213l-29 -149q43 0 68.5 -1t39 -3.5t18.5 -4.5t9 -4q6 -6 6 -14q0 -18 -18 -29q-31 -16 -74 -20q-25 -2 -54.5 0t-92.5 4v-199h94q78 0 144.5 13.5t119.5 42.5q115 68 115 202q0 49 -17.5 92.5t-56.5 75.5 q223 37 379 180q109 100 161 238.5t54 347.5z" />
<glyph unicode="&#xe02d;" horiz-adv-x="1349" d="M870 1522h-284l-291 -449h231zM1296 811v223h-415v-94q-45 43 -93 66q-109 55 -227 55q-227 0 -389 -172q-158 -174 -158 -414q0 -238 156 -395q156 -160 389 -160q125 0 244 60q23 10 41 22t37 27v-62q0 -68 -20.5 -114t-59.5 -78q-84 -72 -230 -72q-23 0 -55.5 5 t-66.5 12l-68 15q-33 7 -57 13l-56 -217l34 -8l81 -20q47 -11 96 -19t82 -8q242 0 397 135q160 137 160 366v834h178zM881 483q0 -152 -93 -245q-88 -96 -223 -97q-137 0 -223 95q-88 94 -88 247q0 152 92 254q88 100 219 101q127 0 221 -103q95 -100 95 -252z" />
<glyph unicode="&#xe02e;" horiz-adv-x="638" d="M682 1579v190h-788v-190h788zM586 -66v224h-176v1140v158h-246v-158v-1140h-174v-224h596z" />
<glyph unicode="&#xe02f;" horiz-adv-x="569" d="M651 1163v191h-788v-191h788zM559 -66v224h-166v876h-407v-223h170v-653h-170v-224h573z" />
<glyph unicode="&#xe030;" horiz-adv-x="638" d="M408 1491v262h-246v-262h246zM586 -66v224h-176v1140v158h-246v-158v-1140h-174v-224h131q-23 -49 -23 -98q0 -119 92 -192q84 -66 199 -66q53 0 94 15.5t101 50.5v217q-43 -16 -71 -25.5t-43 -15.5t-22.5 -8t-13.5 -2q-10 -2 -21.5 -3.5t-25.5 -1.5q-27 0 -47 17 q-4 4 -8 10t-4 23q0 25 14 47q14 25 23 32h221z" />
<glyph unicode="&#xe031;" horiz-adv-x="569" d="M391 1331q0 57 -43 105q-47 43 -104 43t-105 -43q-43 -43 -43 -107q0 -57 43 -104q47 -43 105 -43q57 0 104 43q43 43 43 106zM563 -356v217l-70.5 -25.5t-43 -15.5t-22.5 -8t-13 -2q-10 -2 -21.5 -3.5t-25.5 -1.5q-27 0 -48 17q-4 4 -8 10t-4 23q0 25 15 47q14 25 22 32 h213v224h-166v876h-407v-223h170v-784l2 -13q-10 -10 -19 -21l-18 -26q-41 -59 -41 -131q0 -119 92 -192q84 -66 199 -66q53 0 94 15.5t100 50.5z" />
<glyph unicode="&#xe032;" horiz-adv-x="1325" d="M1294 -66v224h-186l-530 581l499 494h189v223h-283l-113 -110l-479 -474v361h191v223h-621v-223h184v-1141v-158h29l-27 -139q43 0 69 -1t39 -3t18.5 -4t7.5 -4q8 -6 8 -14q0 -18 -19 -29q-35 -18 -75 -19q-23 -2 -53.5 -1t-92.5 6v-201h94q78 0 144.5 13t120.5 44 q115 66 114 201q0 90 -55 151h117v224h-193v420l477 -529l99 -115h327z" />
<glyph unicode="&#xe033;" horiz-adv-x="1183" d="M1159 -66v224h-188l-420 350l442 303h150v223h-217l-54 -37l-135 -93l-178 -123l-182 -124v799h-416v-223h178v-1206l4 -93h33l-26 -145q84 0 106.5 -5t26.5 -7q6 -4 6 -15q0 -18 -17 -28q-33 -16 -75 -21q-23 -2 -53.5 0t-94.5 4v-198h94q80 0 146.5 13t118.5 42 q115 66 114 203q0 45 -14 85t-45 70l-2 2h94v224h-178v198l483 -422h299z" />
<glyph unicode="&#xe034;" horiz-adv-x="1159" d="M737 1937h-284l-291 -448h231zM1085 -66v582h-241v-358h-443l2 1298h-436v-223h189v-1075h-189v-224h1118z" />
<glyph unicode="&#xe035;" horiz-adv-x="544" d="M655 1933h-284l-291 -448h231zM539 -66v224h-174v1298h-414v-223h176v-1141v-158h412z" />
<glyph unicode="&#xe036;" horiz-adv-x="1159" d="M1085 -66v582h-241v-358h-443l2 1298h-436v-223h189v-1075h-189v-224h451l-29 -145q43 0 68.5 -1t40 -3t19.5 -4t7 -4q6 -6 6 -15q0 -18 -18 -28q-31 -16 -74 -21q-25 -2 -54.5 0t-92.5 4v-198h94q78 0 144.5 13t119.5 42q115 66 115 203q0 45 -14.5 85t-47.5 70v2h383z " />
<glyph unicode="&#xe037;" horiz-adv-x="544" d="M539 -66v224h-174v1298h-414v-223h176v-1141v-158h29l-29 -145q43 0 68.5 -1t39 -3t18.5 -4t9 -4q6 -6 6 -15q0 -18 -18 -28q-35 -18 -74 -19q-25 -2 -54.5 -1t-92.5 5v-200h94q78 0 144.5 13t119.5 44q115 66 115 201q0 45 -14.5 85t-47.5 72h99z" />
<glyph unicode="&#xe038;" horiz-adv-x="1159" d="M932 1171v285h-246v-321h49q-4 -47 -8 -58q0 -2 -2 -8t-8 -12t-17.5 -11.5t-31.5 -5.5v-168q98 6 145 29t76 68q23 41 33 92t10 110zM1085 -66v582h-241v-358h-443l2 1298h-436v-223h189v-1075h-189v-224h1118z" />
<glyph unicode="&#xe039;" horiz-adv-x="727" d="M635 1171v285h-246v-321h49q-4 -47 -8 -58q0 -2 -2 -11t-8 -19.5t-17.5 -18.5t-31.5 -8v-148q98 6 145 29t76 68q23 41 33 92t10 110zM539 -66v224h-174v1298h-414v-223h176v-1141v-158h412z" />
<glyph unicode="&#xe03a;" horiz-adv-x="1159" d="M801 610v262h-262v-262h262zM1085 -66v582h-241v-358h-443l2 1298h-436v-223h189v-1075h-189v-224h1118z" />
<glyph unicode="&#xe03b;" horiz-adv-x="727" d="M647 610v262h-262v-262h262zM539 -66v224h-174v1298h-414v-223h176v-1141v-158h412z" />
<glyph unicode="&#xe03c;" horiz-adv-x="1609" d="M1030 1896h-285l-290 -448h231zM1495 1233v223h-408v-158v-921l-282 430l-203 308l-217 341h-430v-223h186v-1141v-158h424v224h-196v886l737 -1128h209v1317h180z" />
<glyph unicode="&#xe03d;" horiz-adv-x="1206" d="M848 1522h-285l-291 -449h232zM1147 -66v224h-154v583q0 143 -90 232q-47 47 -105.5 67.5t-127.5 20.5q-84 0 -160 -25.5t-145 -66.5v65h-414v-223h176v-719v-158h395v224h-157v544q29 25 62.5 47.5t72.5 41.5q45 23 83 33t72 10q53 0 77 -25t24 -80v-637v-158h391z" />
<glyph unicode="&#xe03e;" horiz-adv-x="1609" d="M1495 1233v223h-408v-158v-921l-282 430l-203 308l-217 341h-430v-223h186v-1141v-158h39l-26 -141q84 0 106.5 -5t26.5 -7q6 -4 6 -14q0 -18 -17 -29q-33 -16 -75 -21q-23 -2 -53.5 0t-94.5 4v-198h94q80 0 146.5 13t118.5 42q115 68 114 203q0 45 -13 83t-44 70h96v224 h-196v886l737 -1128h209v1317h180z" />
<glyph unicode="&#xe03f;" horiz-adv-x="1206" d="M1147 -66v224h-154v583q0 143 -90 232q-47 47 -105.5 67.5t-127.5 20.5q-84 0 -160 -25.5t-145 -66.5v65h-414v-223h176v-719v-158h45l-27 -137q43 0 69 -1t39 -3t18 -4l10 -4q6 -6 6 -14q0 -18 -19 -29q-31 -16 -73 -21q-25 -2 -54.5 0.5t-93.5 4.5v-199h94 q78 0 144.5 13.5t120.5 41.5q115 66 114 203q0 43 -13 81t-42 68h57v224h-157v544q29 25 62.5 47.5t72.5 41.5q45 23 83 33t72 10q53 0 77 -25t24 -80v-637v-158h391z" />
<glyph unicode="&#xe040;" horiz-adv-x="1609" d="M1167 1886h-235l-207 -188l-203 188h-235l348 -428h180zM1495 1233v223h-408v-158v-921l-282 430l-203 308l-217 341h-430v-223h186v-1141v-158h424v224h-196v886l737 -1128h209v1317h180z" />
<glyph unicode="&#xe041;" horiz-adv-x="1206" d="M985 1511h-235l-207 -188l-203 188h-236l349 -428h180zM1147 -66v224h-154v583q0 143 -90 232q-47 47 -105.5 67.5t-127.5 20.5q-84 0 -160 -25.5t-145 -66.5v65h-414v-223h176v-719v-158h395v224h-157v544q29 25 62.5 47.5t72.5 41.5q45 23 83 33t72 10q53 0 77 -25 t24 -80v-637v-158h391z" />
<glyph unicode="&#xe042;" horiz-adv-x="1775" d="M1194 1579v190h-788v-190h788zM1569 696q0 336 -217 559.5t-549 223.5t-549 -223.5t-217 -559.5t217 -559t549 -223t549 223t217 559zM1323 696q0 -242 -147 -397q-145 -154 -373 -154q-225 0 -373 156q-147 154 -147 395q0 242 147 396q147 156 373 155q227 0 373 -153 q147 -158 147 -398z" />
<glyph unicode="&#xe043;" d="M961 1163v191h-789v-191h789zM1116 483q0 242 -155.5 410t-393.5 168t-393.5 -168t-155.5 -410t156 -409.5t393 -167.5q238 0 393.5 167.5t155.5 409.5zM877 483q0 -156 -89 -254q-86 -96 -221 -96t-221 96q-88 98 -88 254t88 254q86 96 221 97q135 0 221 -97 q89 -98 89 -254z" />
<glyph unicode="&#xe044;" horiz-adv-x="1775" d="M1376 1958h-286l-289 -449h229zM1077 1958h-282l-289 -449h229zM1569 696q0 336 -217 559.5t-549 223.5t-549 -223.5t-217 -559.5t217 -559t549 -223t549 223t217 559zM1323 696q0 -242 -147 -397q-145 -154 -373 -154q-225 0 -373 156q-147 154 -147 395q0 242 147 396 q147 156 373 155q227 0 373 -153q147 -158 147 -398z" />
<glyph unicode="&#xe045;" d="M1155 1526h-285l-288 -449h229zM842 1522l-267 4l-307 -432h232zM1116 483q0 242 -155.5 410t-393.5 168t-393.5 -168t-155.5 -410t156 -409.5t393 -167.5q238 0 393.5 167.5t155.5 409.5zM877 483q0 -156 -89 -254q-86 -96 -221 -96t-221 96q-88 98 -88 254t88 254 q86 96 221 97q135 0 221 -97q89 -98 89 -254z" />
<glyph unicode="&#xe046;" horiz-adv-x="1302" d="M870 1937h-284l-291 -448h231zM1270 -66v224h-201l-229 501q61 20 112.5 51t87.5 76q47 55 70 124t23 147q0 174 -129 289q-63 57 -142.5 83.5t-171.5 26.5h-749v-223h204v-1301h246v697h199l313 -695h367zM887 1047q0 -51 -15.5 -85t-44.5 -57q-31 -25 -79 -39t-119 -14 h-238v381h275q57 0 97 -14.5t68 -38.5q56 -47 56 -133z" />
<glyph unicode="&#xe047;" horiz-adv-x="901" d="M768 1524h-287l-288 -449h231zM850 827v230l-100 6q-74 2 -163 -15.5t-153 -50.5q-10 -4 -17 -10t-16 -12v59h-421v-223h184v-719v-158h436v224h-199v368q0 88 21.5 143.5t56.5 86.5q37 33 102.5 52t163.5 19h105z" />
<glyph unicode="&#xe048;" horiz-adv-x="1302" d="M1270 -66v224h-201l-229 501q61 20 112.5 51t87.5 76q47 55 70 124t23 147q0 174 -129 289q-63 57 -142.5 83.5t-171.5 26.5h-749v-223h204v-1301h13l-27 -139q84 0 106.5 -5t26.5 -7q6 -4 6 -14q0 -18 -16 -29q-35 -18 -76 -19q-23 -2 -53.5 -1t-93.5 6v-201h94 q80 0 146.5 13t117.5 44q115 66 115 201q0 96 -60 158q-12 12 -25 21t-28 17v652h199l313 -695h367zM887 1047q0 -51 -15.5 -85t-44.5 -57q-31 -25 -79 -39t-119 -14h-238v381h275q57 0 97 -14.5t68 -38.5q56 -47 56 -133z" />
<glyph unicode="&#xe049;" horiz-adv-x="901" d="M850 827v230l-100 6q-74 2 -163 -15.5t-153 -50.5q-10 -4 -17 -10t-16 -12v59h-421v-223h184v-719v-158h16l-26 -137q43 0 68.5 -1t38.5 -3t18.5 -4t9.5 -4q6 -6 6 -14q0 -18 -19 -29q-31 -16 -73 -21q-25 -2 -54.5 0.5t-93.5 4.5v-199h95q78 0 144 13.5t120 41.5 q115 68 114 203q0 90 -53 149h125v224h-199v368q0 88 21.5 143.5t56.5 86.5q37 33 102.5 52t163.5 19h105z" />
<glyph unicode="&#xe04a;" horiz-adv-x="1302" d="M1008 1927h-236l-207 -188l-203 188h-235l348 -428h180zM1270 -66v224h-201l-229 501q61 20 112.5 51t87.5 76q47 55 70 124t23 147q0 174 -129 289q-63 57 -142.5 83.5t-171.5 26.5h-749v-223h204v-1301h246v697h199l313 -695h367zM887 1047q0 -51 -15.5 -85t-44.5 -57 q-31 -25 -79 -39t-119 -14h-238v381h275q57 0 97 -14.5t68 -38.5q56 -47 56 -133z" />
<glyph unicode="&#xe04b;" horiz-adv-x="901" d="M905 1491h-235l-207 -188l-203 188h-235l348 -428h180zM850 827v230l-100 6q-74 2 -163 -15.5t-153 -50.5q-10 -4 -17 -10t-16 -12v59h-421v-223h184v-719v-158h436v224h-199v368q0 88 21.5 143.5t56.5 86.5q37 33 102.5 52t163.5 19h105z" />
<glyph unicode="&#xe04c;" horiz-adv-x="1232" d="M864 1958h-284l-291 -449h231zM1085 365q0 195 -122 309q-59 57 -165 101t-247 79q-150 37 -225 90q-61 39 -62 125q0 72 60 123q63 55 168 55q76 0 128 -9t93 -40q18 -14 30.5 -34.5t19.5 -43t11 -44t4 -34.5v-92h242l-1 31q-1 31 -6 74t-12.5 87t-19.5 70 q-16 35 -32.5 57.5t-43.5 51.5q-43 47 -85 71.5t-93 47.5q-57 25 -115.5 32t-113.5 7q-193 0 -330 -113q-141 -119 -141 -293q0 -184 120 -297q59 -53 146.5 -91t200.5 -67q111 -27 179 -54t105 -54q61 -49 62 -133q0 -98 -72 -164q-74 -68 -193 -68q-137 0 -233 88 q-94 86 -94 195v115h-225v-609h225v84q39 -27 76 -45q123 -59 249 -59q213 0 361 127q151 129 151 324z" />
<glyph unicode="&#xe04d;" horiz-adv-x="1017" d="M764 1542h-285l-291 -448h232zM903 260q0 68 -20.5 126t-65.5 103.5t-127 74t-190 48.5q-78 12 -121 26.5t-62 25.5q-10 8 -17 21t-7 42q0 45 35 80q16 16 42.5 25.5t67.5 9.5q47 0 81 -13.5t63 -37.5q27 -23 41 -63t18 -130h219v408h-213q-47 29 -100 42t-111 13 q-152 0 -258 -88q-113 -94 -112 -250q0 -74 24.5 -135.5t81.5 -102.5q47 -35 117.5 -59.5t161.5 -40.5q82 -14 129 -28.5t67 -30.5q14 -10 22.5 -26.5t8.5 -49.5q0 -25 -11.5 -46.5t-39.5 -43.5q-59 -43 -146 -43q-115 0 -178 59q-29 27 -46 73t-19 152h-226v-467h226v31 q20 -14 41 -22q86 -39 192 -39q92 0 170 22.5t137 69.5q125 100 125 264z" />
<glyph unicode="&#xe04e;" horiz-adv-x="1302" d="M1206 1051v405h-1237v-569h226v346h270v-1075h-191v-224h203l-22 -122q84 0 106.5 -5.5t26.5 -7.5q6 -4 6 -14q0 -20 -16 -29q-16 -10 -35 -14t-41.5 -6t-53 -1t-94.5 5v-199h95q80 0 146.5 13.5t117.5 42.5q115 66 114 202q0 94 -59 156q-25 25 -57 41v1237h270v-182 h225z" />
<glyph unicode="&#xe04f;" horiz-adv-x="591" d="M575 -242q0 45 -14 85t-47 71q-4 6 -10 11t-10 9l59 11v198l-186 -4h-11q-6 8 -6 41v631h203v223h-203v221l-237 -6v-215h-172v-223h172v-651q0 -68 25.5 -130.5t94.5 -92.5l-32 -166q43 0 68.5 -1t39 -3.5t18.5 -4.5t9 -4q6 -6 6 -14q0 -18 -18 -29q-31 -16 -74 -20 q-25 -2 -54.5 0t-93.5 4v-199h95q78 0 144.5 13.5t119.5 42.5q114 67 114 202z" />
<glyph unicode="&#xe050;" horiz-adv-x="1302" d="M1008 1927h-236l-207 -188l-203 188h-235l348 -428h180zM1206 1051v405h-1237v-569h226v346h270v-1075h-191v-224h437v1299h270v-182h225z" />
<glyph unicode="&#xe051;" horiz-adv-x="819" d="M840 1171v285h-246v-321h49q-4 -47 -8 -58q0 -2 -2 -11t-8.5 -19.5t-17.5 -18.5t-32 -8v-148q98 6 145.5 29t76.5 68q23 41 33 92t10 110zM553 -55v225l-186 -31h-11q-6 8 -6 41v631h203v223h-203v221l-237 -6v-215h-172v-223h172v-651q0 -53 13 -99.5t48 -80.5 q35 -37 81 -52.5t103 -15.5z" />
<glyph unicode="&#xe052;" horiz-adv-x="1468" d="M1057 1579v190h-789v-190h789zM1380 1233v223h-424v-158v-899q0 -72 -18 -116.5t-51 -73.5q-35 -29 -89.5 -46.5t-138.5 -17.5q-78 0 -133 17.5t-90 50.5q-35 29 -53 75t-18 115v830h176v223h-600v-223h178v-817q0 -117 34.5 -211t110.5 -162q74 -68 174.5 -98.5 t223.5 -30.5t223 31.5t174 97.5q74 70 108.5 163t34.5 210v817h178z" />
<glyph unicode="&#xe053;" horiz-adv-x="1232" d="M950 1163v191h-788v-191h788zM1159 -66v224h-168v876h-237v-157v-594q-53 -51 -133 -93q-86 -43 -158 -43q-94 0 -94 99v788h-408v-223h170v-584q0 -66 20.5 -123t65.5 -100q45 -45 102.5 -64.5t124.5 -19.5q123 0 234 49q20 10 39 21l37 20v-76h405z" />
<glyph unicode="&#xe054;" horiz-adv-x="1468" d="M977 1669q0 106 -74 180t-180 74q-109 0 -178 -76q-74 -74 -74 -178t74 -178q70 -76 178 -76q106 0 180 74t74 180zM784 1669q0 -29 -18 -43q-16 -18 -43 -18q-23 0 -43 16q-16 20 -16 45t16 45q20 16 43 17q27 0 43 -19q18 -16 18 -43zM1380 1233v223h-424v-158v-899 q0 -72 -18 -116.5t-51 -73.5q-35 -29 -89.5 -46.5t-138.5 -17.5q-78 0 -133 17.5t-90 50.5q-35 29 -53 75t-18 115v830h176v223h-600v-223h178v-817q0 -117 34.5 -211t110.5 -162q74 -68 174.5 -98.5t223.5 -30.5t223 31.5t174 97.5q74 70 108.5 163t34.5 210v817h178z" />
<glyph unicode="&#xe055;" horiz-adv-x="1232" d="M809 1253q0 106 -73.5 180t-180.5 74q-109 0 -178 -75q-74 -74 -74 -179q0 -104 74 -178q70 -76 178 -76q106 0 180 74t74 180zM616 1253q0 -29 -18 -43q-16 -18 -43 -18q-23 0 -43 16q-16 20 -16 45t16 45q20 16 43 17q27 0 43 -19q18 -16 18 -43zM1159 -66v224h-168 v876h-237v-157v-594q-53 -51 -133 -93q-86 -43 -158 -43q-94 0 -94 99v788h-408v-223h170v-584q0 -66 20.5 -123t65.5 -100q45 -45 102.5 -64.5t124.5 -19.5q123 0 234 49q20 10 39 21l37 20v-76h405z" />
<glyph unicode="&#xe056;" horiz-adv-x="1468" d="M1239 1937h-287l-288 -448h229zM920 1937h-283l-272 -448h231zM1380 1233v223h-424v-158v-899q0 -72 -18 -116.5t-51 -73.5q-35 -29 -89.5 -46.5t-138.5 -17.5q-78 0 -133 17.5t-90 50.5q-35 29 -53 75t-18 115v830h176v223h-600v-223h178v-817q0 -117 34.5 -211 t110.5 -162q74 -68 174.5 -98.5t223.5 -30.5t223 31.5t174 97.5q74 70 108.5 163t34.5 210v817h178z" />
<glyph unicode="&#xe057;" horiz-adv-x="1468" d="M1380 1233v223h-424v-158v-899q0 -72 -18 -116.5t-51 -73.5q-35 -29 -89.5 -46.5t-138.5 -17.5q-78 0 -133 17.5t-90 50.5q-35 29 -53 75t-18 115v830h176v223h-600v-223h178v-817q0 -117 34.5 -211t110.5 -162q94 -84 234 -113q-20 -47 -21 -94q0 -119 92 -192 q84 -66 199 -66q53 0 94 15.5t101 50.5v217q-43 -16 -71 -25.5t-43 -15.5t-22.5 -8t-13.5 -2q-10 -2 -21.5 -3.5t-25.5 -1.5q-27 0 -47 17q-4 4 -8 10t-4 23q0 16 6 31.5t16 29.5q100 8 183 39t147 88q74 70 108.5 163t34.5 210v817h178z" />
<glyph unicode="&#xe058;" horiz-adv-x="1232" d="M1239 -356v217l-70.5 -25.5t-43 -15.5t-22.5 -8t-13 -2q-10 -2 -21.5 -3.5t-26.5 -1.5q-27 0 -47 17q-4 4 -8 10t-4 23q0 25 14 47q14 25 23 32h139v224h-168v876h-237v-157v-594q-53 -51 -133 -93q-86 -43 -158 -43q-94 0 -94 99v788h-408v-223h170v-584 q0 -66 20.5 -123t65.5 -100q45 -45 102.5 -64.5t124.5 -19.5q123 0 234 49q20 10 39 21l37 20v-76h22q-23 -49 -22 -98q0 -119 92 -192q84 -66 198 -66q53 0 94.5 15.5t100.5 50.5z" />
<glyph unicode="&#xe059;" d="M870 1937h-284l-291 -448h231zM1133 -66v490h-226v-266h-588l793 1122v176h-1077v-223h158h587l-790 -1120v-179h1143z" />
<glyph unicode="&#xe05a;" horiz-adv-x="1089" d="M795 1522h-285l-291 -449h232zM958 854v180h-882v-223h149h406l-604 -694v-183h929v486h-217v-262h-387z" />
<glyph unicode="&#xe05b;" d="M698 1538v262h-262v-262h262zM1133 -66v490h-226v-266h-588l793 1122v176h-1077v-223h158h587l-790 -1120v-179h1143z" />
<glyph unicode="&#xe05c;" horiz-adv-x="1089" d="M623 1122v262h-263v-262h263zM958 854v180h-882v-223h149h406l-604 -694v-183h929v486h-217v-262h-387z" />
</font>
</defs>
</svg>
